<svg width="18" height="18" viewBox="0 0 18 18" fill="none" xmlns="http://www.w3.org/2000/svg">
<path d="M11.9062 4.37012C11.9062 4.96685 12.1433 5.53915 12.5653 5.96111C12.9872 6.38306 13.5596 6.62012 14.1562 6.62012C14.7529 6.62012 15.3253 6.38306 15.7472 5.96111C16.1692 5.53915 16.4062 4.96685 16.4062 4.37012C16.4062 3.77338 16.1692 3.20108 15.7472 2.77913C15.3253 2.35717 14.7529 2.12012 14.1562 2.12012C13.5596 2.12012 12.9872 2.35717 12.5653 2.77913C12.1433 3.20108 11.9062 3.77338 11.9062 4.37012Z" fill="#FF0000" stroke="#FF0000" stroke-linecap="round" stroke-linejoin="round"/>
<path d="M6.84375 16.3125C6.93902 16.637 7.13682 16.9219 7.40756 17.1246C7.67827 17.3273 8.00745 17.4369 8.34562 17.4369C8.6838 17.4369 9.01297 17.3273 9.28365 17.1246C9.5544 16.9219 9.75225 16.637 9.8475 16.3125" stroke="black" stroke-linecap="round" stroke-linejoin="round"/>
<path d="M8.34375 2.25V0.5625" stroke="black" stroke-linecap="round" stroke-linejoin="round"/>
<path d="M13.986 8.97066C14.1278 13.2877 15.0938 14.0624 15.0938 14.0624H1.59375C1.59375 14.0624 2.71875 12.6254 2.71875 7.87491C2.71959 6.99365 2.92727 6.12493 3.32508 5.3386C3.72289 4.55228 4.29972 3.87031 5.00915 3.34757C5.71859 2.82484 6.54082 2.47592 7.4097 2.32891C8.27857 2.18189 9.1698 2.24088 10.0117 2.50113" stroke="black" stroke-linecap="round" stroke-linejoin="round"/>
</svg>
