<svg width="12" height="13" viewBox="0 0 12 13" fill="none" xmlns="http://www.w3.org/2000/svg">
<g clip-path="url(#clip0_1743_4951)">
<path d="M7.9375 3.44336C7.9375 3.84118 8.09555 4.22271 8.37685 4.50402C8.65815 4.78532 9.0397 4.94336 9.4375 4.94336C9.8353 4.94336 10.2168 4.78532 10.4981 4.50402C10.7794 4.22271 10.9375 3.84118 10.9375 3.44336C10.9375 3.04553 10.7794 2.664 10.4981 2.3827C10.2168 2.10139 9.8353 1.94336 9.4375 1.94336C9.0397 1.94336 8.65815 2.10139 8.37685 2.3827C8.09555 2.664 7.9375 3.04553 7.9375 3.44336Z" fill="#FF0000" stroke="#FF0000" stroke-linecap="round" stroke-linejoin="round"/>
<path d="M4.5625 11.4053C4.62601 11.6216 4.75788 11.8116 4.93837 11.9467C5.11885 12.0818 5.3383 12.1549 5.56375 12.1549C5.7892 12.1549 6.00865 12.0818 6.1891 11.9467C6.3696 11.8116 6.5015 11.6216 6.565 11.4053" stroke="white" stroke-linecap="round" stroke-linejoin="round"/>
<path d="M5.5625 2.03027V0.905273" stroke="white" stroke-linecap="round" stroke-linejoin="round"/>
<path d="M9.324 6.51071C9.4185 9.38871 10.0625 9.90521 10.0625 9.90521H1.0625C1.0625 9.90521 1.8125 8.94721 1.8125 5.78021C1.81306 5.19271 1.95152 4.61356 2.21672 4.08934C2.48193 3.56513 2.86648 3.11048 3.33944 2.76199C3.8124 2.4135 4.36055 2.18089 4.9398 2.08288C5.51905 1.98487 6.1132 2.02419 6.6745 2.19769" stroke="white" stroke-linecap="round" stroke-linejoin="round"/>
</g>
<defs>
<clipPath id="clip0_1743_4951">
<rect width="12" height="12" fill="white" transform="translate(0 0.530273)"/>
</clipPath>
</defs>
</svg>
