<svg width="281" height="32" viewBox="0 0 281 32" fill="none" xmlns="http://www.w3.org/2000/svg">
<path d="M6.03409 25H0.761364L8.79545 1.72727H15.1364L23.1591 25H17.8864L12.0568 7.04545H11.875L6.03409 25ZM5.70455 15.8523H18.1591V19.6932H5.70455V15.8523ZM25.8693 31.5455V7.54545H30.642V10.4773H30.858C31.0701 10.0076 31.3769 9.5303 31.7784 9.04545C32.1875 8.55303 32.7178 8.14394 33.3693 7.81818C34.0284 7.48485 34.8466 7.31818 35.8239 7.31818C37.0966 7.31818 38.2708 7.65152 39.3466 8.31818C40.4223 8.97727 41.2822 9.97348 41.9261 11.3068C42.5701 12.6326 42.892 14.2955 42.892 16.2955C42.892 18.2424 42.5777 19.8864 41.9489 21.2273C41.3277 22.5606 40.4792 23.572 39.4034 24.2614C38.3352 24.9432 37.1383 25.2841 35.8125 25.2841C34.8731 25.2841 34.0739 25.1288 33.4148 24.8182C32.7633 24.5076 32.2292 24.1174 31.8125 23.6477C31.3958 23.1705 31.0777 22.6894 30.858 22.2045H30.7102V31.5455H25.8693ZM30.608 16.2727C30.608 17.3106 30.7519 18.2159 31.0398 18.9886C31.3277 19.7614 31.7443 20.3636 32.2898 20.7955C32.8352 21.2197 33.4981 21.4318 34.2784 21.4318C35.0663 21.4318 35.733 21.2159 36.2784 20.7841C36.8239 20.3447 37.2367 19.7386 37.517 18.9659C37.8049 18.1856 37.9489 17.2879 37.9489 16.2727C37.9489 15.2652 37.8087 14.3788 37.5284 13.6136C37.2481 12.8485 36.8352 12.25 36.2898 11.8182C35.7443 11.3864 35.0739 11.1705 34.2784 11.1705C33.4905 11.1705 32.8239 11.3788 32.2784 11.7955C31.7405 12.2121 31.3277 12.803 31.0398 13.5682C30.7519 14.3333 30.608 15.2348 30.608 16.2727ZM54.0739 25.3409C52.2784 25.3409 50.733 24.9773 49.4375 24.25C48.1496 23.5152 47.1572 22.4773 46.4602 21.1364C45.7633 19.7879 45.4148 18.1932 45.4148 16.3523C45.4148 14.5568 45.7633 12.9811 46.4602 11.625C47.1572 10.2689 48.1383 9.21212 49.4034 8.45454C50.6761 7.69697 52.1686 7.31818 53.8807 7.31818C55.0322 7.31818 56.1042 7.50379 57.0966 7.875C58.0966 8.23864 58.9678 8.78788 59.7102 9.52273C60.4602 10.2576 61.0436 11.1818 61.4602 12.2955C61.8769 13.4015 62.0852 14.697 62.0852 16.1818V17.5114H47.3466V14.5114H57.5284C57.5284 13.8144 57.3769 13.197 57.0739 12.6591C56.7708 12.1212 56.3504 11.7008 55.8125 11.3977C55.2822 11.0871 54.6648 10.9318 53.9602 10.9318C53.2254 10.9318 52.5739 11.1023 52.0057 11.4432C51.4451 11.7765 51.0057 12.2273 50.6875 12.7955C50.3693 13.3561 50.2064 13.9811 50.1989 14.6705V17.5227C50.1989 18.3864 50.358 19.1326 50.6761 19.7614C51.0019 20.3902 51.4602 20.875 52.0511 21.2159C52.642 21.5568 53.3428 21.7273 54.1534 21.7273C54.6913 21.7273 55.1837 21.6515 55.6307 21.5C56.0777 21.3485 56.4602 21.1212 56.7784 20.8182C57.0966 20.5152 57.339 20.1439 57.5057 19.7045L61.983 20C61.7557 21.0758 61.2898 22.0152 60.5852 22.8182C59.8883 23.6136 58.9867 24.2348 57.8807 24.6818C56.7822 25.1212 55.5133 25.3409 54.0739 25.3409ZM68.9773 7.54545L72.1818 13.6477L75.4659 7.54545H80.4318L75.375 16.2727L80.5682 25H75.625L72.1818 18.9659L68.7955 25H63.7955L68.9773 16.2727L63.9773 7.54545H68.9773ZM83.3068 25V7.54545H88.1477V25H83.3068ZM85.7386 5.29545C85.0189 5.29545 84.4015 5.05682 83.8864 4.57954C83.3788 4.0947 83.125 3.51515 83.125 2.84091C83.125 2.17424 83.3788 1.60227 83.8864 1.125C84.4015 0.640151 85.0189 0.397726 85.7386 0.397726C86.4583 0.397726 87.072 0.640151 87.5795 1.125C88.0947 1.60227 88.3523 2.17424 88.3523 2.84091C88.3523 3.51515 88.0947 4.0947 87.5795 4.57954C87.072 5.05682 86.4583 5.29545 85.7386 5.29545ZM99.9119 25.3409C98.1468 25.3409 96.6203 24.9659 95.3324 24.2159C94.0521 23.4583 93.0634 22.4053 92.3665 21.0568C91.6695 19.7008 91.321 18.1288 91.321 16.3409C91.321 14.5379 91.6695 12.9621 92.3665 11.6136C93.0634 10.2576 94.0521 9.20454 95.3324 8.45454C96.6203 7.69697 98.1468 7.31818 99.9119 7.31818C101.677 7.31818 103.2 7.69697 104.48 8.45454C105.768 9.20454 106.76 10.2576 107.457 11.6136C108.154 12.9621 108.503 14.5379 108.503 16.3409C108.503 18.1288 108.154 19.7008 107.457 21.0568C106.76 22.4053 105.768 23.4583 104.48 24.2159C103.2 24.9659 101.677 25.3409 99.9119 25.3409ZM99.9347 21.5909C100.738 21.5909 101.408 21.3636 101.946 20.9091C102.484 20.447 102.889 19.8182 103.162 19.0227C103.442 18.2273 103.582 17.322 103.582 16.3068C103.582 15.2917 103.442 14.3864 103.162 13.5909C102.889 12.7955 102.484 12.1667 101.946 11.7045C101.408 11.2424 100.738 11.0114 99.9347 11.0114C99.1241 11.0114 98.4422 11.2424 97.8892 11.7045C97.3438 12.1667 96.9309 12.7955 96.6506 13.5909C96.3778 14.3864 96.2415 15.2917 96.2415 16.3068C96.2415 17.322 96.3778 18.2273 96.6506 19.0227C96.9309 19.8182 97.3438 20.447 97.8892 20.9091C98.4422 21.3636 99.1241 21.5909 99.9347 21.5909ZM116.491 14.9091V25H111.651V7.54545H116.264V10.625H116.469C116.855 9.60985 117.503 8.80682 118.412 8.21591C119.321 7.61742 120.423 7.31818 121.719 7.31818C122.931 7.31818 123.988 7.58333 124.889 8.11364C125.791 8.64394 126.491 9.40151 126.991 10.3864C127.491 11.3636 127.741 12.5303 127.741 13.8864V25H122.901V14.75C122.908 13.6818 122.635 12.8485 122.082 12.25C121.529 11.6439 120.768 11.3409 119.798 11.3409C119.147 11.3409 118.571 11.4811 118.071 11.7614C117.579 12.0417 117.192 12.4508 116.912 12.9886C116.639 13.5189 116.499 14.1591 116.491 14.9091ZM139.054 25V1.72727H148.372C150.084 1.72727 151.512 1.98106 152.656 2.48864C153.8 2.99621 154.66 3.70076 155.236 4.60227C155.812 5.49621 156.099 6.52652 156.099 7.69318C156.099 8.60227 155.918 9.40152 155.554 10.0909C155.19 10.7727 154.69 11.3333 154.054 11.7727C153.425 12.2045 152.705 12.5114 151.895 12.6932V12.9205C152.781 12.9583 153.611 13.2083 154.384 13.6705C155.164 14.1326 155.796 14.7803 156.281 15.6136C156.766 16.4394 157.009 17.4242 157.009 18.5682C157.009 19.803 156.702 20.9053 156.088 21.875C155.482 22.8371 154.584 23.5985 153.395 24.1591C152.205 24.7197 150.74 25 148.997 25H139.054ZM143.974 20.9773H147.986C149.357 20.9773 150.357 20.7159 150.986 20.1932C151.615 19.6629 151.929 18.9583 151.929 18.0795C151.929 17.4356 151.774 16.8674 151.463 16.375C151.152 15.8826 150.709 15.4962 150.134 15.2159C149.565 14.9356 148.887 14.7955 148.099 14.7955H143.974V20.9773ZM143.974 11.4659H147.622C148.296 11.4659 148.895 11.3485 149.418 11.1136C149.948 10.8712 150.365 10.5303 150.668 10.0909C150.978 9.65152 151.134 9.125 151.134 8.51136C151.134 7.67045 150.834 6.99242 150.236 6.47727C149.645 5.96212 148.804 5.70454 147.713 5.70454H143.974V11.4659ZM165.097 25.3295C163.983 25.3295 162.991 25.1364 162.119 24.75C161.248 24.3561 160.559 23.7765 160.051 23.0114C159.551 22.2386 159.301 21.2765 159.301 20.125C159.301 19.1553 159.479 18.3409 159.835 17.6818C160.191 17.0227 160.676 16.4924 161.29 16.0909C161.903 15.6894 162.6 15.3864 163.381 15.1818C164.169 14.9773 164.994 14.8333 165.858 14.75C166.873 14.6439 167.691 14.5455 168.312 14.4545C168.934 14.3561 169.384 14.2121 169.665 14.0227C169.945 13.8333 170.085 13.553 170.085 13.1818V13.1136C170.085 12.3939 169.858 11.8371 169.403 11.4432C168.956 11.0492 168.32 10.8523 167.494 10.8523C166.623 10.8523 165.93 11.0455 165.415 11.4318C164.9 11.8106 164.559 12.2879 164.392 12.8636L159.915 12.5C160.142 11.4394 160.589 10.5227 161.256 9.75C161.922 8.9697 162.782 8.37121 163.835 7.95454C164.896 7.5303 166.123 7.31818 167.517 7.31818C168.487 7.31818 169.415 7.43182 170.301 7.65909C171.195 7.88636 171.987 8.23864 172.676 8.71591C173.373 9.19318 173.922 9.80682 174.324 10.5568C174.725 11.2992 174.926 12.1894 174.926 13.2273V25H170.335V22.5795H170.199C169.919 23.125 169.544 23.6061 169.074 24.0227C168.604 24.4318 168.04 24.7538 167.381 24.9886C166.722 25.2159 165.96 25.3295 165.097 25.3295ZM166.483 21.9886C167.195 21.9886 167.824 21.8485 168.369 21.5682C168.915 21.2803 169.343 20.8939 169.653 20.4091C169.964 19.9242 170.119 19.375 170.119 18.7614V16.9091C169.968 17.0076 169.759 17.0985 169.494 17.1818C169.237 17.2576 168.945 17.3295 168.619 17.3977C168.294 17.4583 167.968 17.5152 167.642 17.5682C167.316 17.6136 167.021 17.6553 166.756 17.6932C166.188 17.7765 165.691 17.9091 165.267 18.0909C164.843 18.2727 164.513 18.5189 164.278 18.8295C164.044 19.1326 163.926 19.5114 163.926 19.9659C163.926 20.625 164.165 21.1288 164.642 21.4773C165.127 21.8182 165.741 21.9886 166.483 21.9886ZM183.523 14.9091V25H178.682V7.54545H183.295V10.625H183.5C183.886 9.60985 184.534 8.80682 185.443 8.21591C186.352 7.61742 187.455 7.31818 188.75 7.31818C189.962 7.31818 191.019 7.58333 191.92 8.11364C192.822 8.64394 193.523 9.40151 194.023 10.3864C194.523 11.3636 194.773 12.5303 194.773 13.8864V25H189.932V14.75C189.939 13.6818 189.667 12.8485 189.114 12.25C188.561 11.6439 187.799 11.3409 186.83 11.3409C186.178 11.3409 185.602 11.4811 185.102 11.7614C184.61 12.0417 184.223 12.4508 183.943 12.9886C183.67 13.5189 183.53 14.1591 183.523 14.9091ZM202.974 19.9773L202.986 14.1705H203.69L209.281 7.54545H214.838L207.327 16.3182H206.179L202.974 19.9773ZM198.588 25V1.72727H203.429V25H198.588ZM209.497 25L204.361 17.3977L207.588 13.9773L215.168 25H209.497ZM224.71 25V1.72727H229.631V20.9432H239.608V25H224.71ZM251.341 7.54545V11.1818H240.83V7.54545H251.341ZM243.216 3.36364H248.057V19.6364C248.057 20.0833 248.125 20.4318 248.261 20.6818C248.398 20.9242 248.587 21.0947 248.83 21.1932C249.08 21.2917 249.367 21.3409 249.693 21.3409C249.92 21.3409 250.148 21.322 250.375 21.2841C250.602 21.2386 250.777 21.2045 250.898 21.1818L251.659 24.7841C251.417 24.8598 251.076 24.947 250.636 25.0455C250.197 25.1515 249.663 25.2159 249.034 25.2386C247.867 25.2841 246.845 25.1288 245.966 24.7727C245.095 24.4167 244.417 23.8636 243.932 23.1136C243.447 22.3636 243.208 21.4167 243.216 20.2727V3.36364ZM260.739 25.2841C259.413 25.2841 258.212 24.9432 257.136 24.2614C256.068 23.572 255.22 22.5606 254.591 21.2273C253.97 19.8864 253.659 18.2424 253.659 16.2955C253.659 14.2955 253.981 12.6326 254.625 11.3068C255.269 9.97348 256.125 8.97727 257.193 8.31818C258.269 7.65152 259.447 7.31818 260.727 7.31818C261.705 7.31818 262.519 7.48485 263.17 7.81818C263.83 8.14394 264.36 8.55303 264.761 9.04545C265.17 9.5303 265.481 10.0076 265.693 10.4773H265.841V1.72727H270.67V25H265.898V22.2045H265.693C265.466 22.6894 265.144 23.1705 264.727 23.6477C264.318 24.1174 263.784 24.5076 263.125 24.8182C262.473 25.1288 261.678 25.2841 260.739 25.2841ZM262.273 21.4318C263.053 21.4318 263.712 21.2197 264.25 20.7955C264.795 20.3636 265.212 19.7614 265.5 18.9886C265.795 18.2159 265.943 17.3106 265.943 16.2727C265.943 15.2348 265.799 14.3333 265.511 13.5682C265.223 12.803 264.807 12.2121 264.261 11.7955C263.716 11.3788 263.053 11.1705 262.273 11.1705C261.477 11.1705 260.807 11.3864 260.261 11.8182C259.716 12.25 259.303 12.8485 259.023 13.6136C258.742 14.3788 258.602 15.2652 258.602 16.2727C258.602 17.2879 258.742 18.1856 259.023 18.9659C259.311 19.7386 259.723 20.3447 260.261 20.7841C260.807 21.2159 261.477 21.4318 262.273 21.4318ZM277.48 25.2955C276.73 25.2955 276.086 25.0303 275.548 24.5C275.018 23.9621 274.753 23.3182 274.753 22.5682C274.753 21.8258 275.018 21.1894 275.548 20.6591C276.086 20.1288 276.73 19.8636 277.48 19.8636C278.207 19.8636 278.844 20.1288 279.389 20.6591C279.935 21.1894 280.207 21.8258 280.207 22.5682C280.207 23.0682 280.079 23.5265 279.821 23.9432C279.571 24.3523 279.241 24.6818 278.832 24.9318C278.423 25.1742 277.973 25.2955 277.48 25.2955Z" fill="white"/>
</svg>
