<svg width="51" height="51" viewBox="0 0 51 51" fill="none" xmlns="http://www.w3.org/2000/svg">
<path d="M3.93945 25.5002C3.93945 28.3315 4.49713 31.1352 5.58063 33.751C6.66414 36.3668 8.25225 38.7436 10.2543 40.7456C12.2564 42.7477 14.6332 44.3358 17.249 45.4193C19.8648 46.5028 22.6684 47.0605 25.4997 47.0605C28.3311 47.0605 31.1347 46.5028 33.7505 45.4193C36.3663 44.3358 38.7431 42.7477 40.7451 40.7456C42.7472 38.7436 44.3353 36.3668 45.4188 33.751C46.5023 31.1352 47.06 28.3315 47.06 25.5002C47.06 19.7821 44.7885 14.2981 40.7451 10.2548C36.7018 6.21146 31.2179 3.93994 25.4997 3.93994C19.7816 3.93994 14.2976 6.21146 10.2543 10.2548C6.21098 14.2981 3.93945 19.7821 3.93945 25.5002Z" stroke="black" stroke-width="1.71" stroke-linecap="round" stroke-linejoin="round"/>
<path d="M20.4141 15.7914C20.4141 17.1321 20.9466 18.4178 21.8947 19.3658C22.8427 20.3139 24.1284 20.8464 25.4691 20.8464C26.8098 20.8464 28.0956 20.3139 29.0436 19.3658C29.9916 18.4178 30.5242 17.1321 30.5242 15.7914C30.5242 14.4507 29.9916 13.1649 29.0436 12.2169C28.0956 11.2689 26.8098 10.7363 25.4691 10.7363C24.1284 10.7363 22.8427 11.2689 21.8947 12.2169C20.9466 13.1649 20.4141 14.4507 20.4141 15.7914Z" stroke="black" stroke-width="1.71" stroke-linecap="round" stroke-linejoin="round"/>
<path d="M29.8152 31.6357L28.7364 40.2664H22.2622L21.1833 31.6357H19.0261C18.4303 31.6357 17.9473 31.1527 17.9473 30.5569V28.3991C17.9473 24.2283 21.3281 20.8472 25.499 20.8472C29.6698 20.8472 33.0512 24.2283 33.0512 28.3991V30.5569C33.0512 31.1527 32.5682 31.6357 31.9724 31.6357H29.8152Z" stroke="black" stroke-width="1.71" stroke-linecap="round" stroke-linejoin="round"/>
</svg>
