<svg width="51" height="51" viewBox="0 0 51 51" fill="none" xmlns="http://www.w3.org/2000/svg">
<path d="M30.821 22.9158C30.821 22.9158 26.4675 20.981 24.0488 23.3995C20.8429 26.6054 25.5 35.009 19.6953 36.9439C19.6953 36.9439 26.1449 37.2663 31.3047 36.9439" stroke="black" stroke-width="1.71" stroke-linecap="round" stroke-linejoin="round"/>
<path d="M29.3698 30.1719H19.6953" stroke="black" stroke-width="1.71" stroke-linecap="round" stroke-linejoin="round"/>
<path d="M25.4994 47.0605C37.1088 47.0605 45.4012 42.9537 45.4012 33.813C45.4012 23.8774 40.4258 17.2536 30.4749 12.2859L34.3889 7.2518C34.5878 6.92153 34.6956 6.54462 34.7015 6.15929C34.7075 5.77396 34.6113 5.39393 34.4227 5.05769C34.2341 4.72145 33.9599 4.44097 33.6277 4.24468C33.2956 4.04838 32.9174 3.94325 32.5314 3.93994H18.4675C18.0815 3.94325 17.7033 4.04838 17.3712 4.24468C17.039 4.44097 16.7648 4.72145 16.5762 5.05769C16.3876 5.39393 16.2914 5.77396 16.2974 6.15929C16.3033 6.54462 16.4111 6.92153 16.61 7.2518L20.524 12.319C10.5731 17.3199 5.59766 23.9436 5.59766 33.8792C5.59766 42.9537 13.8901 47.0605 25.4994 47.0605Z" stroke="black" stroke-width="1.71" stroke-linecap="round" stroke-linejoin="round"/>
</svg>
