<svg width="226" height="40" viewBox="0 0 226 40" fill="none" xmlns="http://www.w3.org/2000/svg">
<path d="M13.7727 31.5H10.8182L19.3636 8.22727H22.2727L30.8182 31.5H27.8636L20.9091 11.9091H20.7273L13.7727 31.5ZM14.8636 22.4091H26.7727V24.9091H14.8636V22.4091ZM34.0795 38.0455V14.0455H36.6705V16.8182H36.9886C37.1856 16.5152 37.4583 16.1288 37.8068 15.6591C38.1629 15.1818 38.6705 14.7576 39.3295 14.3864C39.9962 14.0076 40.8977 13.8182 42.0341 13.8182C43.5038 13.8182 44.7992 14.1856 45.9205 14.9205C47.0417 15.6553 47.9167 16.697 48.5455 18.0455C49.1742 19.3939 49.4886 20.9848 49.4886 22.8182C49.4886 24.6667 49.1742 26.2689 48.5455 27.625C47.9167 28.9735 47.0455 30.0189 45.9318 30.7614C44.8182 31.4962 43.5341 31.8636 42.0795 31.8636C40.9583 31.8636 40.0606 31.678 39.3864 31.3068C38.7121 30.928 38.1932 30.5 37.8295 30.0227C37.4659 29.5379 37.1856 29.1364 36.9886 28.8182H36.7614V38.0455H34.0795ZM36.7159 22.7727C36.7159 24.0909 36.9091 25.2538 37.2955 26.2614C37.6818 27.2614 38.2462 28.0455 38.9886 28.6136C39.7311 29.1742 40.6402 29.4545 41.7159 29.4545C42.8371 29.4545 43.7727 29.1591 44.5227 28.5682C45.2803 27.9697 45.8485 27.1667 46.2273 26.1591C46.6136 25.1439 46.8068 24.0152 46.8068 22.7727C46.8068 21.5455 46.6174 20.4394 46.2386 19.4545C45.8674 18.4621 45.303 17.678 44.5455 17.1023C43.7955 16.5189 42.8523 16.2273 41.7159 16.2273C40.625 16.2273 39.7083 16.5038 38.9659 17.0568C38.2235 17.6023 37.6629 18.3674 37.2841 19.3523C36.9053 20.3295 36.7159 21.4697 36.7159 22.7727ZM60.8977 31.8636C59.2159 31.8636 57.7652 31.4924 56.5455 30.75C55.3333 30 54.3977 28.9545 53.7386 27.6136C53.0871 26.2652 52.7614 24.697 52.7614 22.9091C52.7614 21.1212 53.0871 19.5455 53.7386 18.1818C54.3977 16.8106 55.3144 15.7424 56.4886 14.9773C57.6705 14.2045 59.0492 13.8182 60.625 13.8182C61.5341 13.8182 62.4318 13.9697 63.3182 14.2727C64.2045 14.5758 65.0114 15.0682 65.7386 15.75C66.4659 16.4242 67.0455 17.3182 67.4773 18.4318C67.9091 19.5455 68.125 20.9167 68.125 22.5455V23.6818H54.6705V21.3636H65.3977C65.3977 20.3788 65.2008 19.5 64.8068 18.7273C64.4205 17.9545 63.8674 17.3447 63.1477 16.8977C62.4356 16.4508 61.5947 16.2273 60.625 16.2273C59.5568 16.2273 58.6326 16.4924 57.8523 17.0227C57.0795 17.5455 56.4848 18.2273 56.0682 19.0682C55.6515 19.9091 55.4432 20.8106 55.4432 21.7727V23.3182C55.4432 24.6364 55.6705 25.7538 56.125 26.6705C56.5871 27.5795 57.2273 28.2727 58.0455 28.75C58.8636 29.2197 59.8144 29.4545 60.8977 29.4545C61.6023 29.4545 62.2386 29.3561 62.8068 29.1591C63.3826 28.9545 63.8788 28.6515 64.2955 28.25C64.7121 27.8409 65.0341 27.3333 65.2614 26.7273L67.8523 27.4545C67.5795 28.3333 67.1212 29.1061 66.4773 29.7727C65.8333 30.4318 65.0379 30.947 64.0909 31.3182C63.1439 31.6818 62.0795 31.8636 60.8977 31.8636ZM73.7358 14.0455L77.9176 21.1818L82.0994 14.0455H85.1903L79.554 22.7727L85.1903 31.5H82.0994L77.9176 24.7273L73.7358 31.5H70.6449L76.1903 22.7727L70.6449 14.0455H73.7358ZM89.017 31.5V14.0455H91.6989V31.5H89.017ZM90.3807 11.1364C89.858 11.1364 89.4072 10.9583 89.0284 10.6023C88.6572 10.2462 88.4716 9.81818 88.4716 9.31818C88.4716 8.81818 88.6572 8.39015 89.0284 8.03409C89.4072 7.67803 89.858 7.5 90.3807 7.5C90.9034 7.5 91.3504 7.67803 91.7216 8.03409C92.1004 8.39015 92.2898 8.81818 92.2898 9.31818C92.2898 9.81818 92.1004 10.2462 91.7216 10.6023C91.3504 10.9583 90.9034 11.1364 90.3807 11.1364ZM103.702 31.8636C102.126 31.8636 100.743 31.4886 99.554 30.7386C98.3722 29.9886 97.4479 28.9394 96.7812 27.5909C96.1222 26.2424 95.7926 24.6667 95.7926 22.8636C95.7926 21.0455 96.1222 19.4583 96.7812 18.1023C97.4479 16.7462 98.3722 15.6932 99.554 14.9432C100.743 14.1932 102.126 13.8182 103.702 13.8182C105.277 13.8182 106.656 14.1932 107.838 14.9432C109.027 15.6932 109.952 16.7462 110.611 18.1023C111.277 19.4583 111.611 21.0455 111.611 22.8636C111.611 24.6667 111.277 26.2424 110.611 27.5909C109.952 28.9394 109.027 29.9886 107.838 30.7386C106.656 31.4886 105.277 31.8636 103.702 31.8636ZM103.702 29.4545C104.899 29.4545 105.884 29.1477 106.656 28.5341C107.429 27.9205 108.001 27.1136 108.372 26.1136C108.743 25.1136 108.929 24.0303 108.929 22.8636C108.929 21.697 108.743 20.6098 108.372 19.6023C108.001 18.5947 107.429 17.7803 106.656 17.1591C105.884 16.5379 104.899 16.2273 103.702 16.2273C102.505 16.2273 101.52 16.5379 100.747 17.1591C99.9744 17.7803 99.4025 18.5947 99.0312 19.6023C98.66 20.6098 98.4744 21.697 98.4744 22.8636C98.4744 24.0303 98.66 25.1136 99.0312 26.1136C99.4025 27.1136 99.9744 27.9205 100.747 28.5341C101.52 29.1477 102.505 29.4545 103.702 29.4545ZM118.386 21V31.5H115.705V14.0455H118.295V16.7727H118.523C118.932 15.8864 119.553 15.1742 120.386 14.6364C121.22 14.0909 122.295 13.8182 123.614 13.8182C124.795 13.8182 125.83 14.0606 126.716 14.5455C127.602 15.0227 128.292 15.75 128.784 16.7273C129.277 17.697 129.523 18.9242 129.523 20.4091V31.5H126.841V20.5909C126.841 19.2197 126.485 18.1515 125.773 17.3864C125.061 16.6136 124.083 16.2273 122.841 16.2273C121.985 16.2273 121.22 16.4129 120.545 16.7841C119.879 17.1553 119.352 17.697 118.966 18.4091C118.58 19.1212 118.386 19.9848 118.386 21ZM143.787 31.5V8.22727H151.923C153.545 8.22727 154.882 8.50758 155.935 9.06818C156.988 9.62121 157.772 10.3674 158.287 11.3068C158.802 12.2386 159.06 13.2727 159.06 14.4091C159.06 15.4091 158.882 16.2348 158.526 16.8864C158.177 17.5379 157.715 18.053 157.139 18.4318C156.571 18.8106 155.954 19.0909 155.287 19.2727V19.5C155.999 19.5455 156.715 19.7955 157.435 20.25C158.154 20.7045 158.757 21.3561 159.241 22.2045C159.726 23.053 159.969 24.0909 159.969 25.3182C159.969 26.4848 159.704 27.5341 159.173 28.4659C158.643 29.3977 157.806 30.1364 156.662 30.6818C155.518 31.2273 154.029 31.5 152.196 31.5H143.787ZM146.605 29H152.196C154.037 29 155.344 28.6439 156.116 27.9318C156.897 27.2121 157.287 26.3409 157.287 25.3182C157.287 24.5303 157.086 23.803 156.685 23.1364C156.283 22.4621 155.711 21.9242 154.969 21.5227C154.226 21.1136 153.348 20.9091 152.332 20.9091H146.605V29ZM146.605 18.4545H151.832C152.681 18.4545 153.446 18.2879 154.128 17.9545C154.817 17.6212 155.363 17.1515 155.764 16.5455C156.173 15.9394 156.378 15.2273 156.378 14.4091C156.378 13.3864 156.022 12.5189 155.31 11.8068C154.598 11.0871 153.469 10.7273 151.923 10.7273H146.605V18.4545ZM169.372 31.9091C168.266 31.9091 167.262 31.7008 166.361 31.2841C165.459 30.8598 164.743 30.25 164.213 29.4545C163.683 28.6515 163.418 27.6818 163.418 26.5455C163.418 25.5455 163.615 24.7348 164.009 24.1136C164.402 23.4848 164.929 22.9924 165.588 22.6364C166.247 22.2803 166.974 22.0152 167.77 21.8409C168.573 21.6591 169.38 21.5152 170.19 21.4091C171.251 21.2727 172.111 21.1705 172.77 21.1023C173.437 21.0265 173.921 20.9015 174.224 20.7273C174.535 20.553 174.69 20.25 174.69 19.8182V19.7273C174.69 18.6061 174.384 17.7348 173.77 17.1136C173.164 16.4924 172.243 16.1818 171.009 16.1818C169.728 16.1818 168.724 16.4621 167.997 17.0227C167.27 17.5833 166.759 18.1818 166.463 18.8182L163.918 17.9091C164.372 16.8485 164.978 16.0227 165.736 15.4318C166.501 14.8333 167.334 14.4167 168.236 14.1818C169.145 13.9394 170.039 13.8182 170.918 13.8182C171.478 13.8182 172.122 13.8864 172.849 14.0227C173.584 14.1515 174.293 14.4205 174.974 14.8295C175.664 15.2386 176.236 15.8561 176.69 16.6818C177.145 17.5076 177.372 18.6136 177.372 20V31.5H174.69V29.1364H174.554C174.372 29.5152 174.069 29.9205 173.645 30.3523C173.221 30.7841 172.656 31.1515 171.952 31.4545C171.247 31.7576 170.387 31.9091 169.372 31.9091ZM169.781 29.5C170.842 29.5 171.736 29.2917 172.463 28.875C173.198 28.4583 173.751 27.9205 174.122 27.2614C174.501 26.6023 174.69 25.9091 174.69 25.1818V22.7273C174.577 22.8636 174.327 22.9886 173.94 23.1023C173.562 23.2083 173.122 23.303 172.622 23.3864C172.13 23.4621 171.649 23.5303 171.179 23.5909C170.717 23.6439 170.342 23.6894 170.054 23.7273C169.357 23.8182 168.705 23.9659 168.099 24.1705C167.501 24.3674 167.016 24.6667 166.645 25.0682C166.281 25.4621 166.099 26 166.099 26.6818C166.099 27.6136 166.444 28.3182 167.134 28.7955C167.83 29.2652 168.713 29.5 169.781 29.5ZM184.949 21V31.5H182.267V14.0455H184.858V16.7727H185.085C185.494 15.8864 186.116 15.1742 186.949 14.6364C187.782 14.0909 188.858 13.8182 190.176 13.8182C191.358 13.8182 192.392 14.0606 193.278 14.5455C194.165 15.0227 194.854 15.75 195.347 16.7273C195.839 17.697 196.085 18.9242 196.085 20.4091V31.5H193.403V20.5909C193.403 19.2197 193.047 18.1515 192.335 17.3864C191.623 16.6136 190.646 16.2273 189.403 16.2273C188.547 16.2273 187.782 16.4129 187.108 16.7841C186.441 17.1553 185.915 17.697 185.528 18.4091C185.142 19.1212 184.949 19.9848 184.949 21ZM203.486 25.1364L203.44 21.8182H203.986L211.622 14.0455H214.94L206.804 22.2727H206.577L203.486 25.1364ZM200.986 31.5V8.22727H203.668V31.5H200.986ZM212.077 31.5L205.259 22.8636L207.168 21L215.486 31.5H212.077Z" fill="#1C3F3A"/>
</svg>
