<svg width="22" height="22" viewBox="0 0 22 22" fill="none" xmlns="http://www.w3.org/2000/svg">
<path d="M20.409 8.61194H1.58987C0.698278 8.61194 0.316164 7.64074 1.01671 7.17901L10.4263 1.01742C10.6 0.915219 10.7979 0.861328 10.9994 0.861328C11.201 0.861328 11.3989 0.915219 11.5726 1.01742L20.9822 7.17901C21.6827 7.64074 21.3006 8.61194 20.409 8.61194Z" stroke="white" stroke-linecap="round" stroke-linejoin="round"/>
<path d="M20.5522 17.3687H1.44646C1.0068 17.3687 0.650391 17.7251 0.650391 18.1647V20.5529C0.650391 20.9925 1.0068 21.349 1.44646 21.349H20.5522C20.9918 21.349 21.3482 20.9925 21.3482 20.5529V18.1647C21.3482 17.7251 20.9918 17.3687 20.5522 17.3687Z" stroke="white" stroke-linecap="round" stroke-linejoin="round"/>
<path d="M3.03906 8.61182V17.3686" stroke="white" stroke-linecap="round" stroke-linejoin="round"/>
<path d="M8.3457 8.61182V17.3686" stroke="white" stroke-linecap="round" stroke-linejoin="round"/>
<path d="M13.6523 8.61182V17.3686" stroke="white" stroke-linecap="round" stroke-linejoin="round"/>
<path d="M18.9609 8.61182V17.3686" stroke="white" stroke-linecap="round" stroke-linejoin="round"/>
</svg>
