<svg width="52" height="52" viewBox="0 0 52 52" fill="none" xmlns="http://www.w3.org/2000/svg">
<g filter="url(#filter0_d_1136_1057)">
<rect x="6.5" y="2.5" width="39" height="39" rx="19.5" stroke="#D1D1D1" shape-rendering="crispEdges"/>
<path d="M33.8463 12H17.4872C16.6658 12 16 12.6993 16 13.5618V22.9328C16 23.7954 16.6658 24.4946 17.4872 24.4946H33.8463C34.6677 24.4946 35.3335 23.7954 35.3335 22.9328V13.5618C35.3335 12.6993 34.6677 12 33.8463 12Z" stroke="#3E8076" stroke-linecap="round" stroke-linejoin="round"/>
<path d="M25.6663 20.5898C26.8984 20.5898 27.8971 19.5409 27.8971 18.247C27.8971 16.9532 26.8984 15.9043 25.6663 15.9043C24.4343 15.9043 23.4355 16.9532 23.4355 18.247C23.4355 19.5409 24.4343 20.5898 25.6663 20.5898Z" stroke="#3E8076" stroke-linecap="round" stroke-linejoin="round"/>
<path d="M17.4883 28.3994H33.8474" stroke="#3E8076" stroke-linecap="round" stroke-linejoin="round"/>
<path d="M18.9746 32.3037H32.3593" stroke="#3E8076" stroke-linecap="round" stroke-linejoin="round"/>
<path d="M19.3835 18.6374C19.1782 18.6374 19.0117 18.4625 19.0117 18.2469C19.0117 18.0313 19.1782 17.8564 19.3835 17.8564" stroke="#3E8076" stroke-linecap="round" stroke-linejoin="round"/>
<path d="M19.3828 18.6374C19.5881 18.6374 19.7546 18.4625 19.7546 18.2469C19.7546 18.0313 19.5881 17.8564 19.3828 17.8564" stroke="#3E8076" stroke-linecap="round" stroke-linejoin="round"/>
<path d="M31.9499 18.6374C31.7445 18.6374 31.5781 18.4625 31.5781 18.2469C31.5781 18.0313 31.7445 17.8564 31.9499 17.8564" stroke="#3E8076" stroke-linecap="round" stroke-linejoin="round"/>
<path d="M31.9492 18.6374C32.1546 18.6374 32.321 18.4625 32.321 18.2469C32.321 18.0313 32.1546 17.8564 31.9492 17.8564" stroke="#3E8076" stroke-linecap="round" stroke-linejoin="round"/>
</g>
<defs>
<filter id="filter0_d_1136_1057" x="0" y="0" width="52" height="52" filterUnits="userSpaceOnUse" color-interpolation-filters="sRGB">
<feFlood flood-opacity="0" result="BackgroundImageFix"/>
<feColorMatrix in="SourceAlpha" type="matrix" values="0 0 0 0 0 0 0 0 0 0 0 0 0 0 0 0 0 0 127 0" result="hardAlpha"/>
<feOffset dy="4"/>
<feGaussianBlur stdDeviation="3"/>
<feComposite in2="hardAlpha" operator="out"/>
<feColorMatrix type="matrix" values="0 0 0 0 0 0 0 0 0 0 0 0 0 0 0 0 0 0 0.25 0"/>
<feBlend mode="normal" in2="BackgroundImageFix" result="effect1_dropShadow_1136_1057"/>
<feBlend mode="normal" in="SourceGraphic" in2="effect1_dropShadow_1136_1057" result="shape"/>
</filter>
</defs>
</svg>
