<svg width="51" height="51" viewBox="0 0 51 51" fill="none" xmlns="http://www.w3.org/2000/svg">
<path d="M43.743 13.8906H7.25642C5.42451 13.8906 3.93945 15.3757 3.93945 17.2076V43.7433C3.93945 45.5753 5.42451 47.0603 7.25642 47.0603H43.743C45.575 47.0603 47.06 45.5753 47.06 43.7433V17.2076C47.06 15.3757 45.575 13.8906 43.743 13.8906Z" stroke="black" stroke-width="1.71" stroke-linecap="round" stroke-linejoin="round"/>
<path d="M35.4506 13.8908V7.25691C35.4506 6.37718 35.1011 5.53351 34.4791 4.91146C33.857 4.28941 33.0134 3.93994 32.1337 3.93994H18.8658C17.9861 3.93994 17.1424 4.28941 16.5203 4.91146C15.8983 5.53351 15.5488 6.37718 15.5488 7.25691V13.8908" stroke="black" stroke-width="1.71" stroke-linecap="round" stroke-linejoin="round"/>
<path d="M29.7327 26.0531C29.5871 25.6411 29.3624 25.2665 29.0768 24.9475C28.4695 24.2689 27.5868 23.8418 26.6045 23.8418H24.037C22.4018 23.8418 21.0762 25.1674 21.0762 26.8027C21.0762 28.1941 22.045 29.3977 23.4043 29.6951L27.3133 30.5502C28.836 30.8833 29.9215 32.2328 29.9215 33.7915C29.9215 35.6233 28.4364 37.1097 26.6045 37.1097H24.3931C22.9489 37.1097 21.7203 36.1865 21.2649 34.8984" stroke="black" stroke-width="1.71" stroke-linecap="round" stroke-linejoin="round"/>
<path d="M25.5 23.8419V20.5249" stroke="black" stroke-width="1.71" stroke-linecap="round" stroke-linejoin="round"/>
<path d="M25.5 40.4263V37.1094" stroke="black" stroke-width="1.71" stroke-linecap="round" stroke-linejoin="round"/>
</svg>
