<svg width="50" height="50" viewBox="0 0 50 50" fill="none" xmlns="http://www.w3.org/2000/svg">
<path d="M46.6969 42.5296C47.4783 41.7482 47.9173 40.6884 47.9173 39.5833V16.6667C47.9173 15.5616 47.4783 14.5018 46.6969 13.7204C45.9155 12.939 44.8557 12.5 43.7506 12.5H35.4173L31.2507 6.25H18.7507L14.584 12.5H6.25065C5.14558 12.5 4.08577 12.939 3.30437 13.7204C2.52297 14.5018 2.08398 15.5616 2.08398 16.6667V39.5833C2.08398 40.6884 2.52297 41.7482 3.30437 42.5296C4.08577 43.311 5.14558 43.75 6.25065 43.75H43.7506C44.8557 43.75 45.9155 43.311 46.6969 42.5296Z" stroke="#1F2223" stroke-width="2" stroke-linecap="round" stroke-linejoin="round"/>
<path d="M24.9993 35.4167C29.6017 35.4167 33.3327 31.6857 33.3327 27.0833C33.3327 22.481 29.6017 18.75 24.9993 18.75C20.397 18.75 16.666 22.481 16.666 27.0833C16.666 31.6857 20.397 35.4167 24.9993 35.4167Z" stroke="#1F2223" stroke-width="2" stroke-linecap="round" stroke-linejoin="round"/>
</svg>
