<svg width="16" height="17" viewBox="0 0 16 17" fill="none" xmlns="http://www.w3.org/2000/svg">
<path d="M4.97017 14.6996C5.88499 15.1476 6.91354 15.3992 8.00085 15.3992C11.8113 15.3992 14.9001 12.3103 14.9001 8.49987C14.9001 4.6895 11.8113 1.60059 8.00085 1.60059C4.19048 1.60059 1.10156 4.6895 1.10156 8.49987C1.10156 9.91434 1.52722 11.2294 2.25742 12.3239M4.97017 14.6996L1.10156 15.3992L2.25742 12.3239M4.97017 14.6996L4.97578 14.6986M2.25742 12.3239L2.25852 12.321" stroke="black" stroke-linecap="round" stroke-linejoin="round"/>
<path d="M8 11.6838V7.96875" stroke="black" stroke-linecap="round" stroke-linejoin="round"/>
<path d="M8.00195 5.31543C8.1485 5.31543 8.26731 5.43424 8.26731 5.58079C8.26731 5.72734 8.1485 5.84614 8.00195 5.84614" stroke="black" stroke-linecap="round" stroke-linejoin="round"/>
<path d="M8.00169 5.31543C7.85513 5.31543 7.73633 5.43424 7.73633 5.58079C7.73633 5.72734 7.85513 5.84614 8.00169 5.84614" stroke="black" stroke-linecap="round" stroke-linejoin="round"/>
</svg>
