<svg width="76" height="75" viewBox="0 0 76 75" fill="none" xmlns="http://www.w3.org/2000/svg">
<path d="M18.0996 37.4998V24.4144C18.1385 21.8422 18.6845 19.303 19.7064 16.9422C20.7282 14.5815 22.2059 12.4456 24.0547 10.6569C25.9035 8.86818 28.0871 7.46185 30.4803 6.51849C32.8735 5.57514 35.4294 5.11328 38.0014 5.15939C40.5734 5.11328 43.1293 5.57514 45.5225 6.51849C47.9157 7.46185 50.0993 8.86818 51.9481 10.6569C53.7969 12.4456 55.2747 14.5815 56.2966 16.9422C57.3181 19.303 57.8644 21.8422 57.9032 24.4144V37.4998" stroke="white" stroke-width="2" stroke-linecap="round" stroke-linejoin="round"/>
<path d="M10.6356 30.0361H15.611C16.2708 30.0361 16.9036 30.2982 17.3701 30.7648C17.8367 31.2313 18.0988 31.8641 18.0988 32.5239V47.4502C18.0988 48.11 17.8367 48.7428 17.3701 49.2093C16.9036 49.6758 16.2708 49.9379 15.611 49.9379H10.6356C9.31602 49.9379 8.05051 49.4137 7.11743 48.4807C6.18435 47.5476 5.66016 46.2821 5.66016 44.9625V35.0116C5.66016 33.692 6.18435 32.4265 7.11743 31.4934C8.05051 30.5603 9.31602 30.0361 10.6356 30.0361Z" stroke="white" stroke-width="2" stroke-linecap="round" stroke-linejoin="round"/>
<path d="M65.3655 49.9379H60.3901C59.7303 49.9379 59.0974 49.6758 58.6307 49.2093C58.1645 48.7428 57.9023 48.11 57.9023 47.4502V32.5239C57.9023 31.8641 58.1645 31.2313 58.6307 30.7648C59.0974 30.2982 59.7303 30.0361 60.3901 30.0361H65.3655C66.685 30.0361 67.9508 30.5603 68.8837 31.4934C69.8166 32.4265 70.341 33.692 70.341 35.0116V44.9625C70.341 46.2821 69.8166 47.5476 68.8837 48.4807C67.9508 49.4137 66.685 49.9379 65.3655 49.9379Z" stroke="white" stroke-width="2" stroke-linecap="round" stroke-linejoin="round"/>
<path d="M47.9512 63.6212C50.5903 63.6212 53.1212 62.5729 54.9874 60.7066C56.8537 58.8403 57.9021 56.3093 57.9021 53.6703V42.4756" stroke="white" stroke-width="2" stroke-linecap="round" stroke-linejoin="round"/>
<path d="M47.9506 63.6207C47.9506 65.27 47.2953 66.8522 46.129 68.0185C44.9627 69.1847 43.3808 69.84 41.7313 69.84H34.2681C32.6187 69.84 31.0368 69.1847 29.8704 68.0185C28.7041 66.8522 28.0488 65.27 28.0488 63.6207C28.0488 61.9713 28.7041 60.3891 29.8704 59.2229C31.0368 58.0566 32.6187 57.4014 34.2681 57.4014H41.7313C43.3808 57.4014 44.9627 58.0566 46.129 59.2229C47.2953 60.3891 47.9506 61.9713 47.9506 63.6207Z" stroke="white" stroke-width="2" stroke-linecap="round" stroke-linejoin="round"/>
</svg>
