<svg width="20" height="20" viewBox="0 0 20 20" fill="none" xmlns="http://www.w3.org/2000/svg">
<path d="M4.69141 9.99994V6.5105C4.70177 5.82459 4.84737 5.14748 5.11988 4.51793C5.39237 3.8884 5.78643 3.31882 6.27944 2.84183C6.77244 2.36485 7.35473 1.98983 7.99293 1.73826C8.63111 1.4867 9.31268 1.36354 9.99855 1.37584C10.6844 1.36354 11.366 1.4867 12.0042 1.73826C12.6424 1.98983 13.2247 2.36485 13.7177 2.84183C14.2107 3.31882 14.6048 3.8884 14.8773 4.51793C15.1497 5.14748 15.2953 5.82459 15.3057 6.5105V9.99994" stroke="white" stroke-linecap="round" stroke-linejoin="round"/>
<path d="M2.70179 8.00977H4.02857C4.20452 8.00977 4.37326 8.07966 4.49766 8.20407C4.62207 8.32847 4.69196 8.49721 4.69196 8.67316V12.6535C4.69196 12.8295 4.62207 12.9982 4.49766 13.1226C4.37326 13.247 4.20452 13.3169 4.02857 13.3169H2.70179C2.3499 13.3169 2.01243 13.1771 1.76361 12.9283C1.51479 12.6795 1.375 12.342 1.375 11.9901V9.33655C1.375 8.98466 1.51479 8.64719 1.76361 8.39837C2.01243 8.14956 2.3499 8.00977 2.70179 8.00977Z" stroke="white" stroke-linecap="round" stroke-linejoin="round"/>
<path d="M17.2968 13.3169H15.97C15.7941 13.3169 15.6253 13.247 15.5009 13.1226C15.3766 12.9982 15.3066 12.8295 15.3066 12.6535V8.67316C15.3066 8.49721 15.3766 8.32847 15.5009 8.20407C15.6253 8.07966 15.7941 8.00977 15.97 8.00977H17.2968C17.6487 8.00977 17.9862 8.14956 18.235 8.39837C18.4838 8.64719 18.6236 8.98466 18.6236 9.33655V11.9901C18.6236 12.342 18.4838 12.6795 18.235 12.9283C17.9862 13.1771 17.6487 13.3169 17.2968 13.3169Z" stroke="white" stroke-linecap="round" stroke-linejoin="round"/>
<path d="M12.6523 16.9655C13.3561 16.9655 14.031 16.6859 14.5287 16.1883C15.0264 15.6906 15.3059 15.0157 15.3059 14.3119V11.3267" stroke="white" stroke-linecap="round" stroke-linejoin="round"/>
<path d="M12.6528 16.9656C12.6528 17.4054 12.4781 17.8274 12.1671 18.1384C11.8561 18.4494 11.4342 18.6241 10.9944 18.6241H9.00418C8.56433 18.6241 8.14249 18.4494 7.83147 18.1384C7.52044 17.8274 7.3457 17.4054 7.3457 16.9656C7.3457 16.5258 7.52044 16.1039 7.83147 15.7929C8.14249 15.4819 8.56433 15.3071 9.00418 15.3071H10.9944C11.4342 15.3071 11.8561 15.4819 12.1671 15.7929C12.4781 16.1039 12.6528 16.5258 12.6528 16.9656Z" stroke="white" stroke-linecap="round" stroke-linejoin="round"/>
</svg>
