<svg width="32" height="32" viewBox="0 0 32 32" fill="none" xmlns="http://www.w3.org/2000/svg">
<path d="M16 31C24.2844 31 31 24.2844 31 16C31 7.71573 24.2844 1 16 1C7.71573 1 1 7.71573 1 16C1 24.2844 7.71573 31 16 31Z" stroke="black" stroke-width="1.71" stroke-linecap="round" stroke-linejoin="round"/>
<path d="M19.9265 11.8979C19.7914 11.5158 19.583 11.1682 19.3181 10.8723C18.7547 10.2428 17.936 9.84668 17.0247 9.84668H14.6431C13.1262 9.84668 11.8965 11.0764 11.8965 12.5932C11.8965 13.8839 12.7952 15.0005 14.0561 15.2764L17.6822 16.0696C19.0948 16.3786 20.1016 17.6303 20.1016 19.0763C20.1016 20.7757 18.724 22.1544 17.0247 22.1544H14.9734C13.6337 22.1544 12.494 21.2981 12.0716 20.1031" stroke="black" stroke-width="1.71" stroke-linecap="round" stroke-linejoin="round"/>
<path d="M16 9.84547V6.76855" stroke="black" stroke-width="1.71" stroke-linecap="round" stroke-linejoin="round"/>
<path d="M16 25.2302V22.1533" stroke="black" stroke-width="1.71" stroke-linecap="round" stroke-linejoin="round"/>
</svg>
