<svg width="51" height="51" viewBox="0 0 51 51" fill="none" xmlns="http://www.w3.org/2000/svg">
<path d="M34.8079 16.3424C34.6595 15.9224 34.4304 15.5405 34.1394 15.2154C33.5203 14.5237 32.6206 14.0884 31.6193 14.0884H29.0023C27.3356 14.0884 25.9844 15.4396 25.9844 17.1063C25.9844 18.5246 26.9719 19.7515 28.3574 20.0546L32.3418 20.9262C33.8939 21.2657 35.0003 22.6412 35.0003 24.23C35.0003 26.0972 33.4866 27.6122 31.6193 27.6122H29.3654C27.8933 27.6122 26.6409 26.6714 26.1768 25.3582" stroke="black" stroke-width="1.71" stroke-linecap="round" stroke-linejoin="round"/>
<path d="M30.4922 14.0885V10.7075" stroke="black" stroke-width="1.71" stroke-linecap="round" stroke-linejoin="round"/>
<path d="M30.4922 30.9933V27.6123" stroke="black" stroke-width="1.71" stroke-linecap="round" stroke-linejoin="round"/>
<path d="M14.2676 20.8497C14.2676 22.9802 14.6872 25.0898 15.5025 27.0581C16.3178 29.0264 17.5128 30.8149 19.0193 32.3213C20.5257 33.8278 22.3142 35.0228 24.2825 35.8381C26.2508 36.6534 28.3604 37.073 30.4908 37.073C32.6213 37.073 34.7309 36.6534 36.6992 35.8381C38.6675 35.0228 40.456 33.8278 41.9624 32.3213C43.4689 30.8149 44.6639 29.0264 45.4792 27.0581C46.2945 25.0898 46.7141 22.9802 46.7141 20.8497C46.7141 16.5471 45.0049 12.4206 41.9624 9.37815C38.92 6.3357 34.7935 4.62646 30.4908 4.62646C26.1882 4.62646 22.0617 6.3357 19.0193 9.37815C15.9768 12.4206 14.2676 16.5471 14.2676 20.8497Z" stroke="black" stroke-width="1.71" stroke-linecap="round" stroke-linejoin="round"/>
<path d="M6.27103 22.627C5.02564 24.9232 4.31836 27.5538 4.31836 30.3497C4.31836 39.309 11.5812 46.5718 20.5404 46.5718C23.0794 46.5718 25.4822 45.9884 27.6221 44.9485" stroke="black" stroke-width="1.71" stroke-linecap="round" stroke-linejoin="round"/>
</svg>
