<svg width="68" height="67" viewBox="0 0 68 67" fill="none" xmlns="http://www.w3.org/2000/svg">
<path d="M51.4146 40.9633C51.4141 45.1363 50.3643 49.2422 48.3614 52.9027C46.3584 56.5636 43.4666 59.6618 39.9524 61.9122C36.4382 64.1621 32.4144 65.4925 28.2514 65.7796C24.0884 66.0672 19.9199 65.303 16.1297 63.5571C12.3396 61.8112 9.04944 59.1404 6.56216 55.7894C4.07493 52.439 2.4705 48.5163 1.89657 44.3832C1.32265 40.25 1.79767 36.0387 3.27791 32.1371C4.75817 28.2356 7.19604 24.7691 10.3672 22.0566" stroke="white" stroke-width="2" stroke-linecap="round" stroke-linejoin="round"/>
<path d="M25.4427 31.7588C24.9169 32.8444 24.6447 34.0354 24.6466 35.2416C24.64 36.2432 24.8324 37.236 25.2127 38.1626C25.5929 39.0892 26.1533 39.931 26.8615 40.6392C27.5697 41.3474 28.4116 41.9079 29.3381 42.2881C30.2647 42.6683 31.2576 42.8607 32.2591 42.854C33.2752 42.854 34.2496 43.2577 34.9681 43.9761C35.6865 44.6947 36.0902 45.6691 36.0902 46.6851V63.9498" stroke="white" stroke-width="2" stroke-linecap="round" stroke-linejoin="round"/>
<path d="M2.00781 44.7946H11.2124C12.2352 44.768 13.253 44.9466 14.2057 45.3197C15.1584 45.6928 16.0268 46.253 16.7595 46.9672C17.4922 47.6813 18.0744 48.5349 18.4719 49.4777C18.8694 50.4206 19.074 51.4336 19.0736 52.457V64.6469" stroke="white" stroke-width="2" stroke-linecap="round" stroke-linejoin="round"/>
<path d="M65.1473 8.47294L60.1718 6.78128C59.8225 6.66247 59.4434 6.66138 59.0931 6.7782C58.7424 6.89497 58.4399 7.12325 58.2314 7.42809L54.5993 13.0503L34.6977 3.09943C33.1248 2.17245 31.3665 1.60457 29.5484 1.43644C27.7305 1.2683 25.8978 1.50407 24.1815 2.12686C22.4653 2.74965 20.9079 3.74407 19.6208 5.03898C18.3337 6.33389 17.3488 7.89728 16.7364 9.61729C16.5676 10.0635 16.4951 10.5403 16.5236 11.0165C16.5521 11.4927 16.681 11.9575 16.9019 12.3804C17.1227 12.8033 17.4305 13.1746 17.805 13.4702C18.1795 13.7657 18.6122 13.9787 19.0748 14.0952L32.0608 18.2746L33.3544 18.7224L35.7923 27.0811C35.8706 27.3721 36.0212 27.6387 36.2299 27.8562C36.4386 28.0736 36.6988 28.2348 36.9864 28.325L42.8575 30.2156C43.1572 30.3133 43.477 30.3323 43.7862 30.2709C44.0954 30.2095 44.3836 30.0698 44.6234 29.865C44.863 29.6603 45.0461 29.3974 45.1551 29.1016C45.2641 28.8058 45.2953 28.487 45.2457 28.1757L43.9521 21.9564H44.7979L57.4851 26.086C58.317 26.3726 59.228 26.3191 60.0201 25.937C60.8122 25.5548 61.4212 24.8752 61.7142 24.0461L66.1921 10.2641C66.2414 9.89188 66.1657 9.5139 65.9767 9.18965C65.7871 8.86535 65.4956 8.61319 65.1473 8.47294Z" stroke="white" stroke-width="2" stroke-linecap="round" stroke-linejoin="round"/>
</svg>
