<svg width="848" height="114" viewBox="0 0 848 114" fill="none" xmlns="http://www.w3.org/2000/svg">
<g filter="url(#filter0_d_1138_2184)">
<rect x="8.5" y="4.5" width="239" height="97" rx="7.5" stroke="#D4D4D4" shape-rendering="crispEdges"/>
<path d="M18.5795 33.2102V32.2727H25.125V33.2102H22.3807V41H21.3239V33.2102H18.5795ZM28.3295 41.1364C27.7386 41.1364 27.2202 40.9957 26.7741 40.7145C26.331 40.4332 25.9844 40.0398 25.7344 39.5341C25.4872 39.0284 25.3636 38.4375 25.3636 37.7614C25.3636 37.0795 25.4872 36.4844 25.7344 35.9759C25.9844 35.4673 26.331 35.0724 26.7741 34.7912C27.2202 34.5099 27.7386 34.3693 28.3295 34.3693C28.9205 34.3693 29.4375 34.5099 29.8807 34.7912C30.3267 35.0724 30.6733 35.4673 30.9205 35.9759C31.1705 36.4844 31.2955 37.0795 31.2955 37.7614C31.2955 38.4375 31.1705 39.0284 30.9205 39.5341C30.6733 40.0398 30.3267 40.4332 29.8807 40.7145C29.4375 40.9957 28.9205 41.1364 28.3295 41.1364ZM28.3295 40.233C28.7784 40.233 29.1477 40.1179 29.4375 39.8878C29.7273 39.6577 29.9418 39.3551 30.081 38.9801C30.2202 38.6051 30.2898 38.1989 30.2898 37.7614C30.2898 37.3239 30.2202 36.9162 30.081 36.5384C29.9418 36.1605 29.7273 35.8551 29.4375 35.6222C29.1477 35.3892 28.7784 35.2727 28.3295 35.2727C27.8807 35.2727 27.5114 35.3892 27.2216 35.6222C26.9318 35.8551 26.7173 36.1605 26.5781 36.5384C26.4389 36.9162 26.3693 37.3239 26.3693 37.7614C26.3693 38.1989 26.4389 38.6051 26.5781 38.9801C26.7173 39.3551 26.9318 39.6577 27.2216 39.8878C27.5114 40.1179 27.8807 40.233 28.3295 40.233ZM35.3022 41.1364C34.7567 41.1364 34.2752 40.9986 33.8576 40.723C33.44 40.4446 33.1133 40.0526 32.8775 39.5469C32.6417 39.0384 32.5238 38.4375 32.5238 37.7443C32.5238 37.0568 32.6417 36.4602 32.8775 35.9545C33.1133 35.4489 33.4414 35.0582 33.8619 34.7827C34.2823 34.5071 34.7681 34.3693 35.3192 34.3693C35.7454 34.3693 36.082 34.4403 36.3292 34.5824C36.5792 34.7216 36.7695 34.8807 36.9002 35.0597C37.0337 35.2358 37.1374 35.3807 37.2113 35.4943H37.2965V32.2727H38.3022V41H37.3306V39.9943H37.2113C37.1374 40.1136 37.0323 40.2642 36.896 40.446C36.7596 40.625 36.565 40.7855 36.3121 40.9276C36.0593 41.0668 35.7227 41.1364 35.3022 41.1364ZM35.4386 40.233C35.842 40.233 36.1829 40.1278 36.4613 39.9176C36.7397 39.7045 36.9513 39.4105 37.0962 39.0355C37.2411 38.6577 37.3136 38.2216 37.3136 37.7273C37.3136 37.2386 37.2425 36.8111 37.1005 36.4446C36.9585 36.0753 36.7482 35.7884 36.4698 35.5838C36.1914 35.3764 35.8477 35.2727 35.4386 35.2727C35.0124 35.2727 34.6573 35.3821 34.3732 35.6009C34.092 35.8168 33.8803 36.1108 33.7383 36.483C33.5991 36.8523 33.5295 37.267 33.5295 37.7273C33.5295 38.1932 33.6005 38.6165 33.7425 38.9972C33.8874 39.375 34.1005 39.6761 34.3817 39.9006C34.6658 40.1222 35.0181 40.233 35.4386 40.233ZM42.2099 41.1534C41.7951 41.1534 41.4187 41.0753 41.0806 40.919C40.7425 40.7599 40.4741 40.5312 40.2752 40.233C40.0763 39.9318 39.9769 39.5682 39.9769 39.142C39.9769 38.767 40.0508 38.4631 40.1985 38.2301C40.3462 37.9943 40.5437 37.8097 40.7908 37.6761C41.038 37.5426 41.3107 37.4432 41.609 37.3778C41.9102 37.3097 42.2127 37.2557 42.5167 37.2159C42.9144 37.1648 43.2369 37.1264 43.484 37.1009C43.734 37.0724 43.9158 37.0256 44.0295 36.9602C44.146 36.8949 44.2042 36.7812 44.2042 36.6193V36.5852C44.2042 36.1648 44.0891 35.8381 43.859 35.6051C43.6317 35.3722 43.2866 35.2557 42.8235 35.2557C42.3434 35.2557 41.967 35.3608 41.6942 35.571C41.4215 35.7812 41.2298 36.0057 41.119 36.2443L40.1644 35.9034C40.3349 35.5057 40.5621 35.196 40.8462 34.9744C41.1332 34.75 41.4457 34.5937 41.7837 34.5057C42.1246 34.4148 42.4599 34.3693 42.7894 34.3693C42.9996 34.3693 43.2411 34.3949 43.5138 34.446C43.7894 34.4943 44.055 34.5952 44.3107 34.7486C44.5692 34.902 44.7837 35.1335 44.9542 35.4432C45.1246 35.7528 45.2099 36.1676 45.2099 36.6875V41H44.2042V40.1136H44.1531C44.0849 40.2557 43.9712 40.4077 43.8121 40.5696C43.6531 40.7315 43.4414 40.8693 43.1772 40.983C42.913 41.0966 42.5906 41.1534 42.2099 41.1534ZM42.3633 40.25C42.761 40.25 43.0962 40.1719 43.369 40.0156C43.6445 39.8594 43.8519 39.6577 43.9911 39.4105C44.1332 39.1634 44.2042 38.9034 44.2042 38.6307V37.7102C44.1616 37.7614 44.0678 37.8082 43.9229 37.8509C43.7809 37.8906 43.6161 37.9261 43.4286 37.9574C43.244 37.9858 43.0636 38.0114 42.8874 38.0341C42.7141 38.054 42.5735 38.071 42.4656 38.0852C42.2042 38.1193 41.9599 38.1747 41.7326 38.2514C41.5082 38.3253 41.3263 38.4375 41.1871 38.5881C41.0508 38.7358 40.9826 38.9375 40.9826 39.1932C40.9826 39.5426 41.1119 39.8068 41.3704 39.9858C41.6317 40.1619 41.9627 40.25 42.3633 40.25ZM47.4588 43.4545C47.2884 43.4545 47.1364 43.4403 47.0028 43.4119C46.8693 43.3864 46.777 43.3608 46.7259 43.3352L46.9815 42.4489C47.2259 42.5114 47.4418 42.5341 47.6293 42.517C47.8168 42.5 47.983 42.4162 48.1278 42.2656C48.2756 42.1179 48.4105 41.8778 48.5327 41.5455L48.7202 41.0341L46.2997 34.4545H47.3906L49.1974 39.6705H49.2656L51.0724 34.4545H52.1634L49.3849 41.9545C49.2599 42.2926 49.1051 42.5724 48.9205 42.794C48.7358 43.0185 48.5213 43.1847 48.277 43.2926C48.0355 43.4006 47.7628 43.4545 47.4588 43.4545ZM58.1271 35.9205L57.2237 36.1761C57.1669 36.0256 57.0831 35.8793 56.9723 35.7372C56.8643 35.5923 56.7166 35.473 56.5291 35.3793C56.3416 35.2855 56.1016 35.2386 55.8089 35.2386C55.4084 35.2386 55.0746 35.331 54.8075 35.5156C54.5433 35.6974 54.4112 35.929 54.4112 36.2102C54.4112 36.4602 54.5021 36.6577 54.6839 36.8026C54.8658 36.9474 55.1499 37.0682 55.5362 37.1648L56.5078 37.4034C57.093 37.5455 57.5291 37.7628 57.8161 38.0554C58.103 38.3452 58.2464 38.7187 58.2464 39.1761C58.2464 39.5511 58.1385 39.8864 57.9226 40.1818C57.7095 40.4773 57.4112 40.7102 57.0277 40.8807C56.6442 41.0511 56.1982 41.1364 55.6896 41.1364C55.022 41.1364 54.4695 40.9915 54.032 40.7017C53.5945 40.4119 53.3175 39.9886 53.201 39.4318L54.1555 39.1932C54.2464 39.5455 54.4183 39.8097 54.6712 39.9858C54.9268 40.1619 55.2607 40.25 55.6726 40.25C56.1413 40.25 56.5135 40.1506 56.7891 39.9517C57.0675 39.75 57.2067 39.5085 57.2067 39.2273C57.2067 39 57.1271 38.8097 56.968 38.6562C56.8089 38.5 56.5646 38.3835 56.2351 38.3068L55.1442 38.0511C54.5447 37.9091 54.1044 37.6889 53.8232 37.3906C53.5447 37.0895 53.4055 36.7131 53.4055 36.2614C53.4055 35.892 53.5092 35.5653 53.7166 35.2812C53.9268 34.9972 54.2124 34.7741 54.5732 34.6122C54.9368 34.4503 55.3487 34.3693 55.8089 34.3693C56.4567 34.3693 56.9652 34.5114 57.3345 34.7955C57.7067 35.0795 57.9709 35.4545 58.1271 35.9205ZM65.9648 41H63.2717V32.2727H66.0842C66.9308 32.2727 67.6552 32.4474 68.2575 32.7969C68.8597 33.1435 69.3214 33.642 69.6424 34.2926C69.9634 34.9403 70.1239 35.7159 70.1239 36.6193C70.1239 37.5284 69.962 38.3111 69.6381 38.9673C69.3143 39.6207 68.8427 40.1236 68.2234 40.4759C67.604 40.8253 66.8512 41 65.9648 41ZM64.3285 40.0625H65.8967C66.6183 40.0625 67.2163 39.9233 67.6907 39.6449C68.1651 39.3665 68.5188 38.9702 68.7518 38.456C68.9847 37.9418 69.1012 37.3295 69.1012 36.6193C69.1012 35.9148 68.9862 35.3082 68.756 34.7997C68.5259 34.2884 68.1822 33.8963 67.7248 33.6236C67.2674 33.348 66.6978 33.2102 66.016 33.2102H64.3285V40.0625ZM74.5046 41.1364C73.8739 41.1364 73.3299 40.9972 72.8725 40.7188C72.418 40.4375 72.0671 40.0455 71.82 39.5426C71.5756 39.0369 71.4535 38.4489 71.4535 37.7784C71.4535 37.108 71.5756 36.517 71.82 36.0057C72.0671 35.4915 72.4109 35.0909 72.8512 34.804C73.2944 34.5142 73.8114 34.3693 74.4023 34.3693C74.7433 34.3693 75.0799 34.4261 75.4123 34.5398C75.7447 34.6534 76.0472 34.8381 76.32 35.0938C76.5927 35.3466 76.81 35.6818 76.9719 36.0994C77.1339 36.517 77.2148 37.0312 77.2148 37.642V38.0682H72.1694V37.1989H76.1921C76.1921 36.8295 76.1183 36.5 75.9705 36.2102C75.8256 35.9205 75.6183 35.6918 75.3484 35.5241C75.0813 35.3565 74.766 35.2727 74.4023 35.2727C74.0018 35.2727 73.6552 35.3722 73.3626 35.571C73.0728 35.767 72.8498 36.0227 72.6935 36.3381C72.5373 36.6534 72.4592 36.9915 72.4592 37.3523V37.9318C72.4592 38.4261 72.5444 38.8452 72.7148 39.1889C72.8881 39.5298 73.1282 39.7898 73.435 39.9688C73.7418 40.1449 74.0984 40.233 74.5046 40.233C74.7688 40.233 75.0075 40.196 75.2205 40.1222C75.4364 40.0455 75.6225 39.9318 75.7788 39.7812C75.935 39.6278 76.0558 39.4375 76.141 39.2102L77.1126 39.483C77.0103 39.8125 76.8384 40.1023 76.5969 40.3523C76.3555 40.5994 76.0572 40.7926 75.7021 40.9318C75.3469 41.0682 74.9478 41.1364 74.5046 41.1364ZM79.7504 32.2727V41H78.7447V32.2727H79.7504ZM81.5923 41V34.4545H82.598V41H81.5923ZM82.1037 33.3636C81.9077 33.3636 81.7386 33.2969 81.5966 33.1634C81.4574 33.0298 81.3878 32.8693 81.3878 32.6818C81.3878 32.4943 81.4574 32.3338 81.5966 32.2003C81.7386 32.0668 81.9077 32 82.1037 32C82.2997 32 82.4673 32.0668 82.6065 32.2003C82.7486 32.3338 82.8196 32.4943 82.8196 32.6818C82.8196 32.8693 82.7486 33.0298 82.6065 33.1634C82.4673 33.2969 82.2997 33.3636 82.1037 33.3636ZM89.7923 34.4545L87.3718 41H86.3491L83.9286 34.4545H85.0195L86.8263 39.6705H86.8945L88.7013 34.4545H89.7923ZM93.6296 41.1364C92.9989 41.1364 92.4549 40.9972 91.9975 40.7188C91.543 40.4375 91.1921 40.0455 90.945 39.5426C90.7006 39.0369 90.5785 38.4489 90.5785 37.7784C90.5785 37.108 90.7006 36.517 90.945 36.0057C91.1921 35.4915 91.5359 35.0909 91.9762 34.804C92.4194 34.5142 92.9364 34.3693 93.5273 34.3693C93.8683 34.3693 94.2049 34.4261 94.5373 34.5398C94.8697 34.6534 95.1722 34.8381 95.445 35.0938C95.7177 35.3466 95.935 35.6818 96.0969 36.0994C96.2589 36.517 96.3398 37.0312 96.3398 37.642V38.0682H91.2944V37.1989H95.3171C95.3171 36.8295 95.2433 36.5 95.0955 36.2102C94.9506 35.9205 94.7433 35.6918 94.4734 35.5241C94.2063 35.3565 93.891 35.2727 93.5273 35.2727C93.1268 35.2727 92.7802 35.3722 92.4876 35.571C92.1978 35.767 91.9748 36.0227 91.8185 36.3381C91.6623 36.6534 91.5842 36.9915 91.5842 37.3523V37.9318C91.5842 38.4261 91.6694 38.8452 91.8398 39.1889C92.0131 39.5298 92.2532 39.7898 92.56 39.9688C92.8668 40.1449 93.2234 40.233 93.6296 40.233C93.8938 40.233 94.1325 40.196 94.3455 40.1222C94.5614 40.0455 94.7475 39.9318 94.9038 39.7812C95.06 39.6278 95.1808 39.4375 95.266 39.2102L96.2376 39.483C96.1353 39.8125 95.9634 40.1023 95.7219 40.3523C95.4805 40.5994 95.1822 40.7926 94.8271 40.9318C94.4719 41.0682 94.0728 41.1364 93.6296 41.1364ZM97.8697 41V34.4545H98.8413V35.4432H98.9094C99.0288 35.1193 99.2447 34.8565 99.5572 34.6548C99.8697 34.4531 100.222 34.3523 100.614 34.3523C100.688 34.3523 100.78 34.3537 100.891 34.3565C101.002 34.3594 101.086 34.3636 101.142 34.3693V35.392C101.108 35.3835 101.03 35.3707 100.908 35.3537C100.789 35.3338 100.662 35.3239 100.529 35.3239C100.211 35.3239 99.9265 35.3906 99.6765 35.5241C99.4293 35.6548 99.2333 35.8366 99.0884 36.0696C98.9464 36.2997 98.8754 36.5625 98.8754 36.858V41H97.8697ZM103.181 43.4545C103.011 43.4545 102.859 43.4403 102.725 43.4119C102.592 43.3864 102.5 43.3608 102.449 43.3352L102.704 42.4489C102.949 42.5114 103.164 42.5341 103.352 42.517C103.539 42.5 103.706 42.4162 103.85 42.2656C103.998 42.1179 104.133 41.8778 104.255 41.5455L104.443 41.0341L102.022 34.4545H103.113L104.92 39.6705H104.988L106.795 34.4545H107.886L105.108 41.9545C104.983 42.2926 104.828 42.5724 104.643 42.794C104.458 43.0185 104.244 43.1847 104 43.2926C103.758 43.4006 103.485 43.4545 103.181 43.4545Z" fill="black"/>
<path d="M227.296 36.7412V23.2368C227.296 22.1376 226.405 21.2466 225.306 21.2466H212.457C211.358 21.2466 210.467 22.1376 210.467 23.2368V36.423C210.467 37.5222 211.358 38.4132 212.457 38.4132H213.95" stroke="black" stroke-width="1.71" stroke-linecap="round" stroke-linejoin="round"/>
<path d="M235.533 30.665H227.299" stroke="black" stroke-width="1.71" stroke-linecap="round" stroke-linejoin="round"/>
<path d="M232.855 38.0416H233.541C234.64 38.0416 235.531 37.1506 235.531 36.0514V30.079L232.76 24.4053C232.427 23.722 231.733 23.2886 230.972 23.2886H227.655" stroke="black" stroke-width="1.71" stroke-linecap="round" stroke-linejoin="round"/>
<path d="M214.048 38.4731C214.048 39.21 214.341 39.9166 214.862 40.4377C215.383 40.9587 216.089 41.2514 216.826 41.2514C217.563 41.2514 218.27 40.9587 218.791 40.4377C219.312 39.9166 219.604 39.21 219.604 38.4731C219.604 37.7363 219.312 37.0296 218.791 36.5086C218.27 35.9875 217.563 35.6948 216.826 35.6948C216.089 35.6948 215.383 35.9875 214.862 36.5086C214.341 37.0296 214.048 37.7363 214.048 38.4731Z" stroke="black" stroke-width="1.71" stroke-linecap="round" stroke-linejoin="round"/>
<path d="M226.66 38.4731C226.66 39.21 226.953 39.9166 227.474 40.4377C227.995 40.9587 228.702 41.2514 229.438 41.2514C230.175 41.2514 230.882 40.9587 231.403 40.4377C231.924 39.9166 232.217 39.21 232.217 38.4731C232.217 37.7363 231.924 37.0296 231.403 36.5086C230.882 35.9875 230.175 35.6948 229.438 35.6948C228.702 35.6948 227.995 35.9875 227.474 36.5086C226.953 37.0296 226.66 37.7363 226.66 38.4731Z" stroke="black" stroke-width="1.71" stroke-linecap="round" stroke-linejoin="round"/>
<path d="M226.139 38.4126H220.293" stroke="black" stroke-width="1.71" stroke-linecap="round" stroke-linejoin="round"/>
<path d="M24.6193 72.4545V87H22.858V74.3011H22.7727L19.2216 76.6591V74.8693L22.858 72.4545H24.6193ZM28.8026 87V85.7216L33.6037 80.4659C34.1671 79.8504 34.6312 79.3153 34.9957 78.8608C35.3603 78.4015 35.6302 77.9706 35.8054 77.5682C35.9853 77.161 36.0753 76.7348 36.0753 76.2898C36.0753 75.7784 35.9522 75.3357 35.706 74.9616C35.4645 74.5876 35.133 74.2988 34.7116 74.0952C34.2902 73.8916 33.8168 73.7898 33.2912 73.7898C32.7325 73.7898 32.2448 73.9058 31.8281 74.1378C31.4162 74.3651 31.0966 74.6847 30.8693 75.0966C30.6468 75.5085 30.5355 75.9915 30.5355 76.5455H28.8594C28.8594 75.6932 29.0559 74.9451 29.4489 74.3011C29.8419 73.6572 30.3769 73.1553 31.054 72.7955C31.7358 72.4356 32.5005 72.2557 33.348 72.2557C34.2003 72.2557 34.9555 72.4356 35.6136 72.7955C36.2718 73.1553 36.7879 73.6406 37.1619 74.2514C37.536 74.8622 37.723 75.5417 37.723 76.2898C37.723 76.8248 37.6259 77.348 37.4318 77.8594C37.2424 78.366 36.911 78.9318 36.4375 79.5568C35.9688 80.1771 35.3177 80.9347 34.4844 81.8295L31.2173 85.3239V85.4375H37.9787V87H28.8026ZM59.0653 79.7273C59.0653 81.2614 58.7884 82.5871 58.2344 83.7045C57.6804 84.822 56.9205 85.6837 55.9545 86.2898C54.9886 86.8958 53.8854 87.1989 52.6449 87.1989C51.4044 87.1989 50.3011 86.8958 49.3352 86.2898C48.3693 85.6837 47.6094 84.822 47.0554 83.7045C46.5014 82.5871 46.2244 81.2614 46.2244 79.7273C46.2244 78.1932 46.5014 76.8674 47.0554 75.75C47.6094 74.6326 48.3693 73.7708 49.3352 73.1648C50.3011 72.5587 51.4044 72.2557 52.6449 72.2557C53.8854 72.2557 54.9886 72.5587 55.9545 73.1648C56.9205 73.7708 57.6804 74.6326 58.2344 75.75C58.7884 76.8674 59.0653 78.1932 59.0653 79.7273ZM57.3608 79.7273C57.3608 78.4678 57.1501 77.4048 56.7287 76.5384C56.312 75.6719 55.7462 75.0161 55.0312 74.571C54.321 74.1259 53.5256 73.9034 52.6449 73.9034C51.7642 73.9034 50.9664 74.1259 50.2514 74.571C49.5412 75.0161 48.9754 75.6719 48.554 76.5384C48.1373 77.4048 47.929 78.4678 47.929 79.7273C47.929 80.9867 48.1373 82.0497 48.554 82.9162C48.9754 83.7827 49.5412 84.4384 50.2514 84.8835C50.9664 85.3286 51.7642 85.5511 52.6449 85.5511C53.5256 85.5511 54.321 85.3286 55.0312 84.8835C55.7462 84.4384 56.312 83.7827 56.7287 82.9162C57.1501 82.0497 57.3608 80.9867 57.3608 79.7273ZM61.7997 87V76.0909H63.419V77.7386H63.5327C63.7315 77.1989 64.0914 76.7609 64.6122 76.4247C65.133 76.0885 65.7202 75.9205 66.3736 75.9205C66.4967 75.9205 66.6506 75.9228 66.8352 75.9276C67.0199 75.9323 67.1596 75.9394 67.2543 75.9489V77.6534C67.1974 77.6392 67.0672 77.6179 66.8636 77.5895C66.6648 77.5563 66.4541 77.5398 66.2315 77.5398C65.7012 77.5398 65.2277 77.651 64.8111 77.8736C64.3991 78.0914 64.0724 78.3944 63.831 78.7827C63.5942 79.1662 63.4759 79.6042 63.4759 80.0966V87H61.7997ZM73.0284 87.2273C72.1193 87.2273 71.3168 86.9976 70.6207 86.5384C69.9247 86.0743 69.3802 85.4209 68.9872 84.5781C68.5942 83.7306 68.3977 82.7292 68.3977 81.5739C68.3977 80.428 68.5942 79.4337 68.9872 78.5909C69.3802 77.7481 69.9271 77.0971 70.6278 76.6378C71.3286 76.1785 72.1383 75.9489 73.0568 75.9489C73.767 75.9489 74.3281 76.0672 74.7401 76.304C75.1567 76.536 75.474 76.8011 75.6918 77.0994C75.9143 77.393 76.0871 77.6345 76.2102 77.8239H76.3523V72.4545H78.0284V87H76.4091V85.3239H76.2102C76.0871 85.5227 75.9119 85.7737 75.6847 86.0767C75.4574 86.375 75.133 86.6425 74.7116 86.8793C74.2902 87.1113 73.7292 87.2273 73.0284 87.2273ZM73.2557 85.7216C73.928 85.7216 74.4962 85.5464 74.9602 85.196C75.4242 84.8409 75.777 84.3509 76.0185 83.7259C76.2599 83.0961 76.3807 82.3693 76.3807 81.5455C76.3807 80.7311 76.2623 80.0185 76.0256 79.4077C75.7888 78.7921 75.4384 78.3139 74.9744 77.973C74.5104 77.6274 73.9375 77.4545 73.2557 77.4545C72.5455 77.4545 71.9536 77.6368 71.4801 78.0014C71.0114 78.3613 70.6586 78.8513 70.4219 79.4716C70.1899 80.0871 70.0739 80.7784 70.0739 81.5455C70.0739 82.322 70.1922 83.0275 70.429 83.6619C70.6705 84.2917 71.0256 84.7936 71.4943 85.1676C71.9678 85.5369 72.5549 85.7216 73.2557 85.7216ZM85.9048 87.2273C84.8537 87.2273 83.947 86.9953 83.1847 86.5312C82.4271 86.0625 81.8423 85.4091 81.4304 84.571C81.0232 83.7282 80.8196 82.7481 80.8196 81.6307C80.8196 80.5133 81.0232 79.5284 81.4304 78.6761C81.8423 77.8191 82.4152 77.1515 83.1491 76.6733C83.8878 76.1903 84.7495 75.9489 85.7344 75.9489C86.3026 75.9489 86.8636 76.0436 87.4176 76.233C87.9716 76.4223 88.4759 76.7301 88.9304 77.1562C89.3849 77.5777 89.7472 78.1364 90.017 78.8324C90.2869 79.5284 90.4219 80.3854 90.4219 81.4034V82.1136H82.0128V80.6648H88.7173C88.7173 80.0492 88.5942 79.5 88.348 79.017C88.1065 78.5341 87.7609 78.1529 87.3111 77.8736C86.866 77.5942 86.3404 77.4545 85.7344 77.4545C85.0668 77.4545 84.4891 77.6203 84.0014 77.9517C83.5185 78.2784 83.1468 78.7045 82.8864 79.2301C82.6259 79.7557 82.4957 80.3191 82.4957 80.9205V81.8864C82.4957 82.7102 82.6378 83.4086 82.9219 83.9815C83.2107 84.5497 83.6108 84.983 84.1222 85.2812C84.6335 85.5748 85.2277 85.7216 85.9048 85.7216C86.3452 85.7216 86.7429 85.66 87.098 85.5369C87.4579 85.4091 87.768 85.2197 88.0284 84.9688C88.2888 84.7131 88.4901 84.3958 88.6321 84.017L90.2514 84.4716C90.081 85.0208 89.7945 85.5038 89.392 85.9205C88.9896 86.3324 88.4924 86.6544 87.9006 86.8864C87.3087 87.1136 86.6435 87.2273 85.9048 87.2273ZM92.9716 87V76.0909H94.5909V77.7386H94.7045C94.9034 77.1989 95.2633 76.7609 95.7841 76.4247C96.3049 76.0885 96.892 75.9205 97.5455 75.9205C97.6686 75.9205 97.8224 75.9228 98.0071 75.9276C98.1918 75.9323 98.3314 75.9394 98.4261 75.9489V77.6534C98.3693 77.6392 98.2391 77.6179 98.0355 77.5895C97.8366 77.5563 97.6259 77.5398 97.4034 77.5398C96.8731 77.5398 96.3996 77.651 95.983 77.8736C95.571 78.0914 95.2443 78.3944 95.0028 78.7827C94.7661 79.1662 94.6477 79.6042 94.6477 80.0966V87H92.9716ZM108.14 78.5341L106.635 78.9602C106.54 78.7093 106.4 78.4654 106.216 78.2287C106.036 77.9872 105.789 77.7884 105.477 77.6321C105.164 77.4759 104.764 77.3977 104.277 77.3977C103.609 77.3977 103.053 77.5516 102.608 77.8594C102.167 78.1624 101.947 78.5483 101.947 79.017C101.947 79.4337 102.099 79.7628 102.402 80.0043C102.705 80.2457 103.178 80.447 103.822 80.608L105.441 81.0057C106.417 81.2424 107.144 81.6046 107.622 82.0923C108.1 82.5753 108.339 83.1979 108.339 83.9602C108.339 84.5852 108.159 85.1439 107.799 85.6364C107.444 86.1288 106.947 86.517 106.308 86.8011C105.669 87.0852 104.925 87.2273 104.078 87.2273C102.965 87.2273 102.044 86.9858 101.315 86.5028C100.586 86.0199 100.124 85.3144 99.93 84.3864L101.521 83.9886C101.672 84.5758 101.959 85.0161 102.38 85.3097C102.806 85.6032 103.363 85.75 104.049 85.75C104.831 85.75 105.451 85.5843 105.91 85.2528C106.374 84.9167 106.606 84.5142 106.606 84.0455C106.606 83.6667 106.474 83.3494 106.208 83.0938C105.943 82.8333 105.536 82.6392 104.987 82.5114L103.169 82.0852C102.17 81.8485 101.436 81.4815 100.967 80.9844C100.503 80.4825 100.271 79.8551 100.271 79.1023C100.271 78.4867 100.444 77.9422 100.789 77.4688C101.14 76.9953 101.616 76.6236 102.217 76.3537C102.823 76.0838 103.51 75.9489 104.277 75.9489C105.356 75.9489 106.204 76.1856 106.819 76.6591C107.44 77.1326 107.88 77.7576 108.14 78.5341Z" fill="black"/>
</g>
<g filter="url(#filter1_d_1138_2184)">
<rect x="304.5" y="4.5" width="239" height="97" rx="7.5" stroke="#D4D4D4" shape-rendering="crispEdges"/>
<path d="M315.057 32.2727H316.318L319.284 39.517H319.386L322.352 32.2727H323.614V41H322.625V34.3693H322.54L319.812 41H318.858L316.131 34.3693H316.045V41H315.057V32.2727ZM328.255 41.1364C327.664 41.1364 327.146 40.9957 326.7 40.7145C326.257 40.4332 325.91 40.0398 325.66 39.5341C325.413 39.0284 325.289 38.4375 325.289 37.7614C325.289 37.0795 325.413 36.4844 325.66 35.9759C325.91 35.4673 326.257 35.0724 326.7 34.7912C327.146 34.5099 327.664 34.3693 328.255 34.3693C328.846 34.3693 329.363 34.5099 329.806 34.7912C330.252 35.0724 330.599 35.4673 330.846 35.9759C331.096 36.4844 331.221 37.0795 331.221 37.7614C331.221 38.4375 331.096 39.0284 330.846 39.5341C330.599 40.0398 330.252 40.4332 329.806 40.7145C329.363 40.9957 328.846 41.1364 328.255 41.1364ZM328.255 40.233C328.704 40.233 329.074 40.1179 329.363 39.8878C329.653 39.6577 329.868 39.3551 330.007 38.9801C330.146 38.6051 330.216 38.1989 330.216 37.7614C330.216 37.3239 330.146 36.9162 330.007 36.5384C329.868 36.1605 329.653 35.8551 329.363 35.6222C329.074 35.3892 328.704 35.2727 328.255 35.2727C327.806 35.2727 327.437 35.3892 327.147 35.6222C326.858 35.8551 326.643 36.1605 326.504 36.5384C326.365 36.9162 326.295 37.3239 326.295 37.7614C326.295 38.1989 326.365 38.6051 326.504 38.9801C326.643 39.3551 326.858 39.6577 327.147 39.8878C327.437 40.1179 327.806 40.233 328.255 40.233ZM333.762 37.0625V41H332.756V34.4545H333.728V35.4773H333.813C333.967 35.1449 334.2 34.8778 334.512 34.6761C334.825 34.4716 335.228 34.3693 335.722 34.3693C336.165 34.3693 336.553 34.4602 336.886 34.642C337.218 34.821 337.477 35.0938 337.661 35.4602C337.846 35.8239 337.938 36.2841 337.938 36.8409V41H336.933V36.9091C336.933 36.3949 336.799 35.9943 336.532 35.7074C336.265 35.4176 335.898 35.2727 335.433 35.2727C335.112 35.2727 334.825 35.3423 334.572 35.4815C334.322 35.6207 334.124 35.8239 333.979 36.0909C333.835 36.358 333.762 36.6818 333.762 37.0625ZM342.623 34.4545V35.3068H339.23V34.4545H342.623ZM340.219 32.8864H341.225V39.125C341.225 39.4091 341.266 39.6222 341.348 39.7642C341.434 39.9034 341.542 39.9972 341.672 40.0455C341.806 40.0909 341.946 40.1136 342.094 40.1136C342.205 40.1136 342.296 40.108 342.367 40.0966C342.438 40.0824 342.495 40.071 342.537 40.0625L342.742 40.9659C342.674 40.9915 342.578 41.017 342.456 41.0426C342.334 41.071 342.179 41.0852 341.992 41.0852C341.708 41.0852 341.429 41.0241 341.157 40.902C340.887 40.7798 340.662 40.5938 340.483 40.3438C340.307 40.0938 340.219 39.7784 340.219 39.3977V32.8864ZM345.282 37.0625V41H344.276V32.2727H345.282V35.4773H345.367C345.52 35.1392 345.75 34.8707 346.057 34.6719C346.367 34.4702 346.779 34.3693 347.293 34.3693C347.739 34.3693 348.13 34.4588 348.465 34.6378C348.8 34.8139 349.06 35.0852 349.245 35.4517C349.432 35.8153 349.526 36.2784 349.526 36.8409V41H348.52V36.9091C348.52 36.3892 348.385 35.9872 348.115 35.7031C347.848 35.4162 347.478 35.2727 347.003 35.2727C346.674 35.2727 346.378 35.3423 346.117 35.4815C345.858 35.6207 345.654 35.8239 345.503 36.0909C345.355 36.358 345.282 36.6818 345.282 37.0625ZM352.371 32.2727V41H351.366V32.2727H352.371ZM354.861 43.4545C354.691 43.4545 354.539 43.4403 354.405 43.4119C354.272 43.3864 354.179 43.3608 354.128 43.3352L354.384 42.4489C354.628 42.5114 354.844 42.5341 355.032 42.517C355.219 42.5 355.385 42.4162 355.53 42.2656C355.678 42.1179 355.813 41.8778 355.935 41.5455L356.123 41.0341L353.702 34.4545H354.793L356.6 39.6705H356.668L358.475 34.4545H359.566L356.787 41.9545C356.662 42.2926 356.507 42.5724 356.323 42.794C356.138 43.0185 355.924 43.1847 355.679 43.2926C355.438 43.4006 355.165 43.4545 354.861 43.4545ZM367.098 41H364.404V32.2727H367.217C368.064 32.2727 368.788 32.4474 369.39 32.7969C369.993 33.1435 370.454 33.642 370.775 34.2926C371.096 34.9403 371.257 35.7159 371.257 36.6193C371.257 37.5284 371.095 38.3111 370.771 38.9673C370.447 39.6207 369.975 40.1236 369.356 40.4759C368.737 40.8253 367.984 41 367.098 41ZM365.461 40.0625H367.029C367.751 40.0625 368.349 39.9233 368.824 39.6449C369.298 39.3665 369.652 38.9702 369.885 38.456C370.118 37.9418 370.234 37.3295 370.234 36.6193C370.234 35.9148 370.119 35.3082 369.889 34.7997C369.659 34.2884 369.315 33.8963 368.858 33.6236C368.4 33.348 367.831 33.2102 367.149 33.2102H365.461V40.0625ZM375.637 41.1364C375.007 41.1364 374.463 40.9972 374.005 40.7188C373.551 40.4375 373.2 40.0455 372.953 39.5426C372.708 39.0369 372.586 38.4489 372.586 37.7784C372.586 37.108 372.708 36.517 372.953 36.0057C373.2 35.4915 373.544 35.0909 373.984 34.804C374.427 34.5142 374.944 34.3693 375.535 34.3693C375.876 34.3693 376.213 34.4261 376.545 34.5398C376.877 34.6534 377.18 34.8381 377.453 35.0938C377.725 35.3466 377.943 35.6818 378.105 36.0994C378.267 36.517 378.348 37.0312 378.348 37.642V38.0682H373.302V37.1989H377.325C377.325 36.8295 377.251 36.5 377.103 36.2102C376.958 35.9205 376.751 35.6918 376.481 35.5241C376.214 35.3565 375.899 35.2727 375.535 35.2727C375.135 35.2727 374.788 35.3722 374.495 35.571C374.206 35.767 373.983 36.0227 373.826 36.3381C373.67 36.6534 373.592 36.9915 373.592 37.3523V37.9318C373.592 38.4261 373.677 38.8452 373.848 39.1889C374.021 39.5298 374.261 39.7898 374.568 39.9688C374.875 40.1449 375.231 40.233 375.637 40.233C375.902 40.233 376.14 40.196 376.353 40.1222C376.569 40.0455 376.755 39.9318 376.912 39.7812C377.068 39.6278 377.189 39.4375 377.274 39.2102L378.245 39.483C378.143 39.8125 377.971 40.1023 377.73 40.3523C377.488 40.5994 377.19 40.7926 376.835 40.9318C376.48 41.0682 376.081 41.1364 375.637 41.1364ZM380.883 32.2727V41H379.877V32.2727H380.883ZM382.725 41V34.4545H383.731V41H382.725ZM383.237 33.3636C383.04 33.3636 382.871 33.2969 382.729 33.1634C382.59 33.0298 382.521 32.8693 382.521 32.6818C382.521 32.4943 382.59 32.3338 382.729 32.2003C382.871 32.0668 383.04 32 383.237 32C383.433 32 383.6 32.0668 383.739 32.2003C383.881 32.3338 383.952 32.4943 383.952 32.6818C383.952 32.8693 383.881 33.0298 383.739 33.1634C383.6 33.2969 383.433 33.3636 383.237 33.3636ZM390.925 34.4545L388.505 41H387.482L385.061 34.4545H386.152L387.959 39.6705H388.027L389.834 34.4545H390.925ZM394.762 41.1364C394.132 41.1364 393.588 40.9972 393.13 40.7188C392.676 40.4375 392.325 40.0455 392.078 39.5426C391.833 39.0369 391.711 38.4489 391.711 37.7784C391.711 37.108 391.833 36.517 392.078 36.0057C392.325 35.4915 392.669 35.0909 393.109 34.804C393.552 34.5142 394.069 34.3693 394.66 34.3693C395.001 34.3693 395.338 34.4261 395.67 34.5398C396.002 34.6534 396.305 34.8381 396.578 35.0938C396.85 35.3466 397.068 35.6818 397.23 36.0994C397.392 36.517 397.473 37.0312 397.473 37.642V38.0682H392.427V37.1989H396.45C396.45 36.8295 396.376 36.5 396.228 36.2102C396.083 35.9205 395.876 35.6918 395.606 35.5241C395.339 35.3565 395.024 35.2727 394.66 35.2727C394.26 35.2727 393.913 35.3722 393.62 35.571C393.331 35.767 393.108 36.0227 392.951 36.3381C392.795 36.6534 392.717 36.9915 392.717 37.3523V37.9318C392.717 38.4261 392.802 38.8452 392.973 39.1889C393.146 39.5298 393.386 39.7898 393.693 39.9688C394 40.1449 394.356 40.233 394.762 40.233C395.027 40.233 395.265 40.196 395.478 40.1222C395.694 40.0455 395.88 39.9318 396.037 39.7812C396.193 39.6278 396.314 39.4375 396.399 39.2102L397.37 39.483C397.268 39.8125 397.096 40.1023 396.855 40.3523C396.613 40.5994 396.315 40.7926 395.96 40.9318C395.605 41.0682 395.206 41.1364 394.762 41.1364ZM399.002 41V34.4545H399.974V35.4432H400.042C400.162 35.1193 400.377 34.8565 400.69 34.6548C401.002 34.4531 401.355 34.3523 401.747 34.3523C401.821 34.3523 401.913 34.3537 402.024 34.3565C402.135 34.3594 402.218 34.3636 402.275 34.3693V35.392C402.241 35.3835 402.163 35.3707 402.041 35.3537C401.922 35.3338 401.795 35.3239 401.662 35.3239C401.343 35.3239 401.059 35.3906 400.809 35.5241C400.562 35.6548 400.366 35.8366 400.221 36.0696C400.079 36.2997 400.008 36.5625 400.008 36.858V41H399.002ZM403.467 41V34.4545H404.473V41H403.467ZM403.979 33.3636C403.783 33.3636 403.614 33.2969 403.472 33.1634C403.332 33.0298 403.263 32.8693 403.263 32.6818C403.263 32.4943 403.332 32.3338 403.472 32.2003C403.614 32.0668 403.783 32 403.979 32C404.175 32 404.342 32.0668 404.482 32.2003C404.624 32.3338 404.695 32.4943 404.695 32.6818C404.695 32.8693 404.624 33.0298 404.482 33.1634C404.342 33.2969 404.175 33.3636 403.979 33.3636ZM409.059 41.1364C408.429 41.1364 407.885 40.9972 407.427 40.7188C406.973 40.4375 406.622 40.0455 406.375 39.5426C406.13 39.0369 406.008 38.4489 406.008 37.7784C406.008 37.108 406.13 36.517 406.375 36.0057C406.622 35.4915 406.966 35.0909 407.406 34.804C407.849 34.5142 408.366 34.3693 408.957 34.3693C409.298 34.3693 409.635 34.4261 409.967 34.5398C410.299 34.6534 410.602 34.8381 410.875 35.0938C411.147 35.3466 411.365 35.6818 411.527 36.0994C411.689 36.517 411.77 37.0312 411.77 37.642V38.0682H406.724V37.1989H410.747C410.747 36.8295 410.673 36.5 410.525 36.2102C410.38 35.9205 410.173 35.6918 409.903 35.5241C409.636 35.3565 409.321 35.2727 408.957 35.2727C408.556 35.2727 408.21 35.3722 407.917 35.571C407.627 35.767 407.404 36.0227 407.248 36.3381C407.092 36.6534 407.014 36.9915 407.014 37.3523V37.9318C407.014 38.4261 407.099 38.8452 407.27 39.1889C407.443 39.5298 407.683 39.7898 407.99 39.9688C408.297 40.1449 408.653 40.233 409.059 40.233C409.324 40.233 409.562 40.196 409.775 40.1222C409.991 40.0455 410.177 39.9318 410.333 39.7812C410.49 39.6278 410.61 39.4375 410.696 39.2102L411.667 39.483C411.565 39.8125 411.393 40.1023 411.152 40.3523C410.91 40.5994 410.612 40.7926 410.257 40.9318C409.902 41.0682 409.502 41.1364 409.059 41.1364ZM417.936 35.9205L417.032 36.1761C416.975 36.0256 416.892 35.8793 416.781 35.7372C416.673 35.5923 416.525 35.473 416.338 35.3793C416.15 35.2855 415.91 35.2386 415.618 35.2386C415.217 35.2386 414.883 35.331 414.616 35.5156C414.352 35.6974 414.22 35.929 414.22 36.2102C414.22 36.4602 414.311 36.6577 414.493 36.8026C414.674 36.9474 414.958 37.0682 415.345 37.1648L416.316 37.4034C416.902 37.5455 417.338 37.7628 417.625 38.0554C417.912 38.3452 418.055 38.7187 418.055 39.1761C418.055 39.5511 417.947 39.8864 417.731 40.1818C417.518 40.4773 417.22 40.7102 416.836 40.8807C416.453 41.0511 416.007 41.1364 415.498 41.1364C414.831 41.1364 414.278 40.9915 413.841 40.7017C413.403 40.4119 413.126 39.9886 413.01 39.4318L413.964 39.1932C414.055 39.5455 414.227 39.8097 414.48 39.9858C414.735 40.1619 415.069 40.25 415.481 40.25C415.95 40.25 416.322 40.1506 416.598 39.9517C416.876 39.75 417.015 39.5085 417.015 39.2273C417.015 39 416.936 38.8097 416.777 38.6562C416.618 38.5 416.373 38.3835 416.044 38.3068L414.953 38.0511C414.353 37.9091 413.913 37.6889 413.632 37.3906C413.353 37.0895 413.214 36.7131 413.214 36.2614C413.214 35.892 413.318 35.5653 413.525 35.2812C413.735 34.9972 414.021 34.7741 414.382 34.6122C414.745 34.4503 415.157 34.3693 415.618 34.3693C416.265 34.3693 416.774 34.5114 417.143 34.7955C417.515 35.0795 417.779 35.4545 417.936 35.9205Z" fill="black"/>
<path d="M530.443 37.956V20.0444H507.556V37.956H530.443Z" stroke="#1B831B" stroke-width="1.71" stroke-linecap="round" stroke-linejoin="round"/>
<path d="M531.936 20.0444H506.063" stroke="#1B831B" stroke-width="1.71" stroke-linecap="round" stroke-linejoin="round"/>
<path d="M531.936 37.9561H506.063" stroke="#1B831B" stroke-width="1.71" stroke-linecap="round" stroke-linejoin="round"/>
<path d="M513.029 25.02V32.9807" stroke="#1B831B" stroke-width="1.71" stroke-linecap="round" stroke-linejoin="round"/>
<path d="M519 25.02V32.9807" stroke="#1B831B" stroke-width="1.71" stroke-linecap="round" stroke-linejoin="round"/>
<path d="M524.97 25.02V32.9807" stroke="#1B831B" stroke-width="1.71" stroke-linecap="round" stroke-linejoin="round"/>
<path d="M315.506 87V85.7216L320.307 80.4659C320.87 79.8504 321.334 79.3153 321.699 78.8608C322.063 78.4015 322.333 77.9706 322.509 77.5682C322.688 77.161 322.778 76.7348 322.778 76.2898C322.778 75.7784 322.655 75.3357 322.409 74.9616C322.168 74.5876 321.836 74.2988 321.415 74.0952C320.993 73.8916 320.52 73.7898 319.994 73.7898C319.436 73.7898 318.948 73.9058 318.531 74.1378C318.119 74.3651 317.8 74.6847 317.572 75.0966C317.35 75.5085 317.239 75.9915 317.239 76.5455H315.562C315.562 75.6932 315.759 74.9451 316.152 74.3011C316.545 73.6572 317.08 73.1553 317.757 72.7955C318.439 72.4356 319.204 72.2557 320.051 72.2557C320.903 72.2557 321.659 72.4356 322.317 72.7955C322.975 73.1553 323.491 73.6406 323.865 74.2514C324.239 74.8622 324.426 75.5417 324.426 76.2898C324.426 76.8248 324.329 77.348 324.135 77.8594C323.946 78.366 323.614 78.9318 323.141 79.5568C322.672 80.1771 322.021 80.9347 321.188 81.8295L317.92 85.3239V85.4375H324.682V87H315.506ZM328.07 87L334.575 74.1307V74.017H327.075V72.4545H336.393V74.1023L329.916 87H328.07ZM343.407 87.1989C342.432 87.1989 341.57 87.026 340.822 86.6804C340.078 86.33 339.498 85.8494 339.082 85.2386C338.665 84.6231 338.459 83.9223 338.464 83.1364C338.459 82.5208 338.58 81.9527 338.826 81.4318C339.072 80.9062 339.408 80.4683 339.835 80.1179C340.265 79.7628 340.746 79.5379 341.276 79.4432V79.358C340.58 79.178 340.026 78.7874 339.614 78.1861C339.202 77.58 338.999 76.8911 339.004 76.1193C338.999 75.3807 339.186 74.7202 339.565 74.1378C339.943 73.5554 340.464 73.0961 341.127 72.7599C341.795 72.4238 342.555 72.2557 343.407 72.2557C344.25 72.2557 345.003 72.4238 345.665 72.7599C346.328 73.0961 346.849 73.5554 347.228 74.1378C347.612 74.7202 347.806 75.3807 347.81 76.1193C347.806 76.8911 347.595 77.58 347.178 78.1861C346.766 78.7874 346.219 79.178 345.538 79.358V79.4432C346.063 79.5379 346.537 79.7628 346.958 80.1179C347.379 80.4683 347.716 80.9062 347.967 81.4318C348.218 81.9527 348.345 82.5208 348.35 83.1364C348.345 83.9223 348.132 84.6231 347.711 85.2386C347.294 85.8494 346.714 86.33 345.971 86.6804C345.232 87.026 344.378 87.1989 343.407 87.1989ZM343.407 85.6364C344.065 85.6364 344.633 85.5298 345.112 85.3168C345.59 85.1037 345.959 84.803 346.219 84.4148C346.48 84.0265 346.612 83.572 346.617 83.0511C346.612 82.5019 346.47 82.0166 346.191 81.5952C345.912 81.1738 345.531 80.8423 345.048 80.6009C344.569 80.3594 344.022 80.2386 343.407 80.2386C342.787 80.2386 342.233 80.3594 341.745 80.6009C341.262 80.8423 340.881 81.1738 340.602 81.5952C340.327 82.0166 340.192 82.5019 340.197 83.0511C340.192 83.572 340.317 84.0265 340.573 84.4148C340.834 84.803 341.205 85.1037 341.688 85.3168C342.171 85.5298 342.744 85.6364 343.407 85.6364ZM343.407 78.733C343.928 78.733 344.389 78.6288 344.792 78.4205C345.199 78.2121 345.519 77.9209 345.751 77.5469C345.983 77.1728 346.101 76.7348 346.106 76.233C346.101 75.7405 345.985 75.312 345.758 74.9474C345.531 74.5781 345.216 74.294 344.813 74.0952C344.411 73.8916 343.942 73.7898 343.407 73.7898C342.862 73.7898 342.387 73.8916 341.979 74.0952C341.572 74.294 341.257 74.5781 341.035 74.9474C340.812 75.312 340.703 75.7405 340.708 76.233C340.703 76.7348 340.815 77.1728 341.042 77.5469C341.274 77.9209 341.594 78.2121 342.001 78.4205C342.408 78.6288 342.877 78.733 343.407 78.733ZM369.225 79.7273C369.225 81.2614 368.949 82.5871 368.395 83.7045C367.841 84.822 367.081 85.6837 366.115 86.2898C365.149 86.8958 364.046 87.1989 362.805 87.1989C361.565 87.1989 360.461 86.8958 359.495 86.2898C358.529 85.6837 357.77 84.822 357.216 83.7045C356.662 82.5871 356.385 81.2614 356.385 79.7273C356.385 78.1932 356.662 76.8674 357.216 75.75C357.77 74.6326 358.529 73.7708 359.495 73.1648C360.461 72.5587 361.565 72.2557 362.805 72.2557C364.046 72.2557 365.149 72.5587 366.115 73.1648C367.081 73.7708 367.841 74.6326 368.395 75.75C368.949 76.8674 369.225 78.1932 369.225 79.7273ZM367.521 79.7273C367.521 78.4678 367.31 77.4048 366.889 76.5384C366.472 75.6719 365.906 75.0161 365.191 74.571C364.481 74.1259 363.686 73.9034 362.805 73.9034C361.924 73.9034 361.127 74.1259 360.412 74.571C359.701 75.0161 359.136 75.6719 358.714 76.5384C358.297 77.4048 358.089 78.4678 358.089 79.7273C358.089 80.9867 358.297 82.0497 358.714 82.9162C359.136 83.7827 359.701 84.4384 360.412 84.8835C361.127 85.3286 361.924 85.5511 362.805 85.5511C363.686 85.5511 364.481 85.3286 365.191 84.8835C365.906 84.4384 366.472 83.7827 366.889 82.9162C367.31 82.0497 367.521 80.9867 367.521 79.7273ZM371.96 87V76.0909H373.579V77.7386H373.693C373.892 77.1989 374.252 76.7609 374.772 76.4247C375.293 76.0885 375.88 75.9205 376.534 75.9205C376.657 75.9205 376.811 75.9228 376.995 75.9276C377.18 75.9323 377.32 75.9394 377.414 75.9489V77.6534C377.358 77.6392 377.227 77.6179 377.024 77.5895C376.825 77.5563 376.614 77.5398 376.392 77.5398C375.861 77.5398 375.388 77.651 374.971 77.8736C374.559 78.0914 374.233 78.3944 373.991 78.7827C373.754 79.1662 373.636 79.6042 373.636 80.0966V87H371.96ZM383.189 87.2273C382.279 87.2273 381.477 86.9976 380.781 86.5384C380.085 86.0743 379.54 85.4209 379.147 84.5781C378.754 83.7306 378.558 82.7292 378.558 81.5739C378.558 80.428 378.754 79.4337 379.147 78.5909C379.54 77.7481 380.087 77.0971 380.788 76.6378C381.489 76.1785 382.298 75.9489 383.217 75.9489C383.927 75.9489 384.488 76.0672 384.9 76.304C385.317 76.536 385.634 76.8011 385.852 77.0994C386.074 77.393 386.247 77.6345 386.37 77.8239H386.512V72.4545H388.189V87H386.569V85.3239H386.37C386.247 85.5227 386.072 85.7737 385.845 86.0767C385.618 86.375 385.293 86.6425 384.872 86.8793C384.45 87.1113 383.889 87.2273 383.189 87.2273ZM383.416 85.7216C384.088 85.7216 384.656 85.5464 385.12 85.196C385.584 84.8409 385.937 84.3509 386.179 83.7259C386.42 83.0961 386.541 82.3693 386.541 81.5455C386.541 80.7311 386.422 80.0185 386.186 79.4077C385.949 78.7921 385.599 78.3139 385.135 77.973C384.671 77.6274 384.098 77.4545 383.416 77.4545C382.706 77.4545 382.114 77.6368 381.64 78.0014C381.172 78.3613 380.819 78.8513 380.582 79.4716C380.35 80.0871 380.234 80.7784 380.234 81.5455C380.234 82.322 380.352 83.0275 380.589 83.6619C380.831 84.2917 381.186 84.7936 381.654 85.1676C382.128 85.5369 382.715 85.7216 383.416 85.7216ZM396.065 87.2273C395.014 87.2273 394.107 86.9953 393.345 86.5312C392.587 86.0625 392.002 85.4091 391.591 84.571C391.183 83.7282 390.98 82.7481 390.98 81.6307C390.98 80.5133 391.183 79.5284 391.591 78.6761C392.002 77.8191 392.575 77.1515 393.309 76.6733C394.048 76.1903 394.91 75.9489 395.895 75.9489C396.463 75.9489 397.024 76.0436 397.578 76.233C398.132 76.4223 398.636 76.7301 399.091 77.1562C399.545 77.5777 399.907 78.1364 400.177 78.8324C400.447 79.5284 400.582 80.3854 400.582 81.4034V82.1136H392.173V80.6648H398.877C398.877 80.0492 398.754 79.5 398.508 79.017C398.267 78.5341 397.921 78.1529 397.471 77.8736C397.026 77.5942 396.501 77.4545 395.895 77.4545C395.227 77.4545 394.649 77.6203 394.162 77.9517C393.679 78.2784 393.307 78.7045 393.047 79.2301C392.786 79.7557 392.656 80.3191 392.656 80.9205V81.8864C392.656 82.7102 392.798 83.4086 393.082 83.9815C393.371 84.5497 393.771 84.983 394.282 85.2812C394.794 85.5748 395.388 85.7216 396.065 85.7216C396.505 85.7216 396.903 85.66 397.258 85.5369C397.618 85.4091 397.928 85.2197 398.189 84.9688C398.449 84.7131 398.65 84.3958 398.792 84.017L400.412 84.4716C400.241 85.0208 399.955 85.5038 399.552 85.9205C399.15 86.3324 398.653 86.6544 398.061 86.8864C397.469 87.1136 396.804 87.2273 396.065 87.2273ZM403.132 87V76.0909H404.751V77.7386H404.865C405.064 77.1989 405.423 76.7609 405.944 76.4247C406.465 76.0885 407.052 75.9205 407.706 75.9205C407.829 75.9205 407.983 75.9228 408.167 75.9276C408.352 75.9323 408.492 75.9394 408.586 75.9489V77.6534C408.529 77.6392 408.399 77.6179 408.196 77.5895C407.997 77.5563 407.786 77.5398 407.564 77.5398C407.033 77.5398 406.56 77.651 406.143 77.8736C405.731 78.0914 405.404 78.3944 405.163 78.7827C404.926 79.1662 404.808 79.6042 404.808 80.0966V87H403.132ZM418.3 78.5341L416.795 78.9602C416.7 78.7093 416.56 78.4654 416.376 78.2287C416.196 77.9872 415.95 77.7884 415.637 77.6321C415.325 77.4759 414.924 77.3977 414.437 77.3977C413.769 77.3977 413.213 77.5516 412.768 77.8594C412.327 78.1624 412.107 78.5483 412.107 79.017C412.107 79.4337 412.259 79.7628 412.562 80.0043C412.865 80.2457 413.338 80.447 413.982 80.608L415.602 81.0057C416.577 81.2424 417.304 81.6046 417.782 82.0923C418.26 82.5753 418.499 83.1979 418.499 83.9602C418.499 84.5852 418.319 85.1439 417.96 85.6364C417.604 86.1288 417.107 86.517 416.468 86.8011C415.829 87.0852 415.085 87.2273 414.238 87.2273C413.125 87.2273 412.204 86.9858 411.475 86.5028C410.746 86.0199 410.284 85.3144 410.09 84.3864L411.681 83.9886C411.833 84.5758 412.119 85.0161 412.54 85.3097C412.967 85.6032 413.523 85.75 414.21 85.75C414.991 85.75 415.611 85.5843 416.07 85.2528C416.534 84.9167 416.766 84.5142 416.766 84.0455C416.766 83.6667 416.634 83.3494 416.369 83.0938C416.103 82.8333 415.696 82.6392 415.147 82.5114L413.329 82.0852C412.33 81.8485 411.596 81.4815 411.127 80.9844C410.663 80.4825 410.431 79.8551 410.431 79.1023C410.431 78.4867 410.604 77.9422 410.95 77.4688C411.3 76.9953 411.776 76.6236 412.377 76.3537C412.983 76.0838 413.67 75.9489 414.437 75.9489C415.516 75.9489 416.364 76.1856 416.979 76.6591C417.6 77.1326 418.04 77.7576 418.3 78.5341Z" fill="black"/>
</g>
<g filter="url(#filter2_d_1138_2184)">
<rect x="600.5" y="4.5" width="239" height="97" rx="7.5" stroke="#D4D4D4" shape-rendering="crispEdges"/>
<path d="M610.58 33.2102V32.2727H617.125V33.2102H614.381V41H613.324V33.2102H610.58ZM620.33 41.1364C619.739 41.1364 619.22 40.9957 618.774 40.7145C618.331 40.4332 617.984 40.0398 617.734 39.5341C617.487 39.0284 617.364 38.4375 617.364 37.7614C617.364 37.0795 617.487 36.4844 617.734 35.9759C617.984 35.4673 618.331 35.0724 618.774 34.7912C619.22 34.5099 619.739 34.3693 620.33 34.3693C620.92 34.3693 621.438 34.5099 621.881 34.7912C622.327 35.0724 622.673 35.4673 622.92 35.9759C623.17 36.4844 623.295 37.0795 623.295 37.7614C623.295 38.4375 623.17 39.0284 622.92 39.5341C622.673 40.0398 622.327 40.4332 621.881 40.7145C621.438 40.9957 620.92 41.1364 620.33 41.1364ZM620.33 40.233C620.778 40.233 621.148 40.1179 621.438 39.8878C621.727 39.6577 621.942 39.3551 622.081 38.9801C622.22 38.6051 622.29 38.1989 622.29 37.7614C622.29 37.3239 622.22 36.9162 622.081 36.5384C621.942 36.1605 621.727 35.8551 621.438 35.6222C621.148 35.3892 620.778 35.2727 620.33 35.2727C619.881 35.2727 619.511 35.3892 619.222 35.6222C618.932 35.8551 618.717 36.1605 618.578 36.5384C618.439 36.9162 618.369 37.3239 618.369 37.7614C618.369 38.1989 618.439 38.6051 618.578 38.9801C618.717 39.3551 618.932 39.6577 619.222 39.8878C619.511 40.1179 619.881 40.233 620.33 40.233ZM627.677 34.4545V35.3068H624.285V34.4545H627.677ZM625.274 32.8864H626.279V39.125C626.279 39.4091 626.321 39.6222 626.403 39.7642C626.488 39.9034 626.596 39.9972 626.727 40.0455C626.86 40.0909 627.001 40.1136 627.149 40.1136C627.26 40.1136 627.35 40.108 627.422 40.0966C627.493 40.0824 627.549 40.071 627.592 40.0625L627.797 40.9659C627.728 40.9915 627.633 41.017 627.511 41.0426C627.389 41.071 627.234 41.0852 627.047 41.0852C626.762 41.0852 626.484 41.0241 626.211 40.902C625.941 40.7798 625.717 40.5938 625.538 40.3438C625.362 40.0938 625.274 39.7784 625.274 39.3977V32.8864ZM631.116 41.1534C630.701 41.1534 630.325 41.0753 629.987 40.919C629.649 40.7599 629.38 40.5312 629.181 40.233C628.983 39.9318 628.883 39.5682 628.883 39.142C628.883 38.767 628.957 38.4631 629.105 38.2301C629.252 37.9943 629.45 37.8097 629.697 37.6761C629.944 37.5426 630.217 37.4432 630.515 37.3778C630.816 37.3097 631.119 37.2557 631.423 37.2159C631.821 37.1648 632.143 37.1264 632.39 37.1009C632.64 37.0724 632.822 37.0256 632.936 36.9602C633.052 36.8949 633.11 36.7812 633.11 36.6193V36.5852C633.11 36.1648 632.995 35.8381 632.765 35.6051C632.538 35.3722 632.193 35.2557 631.73 35.2557C631.25 35.2557 630.873 35.3608 630.6 35.571C630.328 35.7812 630.136 36.0057 630.025 36.2443L629.071 35.9034C629.241 35.5057 629.468 35.196 629.752 34.9744C630.039 34.75 630.352 34.5937 630.69 34.5057C631.031 34.4148 631.366 34.3693 631.696 34.3693C631.906 34.3693 632.147 34.3949 632.42 34.446C632.696 34.4943 632.961 34.5952 633.217 34.7486C633.475 34.902 633.69 35.1335 633.86 35.4432C634.031 35.7528 634.116 36.1676 634.116 36.6875V41H633.11V40.1136H633.059C632.991 40.2557 632.877 40.4077 632.718 40.5696C632.559 40.7315 632.348 40.8693 632.083 40.983C631.819 41.0966 631.497 41.1534 631.116 41.1534ZM631.27 40.25C631.667 40.25 632.002 40.1719 632.275 40.0156C632.551 39.8594 632.758 39.6577 632.897 39.4105C633.039 39.1634 633.11 38.9034 633.11 38.6307V37.7102C633.068 37.7614 632.974 37.8082 632.829 37.8509C632.687 37.8906 632.522 37.9261 632.335 37.9574C632.15 37.9858 631.97 38.0114 631.794 38.0341C631.62 38.054 631.48 38.071 631.372 38.0852C631.11 38.1193 630.866 38.1747 630.639 38.2514C630.414 38.3253 630.233 38.4375 630.093 38.5881C629.957 38.7358 629.889 38.9375 629.889 39.1932C629.889 39.5426 630.018 39.8068 630.277 39.9858C630.538 40.1619 630.869 40.25 631.27 40.25ZM636.957 32.2727V41H635.952V32.2727H636.957ZM645.004 41H642.311V32.2727H645.123C645.97 32.2727 646.694 32.4474 647.297 32.7969C647.899 33.1435 648.36 33.642 648.681 34.2926C649.002 34.9403 649.163 35.7159 649.163 36.6193C649.163 37.5284 649.001 38.3111 648.677 38.9673C648.353 39.6207 647.882 40.1236 647.262 40.4759C646.643 40.8253 645.89 41 645.004 41ZM643.368 40.0625H644.936C645.657 40.0625 646.255 39.9233 646.73 39.6449C647.204 39.3665 647.558 38.9702 647.791 38.456C648.024 37.9418 648.14 37.3295 648.14 36.6193C648.14 35.9148 648.025 35.3082 647.795 34.7997C647.565 34.2884 647.221 33.8963 646.764 33.6236C646.306 33.348 645.737 33.2102 645.055 33.2102H643.368V40.0625ZM653.544 41.1364C652.913 41.1364 652.369 40.9972 651.912 40.7188C651.457 40.4375 651.106 40.0455 650.859 39.5426C650.615 39.0369 650.493 38.4489 650.493 37.7784C650.493 37.108 650.615 36.517 650.859 36.0057C651.106 35.4915 651.45 35.0909 651.89 34.804C652.333 34.5142 652.85 34.3693 653.441 34.3693C653.782 34.3693 654.119 34.4261 654.451 34.5398C654.784 34.6534 655.086 34.8381 655.359 35.0938C655.632 35.3466 655.849 35.6818 656.011 36.0994C656.173 36.517 656.254 37.0312 656.254 37.642V38.0682H651.208V37.1989H655.231C655.231 36.8295 655.157 36.5 655.01 36.2102C654.865 35.9205 654.657 35.6918 654.387 35.5241C654.12 35.3565 653.805 35.2727 653.441 35.2727C653.041 35.2727 652.694 35.3722 652.402 35.571C652.112 35.767 651.889 36.0227 651.733 36.3381C651.576 36.6534 651.498 36.9915 651.498 37.3523V37.9318C651.498 38.4261 651.583 38.8452 651.754 39.1889C651.927 39.5298 652.167 39.7898 652.474 39.9688C652.781 40.1449 653.137 40.233 653.544 40.233C653.808 40.233 654.047 40.196 654.26 40.1222C654.475 40.0455 654.662 39.9318 654.818 39.7812C654.974 39.6278 655.095 39.4375 655.18 39.2102L656.152 39.483C656.049 39.8125 655.877 40.1023 655.636 40.3523C655.395 40.5994 655.096 40.7926 654.741 40.9318C654.386 41.0682 653.987 41.1364 653.544 41.1364ZM658.789 32.2727V41H657.784V32.2727H658.789ZM660.631 41V34.4545H661.637V41H660.631ZM661.143 33.3636C660.947 33.3636 660.778 33.2969 660.636 33.1634C660.496 33.0298 660.427 32.8693 660.427 32.6818C660.427 32.4943 660.496 32.3338 660.636 32.2003C660.778 32.0668 660.947 32 661.143 32C661.339 32 661.506 32.0668 661.646 32.2003C661.788 32.3338 661.859 32.4943 661.859 32.6818C661.859 32.8693 661.788 33.0298 661.646 33.1634C661.506 33.2969 661.339 33.3636 661.143 33.3636ZM668.831 34.4545L666.411 41H665.388L662.968 34.4545H664.059L665.865 39.6705H665.934L667.74 34.4545H668.831ZM672.669 41.1364C672.038 41.1364 671.494 40.9972 671.037 40.7188C670.582 40.4375 670.231 40.0455 669.984 39.5426C669.74 39.0369 669.618 38.4489 669.618 37.7784C669.618 37.108 669.74 36.517 669.984 36.0057C670.231 35.4915 670.575 35.0909 671.015 34.804C671.458 34.5142 671.975 34.3693 672.566 34.3693C672.907 34.3693 673.244 34.4261 673.576 34.5398C673.909 34.6534 674.211 34.8381 674.484 35.0938C674.757 35.3466 674.974 35.6818 675.136 36.0994C675.298 36.517 675.379 37.0312 675.379 37.642V38.0682H670.333V37.1989H674.356C674.356 36.8295 674.282 36.5 674.135 36.2102C673.99 35.9205 673.782 35.6918 673.512 35.5241C673.245 35.3565 672.93 35.2727 672.566 35.2727C672.166 35.2727 671.819 35.3722 671.527 35.571C671.237 35.767 671.014 36.0227 670.858 36.3381C670.701 36.6534 670.623 36.9915 670.623 37.3523V37.9318C670.623 38.4261 670.708 38.8452 670.879 39.1889C671.052 39.5298 671.292 39.7898 671.599 39.9688C671.906 40.1449 672.262 40.233 672.669 40.233C672.933 40.233 673.172 40.196 673.385 40.1222C673.6 40.0455 673.787 39.9318 673.943 39.7812C674.099 39.6278 674.22 39.4375 674.305 39.2102L675.277 39.483C675.174 39.8125 675.002 40.1023 674.761 40.3523C674.52 40.5994 674.221 40.7926 673.866 40.9318C673.511 41.0682 673.112 41.1364 672.669 41.1364ZM676.909 41V34.4545H677.88V35.4432H677.949C678.068 35.1193 678.284 34.8565 678.596 34.6548C678.909 34.4531 679.261 34.3523 679.653 34.3523C679.727 34.3523 679.819 34.3537 679.93 34.3565C680.041 34.3594 680.125 34.3636 680.181 34.3693V35.392C680.147 35.3835 680.069 35.3707 679.947 35.3537C679.828 35.3338 679.701 35.3239 679.568 35.3239C679.25 35.3239 678.966 35.3906 678.716 35.5241C678.468 35.6548 678.272 35.8366 678.127 36.0696C677.985 36.2997 677.914 36.5625 677.914 36.858V41H676.909ZM681.374 41V34.4545H682.379V41H681.374ZM681.885 33.3636C681.689 33.3636 681.52 33.2969 681.378 33.1634C681.239 33.0298 681.169 32.8693 681.169 32.6818C681.169 32.4943 681.239 32.3338 681.378 32.2003C681.52 32.0668 681.689 32 681.885 32C682.081 32 682.249 32.0668 682.388 32.2003C682.53 32.3338 682.601 32.4943 682.601 32.6818C682.601 32.8693 682.53 33.0298 682.388 33.1634C682.249 33.2969 682.081 33.3636 681.885 33.3636ZM686.966 41.1364C686.335 41.1364 685.791 40.9972 685.333 40.7188C684.879 40.4375 684.528 40.0455 684.281 39.5426C684.037 39.0369 683.914 38.4489 683.914 37.7784C683.914 37.108 684.037 36.517 684.281 36.0057C684.528 35.4915 684.872 35.0909 685.312 34.804C685.755 34.5142 686.272 34.3693 686.863 34.3693C687.204 34.3693 687.541 34.4261 687.873 34.5398C688.206 34.6534 688.508 34.8381 688.781 35.0938C689.054 35.3466 689.271 35.6818 689.433 36.0994C689.595 36.517 689.676 37.0312 689.676 37.642V38.0682H684.63V37.1989H688.653C688.653 36.8295 688.579 36.5 688.431 36.2102C688.287 35.9205 688.079 35.6918 687.809 35.5241C687.542 35.3565 687.227 35.2727 686.863 35.2727C686.463 35.2727 686.116 35.3722 685.824 35.571C685.534 35.767 685.311 36.0227 685.154 36.3381C684.998 36.6534 684.92 36.9915 684.92 37.3523V37.9318C684.92 38.4261 685.005 38.8452 685.176 39.1889C685.349 39.5298 685.589 39.7898 685.896 39.9688C686.203 40.1449 686.559 40.233 686.966 40.233C687.23 40.233 687.468 40.196 687.681 40.1222C687.897 40.0455 688.083 39.9318 688.24 39.7812C688.396 39.6278 688.517 39.4375 688.602 39.2102L689.574 39.483C689.471 39.8125 689.299 40.1023 689.058 40.3523C688.816 40.5994 688.518 40.7926 688.163 40.9318C687.808 41.0682 687.409 41.1364 686.966 41.1364ZM695.842 35.9205L694.939 36.1761C694.882 36.0256 694.798 35.8793 694.687 35.7372C694.579 35.5923 694.431 35.473 694.244 35.3793C694.056 35.2855 693.816 35.2386 693.524 35.2386C693.123 35.2386 692.789 35.331 692.522 35.5156C692.258 35.6974 692.126 35.929 692.126 36.2102C692.126 36.4602 692.217 36.6577 692.399 36.8026C692.581 36.9474 692.865 37.0682 693.251 37.1648L694.223 37.4034C694.808 37.5455 695.244 37.7628 695.531 38.0554C695.818 38.3452 695.961 38.7187 695.961 39.1761C695.961 39.5511 695.853 39.8864 695.637 40.1818C695.424 40.4773 695.126 40.7102 694.743 40.8807C694.359 41.0511 693.913 41.1364 693.404 41.1364C692.737 41.1364 692.184 40.9915 691.747 40.7017C691.309 40.4119 691.032 39.9886 690.916 39.4318L691.87 39.1932C691.961 39.5455 692.133 39.8097 692.386 39.9858C692.642 40.1619 692.975 40.25 693.387 40.25C693.856 40.25 694.228 40.1506 694.504 39.9517C694.782 39.75 694.922 39.5085 694.922 39.2273C694.922 39 694.842 38.8097 694.683 38.6562C694.524 38.5 694.279 38.3835 693.95 38.3068L692.859 38.0511C692.26 37.9091 691.819 37.6889 691.538 37.3906C691.26 37.0895 691.12 36.7131 691.12 36.2614C691.12 35.892 691.224 35.5653 691.431 35.2812C691.642 34.9972 691.927 34.7741 692.288 34.6122C692.652 34.4503 693.064 34.3693 693.524 34.3693C694.172 34.3693 694.68 34.5114 695.049 34.7955C695.422 35.0795 695.686 35.4545 695.842 35.9205Z" fill="black"/>
<path d="M804.054 19.0493C803.526 19.0493 803.02 19.259 802.646 19.6322C802.273 20.0055 802.063 20.5117 802.063 21.0395V39.9462C802.063 40.474 802.273 40.9803 802.646 41.3534C803.02 41.7266 803.526 41.9364 804.054 41.9364H825.946C826.473 41.9364 826.98 41.7266 827.353 41.3534C827.726 40.9803 827.936 40.474 827.936 39.9462V21.0395C827.936 20.5117 827.726 20.0055 827.353 19.6322C826.98 19.259 826.473 19.0493 825.946 19.0493H821.965" stroke="#D71E1E" stroke-width="1.71" stroke-linecap="round" stroke-linejoin="round"/>
<path d="M802.063 26.0146H827.936" stroke="#D71E1E" stroke-width="1.71" stroke-linecap="round" stroke-linejoin="round"/>
<path d="M808.034 16.064V22.0345" stroke="#D71E1E" stroke-width="1.71" stroke-linecap="round" stroke-linejoin="round"/>
<path d="M821.965 16.064V22.0345" stroke="#D71E1E" stroke-width="1.71" stroke-linecap="round" stroke-linejoin="round"/>
<path d="M808.034 19.0493H817.985" stroke="#D71E1E" stroke-width="1.71" stroke-linecap="round" stroke-linejoin="round"/>
<path d="M611.506 87V85.7216L616.307 80.4659C616.87 79.8504 617.334 79.3153 617.699 78.8608C618.063 78.4015 618.333 77.9706 618.509 77.5682C618.688 77.161 618.778 76.7348 618.778 76.2898C618.778 75.7784 618.655 75.3357 618.409 74.9616C618.168 74.5876 617.836 74.2988 617.415 74.0952C616.993 73.8916 616.52 73.7898 615.994 73.7898C615.436 73.7898 614.948 73.9058 614.531 74.1378C614.119 74.3651 613.8 74.6847 613.572 75.0966C613.35 75.5085 613.239 75.9915 613.239 76.5455H611.562C611.562 75.6932 611.759 74.9451 612.152 74.3011C612.545 73.6572 613.08 73.1553 613.757 72.7955C614.439 72.4356 615.204 72.2557 616.051 72.2557C616.903 72.2557 617.659 72.4356 618.317 72.7955C618.975 73.1553 619.491 73.6406 619.865 74.2514C620.239 74.8622 620.426 75.5417 620.426 76.2898C620.426 76.8248 620.329 77.348 620.135 77.8594C619.946 78.366 619.614 78.9318 619.141 79.5568C618.672 80.1771 618.021 80.9347 617.188 81.8295L613.92 85.3239V85.4375H620.682V87H611.506ZM624.07 87L630.575 74.1307V74.017H623.075V72.4545H632.393V74.1023L625.916 87H624.07ZM639.407 87.1989C638.432 87.1989 637.57 87.026 636.822 86.6804C636.078 86.33 635.498 85.8494 635.082 85.2386C634.665 84.6231 634.459 83.9223 634.464 83.1364C634.459 82.5208 634.58 81.9527 634.826 81.4318C635.072 80.9062 635.408 80.4683 635.835 80.1179C636.265 79.7628 636.746 79.5379 637.276 79.4432V79.358C636.58 79.178 636.026 78.7874 635.614 78.1861C635.202 77.58 634.999 76.8911 635.004 76.1193C634.999 75.3807 635.186 74.7202 635.565 74.1378C635.943 73.5554 636.464 73.0961 637.127 72.7599C637.795 72.4238 638.555 72.2557 639.407 72.2557C640.25 72.2557 641.003 72.4238 641.665 72.7599C642.328 73.0961 642.849 73.5554 643.228 74.1378C643.612 74.7202 643.806 75.3807 643.81 76.1193C643.806 76.8911 643.595 77.58 643.178 78.1861C642.766 78.7874 642.219 79.178 641.538 79.358V79.4432C642.063 79.5379 642.537 79.7628 642.958 80.1179C643.379 80.4683 643.716 80.9062 643.967 81.4318C644.218 81.9527 644.345 82.5208 644.35 83.1364C644.345 83.9223 644.132 84.6231 643.711 85.2386C643.294 85.8494 642.714 86.33 641.971 86.6804C641.232 87.026 640.378 87.1989 639.407 87.1989ZM639.407 85.6364C640.065 85.6364 640.633 85.5298 641.112 85.3168C641.59 85.1037 641.959 84.803 642.219 84.4148C642.48 84.0265 642.612 83.572 642.617 83.0511C642.612 82.5019 642.47 82.0166 642.191 81.5952C641.912 81.1738 641.531 80.8423 641.048 80.6009C640.569 80.3594 640.022 80.2386 639.407 80.2386C638.787 80.2386 638.233 80.3594 637.745 80.6009C637.262 80.8423 636.881 81.1738 636.602 81.5952C636.327 82.0166 636.192 82.5019 636.197 83.0511C636.192 83.572 636.317 84.0265 636.573 84.4148C636.834 84.803 637.205 85.1037 637.688 85.3168C638.171 85.5298 638.744 85.6364 639.407 85.6364ZM639.407 78.733C639.928 78.733 640.389 78.6288 640.792 78.4205C641.199 78.2121 641.519 77.9209 641.751 77.5469C641.983 77.1728 642.101 76.7348 642.106 76.233C642.101 75.7405 641.985 75.312 641.758 74.9474C641.531 74.5781 641.216 74.294 640.813 74.0952C640.411 73.8916 639.942 73.7898 639.407 73.7898C638.862 73.7898 638.387 73.8916 637.979 74.0952C637.572 74.294 637.257 74.5781 637.035 74.9474C636.812 75.312 636.703 75.7405 636.708 76.233C636.703 76.7348 636.815 77.1728 637.042 77.5469C637.274 77.9209 637.594 78.2121 638.001 78.4205C638.408 78.6288 638.877 78.733 639.407 78.733ZM651.731 87.1989C650.756 87.1989 649.894 87.026 649.146 86.6804C648.403 86.33 647.823 85.8494 647.406 85.2386C646.989 84.6231 646.783 83.9223 646.788 83.1364C646.783 82.5208 646.904 81.9527 647.15 81.4318C647.396 80.9062 647.733 80.4683 648.159 80.1179C648.59 79.7628 649.07 79.5379 649.6 79.4432V79.358C648.904 79.178 648.35 78.7874 647.939 78.1861C647.527 77.58 647.323 76.8911 647.328 76.1193C647.323 75.3807 647.51 74.7202 647.889 74.1378C648.268 73.5554 648.788 73.0961 649.451 72.7599C650.119 72.4238 650.879 72.2557 651.731 72.2557C652.574 72.2557 653.327 72.4238 653.99 72.7599C654.653 73.0961 655.173 73.5554 655.552 74.1378C655.936 74.7202 656.13 75.3807 656.135 76.1193C656.13 76.8911 655.919 77.58 655.502 78.1861C655.091 78.7874 654.544 79.178 653.862 79.358V79.4432C654.387 79.5379 654.861 79.7628 655.282 80.1179C655.704 80.4683 656.04 80.9062 656.291 81.4318C656.542 81.9527 656.67 82.5208 656.674 83.1364C656.67 83.9223 656.457 84.6231 656.035 85.2386C655.618 85.8494 655.038 86.33 654.295 86.6804C653.556 87.026 652.702 87.1989 651.731 87.1989ZM651.731 85.6364C652.389 85.6364 652.958 85.5298 653.436 85.3168C653.914 85.1037 654.283 84.803 654.544 84.4148C654.804 84.0265 654.937 83.572 654.941 83.0511C654.937 82.5019 654.795 82.0166 654.515 81.5952C654.236 81.1738 653.855 80.8423 653.372 80.6009C652.894 80.3594 652.347 80.2386 651.731 80.2386C651.111 80.2386 650.557 80.3594 650.069 80.6009C649.586 80.8423 649.205 81.1738 648.926 81.5952C648.651 82.0166 648.516 82.5019 648.521 83.0511C648.516 83.572 648.642 84.0265 648.897 84.4148C649.158 84.803 649.529 85.1037 650.012 85.3168C650.495 85.5298 651.068 85.6364 651.731 85.6364ZM651.731 78.733C652.252 78.733 652.714 78.6288 653.116 78.4205C653.523 78.2121 653.843 77.9209 654.075 77.5469C654.307 77.1728 654.425 76.7348 654.43 76.233C654.425 75.7405 654.309 75.312 654.082 74.9474C653.855 74.5781 653.54 74.294 653.137 74.0952C652.735 73.8916 652.266 73.7898 651.731 73.7898C651.187 73.7898 650.711 73.8916 650.304 74.0952C649.896 74.294 649.582 74.5781 649.359 74.9474C649.136 75.312 649.028 75.7405 649.032 76.233C649.028 76.7348 649.139 77.1728 649.366 77.5469C649.598 77.9209 649.918 78.2121 650.325 78.4205C650.732 78.6288 651.201 78.733 651.731 78.733ZM659.851 87L666.357 74.1307V74.017H658.857V72.4545H668.175V74.1023L661.697 87H659.851ZM675.188 87.1989C674.213 87.1989 673.351 87.026 672.603 86.6804C671.86 86.33 671.28 85.8494 670.863 85.2386C670.446 84.6231 670.24 83.9223 670.245 83.1364C670.24 82.5208 670.361 81.9527 670.607 81.4318C670.853 80.9062 671.19 80.4683 671.616 80.1179C672.047 79.7628 672.527 79.5379 673.058 79.4432V79.358C672.362 79.178 671.808 78.7874 671.396 78.1861C670.984 77.58 670.78 76.8911 670.785 76.1193C670.78 75.3807 670.967 74.7202 671.346 74.1378C671.725 73.5554 672.246 73.0961 672.908 72.7599C673.576 72.4238 674.336 72.2557 675.188 72.2557C676.031 72.2557 676.784 72.4238 677.447 72.7599C678.11 73.0961 678.63 73.5554 679.009 74.1378C679.393 74.7202 679.587 75.3807 679.592 76.1193C679.587 76.8911 679.376 77.58 678.96 78.1861C678.548 78.7874 678.001 79.178 677.319 79.358V79.4432C677.844 79.5379 678.318 79.7628 678.739 80.1179C679.161 80.4683 679.497 80.9062 679.748 81.4318C679.999 81.9527 680.127 82.5208 680.131 83.1364C680.127 83.9223 679.914 84.6231 679.492 85.2386C679.076 85.8494 678.496 86.33 677.752 86.6804C677.013 87.026 676.159 87.1989 675.188 87.1989ZM675.188 85.6364C675.846 85.6364 676.415 85.5298 676.893 85.3168C677.371 85.1037 677.74 84.803 678.001 84.4148C678.261 84.0265 678.394 83.572 678.398 83.0511C678.394 82.5019 678.252 82.0166 677.972 81.5952C677.693 81.1738 677.312 80.8423 676.829 80.6009C676.351 80.3594 675.804 80.2386 675.188 80.2386C674.568 80.2386 674.014 80.3594 673.526 80.6009C673.043 80.8423 672.662 81.1738 672.383 81.5952C672.108 82.0166 671.973 82.5019 671.978 83.0511C671.973 83.572 672.099 84.0265 672.354 84.4148C672.615 84.803 672.987 85.1037 673.469 85.3168C673.952 85.5298 674.525 85.6364 675.188 85.6364ZM675.188 78.733C675.709 78.733 676.171 78.6288 676.573 78.4205C676.98 78.2121 677.3 77.9209 677.532 77.5469C677.764 77.1728 677.882 76.7348 677.887 76.233C677.882 75.7405 677.766 75.312 677.539 74.9474C677.312 74.5781 676.997 74.294 676.594 74.0952C676.192 73.8916 675.723 73.7898 675.188 73.7898C674.644 73.7898 674.168 73.8916 673.761 74.0952C673.353 74.294 673.039 74.5781 672.816 74.9474C672.594 75.312 672.485 75.7405 672.489 76.233C672.485 76.7348 672.596 77.1728 672.823 77.5469C673.055 77.9209 673.375 78.2121 673.782 78.4205C674.189 78.6288 674.658 78.733 675.188 78.733ZM687.683 87.1989C687.086 87.1894 686.49 87.0758 685.893 86.858C685.297 86.6402 684.752 86.2732 684.26 85.7571C683.767 85.2363 683.372 84.5331 683.074 83.6477C682.775 82.7576 682.626 81.6402 682.626 80.2955C682.626 79.0076 682.747 77.8665 682.988 76.8722C683.23 75.8731 683.58 75.0327 684.039 74.3509C684.499 73.6643 685.053 73.1435 685.701 72.7884C686.355 72.4332 687.091 72.2557 687.91 72.2557C688.725 72.2557 689.449 72.419 690.083 72.7457C690.723 73.0677 691.243 73.5175 691.646 74.0952C692.048 74.6728 692.309 75.3381 692.427 76.0909H690.694C690.533 75.4375 690.221 74.8954 689.757 74.4645C689.293 74.0336 688.677 73.8182 687.91 73.8182C686.783 73.8182 685.895 74.3082 685.247 75.2884C684.603 76.2685 684.279 77.6439 684.274 79.4148H684.387C684.653 79.0123 684.967 78.669 685.332 78.3849C685.701 78.0961 686.109 77.8736 686.554 77.7173C686.999 77.5611 687.47 77.483 687.967 77.483C688.8 77.483 689.563 77.6913 690.254 78.108C690.945 78.5199 691.499 79.0904 691.916 79.8196C692.333 80.544 692.541 81.375 692.541 82.3125C692.541 83.2121 692.34 84.036 691.937 84.7841C691.535 85.5275 690.969 86.1193 690.24 86.5597C689.515 86.9953 688.663 87.2083 687.683 87.1989ZM687.683 85.6364C688.279 85.6364 688.815 85.4872 689.288 85.1889C689.766 84.8906 690.143 84.4905 690.417 83.9886C690.697 83.4867 690.836 82.928 690.836 82.3125C690.836 81.7112 690.701 81.1643 690.431 80.6719C690.166 80.1747 689.799 79.7794 689.331 79.4858C688.867 79.1922 688.336 79.0455 687.74 79.0455C687.29 79.0455 686.871 79.1354 686.483 79.3153C686.094 79.4905 685.753 79.732 685.46 80.0398C685.171 80.3475 684.944 80.7003 684.778 81.098C684.612 81.491 684.529 81.9053 684.529 82.3409C684.529 82.9186 684.664 83.4583 684.934 83.9602C685.209 84.4621 685.583 84.867 686.056 85.1747C686.535 85.4825 687.077 85.6364 687.683 85.6364ZM713.487 79.7273C713.487 81.2614 713.21 82.5871 712.656 83.7045C712.102 84.822 711.342 85.6837 710.376 86.2898C709.411 86.8958 708.307 87.1989 707.067 87.1989C705.826 87.1989 704.723 86.8958 703.757 86.2898C702.791 85.6837 702.031 84.822 701.477 83.7045C700.923 82.5871 700.646 81.2614 700.646 79.7273C700.646 78.1932 700.923 76.8674 701.477 75.75C702.031 74.6326 702.791 73.7708 703.757 73.1648C704.723 72.5587 705.826 72.2557 707.067 72.2557C708.307 72.2557 709.411 72.5587 710.376 73.1648C711.342 73.7708 712.102 74.6326 712.656 75.75C713.21 76.8674 713.487 78.1932 713.487 79.7273ZM711.783 79.7273C711.783 78.4678 711.572 77.4048 711.151 76.5384C710.734 75.6719 710.168 75.0161 709.453 74.571C708.743 74.1259 707.947 73.9034 707.067 73.9034C706.186 73.9034 705.388 74.1259 704.673 74.571C703.963 75.0161 703.397 75.6719 702.976 76.5384C702.559 77.4048 702.351 78.4678 702.351 79.7273C702.351 80.9867 702.559 82.0497 702.976 82.9162C703.397 83.7827 703.963 84.4384 704.673 84.8835C705.388 85.3286 706.186 85.5511 707.067 85.5511C707.947 85.5511 708.743 85.3286 709.453 84.8835C710.168 84.4384 710.734 83.7827 711.151 82.9162C711.572 82.0497 711.783 80.9867 711.783 79.7273ZM716.222 87V76.0909H717.841V77.7386H717.955C718.153 77.1989 718.513 76.7609 719.034 76.4247C719.555 76.0885 720.142 75.9205 720.795 75.9205C720.919 75.9205 721.072 75.9228 721.257 75.9276C721.442 75.9323 721.581 75.9394 721.676 75.9489V77.6534C721.619 77.6392 721.489 77.6179 721.286 77.5895C721.087 77.5563 720.876 77.5398 720.653 77.5398C720.123 77.5398 719.65 77.651 719.233 77.8736C718.821 78.0914 718.494 78.3944 718.253 78.7827C718.016 79.1662 717.898 79.6042 717.898 80.0966V87H716.222ZM727.45 87.2273C726.541 87.2273 725.739 86.9976 725.043 86.5384C724.347 86.0743 723.802 85.4209 723.409 84.5781C723.016 83.7306 722.82 82.7292 722.82 81.5739C722.82 80.428 723.016 79.4337 723.409 78.5909C723.802 77.7481 724.349 77.0971 725.05 76.6378C725.75 76.1785 726.56 75.9489 727.479 75.9489C728.189 75.9489 728.75 76.0672 729.162 76.304C729.579 76.536 729.896 76.8011 730.114 77.0994C730.336 77.393 730.509 77.6345 730.632 77.8239H730.774V72.4545H732.45V87H730.831V85.3239H730.632C730.509 85.5227 730.334 85.7737 730.107 86.0767C729.879 86.375 729.555 86.6425 729.134 86.8793C728.712 87.1113 728.151 87.2273 727.45 87.2273ZM727.678 85.7216C728.35 85.7216 728.918 85.5464 729.382 85.196C729.846 84.8409 730.199 84.3509 730.44 83.7259C730.682 83.0961 730.803 82.3693 730.803 81.5455C730.803 80.7311 730.684 80.0185 730.447 79.4077C730.211 78.7921 729.86 78.3139 729.396 77.973C728.932 77.6274 728.359 77.4545 727.678 77.4545C726.967 77.4545 726.375 77.6368 725.902 78.0014C725.433 78.3613 725.08 78.8513 724.844 79.4716C724.612 80.0871 724.496 80.7784 724.496 81.5455C724.496 82.322 724.614 83.0275 724.851 83.6619C725.092 84.2917 725.447 84.7936 725.916 85.1676C726.39 85.5369 726.977 85.7216 727.678 85.7216ZM740.327 87.2273C739.276 87.2273 738.369 86.9953 737.607 86.5312C736.849 86.0625 736.264 85.4091 735.852 84.571C735.445 83.7282 735.241 82.7481 735.241 81.6307C735.241 80.5133 735.445 79.5284 735.852 78.6761C736.264 77.8191 736.837 77.1515 737.571 76.6733C738.31 76.1903 739.171 75.9489 740.156 75.9489C740.724 75.9489 741.286 76.0436 741.839 76.233C742.393 76.4223 742.898 76.7301 743.352 77.1562C743.807 77.5777 744.169 78.1364 744.439 78.8324C744.709 79.5284 744.844 80.3854 744.844 81.4034V82.1136H736.435V80.6648H743.139C743.139 80.0492 743.016 79.5 742.77 79.017C742.528 78.5341 742.183 78.1529 741.733 77.8736C741.288 77.5942 740.762 77.4545 740.156 77.4545C739.489 77.4545 738.911 77.6203 738.423 77.9517C737.94 78.2784 737.569 78.7045 737.308 79.2301C737.048 79.7557 736.918 80.3191 736.918 80.9205V81.8864C736.918 82.7102 737.06 83.4086 737.344 83.9815C737.633 84.5497 738.033 84.983 738.544 85.2812C739.055 85.5748 739.65 85.7216 740.327 85.7216C740.767 85.7216 741.165 85.66 741.52 85.5369C741.88 85.4091 742.19 85.2197 742.45 84.9688C742.711 84.7131 742.912 84.3958 743.054 84.017L744.673 84.4716C744.503 85.0208 744.216 85.5038 743.814 85.9205C743.411 86.3324 742.914 86.6544 742.322 86.8864C741.731 87.1136 741.065 87.2273 740.327 87.2273ZM747.393 87V76.0909H749.013V77.7386H749.126C749.325 77.1989 749.685 76.7609 750.206 76.4247C750.727 76.0885 751.314 75.9205 751.967 75.9205C752.09 75.9205 752.244 75.9228 752.429 75.9276C752.614 75.9323 752.753 75.9394 752.848 75.9489V77.6534C752.791 77.6392 752.661 77.6179 752.457 77.5895C752.259 77.5563 752.048 77.5398 751.825 77.5398C751.295 77.5398 750.821 77.651 750.405 77.8736C749.993 78.0914 749.666 78.3944 749.425 78.7827C749.188 79.1662 749.07 79.6042 749.07 80.0966V87H747.393ZM762.562 78.5341L761.056 78.9602C760.962 78.7093 760.822 78.4654 760.637 78.2287C760.458 77.9872 760.211 77.7884 759.899 77.6321C759.586 77.4759 759.186 77.3977 758.699 77.3977C758.031 77.3977 757.475 77.5516 757.029 77.8594C756.589 78.1624 756.369 78.5483 756.369 79.017C756.369 79.4337 756.52 79.7628 756.824 80.0043C757.127 80.2457 757.6 80.447 758.244 80.608L759.863 81.0057C760.839 81.2424 761.565 81.6046 762.044 82.0923C762.522 82.5753 762.761 83.1979 762.761 83.9602C762.761 84.5852 762.581 85.1439 762.221 85.6364C761.866 86.1288 761.369 86.517 760.73 86.8011C760.091 87.0852 759.347 87.2273 758.5 87.2273C757.387 87.2273 756.466 86.9858 755.737 86.5028C755.008 86.0199 754.546 85.3144 754.352 84.3864L755.943 83.9886C756.094 84.5758 756.381 85.0161 756.802 85.3097C757.228 85.6032 757.785 85.75 758.471 85.75C759.252 85.75 759.873 85.5843 760.332 85.2528C760.796 84.9167 761.028 84.5142 761.028 84.0455C761.028 83.6667 760.895 83.3494 760.63 83.0938C760.365 82.8333 759.958 82.6392 759.409 82.5114L757.591 82.0852C756.592 81.8485 755.858 81.4815 755.389 80.9844C754.925 80.4825 754.693 79.8551 754.693 79.1023C754.693 78.4867 754.866 77.9422 755.211 77.4688C755.562 76.9953 756.038 76.6236 756.639 76.3537C757.245 76.0838 757.931 75.9489 758.699 75.9489C759.778 75.9489 760.626 76.1856 761.241 76.6591C761.861 77.1326 762.302 77.7576 762.562 78.5341Z" fill="black"/>
</g>
<defs>
<filter id="filter0_d_1138_2184" x="0" y="0" width="256" height="114" filterUnits="userSpaceOnUse" color-interpolation-filters="sRGB">
<feFlood flood-opacity="0" result="BackgroundImageFix"/>
<feColorMatrix in="SourceAlpha" type="matrix" values="0 0 0 0 0 0 0 0 0 0 0 0 0 0 0 0 0 0 127 0" result="hardAlpha"/>
<feOffset dy="4"/>
<feGaussianBlur stdDeviation="4"/>
<feComposite in2="hardAlpha" operator="out"/>
<feColorMatrix type="matrix" values="0 0 0 0 0 0 0 0 0 0 0 0 0 0 0 0 0 0 0.25 0"/>
<feBlend mode="normal" in2="BackgroundImageFix" result="effect1_dropShadow_1138_2184"/>
<feBlend mode="normal" in="SourceGraphic" in2="effect1_dropShadow_1138_2184" result="shape"/>
</filter>
<filter id="filter1_d_1138_2184" x="296" y="0" width="256" height="114" filterUnits="userSpaceOnUse" color-interpolation-filters="sRGB">
<feFlood flood-opacity="0" result="BackgroundImageFix"/>
<feColorMatrix in="SourceAlpha" type="matrix" values="0 0 0 0 0 0 0 0 0 0 0 0 0 0 0 0 0 0 127 0" result="hardAlpha"/>
<feOffset dy="4"/>
<feGaussianBlur stdDeviation="4"/>
<feComposite in2="hardAlpha" operator="out"/>
<feColorMatrix type="matrix" values="0 0 0 0 0 0 0 0 0 0 0 0 0 0 0 0 0 0 0.25 0"/>
<feBlend mode="normal" in2="BackgroundImageFix" result="effect1_dropShadow_1138_2184"/>
<feBlend mode="normal" in="SourceGraphic" in2="effect1_dropShadow_1138_2184" result="shape"/>
</filter>
<filter id="filter2_d_1138_2184" x="592" y="0" width="256" height="114" filterUnits="userSpaceOnUse" color-interpolation-filters="sRGB">
<feFlood flood-opacity="0" result="BackgroundImageFix"/>
<feColorMatrix in="SourceAlpha" type="matrix" values="0 0 0 0 0 0 0 0 0 0 0 0 0 0 0 0 0 0 127 0" result="hardAlpha"/>
<feOffset dy="4"/>
<feGaussianBlur stdDeviation="4"/>
<feComposite in2="hardAlpha" operator="out"/>
<feColorMatrix type="matrix" values="0 0 0 0 0 0 0 0 0 0 0 0 0 0 0 0 0 0 0.25 0"/>
<feBlend mode="normal" in2="BackgroundImageFix" result="effect1_dropShadow_1138_2184"/>
<feBlend mode="normal" in="SourceGraphic" in2="effect1_dropShadow_1138_2184" result="shape"/>
</filter>
</defs>
</svg>
