<svg width="208" height="24" viewBox="0 0 208 24" fill="none" xmlns="http://www.w3.org/2000/svg">
<path d="M21.409 9.61194H2.58987C1.69828 9.61194 1.31616 8.64074 2.01671 8.17901L11.4263 2.01742C11.6 1.91522 11.7979 1.86133 11.9994 1.86133C12.201 1.86133 12.3989 1.91522 12.5726 2.01742L21.9822 8.17901C22.6827 8.64074 22.3006 9.61194 21.409 9.61194Z" stroke="white" stroke-linecap="round" stroke-linejoin="round"/>
<path d="M21.5522 18.3682H2.44646C2.0068 18.3682 1.65039 18.7246 1.65039 19.1642V21.5525C1.65039 21.992 2.0068 22.3485 2.44646 22.3485H21.5522C21.9918 22.3485 22.3482 21.992 22.3482 21.5525V19.1642C22.3482 18.7246 21.9918 18.3682 21.5522 18.3682Z" stroke="white" stroke-linecap="round" stroke-linejoin="round"/>
<path d="M4.03906 9.61133V18.3681" stroke="white" stroke-linecap="round" stroke-linejoin="round"/>
<path d="M9.3457 9.61133V18.3681" stroke="white" stroke-linecap="round" stroke-linejoin="round"/>
<path d="M14.6523 9.61133V18.3681" stroke="white" stroke-linecap="round" stroke-linejoin="round"/>
<path d="M19.9609 9.61133V18.3681" stroke="white" stroke-linecap="round" stroke-linejoin="round"/>
<path d="M42.3473 5.86364H44.8075V13.4205C44.8075 14.2689 44.6049 15.0114 44.1996 15.6477C43.7981 16.2841 43.2356 16.7803 42.5121 17.1364C41.7886 17.4886 40.9458 17.6648 39.9837 17.6648C39.0178 17.6648 38.1731 17.4886 37.4496 17.1364C36.7261 16.7803 36.1636 16.2841 35.7621 15.6477C35.3606 15.0114 35.1598 14.2689 35.1598 13.4205V5.86364H37.62V13.2102C37.62 13.6534 37.7166 14.0473 37.9098 14.392C38.1068 14.7367 38.3833 15.0076 38.7393 15.2045C39.0954 15.4015 39.5102 15.5 39.9837 15.5C40.4609 15.5 40.8757 15.4015 41.228 15.2045C41.584 15.0076 41.8587 14.7367 42.0518 14.392C42.2488 14.0473 42.3473 13.6534 42.3473 13.2102V5.86364ZM49.2067 12.4545V17.5H46.7862V8.77273H49.093V10.3125H49.1953C49.3885 9.80492 49.7124 9.40341 50.1669 9.10795C50.6214 8.80871 51.1726 8.65909 51.8203 8.65909C52.4264 8.65909 52.9548 8.79167 53.4055 9.05682C53.8563 9.32197 54.2067 9.70076 54.4567 10.1932C54.7067 10.6818 54.8317 11.2652 54.8317 11.9432V17.5H52.4112V12.375C52.415 11.8409 52.2786 11.4242 52.0021 11.125C51.7256 10.822 51.3449 10.6705 50.8601 10.6705C50.5343 10.6705 50.2464 10.7405 49.9964 10.8807C49.7502 11.0208 49.5571 11.2254 49.4169 11.4943C49.2805 11.7595 49.2105 12.0795 49.2067 12.4545ZM59.1598 5.86364V17.5H56.7393V5.86364H59.1598ZM61.0987 17.5V8.77273H63.5192V17.5H61.0987ZM62.3146 7.64773C61.9548 7.64773 61.6461 7.52841 61.3885 7.28977C61.1347 7.04735 61.0078 6.75758 61.0078 6.42045C61.0078 6.08712 61.1347 5.80114 61.3885 5.5625C61.6461 5.32008 61.9548 5.19886 62.3146 5.19886C62.6745 5.19886 62.9813 5.32008 63.2351 5.5625C63.4927 5.80114 63.6214 6.08712 63.6214 6.42045C63.6214 6.75758 63.4927 7.04735 63.2351 7.28977C62.9813 7.52841 62.6745 7.64773 62.3146 7.64773ZM65.4581 17.5V8.77273H67.7649V10.3125H67.8672C68.049 9.80114 68.352 9.39773 68.7763 9.10227C69.2005 8.80682 69.7081 8.65909 70.299 8.65909C70.8975 8.65909 71.407 8.80871 71.8274 9.10795C72.2479 9.40341 72.5282 9.80492 72.6683 10.3125H72.7592C72.9373 9.8125 73.2592 9.41288 73.7251 9.11364C74.1948 8.81061 74.7498 8.65909 75.3899 8.65909C76.2043 8.65909 76.8653 8.91856 77.3729 9.4375C77.8842 9.95265 78.1399 10.6837 78.1399 11.6307V17.5H75.7251V12.108C75.7251 11.6231 75.5964 11.2595 75.3388 11.017C75.0812 10.7746 74.7592 10.6534 74.3729 10.6534C73.9335 10.6534 73.5907 10.7936 73.3445 11.0739C73.0982 11.3504 72.9751 11.7159 72.9751 12.1705V17.5H70.6286V12.0568C70.6286 11.6288 70.5054 11.2879 70.2592 11.0341C70.0168 10.7803 69.6967 10.6534 69.299 10.6534C69.0301 10.6534 68.7876 10.7216 68.5717 10.858C68.3596 10.9905 68.1911 11.178 68.0661 11.4205C67.9411 11.6591 67.8786 11.9394 67.8786 12.2614V17.5H65.4581ZM80.0518 17.5V8.77273H82.4723V17.5H80.0518ZM81.2678 7.64773C80.9079 7.64773 80.5992 7.52841 80.3416 7.28977C80.0878 7.04735 79.9609 6.75758 79.9609 6.42045C79.9609 6.08712 80.0878 5.80114 80.3416 5.5625C80.5992 5.32008 80.9079 5.19886 81.2678 5.19886C81.6276 5.19886 81.9344 5.32008 82.1882 5.5625C82.4458 5.80114 82.5746 6.08712 82.5746 6.42045C82.5746 6.75758 82.4458 7.04735 82.1882 7.28977C81.9344 7.52841 81.6276 7.64773 81.2678 7.64773ZM89.0533 8.77273V10.5909H83.7976V8.77273H89.0533ZM84.9908 6.68182H87.4112V14.8182C87.4112 15.0417 87.4453 15.2159 87.5135 15.3409C87.5817 15.4621 87.6764 15.5473 87.7976 15.5966C87.9226 15.6458 88.0665 15.6705 88.2294 15.6705C88.343 15.6705 88.4567 15.661 88.5703 15.642C88.6839 15.6193 88.7711 15.6023 88.8317 15.5909L89.2124 17.392C89.0911 17.4299 88.9207 17.4735 88.701 17.5227C88.4813 17.5758 88.2143 17.608 87.8999 17.6193C87.3165 17.642 86.8052 17.5644 86.3658 17.3864C85.9302 17.2083 85.5911 16.9318 85.3487 16.5568C85.1063 16.1818 84.987 15.7083 84.9908 15.1364V6.68182ZM94.5135 17.6705C93.6158 17.6705 92.843 17.4886 92.1953 17.125C91.5514 16.7576 91.0552 16.2386 90.7067 15.5682C90.3582 14.8939 90.1839 14.0966 90.1839 13.1761C90.1839 12.2784 90.3582 11.4905 90.7067 10.8125C91.0552 10.1345 91.5457 9.60606 92.1783 9.22727C92.8146 8.84848 93.5608 8.65909 94.4169 8.65909C94.9927 8.65909 95.5286 8.75189 96.0249 8.9375C96.5249 9.11932 96.9605 9.39394 97.3317 9.76136C97.7067 10.1288 97.9983 10.5909 98.2067 11.1477C98.415 11.7008 98.5192 12.3485 98.5192 13.0909V13.7557H91.1499V12.2557H96.2408C96.2408 11.9072 96.165 11.5985 96.0135 11.3295C95.862 11.0606 95.6518 10.8504 95.3828 10.6989C95.1177 10.5436 94.8089 10.4659 94.4567 10.4659C94.0893 10.4659 93.7635 10.5511 93.4794 10.7216C93.1991 10.8883 92.9794 11.1136 92.8203 11.3977C92.6612 11.678 92.5798 11.9905 92.576 12.3352V13.7614C92.576 14.1932 92.6555 14.5663 92.8146 14.8807C92.9775 15.1951 93.2067 15.4375 93.5021 15.608C93.7976 15.7784 94.148 15.8636 94.5533 15.8636C94.8222 15.8636 95.0684 15.8258 95.2919 15.75C95.5154 15.6742 95.7067 15.5606 95.8658 15.4091C96.0249 15.2576 96.1461 15.072 96.2294 14.8523L98.468 15C98.3544 15.5379 98.1214 16.0076 97.7692 16.4091C97.4207 16.8068 96.9699 17.1174 96.4169 17.3409C95.8677 17.5606 95.2332 17.6705 94.5135 17.6705ZM103.315 17.642C102.652 17.642 102.051 17.4716 101.513 17.1307C100.979 16.786 100.555 16.2803 100.241 15.6136C99.9302 14.9432 99.7749 14.1212 99.7749 13.1477C99.7749 12.1477 99.9358 11.3163 100.258 10.6534C100.58 9.98674 101.008 9.48864 101.542 9.15909C102.08 8.82576 102.669 8.65909 103.309 8.65909C103.798 8.65909 104.205 8.74242 104.531 8.90909C104.86 9.07197 105.125 9.27652 105.326 9.52273C105.531 9.76515 105.686 10.0038 105.792 10.2386H105.866V5.86364H108.281V17.5H105.894V16.1023H105.792C105.678 16.3447 105.517 16.5852 105.309 16.8239C105.104 17.0587 104.837 17.2538 104.508 17.4091C104.182 17.5644 103.784 17.642 103.315 17.642ZM104.082 15.7159C104.472 15.7159 104.801 15.6098 105.07 15.3977C105.343 15.1818 105.551 14.8807 105.695 14.4943C105.843 14.108 105.917 13.6553 105.917 13.1364C105.917 12.6174 105.845 12.1667 105.701 11.7841C105.557 11.4015 105.349 11.1061 105.076 10.8977C104.803 10.6894 104.472 10.5852 104.082 10.5852C103.684 10.5852 103.349 10.6932 103.076 10.9091C102.803 11.125 102.597 11.4242 102.457 11.8068C102.317 12.1894 102.246 12.6326 102.246 13.1364C102.246 13.6439 102.317 14.0928 102.457 14.483C102.601 14.8693 102.807 15.1723 103.076 15.392C103.349 15.608 103.684 15.7159 104.082 15.7159ZM116.629 9.21023C116.583 8.75189 116.388 8.39583 116.043 8.14205C115.699 7.88826 115.231 7.76136 114.64 7.76136C114.238 7.76136 113.899 7.81818 113.623 7.93182C113.346 8.04167 113.134 8.19508 112.987 8.39205C112.843 8.58902 112.771 8.8125 112.771 9.0625C112.763 9.27083 112.807 9.45265 112.901 9.60795C113 9.76326 113.134 9.89773 113.305 10.0114C113.475 10.1212 113.672 10.2178 113.896 10.3011C114.119 10.3807 114.358 10.4489 114.612 10.5057L115.657 10.7557C116.165 10.8693 116.63 11.0208 117.055 11.2102C117.479 11.3996 117.846 11.6326 118.157 11.9091C118.468 12.1856 118.708 12.5114 118.879 12.8864C119.053 13.2614 119.142 13.6913 119.146 14.1761C119.142 14.8883 118.96 15.5057 118.6 16.0284C118.244 16.5473 117.729 16.9508 117.055 17.2386C116.384 17.5227 115.576 17.6648 114.629 17.6648C113.689 17.6648 112.871 17.5208 112.174 17.233C111.481 16.9451 110.939 16.5189 110.549 15.9545C110.163 15.3864 109.96 14.6837 109.941 13.8466H112.322C112.348 14.2367 112.46 14.5625 112.657 14.8239C112.858 15.0814 113.125 15.2765 113.458 15.4091C113.795 15.5379 114.176 15.6023 114.6 15.6023C115.017 15.6023 115.379 15.5417 115.685 15.4205C115.996 15.2992 116.237 15.1307 116.407 14.9148C116.577 14.6989 116.663 14.4508 116.663 14.1705C116.663 13.9091 116.585 13.6894 116.43 13.5114C116.278 13.3333 116.055 13.1818 115.759 13.0568C115.468 12.9318 115.11 12.8182 114.685 12.7159L113.418 12.3977C112.437 12.1591 111.663 11.786 111.094 11.2784C110.526 10.7708 110.244 10.0871 110.248 9.22727C110.244 8.52273 110.432 7.9072 110.81 7.38068C111.193 6.85417 111.718 6.44318 112.384 6.14773C113.051 5.85227 113.808 5.70455 114.657 5.70455C115.521 5.70455 116.274 5.85227 116.918 6.14773C117.566 6.44318 118.07 6.85417 118.43 7.38068C118.79 7.9072 118.975 8.51705 118.987 9.21023H116.629ZM125.448 8.77273V10.5909H120.062V8.77273H125.448ZM121.295 17.5V8.14205C121.295 7.50947 121.418 6.98485 121.664 6.56818C121.914 6.15151 122.255 5.83901 122.687 5.63068C123.119 5.42235 123.609 5.31818 124.158 5.31818C124.53 5.31818 124.869 5.34659 125.175 5.40341C125.486 5.46023 125.717 5.51136 125.869 5.55682L125.437 7.375C125.342 7.3447 125.225 7.31629 125.085 7.28977C124.948 7.26326 124.808 7.25 124.664 7.25C124.308 7.25 124.06 7.33333 123.92 7.5C123.78 7.66288 123.71 7.89205 123.71 8.1875V17.5H121.295ZM132.523 13.7841V8.77273H134.944V17.5H132.62V15.9148H132.529C132.332 16.4261 132.004 16.8371 131.546 17.1477C131.092 17.4583 130.537 17.6136 129.881 17.6136C129.298 17.6136 128.785 17.4811 128.342 17.2159C127.898 16.9508 127.552 16.5739 127.302 16.0852C127.056 15.5966 126.931 15.0114 126.927 14.3295V8.77273H129.347V13.8977C129.351 14.4129 129.489 14.8201 129.762 15.1193C130.035 15.4186 130.4 15.5682 130.859 15.5682C131.15 15.5682 131.423 15.5019 131.677 15.3693C131.931 15.233 132.135 15.0322 132.29 14.767C132.45 14.5019 132.527 14.1742 132.523 13.7841ZM139.3 12.4545V17.5H136.88V8.77273H139.187V10.3125H139.289C139.482 9.80492 139.806 9.40341 140.261 9.10795C140.715 8.80871 141.266 8.65909 141.914 8.65909C142.52 8.65909 143.049 8.79167 143.499 9.05682C143.95 9.32197 144.3 9.70076 144.55 10.1932C144.8 10.6818 144.925 11.2652 144.925 11.9432V17.5H142.505V12.375C142.509 11.8409 142.372 11.4242 142.096 11.125C141.819 10.822 141.439 10.6705 140.954 10.6705C140.628 10.6705 140.34 10.7405 140.09 10.8807C139.844 11.0208 139.651 11.2254 139.511 11.4943C139.374 11.7595 139.304 12.0795 139.3 12.4545ZM150.049 17.642C149.386 17.642 148.786 17.4716 148.248 17.1307C147.714 16.786 147.29 16.2803 146.975 15.6136C146.665 14.9432 146.509 14.1212 146.509 13.1477C146.509 12.1477 146.67 11.3163 146.992 10.6534C147.314 9.98674 147.742 9.48864 148.276 9.15909C148.814 8.82576 149.403 8.65909 150.043 8.65909C150.532 8.65909 150.939 8.74242 151.265 8.90909C151.594 9.07197 151.86 9.27652 152.06 9.52273C152.265 9.76515 152.42 10.0038 152.526 10.2386H152.6V5.86364H155.015V17.5H152.629V16.1023H152.526C152.413 16.3447 152.252 16.5852 152.043 16.8239C151.839 17.0587 151.572 17.2538 151.242 17.4091C150.916 17.5644 150.519 17.642 150.049 17.642ZM150.816 15.7159C151.206 15.7159 151.536 15.6098 151.805 15.3977C152.077 15.1818 152.286 14.8807 152.43 14.4943C152.577 14.108 152.651 13.6553 152.651 13.1364C152.651 12.6174 152.579 12.1667 152.435 11.7841C152.291 11.4015 152.083 11.1061 151.81 10.8977C151.538 10.6894 151.206 10.5852 150.816 10.5852C150.418 10.5852 150.083 10.6932 149.81 10.9091C149.538 11.125 149.331 11.4242 149.191 11.8068C149.051 12.1894 148.981 12.6326 148.981 13.1364C148.981 13.6439 149.051 14.0928 149.191 14.483C149.335 14.8693 149.541 15.1723 149.81 15.392C150.083 15.608 150.418 15.7159 150.816 15.7159ZM164.266 11.2614L162.05 11.3977C162.013 11.2083 161.931 11.0379 161.806 10.8864C161.681 10.7311 161.516 10.608 161.312 10.517C161.111 10.4223 160.871 10.375 160.59 10.375C160.215 10.375 159.899 10.4545 159.641 10.6136C159.384 10.7689 159.255 10.9773 159.255 11.2386C159.255 11.447 159.338 11.6231 159.505 11.767C159.672 11.911 159.958 12.0265 160.363 12.1136L161.942 12.4318C162.791 12.6061 163.424 12.8864 163.84 13.2727C164.257 13.6591 164.465 14.1667 164.465 14.7955C164.465 15.3674 164.297 15.8693 163.96 16.3011C163.626 16.733 163.168 17.0701 162.585 17.3125C162.005 17.5511 161.336 17.6705 160.579 17.6705C159.424 17.6705 158.503 17.4299 157.817 16.9489C157.136 16.464 156.736 15.8049 156.619 14.9716L158.999 14.8466C159.071 15.1989 159.246 15.4678 159.522 15.6534C159.799 15.8352 160.153 15.9261 160.585 15.9261C161.009 15.9261 161.35 15.8447 161.607 15.6818C161.869 15.5152 162.001 15.3011 162.005 15.0398C162.001 14.8201 161.908 14.6402 161.727 14.5C161.545 14.3561 161.264 14.2462 160.886 14.1705L159.374 13.8693C158.522 13.6989 157.888 13.4034 157.471 12.983C157.058 12.5625 156.852 12.0265 156.852 11.375C156.852 10.8144 157.003 10.3314 157.306 9.92614C157.613 9.52083 158.043 9.20833 158.596 8.98864C159.153 8.76894 159.804 8.65909 160.55 8.65909C161.653 8.65909 162.52 8.89205 163.153 9.35795C163.789 9.82386 164.16 10.4583 164.266 11.2614ZM169.738 17.5V5.86364H174.397C175.253 5.86364 175.967 5.99053 176.539 6.24432C177.111 6.49811 177.541 6.85038 177.829 7.30114C178.117 7.74811 178.261 8.26326 178.261 8.84659C178.261 9.30114 178.17 9.70076 177.988 10.0455C177.806 10.3864 177.556 10.6667 177.238 10.8864C176.924 11.1023 176.564 11.2557 176.158 11.3466V11.4602C176.602 11.4792 177.016 11.6042 177.403 11.8352C177.793 12.0663 178.109 12.3902 178.352 12.8068C178.594 13.2197 178.715 13.7121 178.715 14.2841C178.715 14.9015 178.562 15.4527 178.255 15.9375C177.952 16.4186 177.503 16.7992 176.908 17.0795C176.314 17.3598 175.581 17.5 174.71 17.5H169.738ZM172.198 15.4886H174.204C174.889 15.4886 175.389 15.358 175.704 15.0966C176.018 14.8314 176.175 14.4792 176.175 14.0398C176.175 13.7178 176.098 13.4337 175.942 13.1875C175.787 12.9413 175.566 12.7481 175.278 12.608C174.994 12.4678 174.655 12.3977 174.261 12.3977H172.198V15.4886ZM172.198 10.733H174.022C174.359 10.733 174.658 10.6742 174.92 10.5568C175.185 10.4356 175.393 10.2652 175.545 10.0455C175.7 9.82576 175.778 9.5625 175.778 9.25568C175.778 8.83523 175.628 8.49621 175.329 8.23864C175.033 7.98106 174.613 7.85227 174.067 7.85227H172.198V10.733ZM182.759 17.6648C182.202 17.6648 181.706 17.5682 181.271 17.375C180.835 17.178 180.49 16.8883 180.237 16.5057C179.987 16.1193 179.862 15.6383 179.862 15.0625C179.862 14.5777 179.951 14.1705 180.129 13.8409C180.307 13.5114 180.549 13.2462 180.856 13.0455C181.163 12.8447 181.511 12.6932 181.901 12.5909C182.295 12.4886 182.708 12.4167 183.14 12.375C183.647 12.322 184.057 12.2727 184.367 12.2273C184.678 12.178 184.903 12.1061 185.043 12.0114C185.183 11.9167 185.254 11.7765 185.254 11.5909V11.5568C185.254 11.197 185.14 10.9186 184.913 10.7216C184.689 10.5246 184.371 10.4261 183.958 10.4261C183.522 10.4261 183.176 10.5227 182.918 10.7159C182.661 10.9053 182.49 11.1439 182.407 11.4318L180.168 11.25C180.282 10.7197 180.505 10.2614 180.839 9.875C181.172 9.48485 181.602 9.18561 182.129 8.97727C182.659 8.76515 183.272 8.65909 183.969 8.65909C184.454 8.65909 184.918 8.71591 185.362 8.82955C185.808 8.94318 186.204 9.11932 186.549 9.35795C186.897 9.59659 187.172 9.90341 187.373 10.2784C187.574 10.6496 187.674 11.0947 187.674 11.6136V17.5H185.379V16.2898H185.31C185.17 16.5625 184.983 16.803 184.748 17.0114C184.513 17.2159 184.231 17.3769 183.901 17.4943C183.572 17.608 183.191 17.6648 182.759 17.6648ZM183.452 15.9943C183.808 15.9943 184.123 15.9242 184.396 15.7841C184.668 15.6402 184.882 15.447 185.038 15.2045C185.193 14.9621 185.271 14.6875 185.271 14.3807V13.4545C185.195 13.5038 185.091 13.5492 184.958 13.5909C184.829 13.6288 184.683 13.6648 184.521 13.6989C184.358 13.7292 184.195 13.7576 184.032 13.7841C183.869 13.8068 183.721 13.8277 183.589 13.8466C183.305 13.8883 183.057 13.9545 182.844 14.0455C182.632 14.1364 182.468 14.2595 182.35 14.4148C182.233 14.5663 182.174 14.7557 182.174 14.983C182.174 15.3125 182.293 15.5644 182.532 15.7386C182.774 15.9091 183.081 15.9943 183.452 15.9943ZM191.972 12.4545V17.5H189.552V8.77273H191.859V10.3125H191.961C192.154 9.80492 192.478 9.40341 192.933 9.10795C193.387 8.80871 193.938 8.65909 194.586 8.65909C195.192 8.65909 195.72 8.79167 196.171 9.05682C196.622 9.32197 196.972 9.70076 197.222 10.1932C197.472 10.6818 197.597 11.2652 197.597 11.9432V17.5H195.177V12.375C195.181 11.8409 195.044 11.4242 194.768 11.125C194.491 10.822 194.111 10.6705 193.626 10.6705C193.3 10.6705 193.012 10.7405 192.762 10.8807C192.516 11.0208 192.323 11.2254 192.183 11.4943C192.046 11.7595 191.976 12.0795 191.972 12.4545ZM201.698 14.9886L201.704 12.0852H202.056L204.852 8.77273H207.63L203.874 13.1591H203.3L201.698 14.9886ZM199.505 17.5V5.86364H201.925V17.5H199.505ZM204.96 17.5L202.391 13.6989L204.005 11.9886L207.795 17.5H204.96Z" fill="white"/>
</svg>
