<svg width="196" height="24" viewBox="0 0 196 24" fill="none" xmlns="http://www.w3.org/2000/svg">
<g clip-path="url(#clip0_1136_1020)">
<path d="M4.69141 11.9999V8.5105C4.70177 7.82459 4.84737 7.14748 5.11988 6.51793C5.39237 5.8884 5.78643 5.31882 6.27944 4.84183C6.77244 4.36485 7.35473 3.98983 7.99293 3.73826C8.63111 3.4867 9.31268 3.36354 9.99855 3.37584C10.6844 3.36354 11.366 3.4867 12.0042 3.73826C12.6424 3.98983 13.2247 4.36485 13.7177 4.84183C14.2107 5.31882 14.6048 5.8884 14.8773 6.51793C15.1497 7.14748 15.2953 7.82459 15.3057 8.5105V11.9999" stroke="white" stroke-linecap="round" stroke-linejoin="round"/>
<path d="M2.70179 10.0098H4.02857C4.20452 10.0098 4.37326 10.0797 4.49766 10.2041C4.62207 10.3285 4.69196 10.4972 4.69196 10.6732V14.6535C4.69196 14.8295 4.62207 14.9982 4.49766 15.1226C4.37326 15.247 4.20452 15.3169 4.02857 15.3169H2.70179C2.3499 15.3169 2.01243 15.1771 1.76361 14.9283C1.51479 14.6795 1.375 14.342 1.375 13.9901V11.3366C1.375 10.9847 1.51479 10.6472 1.76361 10.3984C2.01243 10.1496 2.3499 10.0098 2.70179 10.0098Z" stroke="white" stroke-linecap="round" stroke-linejoin="round"/>
<path d="M17.2968 15.3169H15.97C15.7941 15.3169 15.6253 15.247 15.5009 15.1226C15.3766 14.9982 15.3066 14.8295 15.3066 14.6535V10.6732C15.3066 10.4972 15.3766 10.3285 15.5009 10.2041C15.6253 10.0797 15.7941 10.0098 15.97 10.0098H17.2968C17.6487 10.0098 17.9862 10.1496 18.235 10.3984C18.4838 10.6472 18.6236 10.9847 18.6236 11.3366V13.9901C18.6236 14.342 18.4838 14.6795 18.235 14.9283C17.9862 15.1771 17.6487 15.3169 17.2968 15.3169Z" stroke="white" stroke-linecap="round" stroke-linejoin="round"/>
<path d="M12.6523 18.966C13.3561 18.966 14.031 18.6864 14.5287 18.1888C15.0264 17.6911 15.3059 17.0161 15.3059 16.3124V13.3271" stroke="white" stroke-linecap="round" stroke-linejoin="round"/>
<path d="M12.6528 18.9651C12.6528 19.405 12.4781 19.8269 12.1671 20.1379C11.8561 20.4489 11.4342 20.6236 10.9944 20.6236H9.00418C8.56433 20.6236 8.14249 20.4489 7.83147 20.1379C7.52044 19.8269 7.3457 19.405 7.3457 18.9651C7.3457 18.5253 7.52044 18.1034 7.83147 17.7924C8.14249 17.4814 8.56433 17.3066 9.00418 17.3066H10.9944C11.4342 17.3066 11.8561 17.4814 12.1671 17.7924C12.4781 18.1034 12.6528 18.5253 12.6528 18.9651Z" stroke="white" stroke-linecap="round" stroke-linejoin="round"/>
</g>
<path d="M27.7614 19V4.45455H29.5227V10.9318H37.2784V4.45455H39.0398V19H37.2784V12.4943H29.5227V19H27.7614ZM46.9126 19.2273C45.8615 19.2273 44.9548 18.9953 44.1925 18.5312C43.4349 18.0625 42.8501 17.4091 42.4382 16.571C42.031 15.7282 41.8274 14.7481 41.8274 13.6307C41.8274 12.5133 42.031 11.5284 42.4382 10.6761C42.8501 9.81913 43.4231 9.15152 44.157 8.6733C44.8956 8.19034 45.7573 7.94886 46.7422 7.94886C47.3104 7.94886 47.8714 8.04356 48.4254 8.23295C48.9794 8.42235 49.4837 8.73011 49.9382 9.15625C50.3928 9.57765 50.755 10.1364 51.0249 10.8324C51.2947 11.5284 51.4297 12.3854 51.4297 13.4034V14.1136H43.0206V12.6648H49.7251C49.7251 12.0492 49.602 11.5 49.3558 11.017C49.1143 10.5341 48.7687 10.1529 48.3189 9.87358C47.8738 9.59422 47.3482 9.45455 46.7422 9.45455C46.0746 9.45455 45.4969 9.62026 45.0092 9.9517C44.5263 10.2784 44.1546 10.7045 43.8942 11.2301C43.6338 11.7557 43.5036 12.3191 43.5036 12.9205V13.8864C43.5036 14.7102 43.6456 15.4086 43.9297 15.9815C44.2185 16.5497 44.6186 16.983 45.13 17.2812C45.6413 17.5748 46.2356 17.7216 46.9126 17.7216C47.353 17.7216 47.7507 17.66 48.1058 17.5369C48.4657 17.4091 48.7758 17.2197 49.0362 16.9688C49.2966 16.7131 49.4979 16.3958 49.6399 16.017L51.2592 16.4716C51.0888 17.0208 50.8023 17.5038 50.3999 17.9205C49.9974 18.3324 49.5002 18.6544 48.9084 18.8864C48.3165 19.1136 47.6513 19.2273 46.9126 19.2273ZM55.6555 4.45455V19H53.9794V4.45455H55.6555ZM58.7255 23.0909V8.09091H60.3448V9.82386H60.5437C60.6668 9.63447 60.8372 9.39299 61.055 9.09943C61.2776 8.80114 61.5948 8.53598 62.0067 8.30398C62.4234 8.06723 62.9869 7.94886 63.6971 7.94886C64.6156 7.94886 65.4253 8.1785 66.1261 8.63778C66.8268 9.09706 67.3737 9.74811 67.7667 10.5909C68.1597 11.4337 68.3562 12.428 68.3562 13.5739C68.3562 14.7292 68.1597 15.7306 67.7667 16.5781C67.3737 17.4209 66.8292 18.0743 66.1332 18.5384C65.4371 18.9976 64.6346 19.2273 63.7255 19.2273C63.0247 19.2273 62.4637 19.1113 62.0423 18.8793C61.6209 18.6425 61.2965 18.375 61.0692 18.0767C60.842 17.7737 60.6668 17.5227 60.5437 17.3239H60.4016V23.0909H58.7255ZM60.3732 13.5455C60.3732 14.3693 60.494 15.0961 60.7354 15.7259C60.9769 16.3509 61.3297 16.8409 61.7937 17.196C62.2577 17.5464 62.8259 17.7216 63.4982 17.7216C64.199 17.7216 64.7837 17.5369 65.2525 17.1676C65.726 16.7936 66.0811 16.2917 66.3178 15.6619C66.5593 15.0275 66.68 14.322 66.68 13.5455C66.68 12.7784 66.5617 12.0871 66.3249 11.4716C66.0929 10.8513 65.7402 10.3613 65.2667 10.0014C64.7979 9.63684 64.2085 9.45455 63.4982 9.45455C62.8164 9.45455 62.2435 9.62737 61.7795 9.97301C61.3155 10.3139 60.9651 10.7921 60.7283 11.4077C60.4916 12.0185 60.3732 12.7311 60.3732 13.5455Z" fill="white"/>
<defs>
<clipPath id="clip0_1136_1020">
<rect width="20" height="20" fill="white" transform="translate(0 2)"/>
</clipPath>
</defs>
</svg>
