<svg width="318" height="24" viewBox="0 0 318 24" fill="none" xmlns="http://www.w3.org/2000/svg">
<path d="M10.2486 4.45455H13.3239V13.9006C13.3239 14.9612 13.0705 15.8892 12.5639 16.6847C12.062 17.4801 11.3589 18.1004 10.4545 18.5455C9.55019 18.9858 8.49669 19.206 7.29403 19.206C6.08665 19.206 5.03078 18.9858 4.12642 18.5455C3.22206 18.1004 2.51894 17.4801 2.01705 16.6847C1.51515 15.8892 1.2642 14.9612 1.2642 13.9006V4.45455H4.33949V13.6378C4.33949 14.1918 4.46023 14.6842 4.7017 15.1151C4.94792 15.5459 5.29356 15.8845 5.73864 16.1307C6.18371 16.3769 6.70218 16.5 7.29403 16.5C7.89063 16.5 8.40909 16.3769 8.84943 16.1307C9.29451 15.8845 9.63778 15.5459 9.87926 15.1151C10.1255 14.6842 10.2486 14.1918 10.2486 13.6378V4.45455ZM18.8228 12.6932V19H15.7972V8.09091H18.6808V10.0156H18.8086C19.0501 9.38116 19.4549 8.87926 20.0231 8.50994C20.5913 8.13589 21.2802 7.94886 22.0898 7.94886C22.8474 7.94886 23.5079 8.11458 24.0714 8.44602C24.6348 8.77746 25.0728 9.25095 25.3853 9.86648C25.6978 10.4773 25.854 11.2064 25.854 12.054V19H22.8285V12.5938C22.8332 11.9261 22.6628 11.4053 22.3171 11.0312C21.9715 10.6525 21.4956 10.4631 20.8896 10.4631C20.4824 10.4631 20.1225 10.5507 19.81 10.7259C19.5022 10.901 19.2608 11.1567 19.0856 11.4929C18.9151 11.8243 18.8275 12.2244 18.8228 12.6932ZM31.2642 4.45455V19H28.2386V4.45455H31.2642ZM33.6879 19V8.09091H36.7134V19H33.6879ZM35.2077 6.68466C34.7579 6.68466 34.372 6.53551 34.0501 6.23722C33.7328 5.93419 33.5742 5.57197 33.5742 5.15057C33.5742 4.7339 33.7328 4.37642 34.0501 4.07812C34.372 3.77509 34.7579 3.62358 35.2077 3.62358C35.6576 3.62358 36.0411 3.77509 36.3583 4.07812C36.6803 4.37642 36.8413 4.7339 36.8413 5.15057C36.8413 5.57197 36.6803 5.93419 36.3583 6.23722C36.0411 6.53551 35.6576 6.68466 35.2077 6.68466ZM39.1371 19V8.09091H42.0206V10.0156H42.1484C42.3757 9.37642 42.7545 8.87216 43.2848 8.50284C43.8151 8.13352 44.4496 7.94886 45.1882 7.94886C45.9363 7.94886 46.5732 8.13589 47.0987 8.50994C47.6243 8.87926 47.9747 9.38116 48.1499 10.0156H48.2635C48.486 9.39062 48.8885 8.8911 49.4709 8.51705C50.058 8.13826 50.7517 7.94886 51.5518 7.94886C52.5698 7.94886 53.3961 8.2732 54.0305 8.92188C54.6697 9.56581 54.9893 10.4796 54.9893 11.6634V19H51.9709V12.2599C51.9709 11.6539 51.8099 11.1993 51.4879 10.8963C51.166 10.5933 50.7635 10.4418 50.2805 10.4418C49.7313 10.4418 49.3028 10.617 48.995 10.9673C48.6873 11.313 48.5334 11.7699 48.5334 12.3381V19H45.6001V12.196C45.6001 11.661 45.4463 11.2348 45.1385 10.9176C44.8355 10.6004 44.4354 10.4418 43.9382 10.4418C43.602 10.4418 43.299 10.527 43.0291 10.6974C42.764 10.8632 42.5533 11.0975 42.397 11.4006C42.2408 11.6989 42.1626 12.0492 42.1626 12.4517V19H39.1371ZM57.3793 19V8.09091H60.4048V19H57.3793ZM58.8991 6.68466C58.4493 6.68466 58.0634 6.53551 57.7415 6.23722C57.4242 5.93419 57.2656 5.57197 57.2656 5.15057C57.2656 4.7339 57.4242 4.37642 57.7415 4.07812C58.0634 3.77509 58.4493 3.62358 58.8991 3.62358C59.349 3.62358 59.7325 3.77509 60.0497 4.07812C60.3717 4.37642 60.5327 4.7339 60.5327 5.15057C60.5327 5.57197 60.3717 5.93419 60.0497 6.23722C59.7325 6.53551 59.349 6.68466 58.8991 6.68466ZM68.631 8.09091V10.3636H62.0614V8.09091H68.631ZM63.5529 5.47727H66.5785V15.6477C66.5785 15.9271 66.6211 16.1449 66.7063 16.3011C66.7915 16.4527 66.9099 16.5592 67.0614 16.6207C67.2177 16.6823 67.3976 16.7131 67.6012 16.7131C67.7433 16.7131 67.8853 16.7012 68.0273 16.6776C68.1694 16.6491 68.2783 16.6278 68.354 16.6136L68.8299 18.8651C68.6784 18.9124 68.4653 18.9669 68.1907 19.0284C67.9161 19.0947 67.5823 19.1349 67.1893 19.1491C66.4601 19.1776 65.8209 19.0805 65.2717 18.858C64.7272 18.6354 64.3034 18.2898 64.0004 17.821C63.6973 17.3523 63.5482 16.7604 63.5529 16.0455V5.47727ZM75.4563 19.2131C74.3342 19.2131 73.3683 18.9858 72.5586 18.5312C71.7537 18.072 71.1334 17.4233 70.6978 16.5852C70.2622 15.7424 70.0444 14.7457 70.0444 13.5952C70.0444 12.473 70.2622 11.4882 70.6978 10.6406C71.1334 9.79309 71.7466 9.13258 72.5373 8.65909C73.3327 8.18561 74.2655 7.94886 75.3356 7.94886C76.0553 7.94886 76.7253 8.06487 77.3455 8.29688C77.9705 8.52415 78.515 8.86742 78.979 9.3267C79.4478 9.78598 79.8124 10.3636 80.0728 11.0597C80.3332 11.7509 80.4634 12.5606 80.4634 13.4886V14.3196H71.2518V12.4446H77.6154C77.6154 12.009 77.5207 11.6231 77.3313 11.2869C77.1419 10.9508 76.8791 10.688 76.543 10.4986C76.2115 10.3045 75.8256 10.2074 75.3853 10.2074C74.926 10.2074 74.5188 10.3139 74.1637 10.527C73.8133 10.7353 73.5387 11.017 73.3398 11.3722C73.141 11.7225 73.0392 12.1132 73.0344 12.544V14.3267C73.0344 14.8665 73.1339 15.3329 73.3327 15.7259C73.5363 16.1188 73.8228 16.4219 74.1921 16.6349C74.5614 16.848 74.9994 16.9545 75.506 16.9545C75.8422 16.9545 76.15 16.9072 76.4293 16.8125C76.7087 16.7178 76.9478 16.5758 77.1467 16.3864C77.3455 16.197 77.497 15.965 77.6012 15.6903L80.3995 15.875C80.2575 16.5473 79.9663 17.1345 79.5259 17.6364C79.0903 18.1335 78.5269 18.5218 77.8356 18.8011C77.149 19.0758 76.3559 19.2131 75.4563 19.2131ZM86.4577 19.1776C85.6291 19.1776 84.8787 18.9645 84.2063 18.5384C83.5387 18.1075 83.0084 17.4754 82.6154 16.642C82.2272 15.804 82.033 14.7765 82.033 13.5597C82.033 12.3097 82.2343 11.2704 82.6367 10.4418C83.0392 9.60843 83.5742 8.9858 84.2418 8.57386C84.9142 8.1572 85.6504 7.94886 86.4506 7.94886C87.0614 7.94886 87.5704 8.05303 87.9776 8.26136C88.3896 8.46496 88.721 8.72064 88.9719 9.02841C89.2276 9.33144 89.4218 9.62973 89.5543 9.9233H89.6467V4.45455H92.6651V19H89.6822V17.2528H89.5543C89.4123 17.5559 89.2111 17.8565 88.9506 18.1548C88.695 18.4484 88.3612 18.6922 87.9492 18.8864C87.542 19.0805 87.0449 19.1776 86.4577 19.1776ZM87.4165 16.7699C87.9042 16.7699 88.3162 16.6373 88.6523 16.3722C88.9933 16.1023 89.2537 15.7259 89.4336 15.2429C89.6183 14.7599 89.7106 14.1941 89.7106 13.5455C89.7106 12.8968 89.6206 12.3333 89.4407 11.8551C89.2608 11.3769 89.0004 11.0076 88.6594 10.7472C88.3185 10.4867 87.9042 10.3565 87.4165 10.3565C86.9194 10.3565 86.5004 10.4915 86.1594 10.7614C85.8185 11.0312 85.5605 11.4053 85.3853 11.8835C85.2101 12.3617 85.1225 12.9157 85.1225 13.5455C85.1225 14.1799 85.2101 14.741 85.3853 15.2287C85.5652 15.7116 85.8233 16.0904 86.1594 16.3651C86.5004 16.6349 86.9194 16.7699 87.4165 16.7699ZM103.1 8.63778C103.043 8.06487 102.799 7.61979 102.369 7.30256C101.938 6.98532 101.353 6.8267 100.614 6.8267C100.112 6.8267 99.6887 6.89773 99.343 7.03977C98.9974 7.17708 98.7322 7.36884 98.5476 7.61506C98.3677 7.86127 98.2777 8.14062 98.2777 8.45312C98.2682 8.71354 98.3227 8.94081 98.4411 9.13494C98.5642 9.32907 98.7322 9.49716 98.9453 9.6392C99.1584 9.77651 99.4046 9.89725 99.6839 10.0014C99.9633 10.1009 100.262 10.1861 100.579 10.2571L101.886 10.5696C102.52 10.7116 103.103 10.901 103.633 11.1378C104.163 11.3745 104.622 11.6657 105.011 12.0114C105.399 12.357 105.7 12.7642 105.913 13.233C106.13 13.7017 106.242 14.2391 106.246 14.8452C106.242 15.7353 106.014 16.5071 105.565 17.1605C105.12 17.8092 104.476 18.3134 103.633 18.6733C102.795 19.0284 101.784 19.206 100.6 19.206C99.4259 19.206 98.4032 19.026 97.532 18.6662C96.6655 18.3063 95.9884 17.7737 95.5007 17.0682C95.0178 16.358 94.7644 15.4796 94.7408 14.4332H97.7166C97.7498 14.9209 97.8894 15.3281 98.1357 15.6548C98.3866 15.9768 98.7204 16.2206 99.1371 16.3864C99.5585 16.5473 100.034 16.6278 100.565 16.6278C101.085 16.6278 101.538 16.5521 101.921 16.4006C102.309 16.2491 102.61 16.0384 102.823 15.7685C103.036 15.4986 103.143 15.1884 103.143 14.8381C103.143 14.5114 103.046 14.2367 102.852 14.0142C102.662 13.7917 102.383 13.6023 102.013 13.446C101.649 13.2898 101.201 13.1477 100.671 13.0199L99.0874 12.6222C97.861 12.3239 96.8928 11.8575 96.1825 11.223C95.4723 10.5885 95.1196 9.7339 95.1243 8.65909C95.1196 7.77841 95.3539 7.009 95.8274 6.35085C96.3056 5.69271 96.9614 5.17898 97.7947 4.80966C98.6281 4.44034 99.575 4.25568 100.636 4.25568C101.715 4.25568 102.657 4.44034 103.462 4.80966C104.272 5.17898 104.902 5.69271 105.352 6.35085C105.801 7.009 106.033 7.77131 106.048 8.63778H103.1ZM114.125 8.09091V10.3636H107.392V8.09091H114.125ZM108.933 19V7.30256C108.933 6.51184 109.087 5.85606 109.395 5.33523C109.707 4.81439 110.133 4.42377 110.673 4.16335C111.213 3.90293 111.826 3.77273 112.512 3.77273C112.976 3.77273 113.4 3.80824 113.784 3.87926C114.172 3.95028 114.461 4.0142 114.65 4.07102L114.11 6.34375C113.992 6.30587 113.845 6.27036 113.67 6.23722C113.5 6.20407 113.324 6.1875 113.145 6.1875C112.699 6.1875 112.389 6.29167 112.214 6.5C112.039 6.7036 111.951 6.99006 111.951 7.35938V19H108.933ZM122.969 14.3551V8.09091H125.994V19H123.089V17.0185H122.976C122.73 17.6577 122.32 18.1714 121.747 18.5597C121.179 18.9479 120.485 19.142 119.666 19.142C118.937 19.142 118.295 18.9763 117.741 18.6449C117.188 18.3134 116.754 17.8423 116.442 17.2315C116.134 16.6207 115.978 15.8892 115.973 15.0369V8.09091H118.999V14.4972C119.003 15.1411 119.176 15.6501 119.517 16.0241C119.858 16.3982 120.315 16.5852 120.888 16.5852C121.252 16.5852 121.593 16.5024 121.911 16.3366C122.228 16.1662 122.483 15.9152 122.678 15.5838C122.876 15.2524 122.973 14.8428 122.969 14.3551ZM131.44 12.6932V19H128.414V8.09091H131.298V10.0156H131.426C131.667 9.38116 132.072 8.87926 132.64 8.50994C133.208 8.13589 133.897 7.94886 134.707 7.94886C135.465 7.94886 136.125 8.11458 136.689 8.44602C137.252 8.77746 137.69 9.25095 138.002 9.86648C138.315 10.4773 138.471 11.2064 138.471 12.054V19H135.446V12.5938C135.45 11.9261 135.28 11.4053 134.934 11.0312C134.589 10.6525 134.113 10.4631 133.507 10.4631C133.1 10.4631 132.74 10.5507 132.427 10.7259C132.119 10.901 131.878 11.1567 131.703 11.4929C131.532 11.8243 131.445 12.2244 131.44 12.6932ZM144.876 19.1776C144.047 19.1776 143.297 18.9645 142.624 18.5384C141.957 18.1075 141.426 17.4754 141.033 16.642C140.645 15.804 140.451 14.7765 140.451 13.5597C140.451 12.3097 140.652 11.2704 141.055 10.4418C141.457 9.60843 141.992 8.9858 142.66 8.57386C143.332 8.1572 144.068 7.94886 144.869 7.94886C145.479 7.94886 145.988 8.05303 146.396 8.26136C146.808 8.46496 147.139 8.72064 147.39 9.02841C147.646 9.33144 147.84 9.62973 147.972 9.9233H148.065V4.45455H151.083V19H148.1V17.2528H147.972C147.83 17.5559 147.629 17.8565 147.369 18.1548C147.113 18.4484 146.779 18.6922 146.367 18.8864C145.96 19.0805 145.463 19.1776 144.876 19.1776ZM145.835 16.7699C146.322 16.7699 146.734 16.6373 147.07 16.3722C147.411 16.1023 147.672 15.7259 147.852 15.2429C148.036 14.7599 148.129 14.1941 148.129 13.5455C148.129 12.8968 148.039 12.3333 147.859 11.8551C147.679 11.3769 147.418 11.0076 147.077 10.7472C146.737 10.4867 146.322 10.3565 145.835 10.3565C145.337 10.3565 144.918 10.4915 144.577 10.7614C144.237 11.0312 143.978 11.4053 143.803 11.8835C143.628 12.3617 143.54 12.9157 143.54 13.5455C143.54 14.1799 143.628 14.741 143.803 15.2287C143.983 15.7116 144.241 16.0904 144.577 16.3651C144.918 16.6349 145.337 16.7699 145.835 16.7699ZM162.647 11.2017L159.877 11.3722C159.83 11.1354 159.728 10.9223 159.572 10.733C159.416 10.5388 159.21 10.3849 158.954 10.2713C158.703 10.1529 158.403 10.0938 158.052 10.0938C157.583 10.0938 157.188 10.1932 156.866 10.392C156.544 10.5862 156.383 10.8466 156.383 11.1733C156.383 11.4337 156.487 11.6539 156.696 11.8338C156.904 12.0137 157.261 12.1581 157.768 12.267L159.743 12.6648C160.803 12.8826 161.594 13.233 162.115 13.7159C162.636 14.1989 162.896 14.8333 162.896 15.6193C162.896 16.3343 162.685 16.9616 162.264 17.5014C161.847 18.0412 161.274 18.4626 160.545 18.7656C159.821 19.0639 158.985 19.2131 158.038 19.2131C156.594 19.2131 155.443 18.9124 154.586 18.3111C153.734 17.705 153.234 16.8812 153.088 15.8395L156.064 15.6832C156.154 16.1236 156.371 16.4598 156.717 16.6918C157.063 16.919 157.505 17.0327 158.045 17.0327C158.575 17.0327 159.002 16.9309 159.324 16.7273C159.65 16.5189 159.816 16.2514 159.821 15.9247C159.816 15.6501 159.7 15.4252 159.473 15.25C159.245 15.0701 158.895 14.9328 158.422 14.8381L156.532 14.4616C155.467 14.2486 154.674 13.8793 154.153 13.3537C153.637 12.8281 153.379 12.1581 153.379 11.3438C153.379 10.643 153.568 10.0393 153.947 9.53267C154.331 9.02604 154.868 8.63542 155.559 8.3608C156.255 8.08617 157.07 7.94886 158.002 7.94886C159.38 7.94886 160.465 8.24006 161.255 8.82244C162.051 9.40483 162.515 10.1979 162.647 11.2017ZM169.487 19V4.45455H175.311C176.381 4.45455 177.273 4.61316 177.988 4.9304C178.703 5.24763 179.241 5.68797 179.6 6.25142C179.96 6.81013 180.14 7.45407 180.14 8.18324C180.14 8.75142 180.027 9.25095 179.799 9.68182C179.572 10.108 179.26 10.4583 178.862 10.733C178.469 11.0028 178.019 11.1946 177.512 11.3082V11.4503C178.066 11.474 178.585 11.6302 179.068 11.919C179.556 12.2079 179.951 12.6127 180.254 13.1335C180.557 13.6496 180.708 14.2652 180.708 14.9801C180.708 15.7519 180.517 16.4408 180.133 17.0469C179.754 17.6482 179.193 18.1241 178.45 18.4744C177.707 18.8248 176.79 19 175.701 19H169.487ZM172.562 16.4858H175.069C175.926 16.4858 176.551 16.3224 176.944 15.9957C177.337 15.6643 177.534 15.224 177.534 14.6747C177.534 14.2723 177.437 13.9171 177.243 13.6094C177.048 13.3016 176.771 13.0601 176.412 12.8849C176.056 12.7098 175.633 12.6222 175.14 12.6222H172.562V16.4858ZM172.562 10.5412H174.842C175.263 10.5412 175.637 10.4678 175.964 10.321C176.296 10.1695 176.556 9.95644 176.745 9.68182C176.94 9.4072 177.037 9.07812 177.037 8.6946C177.037 8.16903 176.85 7.74527 176.475 7.4233C176.106 7.10133 175.581 6.94034 174.899 6.94034H172.562V10.5412ZM185.763 19.206C185.067 19.206 184.447 19.0852 183.903 18.8438C183.358 18.5975 182.927 18.2353 182.61 17.7571C182.298 17.2741 182.141 16.6728 182.141 15.9531C182.141 15.3471 182.253 14.8381 182.475 14.4261C182.698 14.0142 183.001 13.6828 183.384 13.4318C183.768 13.1809 184.203 12.9915 184.691 12.8636C185.183 12.7358 185.7 12.6458 186.239 12.5938C186.874 12.5275 187.385 12.4659 187.773 12.4091C188.162 12.3475 188.443 12.2576 188.619 12.1392C188.794 12.0208 188.881 11.8456 188.881 11.6136V11.571C188.881 11.1212 188.739 10.7732 188.455 10.527C188.176 10.2808 187.778 10.1577 187.262 10.1577C186.718 10.1577 186.284 10.2784 185.962 10.5199C185.64 10.7566 185.427 11.0549 185.323 11.4148L182.525 11.1875C182.667 10.5246 182.946 9.9517 183.363 9.46875C183.78 8.98106 184.317 8.60701 184.975 8.34659C185.638 8.08144 186.405 7.94886 187.276 7.94886C187.882 7.94886 188.462 8.01989 189.016 8.16193C189.575 8.30398 190.07 8.52415 190.501 8.82244C190.936 9.12074 191.28 9.50426 191.531 9.97301C191.781 10.437 191.907 10.9934 191.907 11.642V19H189.038V17.4872H188.952C188.777 17.8281 188.543 18.1288 188.249 18.3892C187.956 18.6449 187.603 18.8461 187.191 18.9929C186.779 19.1349 186.303 19.206 185.763 19.206ZM186.63 17.1179C187.075 17.1179 187.468 17.0303 187.809 16.8551C188.15 16.6752 188.417 16.4337 188.612 16.1307C188.806 15.8277 188.903 15.4844 188.903 15.1009V13.9432C188.808 14.0047 188.678 14.0616 188.512 14.1136C188.351 14.161 188.169 14.206 187.965 14.2486C187.762 14.2865 187.558 14.322 187.354 14.3551C187.151 14.3835 186.966 14.4096 186.8 14.4332C186.445 14.4853 186.135 14.5682 185.87 14.6818C185.605 14.7955 185.399 14.9493 185.252 15.1435C185.105 15.3329 185.032 15.5696 185.032 15.8537C185.032 16.2656 185.181 16.5805 185.479 16.7983C185.782 17.0114 186.166 17.1179 186.63 17.1179ZM197.28 12.6932V19H194.254V8.09091H197.138V10.0156H197.266C197.507 9.38116 197.912 8.87926 198.48 8.50994C199.048 8.13589 199.737 7.94886 200.547 7.94886C201.304 7.94886 201.965 8.11458 202.528 8.44602C203.092 8.77746 203.53 9.25095 203.842 9.86648C204.155 10.4773 204.311 11.2064 204.311 12.054V19H201.286V12.5938C201.29 11.9261 201.12 11.4053 200.774 11.0312C200.429 10.6525 199.953 10.4631 199.347 10.4631C198.939 10.4631 198.58 10.5507 198.267 10.7259C197.959 10.901 197.718 11.1567 197.543 11.4929C197.372 11.8243 197.285 12.2244 197.28 12.6932ZM209.437 15.8608L209.444 12.2315H209.885L213.379 8.09091H216.852L212.157 13.5739H211.44L209.437 15.8608ZM206.696 19V4.45455H209.721V19H206.696ZM213.514 19L210.304 14.2486L212.321 12.1108L217.058 19H213.514ZM223.022 19V4.45455H226.097V16.4645H232.333V19H223.022ZM239.666 8.09091V10.3636H233.097V8.09091H239.666ZM234.588 5.47727H237.614V15.6477C237.614 15.9271 237.656 16.1449 237.741 16.3011C237.827 16.4527 237.945 16.5592 238.097 16.6207C238.253 16.6823 238.433 16.7131 238.636 16.7131C238.778 16.7131 238.92 16.7012 239.062 16.6776C239.205 16.6491 239.313 16.6278 239.389 16.6136L239.865 18.8651C239.714 18.9124 239.5 18.9669 239.226 19.0284C238.951 19.0947 238.617 19.1349 238.224 19.1491C237.495 19.1776 236.856 19.0805 236.307 18.858C235.762 18.6354 235.339 18.2898 235.036 17.821C234.732 17.3523 234.583 16.7604 234.588 16.0455V5.47727ZM245.54 19.1776C244.711 19.1776 243.961 18.9645 243.288 18.5384C242.621 18.1075 242.09 17.4754 241.697 16.642C241.309 15.804 241.115 14.7765 241.115 13.5597C241.115 12.3097 241.316 11.2704 241.719 10.4418C242.121 9.60843 242.656 8.9858 243.324 8.57386C243.996 8.1572 244.732 7.94886 245.533 7.94886C246.143 7.94886 246.652 8.05303 247.06 8.26136C247.472 8.46496 247.803 8.72064 248.054 9.02841C248.31 9.33144 248.504 9.62973 248.636 9.9233H248.729V4.45455H251.747V19H248.764V17.2528H248.636C248.494 17.5559 248.293 17.8565 248.033 18.1548C247.777 18.4484 247.443 18.6922 247.031 18.8864C246.624 19.0805 246.127 19.1776 245.54 19.1776ZM246.499 16.7699C246.986 16.7699 247.398 16.6373 247.734 16.3722C248.075 16.1023 248.336 15.7259 248.516 15.2429C248.7 14.7599 248.793 14.1941 248.793 13.5455C248.793 12.8968 248.703 12.3333 248.523 11.8551C248.343 11.3769 248.082 11.0076 247.741 10.7472C247.401 10.4867 246.986 10.3565 246.499 10.3565C246.001 10.3565 245.582 10.4915 245.241 10.7614C244.901 11.0312 244.643 11.4053 244.467 11.8835C244.292 12.3617 244.205 12.9157 244.205 13.5455C244.205 14.1799 244.292 14.741 244.467 15.2287C244.647 15.7116 244.905 16.0904 245.241 16.3651C245.582 16.6349 246.001 16.7699 246.499 16.7699ZM256.003 19.1847C255.534 19.1847 255.132 19.0189 254.796 18.6875C254.464 18.3513 254.299 17.9489 254.299 17.4801C254.299 17.0161 254.464 16.6184 254.796 16.2869C255.132 15.9555 255.534 15.7898 256.003 15.7898C256.458 15.7898 256.855 15.9555 257.196 16.2869C257.537 16.6184 257.708 17.0161 257.708 17.4801C257.708 17.7926 257.627 18.0791 257.466 18.3395C257.31 18.5952 257.104 18.8011 256.848 18.9574C256.593 19.1089 256.311 19.1847 256.003 19.1847Z" fill="white"/>
</svg>
