<svg width="290" height="59" viewBox="0 0 290 59" fill="none" xmlns="http://www.w3.org/2000/svg">
<path d="M11.2727 21.2614V17.7273H29.8409V21.2614H22.6477V41H18.4659V21.2614H11.2727ZM31.4261 41V23.5455H35.4148V26.4545H35.5966C35.9148 25.447 36.4602 24.6705 37.233 24.125C38.0133 23.572 38.9034 23.2955 39.9034 23.2955C40.1307 23.2955 40.3845 23.3068 40.6648 23.3295C40.9527 23.3447 41.1913 23.3712 41.3807 23.4091V27.1932C41.2064 27.1326 40.9299 27.0795 40.5511 27.0341C40.1799 26.9811 39.8201 26.9545 39.4716 26.9545C38.7216 26.9545 38.0473 27.1174 37.4489 27.4432C36.858 27.7614 36.392 28.2045 36.0511 28.7727C35.7102 29.3409 35.5398 29.9962 35.5398 30.7386V41H31.4261ZM48.8239 41.3523C47.7178 41.3523 46.7216 41.1553 45.8352 40.7614C44.9564 40.3598 44.2595 39.7689 43.7443 38.9886C43.2367 38.2083 42.983 37.2462 42.983 36.1023C42.983 35.1174 43.1648 34.303 43.5284 33.6591C43.892 33.0152 44.3883 32.5 45.017 32.1136C45.6458 31.7273 46.3542 31.4356 47.142 31.2386C47.9375 31.0341 48.7595 30.8864 49.608 30.7955C50.6307 30.6894 51.4602 30.5947 52.0966 30.5114C52.733 30.4205 53.1951 30.2841 53.483 30.1023C53.7784 29.9129 53.9261 29.6212 53.9261 29.2273V29.1591C53.9261 28.303 53.6723 27.6402 53.1648 27.1705C52.6572 26.7008 51.9261 26.4659 50.9716 26.4659C49.964 26.4659 49.1648 26.6856 48.5739 27.125C47.9905 27.5644 47.5966 28.0833 47.392 28.6818L43.5511 28.1364C43.8542 27.0758 44.3542 26.1894 45.0511 25.4773C45.7481 24.7576 46.6004 24.2197 47.608 23.8636C48.6155 23.5 49.7292 23.3182 50.9489 23.3182C51.7898 23.3182 52.6269 23.4167 53.4602 23.6136C54.2936 23.8106 55.0549 24.1364 55.7443 24.5909C56.4337 25.0379 56.9867 25.6477 57.4034 26.4205C57.8277 27.1932 58.0398 28.1591 58.0398 29.3182V41H54.0852V38.6023H53.9489C53.6989 39.0871 53.3466 39.5417 52.892 39.9659C52.4451 40.3826 51.8807 40.7197 51.1989 40.9773C50.5246 41.2273 49.733 41.3523 48.8239 41.3523ZM49.892 38.3295C50.7178 38.3295 51.4337 38.1667 52.0398 37.8409C52.6458 37.5076 53.1117 37.0682 53.4375 36.5227C53.7708 35.9773 53.9375 35.3826 53.9375 34.7386V32.6818C53.8087 32.7879 53.589 32.8864 53.2784 32.9773C52.9754 33.0682 52.6345 33.1477 52.2557 33.2159C51.8769 33.2841 51.5019 33.3447 51.1307 33.3977C50.7595 33.4508 50.4375 33.4962 50.1648 33.5341C49.5511 33.6174 49.0019 33.7538 48.517 33.9432C48.0322 34.1326 47.6496 34.3977 47.3693 34.7386C47.089 35.072 46.9489 35.5038 46.9489 36.0341C46.9489 36.7917 47.2254 37.3636 47.7784 37.75C48.3314 38.1364 49.036 38.3295 49.892 38.3295ZM66.2898 30.7727V41H62.1761V23.5455H66.108V26.5114H66.3125C66.714 25.5341 67.3542 24.7576 68.233 24.1818C69.1193 23.6061 70.214 23.3182 71.517 23.3182C72.7216 23.3182 73.7708 23.5758 74.6648 24.0909C75.5663 24.6061 76.2633 25.3523 76.7557 26.3295C77.2557 27.3068 77.5019 28.4924 77.4943 29.8864V41H73.3807V30.5227C73.3807 29.3561 73.0777 28.4432 72.4716 27.7841C71.8731 27.125 71.0436 26.7955 69.983 26.7955C69.2633 26.7955 68.6231 26.9545 68.0625 27.2727C67.5095 27.5833 67.0739 28.0341 66.7557 28.625C66.4451 29.2159 66.2898 29.9318 66.2898 30.7727ZM95.4716 28.1591L91.7216 28.5682C91.6155 28.1894 91.4299 27.8333 91.1648 27.5C90.9072 27.1667 90.5587 26.8977 90.1193 26.6932C89.6799 26.4886 89.142 26.3864 88.5057 26.3864C87.6496 26.3864 86.9299 26.572 86.3466 26.9432C85.7708 27.3144 85.4867 27.7955 85.4943 28.3864C85.4867 28.8939 85.6723 29.3068 86.0511 29.625C86.4375 29.9432 87.0739 30.2045 87.9602 30.4091L90.9375 31.0455C92.589 31.4015 93.8163 31.9659 94.6193 32.7386C95.4299 33.5114 95.839 34.5227 95.8466 35.7727C95.839 36.8712 95.517 37.8409 94.8807 38.6818C94.2519 39.5152 93.3769 40.1667 92.2557 40.6364C91.1345 41.1061 89.8466 41.3409 88.392 41.3409C86.2557 41.3409 84.536 40.8939 83.233 40C81.9299 39.0985 81.1534 37.8447 80.9034 36.2386L84.9148 35.8523C85.0966 36.6402 85.483 37.2348 86.0739 37.6364C86.6648 38.0379 87.4337 38.2386 88.3807 38.2386C89.358 38.2386 90.142 38.0379 90.733 37.6364C91.3314 37.2348 91.6307 36.7386 91.6307 36.1477C91.6307 35.6477 91.4375 35.2348 91.0511 34.9091C90.6723 34.5833 90.0814 34.3333 89.2784 34.1591L86.3011 33.5341C84.6269 33.1856 83.3883 32.5985 82.5852 31.7727C81.7822 30.9394 81.3845 29.8864 81.392 28.6136C81.3845 27.5379 81.6761 26.6061 82.267 25.8182C82.8655 25.0227 83.6951 24.4091 84.7557 23.9773C85.8239 23.5379 87.0549 23.3182 88.4489 23.3182C90.4943 23.3182 92.1042 23.7538 93.2784 24.625C94.4602 25.4962 95.1913 26.6742 95.4716 28.1591ZM108.08 23.5455V26.7273H97.7614V23.5455H108.08ZM100.341 41V21.8977C100.341 20.7235 100.583 19.7462 101.068 18.9659C101.561 18.1856 102.22 17.6023 103.045 17.2159C103.871 16.8295 104.788 16.6364 105.795 16.6364C106.508 16.6364 107.14 16.6932 107.693 16.8068C108.246 16.9205 108.655 17.0227 108.92 17.1136L108.102 20.2955C107.928 20.2424 107.708 20.1894 107.443 20.1364C107.178 20.0758 106.883 20.0455 106.557 20.0455C105.792 20.0455 105.25 20.2311 104.932 20.6023C104.621 20.9659 104.466 21.4886 104.466 22.1705V41H100.341ZM118.372 41.3409C116.622 41.3409 115.111 40.9773 113.838 40.25C112.573 39.5152 111.599 38.4773 110.918 37.1364C110.236 35.7879 109.895 34.2008 109.895 32.375C109.895 30.5795 110.236 29.0038 110.918 27.6477C111.607 26.2841 112.569 25.2235 113.804 24.4659C115.039 23.7008 116.49 23.3182 118.156 23.3182C119.232 23.3182 120.247 23.4924 121.202 23.8409C122.164 24.1818 123.012 24.7121 123.747 25.4318C124.49 26.1515 125.073 27.0682 125.497 28.1818C125.921 29.2879 126.134 30.6061 126.134 32.1364V33.3977H111.827V30.625H122.19C122.183 29.8371 122.012 29.1364 121.679 28.5227C121.346 27.9015 120.88 27.4129 120.281 27.0568C119.69 26.7008 119.001 26.5227 118.213 26.5227C117.372 26.5227 116.634 26.7273 115.997 27.1364C115.361 27.5379 114.865 28.0682 114.509 28.7273C114.16 29.3788 113.982 30.0947 113.974 30.875V33.2955C113.974 34.3106 114.16 35.1818 114.531 35.9091C114.902 36.6288 115.421 37.1818 116.088 37.5682C116.755 37.947 117.535 38.1364 118.429 38.1364C119.027 38.1364 119.569 38.053 120.054 37.8864C120.539 37.7121 120.959 37.4583 121.315 37.125C121.671 36.7917 121.94 36.3788 122.122 35.8864L125.963 36.3182C125.721 37.3333 125.259 38.2197 124.577 38.9773C123.902 39.7273 123.039 40.3106 121.986 40.7273C120.933 41.1364 119.728 41.3409 118.372 41.3409ZM129.614 41V23.5455H133.602V26.4545H133.784C134.102 25.447 134.648 24.6705 135.42 24.125C136.201 23.572 137.091 23.2955 138.091 23.2955C138.318 23.2955 138.572 23.3068 138.852 23.3295C139.14 23.3447 139.379 23.3712 139.568 23.4091V27.1932C139.394 27.1326 139.117 27.0795 138.739 27.0341C138.367 26.9811 138.008 26.9545 137.659 26.9545C136.909 26.9545 136.235 27.1174 135.636 27.4432C135.045 27.7614 134.58 28.2045 134.239 28.7727C133.898 29.3409 133.727 29.9962 133.727 30.7386V41H129.614ZM163.068 24.125C162.962 23.1326 162.515 22.3598 161.727 21.8068C160.947 21.2538 159.932 20.9773 158.682 20.9773C157.803 20.9773 157.049 21.1098 156.42 21.375C155.792 21.6402 155.311 22 154.977 22.4545C154.644 22.9091 154.473 23.428 154.466 24.0114C154.466 24.4962 154.576 24.9167 154.795 25.2727C155.023 25.6288 155.33 25.9318 155.716 26.1818C156.102 26.4242 156.53 26.6288 157 26.7955C157.47 26.9621 157.943 27.1023 158.42 27.2159L160.602 27.7614C161.481 27.9659 162.326 28.2424 163.136 28.5909C163.955 28.9394 164.686 29.3788 165.33 29.9091C165.981 30.4394 166.496 31.0795 166.875 31.8295C167.254 32.5795 167.443 33.4583 167.443 34.4659C167.443 35.8295 167.095 37.0303 166.398 38.0682C165.701 39.0985 164.693 39.9053 163.375 40.4886C162.064 41.0644 160.477 41.3523 158.614 41.3523C156.803 41.3523 155.231 41.072 153.898 40.5114C152.572 39.9508 151.534 39.1326 150.784 38.0568C150.042 36.9811 149.64 35.6705 149.58 34.125H153.727C153.788 34.9356 154.038 35.6098 154.477 36.1477C154.917 36.6856 155.489 37.0871 156.193 37.3523C156.905 37.6174 157.701 37.75 158.58 37.75C159.496 37.75 160.299 37.6136 160.989 37.3409C161.686 37.0606 162.231 36.6742 162.625 36.1818C163.019 35.6818 163.22 35.0985 163.227 34.4318C163.22 33.8258 163.042 33.3258 162.693 32.9318C162.345 32.5303 161.856 32.197 161.227 31.9318C160.606 31.6591 159.879 31.4167 159.045 31.2045L156.398 30.5227C154.481 30.0303 152.966 29.2841 151.852 28.2841C150.746 27.2765 150.193 25.9394 150.193 24.2727C150.193 22.9015 150.564 21.7008 151.307 20.6705C152.057 19.6402 153.076 18.8409 154.364 18.2727C155.652 17.697 157.11 17.4091 158.739 17.4091C160.39 17.4091 161.837 17.697 163.08 18.2727C164.33 18.8409 165.311 19.6326 166.023 20.6477C166.735 21.6553 167.102 22.8144 167.125 24.125H163.068ZM182.145 33.6591V23.5455H186.259V41H182.27V37.8977H182.088C181.694 38.875 181.046 39.6742 180.145 40.2955C179.251 40.9167 178.149 41.2273 176.838 41.2273C175.694 41.2273 174.683 40.9735 173.804 40.4659C172.933 39.9508 172.251 39.2045 171.759 38.2273C171.266 37.2424 171.02 36.053 171.02 34.6591V23.5455H175.134V34.0227C175.134 35.1288 175.437 36.0076 176.043 36.6591C176.649 37.3106 177.444 37.6364 178.429 37.6364C179.035 37.6364 179.622 37.4886 180.19 37.1932C180.759 36.8977 181.224 36.4583 181.588 35.875C181.959 35.2841 182.145 34.5455 182.145 33.6591ZM198.102 41.3409C196.36 41.3409 194.864 40.9583 193.614 40.1932C192.371 39.428 191.413 38.3712 190.739 37.0227C190.072 35.6667 189.739 34.1061 189.739 32.3409C189.739 30.5682 190.08 29.0038 190.761 27.6477C191.443 26.2841 192.405 25.2235 193.648 24.4659C194.898 23.7008 196.375 23.3182 198.08 23.3182C199.496 23.3182 200.75 23.5795 201.841 24.1023C202.939 24.6174 203.814 25.3485 204.466 26.2955C205.117 27.2348 205.489 28.3333 205.58 29.5909H201.648C201.489 28.75 201.11 28.0492 200.511 27.4886C199.92 26.9205 199.129 26.6364 198.136 26.6364C197.295 26.6364 196.557 26.8636 195.92 27.3182C195.284 27.7652 194.788 28.4091 194.432 29.25C194.083 30.0909 193.909 31.0985 193.909 32.2727C193.909 33.4621 194.083 34.4848 194.432 35.3409C194.78 36.1894 195.269 36.8447 195.898 37.3068C196.534 37.7614 197.28 37.9886 198.136 37.9886C198.742 37.9886 199.284 37.875 199.761 37.6477C200.246 37.4129 200.652 37.0758 200.977 36.6364C201.303 36.197 201.527 35.6629 201.648 35.0341H205.58C205.481 36.2689 205.117 37.3636 204.489 38.3182C203.86 39.2652 203.004 40.0076 201.92 40.5455C200.837 41.0758 199.564 41.3409 198.102 41.3409ZM216.571 41.3409C214.829 41.3409 213.332 40.9583 212.082 40.1932C210.84 39.428 209.882 38.3712 209.207 37.0227C208.541 35.6667 208.207 34.1061 208.207 32.3409C208.207 30.5682 208.548 29.0038 209.23 27.6477C209.912 26.2841 210.874 25.2235 212.116 24.4659C213.366 23.7008 214.844 23.3182 216.548 23.3182C217.965 23.3182 219.219 23.5795 220.31 24.1023C221.408 24.6174 222.283 25.3485 222.935 26.2955C223.586 27.2348 223.957 28.3333 224.048 29.5909H220.116C219.957 28.75 219.579 28.0492 218.98 27.4886C218.389 26.9205 217.598 26.6364 216.605 26.6364C215.764 26.6364 215.026 26.8636 214.389 27.3182C213.753 27.7652 213.257 28.4091 212.901 29.25C212.552 30.0909 212.378 31.0985 212.378 32.2727C212.378 33.4621 212.552 34.4848 212.901 35.3409C213.249 36.1894 213.738 36.8447 214.366 37.3068C215.003 37.7614 215.749 37.9886 216.605 37.9886C217.211 37.9886 217.753 37.875 218.23 37.6477C218.715 37.4129 219.12 37.0758 219.446 36.6364C219.772 36.197 219.995 35.6629 220.116 35.0341H224.048C223.95 36.2689 223.586 37.3636 222.957 38.3182C222.329 39.2652 221.473 40.0076 220.389 40.5455C219.306 41.0758 218.033 41.3409 216.571 41.3409ZM235.153 41.3409C233.403 41.3409 231.892 40.9773 230.619 40.25C229.354 39.5152 228.381 38.4773 227.699 37.1364C227.017 35.7879 226.676 34.2008 226.676 32.375C226.676 30.5795 227.017 29.0038 227.699 27.6477C228.388 26.2841 229.35 25.2235 230.585 24.4659C231.82 23.7008 233.271 23.3182 234.938 23.3182C236.013 23.3182 237.028 23.4924 237.983 23.8409C238.945 24.1818 239.794 24.7121 240.528 25.4318C241.271 26.1515 241.854 27.0682 242.278 28.1818C242.703 29.2879 242.915 30.6061 242.915 32.1364V33.3977H228.608V30.625H238.972C238.964 29.8371 238.794 29.1364 238.46 28.5227C238.127 27.9015 237.661 27.4129 237.062 27.0568C236.472 26.7008 235.782 26.5227 234.994 26.5227C234.153 26.5227 233.415 26.7273 232.778 27.1364C232.142 27.5379 231.646 28.0682 231.29 28.7273C230.941 29.3788 230.763 30.0947 230.756 30.875V33.2955C230.756 34.3106 230.941 35.1818 231.312 35.9091C231.684 36.6288 232.203 37.1818 232.869 37.5682C233.536 37.947 234.316 38.1364 235.21 38.1364C235.809 38.1364 236.35 38.053 236.835 37.8864C237.32 37.7121 237.741 37.4583 238.097 37.125C238.453 36.7917 238.722 36.3788 238.903 35.8864L242.744 36.3182C242.502 37.3333 242.04 38.2197 241.358 38.9773C240.684 39.7273 239.82 40.3106 238.767 40.7273C237.714 41.1364 236.509 41.3409 235.153 41.3409ZM260.19 28.1591L256.44 28.5682C256.334 28.1894 256.149 27.8333 255.884 27.5C255.626 27.1667 255.277 26.8977 254.838 26.6932C254.399 26.4886 253.861 26.3864 253.224 26.3864C252.368 26.3864 251.649 26.572 251.065 26.9432C250.49 27.3144 250.205 27.7955 250.213 28.3864C250.205 28.8939 250.391 29.3068 250.77 29.625C251.156 29.9432 251.793 30.2045 252.679 30.4091L255.656 31.0455C257.308 31.4015 258.535 31.9659 259.338 32.7386C260.149 33.5114 260.558 34.5227 260.565 35.7727C260.558 36.8712 260.236 37.8409 259.599 38.6818C258.971 39.5152 258.096 40.1667 256.974 40.6364C255.853 41.1061 254.565 41.3409 253.111 41.3409C250.974 41.3409 249.255 40.8939 247.952 40C246.649 39.0985 245.872 37.8447 245.622 36.2386L249.634 35.8523C249.815 36.6402 250.202 37.2348 250.793 37.6364C251.384 38.0379 252.152 38.2386 253.099 38.2386C254.077 38.2386 254.861 38.0379 255.452 37.6364C256.05 37.2348 256.349 36.7386 256.349 36.1477C256.349 35.6477 256.156 35.2348 255.77 34.9091C255.391 34.5833 254.8 34.3333 253.997 34.1591L251.02 33.5341C249.346 33.1856 248.107 32.5985 247.304 31.7727C246.501 30.9394 246.103 29.8864 246.111 28.6136C246.103 27.5379 246.395 26.6061 246.986 25.8182C247.584 25.0227 248.414 24.4091 249.474 23.9773C250.543 23.5379 251.774 23.3182 253.168 23.3182C255.213 23.3182 256.823 23.7538 257.997 24.625C259.179 25.4962 259.91 26.6742 260.19 28.1591ZM277.753 28.1591L274.003 28.5682C273.897 28.1894 273.711 27.8333 273.446 27.5C273.188 27.1667 272.84 26.8977 272.401 26.6932C271.961 26.4886 271.423 26.3864 270.787 26.3864C269.931 26.3864 269.211 26.572 268.628 26.9432C268.052 27.3144 267.768 27.7955 267.776 28.3864C267.768 28.8939 267.954 29.3068 268.332 29.625C268.719 29.9432 269.355 30.2045 270.241 30.4091L273.219 31.0455C274.87 31.4015 276.098 31.9659 276.901 32.7386C277.711 33.5114 278.12 34.5227 278.128 35.7727C278.12 36.8712 277.798 37.8409 277.162 38.6818C276.533 39.5152 275.658 40.1667 274.537 40.6364C273.416 41.1061 272.128 41.3409 270.673 41.3409C268.537 41.3409 266.817 40.8939 265.514 40C264.211 39.0985 263.435 37.8447 263.185 36.2386L267.196 35.8523C267.378 36.6402 267.764 37.2348 268.355 37.6364C268.946 38.0379 269.715 38.2386 270.662 38.2386C271.639 38.2386 272.423 38.0379 273.014 37.6364C273.613 37.2348 273.912 36.7386 273.912 36.1477C273.912 35.6477 273.719 35.2348 273.332 34.9091C272.954 34.5833 272.363 34.3333 271.56 34.1591L268.582 33.5341C266.908 33.1856 265.67 32.5985 264.866 31.7727C264.063 30.9394 263.666 29.8864 263.673 28.6136C263.666 27.5379 263.957 26.6061 264.548 25.8182C265.147 25.0227 265.976 24.4091 267.037 23.9773C268.105 23.5379 269.336 23.3182 270.73 23.3182C272.776 23.3182 274.385 23.7538 275.56 24.625C276.741 25.4962 277.473 26.6742 277.753 28.1591Z" fill="url(#paint0_linear_1743_3352)"/>
<defs>
<linearGradient id="paint0_linear_1743_3352" x1="10" y1="29.5" x2="280" y2="29.5" gradientUnits="userSpaceOnUse">
<stop stop-color="#FFD600"/>
<stop offset="1" stop-color="#00D078"/>
</linearGradient>
</defs>
</svg>
