<svg width="79" height="35" viewBox="0 0 79 35" fill="none" xmlns="http://www.w3.org/2000/svg">
<g filter="url(#filter0_d_1136_1045)">
<rect x="6" y="2" width="67" height="23" rx="6" fill="#ECEAEA" shape-rendering="crispEdges"/>
<rect x="6.5" y="2.5" width="66" height="22" rx="5.5" stroke="#D1D1D1" shape-rendering="crispEdges"/>
<g clip-path="url(#clip0_1136_1045)">
<path d="M21.7708 9.125V7.52083C21.7708 7.19867 21.5097 6.9375 21.1875 6.9375H13.0208C12.6987 6.9375 12.4375 7.19866 12.4375 7.52083V15.6875C12.4375 16.0097 12.6987 16.2708 13.0208 16.2708H14.625" stroke="#3E8076" stroke-width="1.5" stroke-linecap="round" stroke-linejoin="round"/>
<path d="M16.2285 11.3128C16.2285 10.9907 16.4897 10.7295 16.8118 10.7295H24.9785C25.3007 10.7295 25.5618 10.9907 25.5618 11.3128V19.4795C25.5618 19.8017 25.3007 20.0628 24.9785 20.0628H16.8118C16.4897 20.0628 16.2285 19.8017 16.2285 19.4795V11.3128Z" stroke="#3E8076" stroke-width="1.5" stroke-linejoin="round"/>
</g>
<path d="M41.6312 12H40.3983C40.3253 11.6454 40.1977 11.3338 40.0154 11.0653C39.8365 10.7969 39.6177 10.5715 39.3592 10.3892C39.104 10.2036 38.8206 10.0644 38.5091 9.97159C38.1975 9.87879 37.8727 9.83239 37.5346 9.83239C36.9181 9.83239 36.3597 9.98816 35.8592 10.2997C35.362 10.6113 34.966 11.0703 34.671 11.6768C34.3793 12.2834 34.2335 13.0275 34.2335 13.9091C34.2335 14.7907 34.3793 15.5348 34.671 16.1413C34.966 16.7479 35.362 17.2069 35.8592 17.5185C36.3597 17.83 36.9181 17.9858 37.5346 17.9858C37.8727 17.9858 38.1975 17.9394 38.5091 17.8466C38.8206 17.7538 39.104 17.6162 39.3592 17.4339C39.6177 17.2483 39.8365 17.0213 40.0154 16.7528C40.1977 16.4811 40.3253 16.1695 40.3983 15.8182H41.6312C41.5384 16.3385 41.3694 16.8042 41.1241 17.2152C40.8788 17.6262 40.5739 17.9759 40.2093 18.2642C39.8448 18.5492 39.4354 18.7663 38.9814 18.9155C38.5306 19.0646 38.0484 19.1392 37.5346 19.1392C36.6663 19.1392 35.894 18.9271 35.2179 18.5028C34.5417 18.0786 34.0098 17.4754 33.622 16.6932C33.2342 15.911 33.0403 14.983 33.0403 13.9091C33.0403 12.8352 33.2342 11.9072 33.622 11.125C34.0098 10.3428 34.5417 9.73958 35.2179 9.31534C35.894 8.8911 36.6663 8.67898 37.5346 8.67898C38.0484 8.67898 38.5306 8.75355 38.9814 8.9027C39.4354 9.05185 39.8448 9.2706 40.2093 9.55895C40.5739 9.84399 40.8788 10.192 41.1241 10.603C41.3694 11.0107 41.5384 11.4763 41.6312 12ZM46.5668 19.1591C45.8774 19.1591 45.2725 18.995 44.7521 18.6669C44.2351 18.3388 43.8307 17.8797 43.5391 17.2898C43.2507 16.6998 43.1065 16.0104 43.1065 15.2216C43.1065 14.4261 43.2507 13.7318 43.5391 13.1385C43.8307 12.5452 44.2351 12.0845 44.7521 11.7564C45.2725 11.4283 45.8774 11.2642 46.5668 11.2642C47.2562 11.2642 47.8594 11.4283 48.3764 11.7564C48.8968 12.0845 49.3011 12.5452 49.5895 13.1385C49.8812 13.7318 50.027 14.4261 50.027 15.2216C50.027 16.0104 49.8812 16.6998 49.5895 17.2898C49.3011 17.8797 48.8968 18.3388 48.3764 18.6669C47.8594 18.995 47.2562 19.1591 46.5668 19.1591ZM46.5668 18.1051C47.0904 18.1051 47.5213 17.9709 47.8594 17.7024C48.1974 17.4339 48.4477 17.081 48.6101 16.6435C48.7725 16.206 48.8537 15.732 48.8537 15.2216C48.8537 14.7112 48.7725 14.2356 48.6101 13.7947C48.4477 13.3539 48.1974 12.9976 47.8594 12.7259C47.5213 12.4541 47.0904 12.3182 46.5668 12.3182C46.0431 12.3182 45.6122 12.4541 45.2741 12.7259C44.9361 12.9976 44.6858 13.3539 44.5234 13.7947C44.361 14.2356 44.2798 14.7112 44.2798 15.2216C44.2798 15.732 44.361 16.206 44.5234 16.6435C44.6858 17.081 44.9361 17.4339 45.2741 17.7024C45.6122 17.9709 46.0431 18.1051 46.5668 18.1051ZM51.818 21.8636V11.3636H52.9515V12.5767H53.0907C53.1769 12.4441 53.2962 12.2751 53.4487 12.0696C53.6045 11.8608 53.8265 11.6752 54.1149 11.5128C54.4065 11.3471 54.801 11.2642 55.2981 11.2642C55.9411 11.2642 56.5079 11.425 56.9984 11.7464C57.4889 12.0679 57.8717 12.5237 58.1468 13.1136C58.4219 13.7036 58.5595 14.3996 58.5595 15.2017C58.5595 16.0104 58.4219 16.7114 58.1468 17.3047C57.8717 17.8946 57.4906 18.352 57.0034 18.6768C56.5162 18.9983 55.9544 19.1591 55.318 19.1591C54.8275 19.1591 54.4347 19.0779 54.1397 18.9155C53.8448 18.7498 53.6177 18.5625 53.4586 18.3537C53.2995 18.1416 53.1769 17.9659 53.0907 17.8267H52.9913V21.8636H51.818ZM52.9714 15.1818C52.9714 15.7585 53.0559 16.2673 53.225 16.7081C53.394 17.1456 53.6409 17.4886 53.9657 17.7372C54.2905 17.9825 54.6883 18.1051 55.1589 18.1051C55.6494 18.1051 56.0588 17.9759 56.3869 17.7173C56.7183 17.4555 56.9669 17.1042 57.1326 16.6634C57.3017 16.2192 57.3862 15.7254 57.3862 15.1818C57.3862 14.6449 57.3033 14.161 57.1376 13.7301C56.9752 13.2959 56.7283 12.9529 56.3968 12.701C56.0687 12.4458 55.6561 12.3182 55.1589 12.3182C54.6816 12.3182 54.2806 12.4392 53.9558 12.6811C53.631 12.9197 53.3857 13.2545 53.22 13.6854C53.0543 14.1129 52.9714 14.6117 52.9714 15.1818ZM60.8315 21.8636C60.6326 21.8636 60.4553 21.8471 60.2995 21.8139C60.1438 21.7841 60.036 21.7543 59.9764 21.7244L60.2747 20.6903C60.5597 20.7633 60.8116 20.7898 61.0304 20.7699C61.2491 20.75 61.443 20.6522 61.612 20.4766C61.7844 20.3042 61.9418 20.0241 62.0843 19.6364L62.3031 19.0398L59.4792 11.3636H60.752L62.8599 17.4489H62.9395L65.0474 11.3636H66.3201L63.0787 20.1136C62.9328 20.508 62.7522 20.8345 62.5368 21.093C62.3213 21.3549 62.0711 21.5488 61.786 21.6747C61.5043 21.8007 61.1861 21.8636 60.8315 21.8636Z" fill="#3E8076"/>
</g>
<defs>
<filter id="filter0_d_1136_1045" x="0" y="0" width="79" height="35" filterUnits="userSpaceOnUse" color-interpolation-filters="sRGB">
<feFlood flood-opacity="0" result="BackgroundImageFix"/>
<feColorMatrix in="SourceAlpha" type="matrix" values="0 0 0 0 0 0 0 0 0 0 0 0 0 0 0 0 0 0 127 0" result="hardAlpha"/>
<feOffset dy="4"/>
<feGaussianBlur stdDeviation="3"/>
<feComposite in2="hardAlpha" operator="out"/>
<feColorMatrix type="matrix" values="0 0 0 0 0 0 0 0 0 0 0 0 0 0 0 0 0 0 0.25 0"/>
<feBlend mode="normal" in2="BackgroundImageFix" result="effect1_dropShadow_1136_1045"/>
<feBlend mode="normal" in="SourceGraphic" in2="effect1_dropShadow_1136_1045" result="shape"/>
</filter>
<clipPath id="clip0_1136_1045">
<rect width="14" height="14" fill="white" transform="translate(12 6.5)"/>
</clipPath>
</defs>
</svg>
