<svg width="378" height="24" viewBox="0 0 378 24" fill="none" xmlns="http://www.w3.org/2000/svg">
<g clip-path="url(#clip0_1743_2144)">
<path d="M14.7884 21.5237C15.7669 22.1548 16.9328 22.43 18.0902 22.3027C19.2476 22.1754 20.3259 21.6535 21.1437 20.8246L21.8587 20.1255C22.1722 19.8048 22.3477 19.3743 22.3477 18.926C22.3477 18.4776 22.1722 18.0469 21.8587 17.7264L18.8241 14.7235C18.5061 14.4111 18.0782 14.236 17.6324 14.236C17.1867 14.236 16.7587 14.4111 16.4408 14.7235C16.1202 15.037 15.6896 15.2125 15.2413 15.2125C14.7929 15.2125 14.3623 15.037 14.0417 14.7235L9.27524 9.95706C9.11623 9.80036 8.98996 9.61362 8.90378 9.40769C8.81759 9.20176 8.7732 8.98074 8.7732 8.7575C8.7732 8.53425 8.81759 8.31325 8.90378 8.10731C8.98996 7.90138 9.11623 7.71464 9.27524 7.55794C9.58768 7.24002 9.76275 6.81208 9.76275 6.36633C9.76275 5.92056 9.58768 5.49264 9.27524 5.17471L6.25651 2.15595C5.93585 1.8425 5.50533 1.66699 5.05699 1.66699C4.60848 1.66699 4.17796 1.8425 3.85731 2.15595L3.1582 2.87092C2.32949 3.68874 1.80758 4.76702 1.68021 5.92441C1.55284 7.08182 1.82796 8.24776 2.45925 9.2262C5.74814 14.0733 9.93291 18.2472 14.7884 21.5237Z" stroke="white" stroke-width="3" stroke-linecap="round" stroke-linejoin="round"/>
</g>
<path d="M46.5469 21.1591C45.0365 21.1591 43.6918 20.9531 42.5128 20.5412C41.3338 20.134 40.3371 19.5374 39.5227 18.7514C38.7083 17.9607 38.0881 16.9972 37.6619 15.8608C37.2358 14.7244 37.0227 13.4318 37.0227 11.983C37.0227 10.553 37.2358 9.25568 37.6619 8.09091C38.0928 6.92614 38.7202 5.92708 39.544 5.09375C40.3679 4.25568 41.3741 3.61174 42.5625 3.16193C43.7557 2.71212 45.1146 2.48722 46.6392 2.48722C48.0502 2.48722 49.3097 2.69318 50.4176 3.10511C51.5303 3.51705 52.4725 4.10417 53.2443 4.86648C54.0208 5.62405 54.6103 6.52604 55.0128 7.57244C55.42 8.61411 55.6212 9.76705 55.6165 11.0312C55.6212 11.9025 55.5455 12.7027 55.3892 13.4318C55.233 14.161 54.9867 14.7978 54.6506 15.3423C54.3191 15.8821 53.8835 16.3106 53.3438 16.6278C52.804 16.9403 52.1506 17.1179 51.3835 17.1605C50.8343 17.2031 50.3892 17.1629 50.0483 17.0398C49.7074 16.9167 49.447 16.7344 49.267 16.4929C49.0919 16.2467 48.9782 15.9602 48.9261 15.6335H48.8409C48.7273 15.9176 48.5047 16.1757 48.1733 16.4077C47.8419 16.6349 47.437 16.8125 46.9588 16.9403C46.4853 17.0634 45.9811 17.1084 45.446 17.0753C44.8873 17.0421 44.357 16.9119 43.8551 16.6847C43.358 16.4574 42.9152 16.1283 42.527 15.6974C42.1435 15.2666 41.8404 14.7339 41.6179 14.0994C41.4001 13.465 41.2888 12.7311 41.2841 11.8977C41.2888 11.0739 41.4048 10.3565 41.6321 9.74574C41.8641 9.13494 42.1695 8.62121 42.5483 8.20455C42.9318 7.78788 43.358 7.46117 43.8267 7.22443C44.2955 6.98769 44.7666 6.83617 45.2401 6.76989C45.7751 6.68939 46.2817 6.68939 46.7599 6.76989C47.2382 6.85038 47.6406 6.98059 47.9673 7.16051C48.2988 7.34044 48.5047 7.53456 48.5852 7.7429H48.6847V6.94744H50.9077V13.8793C50.9124 14.206 50.9858 14.4593 51.1278 14.6392C51.2699 14.8191 51.4616 14.9091 51.7031 14.9091C52.0298 14.9091 52.3021 14.7647 52.5199 14.4759C52.7424 14.187 52.9081 13.7443 53.017 13.1477C53.1307 12.5511 53.1875 11.7912 53.1875 10.8679C53.1875 9.97775 53.0691 9.1965 52.8324 8.52415C52.6004 7.84706 52.2737 7.27178 51.8523 6.7983C51.4356 6.32008 50.9503 5.93182 50.3963 5.63352C49.8423 5.33523 49.241 5.11742 48.5923 4.98011C47.9484 4.8428 47.2855 4.77415 46.6037 4.77415C45.4247 4.77415 44.3949 4.95407 43.5142 5.31392C42.6335 5.66903 41.8996 6.16856 41.3125 6.8125C40.7254 7.45644 40.285 8.21165 39.9915 9.07812C39.7027 9.93987 39.5559 10.8797 39.5511 11.8977C39.5559 13.0199 39.7121 14.0142 40.0199 14.8807C40.3324 15.7424 40.7917 16.4669 41.3977 17.054C42.0038 17.6411 42.7519 18.0862 43.642 18.3892C44.5322 18.6922 45.5549 18.8438 46.7102 18.8438C47.2547 18.8438 47.7874 18.8059 48.3082 18.7301C48.8291 18.6496 49.3002 18.5549 49.7216 18.446C50.143 18.3324 50.4815 18.2235 50.7372 18.1193L51.4403 20.179C51.142 20.3494 50.7372 20.508 50.2259 20.6548C49.7192 20.8063 49.1463 20.9271 48.5071 21.017C47.8726 21.1117 47.2192 21.1591 46.5469 21.1591ZM46.2202 14.7386C46.7978 14.7386 47.2571 14.6274 47.598 14.4048C47.9437 14.1823 48.1899 13.8532 48.3366 13.4176C48.4882 12.9773 48.5592 12.4351 48.5497 11.7912C48.545 11.223 48.4716 10.7424 48.3295 10.3494C48.1922 9.9517 47.9531 9.65104 47.6122 9.44744C47.276 9.23911 46.8073 9.13494 46.206 9.13494C45.6804 9.13494 45.233 9.24621 44.8636 9.46875C44.4991 9.69129 44.2197 10.0038 44.0256 10.4062C43.8362 10.804 43.7391 11.2727 43.7344 11.8125C43.7391 12.3144 43.8196 12.7902 43.9759 13.2401C44.1321 13.6851 44.3902 14.0473 44.75 14.3267C45.1098 14.6013 45.5999 14.7386 46.2202 14.7386ZM57.7844 19V16.7841L62.962 11.9901C63.4023 11.5639 63.7717 11.1804 64.07 10.8395C64.373 10.4986 64.6026 10.1648 64.7589 9.83807C64.9151 9.50663 64.9933 9.14915 64.9933 8.76562C64.9933 8.33949 64.8962 7.97254 64.7021 7.66477C64.5079 7.35227 64.2428 7.11316 63.9066 6.94744C63.5704 6.77699 63.1893 6.69176 62.7631 6.69176C62.3181 6.69176 61.9298 6.78172 61.5984 6.96165C61.2669 7.14157 61.0112 7.39962 60.8313 7.7358C60.6514 8.07197 60.5614 8.47206 60.5614 8.93608H57.6424C57.6424 7.98437 57.8578 7.15814 58.2887 6.45739C58.7196 5.75663 59.3233 5.21449 60.0998 4.83097C60.8763 4.44744 61.7712 4.25568 62.7844 4.25568C63.8261 4.25568 64.7328 4.44034 65.5046 4.80966C66.2811 5.17424 66.8848 5.68087 67.3157 6.32955C67.7466 6.97822 67.962 7.72159 67.962 8.55966C67.962 9.1089 67.8531 9.65104 67.6353 10.1861C67.4222 10.7211 67.0411 11.3153 66.4918 11.9688C65.9426 12.6174 65.1684 13.3963 64.1694 14.3054L62.0458 16.3864V16.4858H68.1538V19H57.7844ZM75.8082 19.1989C74.7145 19.1989 73.7415 19.0213 72.8892 18.6662C72.0417 18.3063 71.3764 17.8163 70.8935 17.196C70.4105 16.5758 70.169 15.8726 70.169 15.0866C70.169 14.4806 70.3063 13.9242 70.581 13.4176C70.8603 12.9062 71.2391 12.4825 71.7173 12.1463C72.1955 11.8054 72.7306 11.5876 73.3224 11.4929V11.3935C72.5459 11.2372 71.9162 10.8608 71.4332 10.2642C70.9503 9.66288 70.7088 8.96449 70.7088 8.16903C70.7088 7.41619 70.929 6.74621 71.3693 6.15909C71.8097 5.56723 72.4134 5.10322 73.1804 4.76705C73.9522 4.42614 74.8281 4.25568 75.8082 4.25568C76.7884 4.25568 77.6619 4.42614 78.429 4.76705C79.2008 5.10795 79.8068 5.57434 80.2472 6.16619C80.6875 6.75331 80.91 7.42093 80.9148 8.16903C80.91 8.96922 80.6638 9.66761 80.1761 10.2642C79.6884 10.8608 79.0634 11.2372 78.3011 11.3935V11.4929C78.8835 11.5876 79.4115 11.8054 79.8849 12.1463C80.3632 12.4825 80.742 12.9062 81.0213 13.4176C81.3054 13.9242 81.4498 14.4806 81.4545 15.0866C81.4498 15.8726 81.206 16.5758 80.723 17.196C80.2401 17.8163 79.5724 18.3063 78.7202 18.6662C77.8726 19.0213 76.902 19.1989 75.8082 19.1989ZM75.8082 16.9403C76.2959 16.9403 76.7221 16.8527 77.0866 16.6776C77.4512 16.4976 77.7353 16.2514 77.9389 15.9389C78.1473 15.6217 78.2514 15.2571 78.2514 14.8452C78.2514 14.4238 78.1449 14.0521 77.9318 13.7301C77.7188 13.4034 77.4299 13.1477 77.0653 12.9631C76.7008 12.7737 76.2817 12.679 75.8082 12.679C75.3395 12.679 74.9205 12.7737 74.5511 12.9631C74.1818 13.1477 73.8906 13.4034 73.6776 13.7301C73.4692 14.0521 73.3651 14.4238 73.3651 14.8452C73.3651 15.2571 73.4669 15.6217 73.6705 15.9389C73.8741 16.2514 74.1605 16.4976 74.5298 16.6776C74.8991 16.8527 75.3253 16.9403 75.8082 16.9403ZM75.8082 10.4418C76.2154 10.4418 76.5777 10.3589 76.8949 10.1932C77.2121 10.0275 77.4607 9.79782 77.6406 9.50426C77.8205 9.2107 77.9105 8.87216 77.9105 8.48864C77.9105 8.10985 77.8205 7.77841 77.6406 7.49432C77.4607 7.20549 77.2145 6.98059 76.902 6.8196C76.5895 6.65388 76.2249 6.57102 75.8082 6.57102C75.3963 6.57102 75.0317 6.65388 74.7145 6.8196C74.3973 6.98059 74.1487 7.20549 73.9688 7.49432C73.7936 7.77841 73.706 8.10985 73.706 8.48864C73.706 8.87216 73.7959 9.2107 73.9759 9.50426C74.1558 9.79782 74.4044 10.0275 74.7216 10.1932C75.0388 10.3589 75.401 10.4418 75.8082 10.4418ZM88.9812 19.1989C87.9206 19.1989 86.976 19.0166 86.1474 18.652C85.3235 18.2827 84.6725 17.776 84.1942 17.1321C83.7208 16.4834 83.4769 15.7353 83.4627 14.8878H86.5593C86.5782 15.2429 86.6942 15.5554 86.9073 15.8253C87.1251 16.0904 87.4139 16.2964 87.7738 16.4432C88.1336 16.59 88.5385 16.6634 88.9883 16.6634C89.457 16.6634 89.8713 16.5805 90.2312 16.4148C90.591 16.2491 90.8728 16.0194 91.0763 15.7259C91.2799 15.4323 91.3817 15.0937 91.3817 14.7102C91.3817 14.322 91.2728 13.9787 91.055 13.6804C90.842 13.3774 90.5342 13.1406 90.1317 12.9702C89.734 12.7997 89.2605 12.7145 88.7113 12.7145H87.3548V10.456H88.7113C89.1753 10.456 89.5849 10.3755 89.94 10.2145C90.2998 10.0535 90.5792 9.83097 90.7781 9.54688C90.9769 9.25805 91.0763 8.92188 91.0763 8.53835C91.0763 8.17377 90.9888 7.85417 90.8136 7.57955C90.6431 7.30019 90.4016 7.08239 90.0891 6.92614C89.7814 6.76989 89.4215 6.69176 89.0096 6.69176C88.5929 6.69176 88.2118 6.76752 87.8661 6.91903C87.5205 7.06581 87.2435 7.27651 87.0352 7.55114C86.8268 7.82576 86.7156 8.14773 86.7013 8.51705H83.7539C83.7681 7.67898 84.0072 6.94034 84.4712 6.30114C84.9353 5.66193 85.5603 5.1624 86.3462 4.80256C87.137 4.43797 88.0295 4.25568 89.0238 4.25568C90.0276 4.25568 90.9059 4.43797 91.6587 4.80256C92.4116 5.16714 92.9963 5.65956 93.413 6.27983C93.8344 6.89536 94.0427 7.58665 94.038 8.35369C94.0427 9.16809 93.7894 9.84754 93.2781 10.392C92.7714 10.9366 92.1109 11.2822 91.2965 11.429V11.5426C92.3666 11.6799 93.181 12.0516 93.7397 12.6577C94.3031 13.259 94.5825 14.0118 94.5778 14.9162C94.5825 15.7448 94.3434 16.4811 93.8604 17.125C93.3822 17.7689 92.7217 18.2756 91.8789 18.6449C91.0361 19.0142 90.0702 19.1989 88.9812 19.1989ZM102.051 4.25568C102.799 4.25568 103.519 4.38115 104.21 4.6321C104.906 4.88305 105.527 5.28314 106.071 5.83239C106.62 6.38163 107.054 7.1108 107.371 8.01989C107.693 8.92424 107.856 10.0346 107.861 11.3509C107.861 12.5866 107.721 13.6899 107.442 14.6605C107.167 15.6264 106.772 16.4479 106.256 17.125C105.74 17.8021 105.117 18.3182 104.388 18.6733C103.659 19.0237 102.844 19.1989 101.945 19.1989C100.974 19.1989 100.117 19.0118 99.3736 18.6378C98.6302 18.259 98.0313 17.7453 97.5767 17.0966C97.1269 16.4432 96.8546 15.7093 96.7599 14.8949H99.7926C99.911 15.4252 100.16 15.8371 100.538 16.1307C100.917 16.4195 101.386 16.5639 101.945 16.5639C102.892 16.5639 103.611 16.152 104.104 15.3281C104.596 14.4995 104.845 13.3655 104.849 11.9261H104.75C104.532 12.3523 104.239 12.7192 103.869 13.027C103.5 13.33 103.076 13.5644 102.598 13.7301C102.125 13.8958 101.62 13.9787 101.085 13.9787C100.228 13.9787 99.4635 13.7775 98.7912 13.375C98.1188 12.9725 97.5885 12.4186 97.2003 11.7131C96.812 11.0076 96.6179 10.2027 96.6179 9.2983C96.6132 8.32292 96.8381 7.45407 97.2926 6.69176C97.7472 5.92945 98.3816 5.33286 99.196 4.90199C100.015 4.46638 100.967 4.25095 102.051 4.25568ZM102.072 6.67045C101.594 6.67045 101.168 6.78409 100.794 7.01136C100.425 7.23864 100.131 7.54403 99.9134 7.92756C99.7003 8.31108 99.5961 8.73958 99.6009 9.21307C99.6009 9.69129 99.705 10.1222 99.9134 10.5057C100.126 10.8845 100.415 11.1875 100.78 11.4148C101.149 11.6373 101.571 11.7486 102.044 11.7486C102.399 11.7486 102.728 11.6823 103.031 11.5497C103.334 11.4171 103.597 11.2348 103.82 11.0028C104.047 10.7661 104.224 10.4938 104.352 10.1861C104.48 9.87831 104.544 9.55161 104.544 9.20597C104.539 8.74669 104.43 8.32528 104.217 7.94176C104.004 7.55824 103.711 7.25047 103.337 7.01847C102.963 6.78646 102.541 6.67045 102.072 6.67045ZM116.817 10.527V12.9276H110.183V10.527H116.817ZM124.629 4.25568C125.377 4.25568 126.097 4.38115 126.788 4.6321C127.484 4.88305 128.105 5.28314 128.649 5.83239C129.198 6.38163 129.632 7.1108 129.949 8.01989C130.271 8.92424 130.434 10.0346 130.439 11.3509C130.439 12.5866 130.299 13.6899 130.02 14.6605C129.745 15.6264 129.35 16.4479 128.834 17.125C128.318 17.8021 127.695 18.3182 126.966 18.6733C126.237 19.0237 125.422 19.1989 124.523 19.1989C123.552 19.1989 122.695 19.0118 121.952 18.6378C121.208 18.259 120.609 17.7453 120.155 17.0966C119.705 16.4432 119.433 15.7093 119.338 14.8949H122.371C122.489 15.4252 122.738 15.8371 123.116 16.1307C123.495 16.4195 123.964 16.5639 124.523 16.5639C125.47 16.5639 126.189 16.152 126.682 15.3281C127.174 14.4995 127.423 13.3655 127.428 11.9261H127.328C127.11 12.3523 126.817 12.7192 126.447 13.027C126.078 13.33 125.654 13.5644 125.176 13.7301C124.703 13.8958 124.198 13.9787 123.663 13.9787C122.806 13.9787 122.042 13.7775 121.369 13.375C120.697 12.9725 120.167 12.4186 119.778 11.7131C119.39 11.0076 119.196 10.2027 119.196 9.2983C119.191 8.32292 119.416 7.45407 119.871 6.69176C120.325 5.92945 120.96 5.33286 121.774 4.90199C122.593 4.46638 123.545 4.25095 124.629 4.25568ZM124.651 6.67045C124.172 6.67045 123.746 6.78409 123.372 7.01136C123.003 7.23864 122.709 7.54403 122.491 7.92756C122.278 8.31108 122.174 8.73958 122.179 9.21307C122.179 9.69129 122.283 10.1222 122.491 10.5057C122.705 10.8845 122.993 11.1875 123.358 11.4148C123.727 11.6373 124.149 11.7486 124.622 11.7486C124.977 11.7486 125.306 11.6823 125.609 11.5497C125.912 11.4171 126.175 11.2348 126.398 11.0028C126.625 10.7661 126.803 10.4938 126.93 10.1861C127.058 9.87831 127.122 9.55161 127.122 9.20597C127.117 8.74669 127.009 8.32528 126.795 7.94176C126.582 7.55824 126.289 7.25047 125.915 7.01847C125.541 6.78646 125.119 6.67045 124.651 6.67045ZM137.946 19.1989C136.885 19.1989 135.941 19.0166 135.112 18.652C134.288 18.2827 133.637 17.776 133.159 17.1321C132.686 16.4834 132.442 15.7353 132.428 14.8878H135.524C135.543 15.2429 135.659 15.5554 135.872 15.8253C136.09 16.0904 136.379 16.2964 136.739 16.4432C137.098 16.59 137.503 16.6634 137.953 16.6634C138.422 16.6634 138.836 16.5805 139.196 16.4148C139.556 16.2491 139.838 16.0194 140.041 15.7259C140.245 15.4323 140.347 15.0937 140.347 14.7102C140.347 14.322 140.238 13.9787 140.02 13.6804C139.807 13.3774 139.499 13.1406 139.097 12.9702C138.699 12.7997 138.225 12.7145 137.676 12.7145H136.32V10.456H137.676C138.14 10.456 138.55 10.3755 138.905 10.2145C139.265 10.0535 139.544 9.83097 139.743 9.54688C139.942 9.25805 140.041 8.92188 140.041 8.53835C140.041 8.17377 139.954 7.85417 139.778 7.57955C139.608 7.30019 139.366 7.08239 139.054 6.92614C138.746 6.76989 138.386 6.69176 137.974 6.69176C137.558 6.69176 137.177 6.76752 136.831 6.91903C136.485 7.06581 136.208 7.27651 136 7.55114C135.792 7.82576 135.68 8.14773 135.666 8.51705H132.719C132.733 7.67898 132.972 6.94034 133.436 6.30114C133.9 5.66193 134.525 5.1624 135.311 4.80256C136.102 4.43797 136.994 4.25568 137.989 4.25568C138.992 4.25568 139.871 4.43797 140.624 4.80256C141.376 5.16714 141.961 5.65956 142.378 6.27983C142.799 6.89536 143.008 7.58665 143.003 8.35369C143.008 9.16809 142.754 9.84754 142.243 10.392C141.736 10.9366 141.076 11.2822 140.261 11.429V11.5426C141.331 11.6799 142.146 12.0516 142.705 12.6577C143.268 13.259 143.547 14.0118 143.543 14.9162C143.547 15.7448 143.308 16.4811 142.825 17.125C142.347 17.7689 141.687 18.2756 140.844 18.6449C140.001 19.0142 139.035 19.1989 137.946 19.1989ZM151.179 19.1989C150.086 19.1989 149.113 19.0213 148.26 18.6662C147.413 18.3063 146.748 17.8163 146.265 17.196C145.782 16.5758 145.54 15.8726 145.54 15.0866C145.54 14.4806 145.677 13.9242 145.952 13.4176C146.231 12.9062 146.61 12.4825 147.088 12.1463C147.567 11.8054 148.102 11.5876 148.694 11.4929V11.3935C147.917 11.2372 147.287 10.8608 146.804 10.2642C146.321 9.66288 146.08 8.96449 146.08 8.16903C146.08 7.41619 146.3 6.74621 146.74 6.15909C147.181 5.56723 147.784 5.10322 148.551 4.76705C149.323 4.42614 150.199 4.25568 151.179 4.25568C152.159 4.25568 153.033 4.42614 153.8 4.76705C154.572 5.10795 155.178 5.57434 155.618 6.16619C156.059 6.75331 156.281 7.42093 156.286 8.16903C156.281 8.96922 156.035 9.66761 155.547 10.2642C155.06 10.8608 154.435 11.2372 153.672 11.3935V11.4929C154.255 11.5876 154.783 11.8054 155.256 12.1463C155.734 12.4825 156.113 12.9062 156.392 13.4176C156.676 13.9242 156.821 14.4806 156.826 15.0866C156.821 15.8726 156.577 16.5758 156.094 17.196C155.611 17.8163 154.944 18.3063 154.091 18.6662C153.244 19.0213 152.273 19.1989 151.179 19.1989ZM151.179 16.9403C151.667 16.9403 152.093 16.8527 152.458 16.6776C152.822 16.4976 153.106 16.2514 153.31 15.9389C153.518 15.6217 153.623 15.2571 153.623 14.8452C153.623 14.4238 153.516 14.0521 153.303 13.7301C153.09 13.4034 152.801 13.1477 152.436 12.9631C152.072 12.7737 151.653 12.679 151.179 12.679C150.711 12.679 150.292 12.7737 149.922 12.9631C149.553 13.1477 149.262 13.4034 149.049 13.7301C148.84 14.0521 148.736 14.4238 148.736 14.8452C148.736 15.2571 148.838 15.6217 149.042 15.9389C149.245 16.2514 149.532 16.4976 149.901 16.6776C150.27 16.8527 150.696 16.9403 151.179 16.9403ZM151.179 10.4418C151.587 10.4418 151.949 10.3589 152.266 10.1932C152.583 10.0275 152.832 9.79782 153.012 9.50426C153.192 9.2107 153.282 8.87216 153.282 8.48864C153.282 8.10985 153.192 7.77841 153.012 7.49432C152.832 7.20549 152.586 6.98059 152.273 6.8196C151.961 6.65388 151.596 6.57102 151.179 6.57102C150.767 6.57102 150.403 6.65388 150.086 6.8196C149.768 6.98059 149.52 7.20549 149.34 7.49432C149.165 7.77841 149.077 8.10985 149.077 8.48864C149.077 8.87216 149.167 9.2107 149.347 9.50426C149.527 9.79782 149.775 10.0275 150.093 10.1932C150.41 10.3589 150.772 10.4418 151.179 10.4418ZM164.239 4.25568C164.987 4.25568 165.706 4.38115 166.398 4.6321C167.094 4.88305 167.714 5.28314 168.259 5.83239C168.808 6.38163 169.241 7.1108 169.558 8.01989C169.88 8.92424 170.044 10.0346 170.048 11.3509C170.048 12.5866 169.909 13.6899 169.629 14.6605C169.355 15.6264 168.959 16.4479 168.443 17.125C167.927 17.8021 167.304 18.3182 166.575 18.6733C165.846 19.0237 165.032 19.1989 164.132 19.1989C163.161 19.1989 162.304 19.0118 161.561 18.6378C160.818 18.259 160.219 17.7453 159.764 17.0966C159.314 16.4432 159.042 15.7093 158.947 14.8949H161.98C162.098 15.4252 162.347 15.8371 162.726 16.1307C163.105 16.4195 163.573 16.5639 164.132 16.5639C165.079 16.5639 165.799 16.152 166.291 15.3281C166.784 14.4995 167.032 13.3655 167.037 11.9261H166.938C166.72 12.3523 166.426 12.7192 166.057 13.027C165.688 13.33 165.264 13.5644 164.786 13.7301C164.312 13.8958 163.808 13.9787 163.273 13.9787C162.416 13.9787 161.651 13.7775 160.979 13.375C160.306 12.9725 159.776 12.4186 159.388 11.7131C159 11.0076 158.805 10.2027 158.805 9.2983C158.801 8.32292 159.026 7.45407 159.48 6.69176C159.935 5.92945 160.569 5.33286 161.384 4.90199C162.203 4.46638 163.154 4.25095 164.239 4.25568ZM164.26 6.67045C163.782 6.67045 163.356 6.78409 162.982 7.01136C162.612 7.23864 162.319 7.54403 162.101 7.92756C161.888 8.31108 161.784 8.73958 161.788 9.21307C161.788 9.69129 161.893 10.1222 162.101 10.5057C162.314 10.8845 162.603 11.1875 162.967 11.4148C163.337 11.6373 163.758 11.7486 164.232 11.7486C164.587 11.7486 164.916 11.6823 165.219 11.5497C165.522 11.4171 165.785 11.2348 166.007 11.0028C166.234 10.7661 166.412 10.4938 166.54 10.1861C166.668 9.87831 166.732 9.55161 166.732 9.20597C166.727 8.74669 166.618 8.32528 166.405 7.94176C166.192 7.55824 165.898 7.25047 165.524 7.01847C165.15 6.78646 164.729 6.67045 164.26 6.67045ZM179.004 10.527V12.9276H172.371V10.527H179.004ZM186.817 4.25568C187.565 4.25568 188.285 4.38115 188.976 4.6321C189.672 4.88305 190.292 5.28314 190.837 5.83239C191.386 6.38163 191.819 7.1108 192.136 8.01989C192.458 8.92424 192.622 10.0346 192.626 11.3509C192.626 12.5866 192.487 13.6899 192.207 14.6605C191.933 15.6264 191.537 16.4479 191.021 17.125C190.505 17.8021 189.883 18.3182 189.153 18.6733C188.424 19.0237 187.61 19.1989 186.71 19.1989C185.74 19.1989 184.883 19.0118 184.139 18.6378C183.396 18.259 182.797 17.7453 182.342 17.0966C181.893 16.4432 181.62 15.7093 181.526 14.8949H184.558C184.677 15.4252 184.925 15.8371 185.304 16.1307C185.683 16.4195 186.152 16.5639 186.71 16.5639C187.657 16.5639 188.377 16.152 188.869 15.3281C189.362 14.4995 189.61 13.3655 189.615 11.9261H189.516C189.298 12.3523 189.004 12.7192 188.635 13.027C188.266 13.33 187.842 13.5644 187.364 13.7301C186.89 13.8958 186.386 13.9787 185.851 13.9787C184.994 13.9787 184.229 13.7775 183.557 13.375C182.884 12.9725 182.354 12.4186 181.966 11.7131C181.578 11.0076 181.384 10.2027 181.384 9.2983C181.379 8.32292 181.604 7.45407 182.058 6.69176C182.513 5.92945 183.147 5.33286 183.962 4.90199C184.781 4.46638 185.732 4.25095 186.817 4.25568ZM186.838 6.67045C186.36 6.67045 185.934 6.78409 185.56 7.01136C185.19 7.23864 184.897 7.54403 184.679 7.92756C184.466 8.31108 184.362 8.73958 184.366 9.21307C184.366 9.69129 184.471 10.1222 184.679 10.5057C184.892 10.8845 185.181 11.1875 185.545 11.4148C185.915 11.6373 186.336 11.7486 186.81 11.7486C187.165 11.7486 187.494 11.6823 187.797 11.5497C188.1 11.4171 188.363 11.2348 188.585 11.0028C188.813 10.7661 188.99 10.4938 189.118 10.1861C189.246 9.87831 189.31 9.55161 189.31 9.20597C189.305 8.74669 189.196 8.32528 188.983 7.94176C188.77 7.55824 188.476 7.25047 188.102 7.01847C187.728 6.78646 187.307 6.67045 186.838 6.67045ZM200.134 19.1989C199.073 19.1989 198.128 19.0166 197.3 18.652C196.476 18.2827 195.825 17.776 195.347 17.1321C194.873 16.4834 194.629 15.7353 194.615 14.8878H197.712C197.731 15.2429 197.847 15.5554 198.06 15.8253C198.277 16.0904 198.566 16.2964 198.926 16.4432C199.286 16.59 199.691 16.6634 200.141 16.6634C200.609 16.6634 201.024 16.5805 201.384 16.4148C201.743 16.2491 202.025 16.0194 202.229 15.7259C202.432 15.4323 202.534 15.0937 202.534 14.7102C202.534 14.322 202.425 13.9787 202.207 13.6804C201.994 13.3774 201.687 13.1406 201.284 12.9702C200.886 12.7997 200.413 12.7145 199.864 12.7145H198.507V10.456H199.864C200.328 10.456 200.737 10.3755 201.092 10.2145C201.452 10.0535 201.732 9.83097 201.93 9.54688C202.129 9.25805 202.229 8.92188 202.229 8.53835C202.229 8.17377 202.141 7.85417 201.966 7.57955C201.795 7.30019 201.554 7.08239 201.241 6.92614C200.934 6.76989 200.574 6.69176 200.162 6.69176C199.745 6.69176 199.364 6.76752 199.018 6.91903C198.673 7.06581 198.396 7.27651 198.188 7.55114C197.979 7.82576 197.868 8.14773 197.854 8.51705H194.906C194.92 7.67898 195.16 6.94034 195.624 6.30114C196.088 5.66193 196.713 5.1624 197.499 4.80256C198.289 4.43797 199.182 4.25568 200.176 4.25568C201.18 4.25568 202.058 4.43797 202.811 4.80256C203.564 5.16714 204.149 5.65956 204.565 6.27983C204.987 6.89536 205.195 7.58665 205.19 8.35369C205.195 9.16809 204.942 9.84754 204.43 10.392C203.924 10.9366 203.263 11.2822 202.449 11.429V11.5426C203.519 11.6799 204.333 12.0516 204.892 12.6577C205.455 13.259 205.735 14.0118 205.73 14.9162C205.735 15.7448 205.496 16.4811 205.013 17.125C204.535 17.7689 203.874 18.2756 203.031 18.6449C202.188 19.0142 201.223 19.1989 200.134 19.1989ZM213.203 4.25568C213.952 4.25568 214.671 4.38115 215.363 4.6321C216.059 4.88305 216.679 5.28314 217.223 5.83239C217.773 6.38163 218.206 7.1108 218.523 8.01989C218.845 8.92424 219.008 10.0346 219.013 11.3509C219.013 12.5866 218.873 13.6899 218.594 14.6605C218.319 15.6264 217.924 16.4479 217.408 17.125C216.892 17.8021 216.269 18.3182 215.54 18.6733C214.811 19.0237 213.997 19.1989 213.097 19.1989C212.126 19.1989 211.269 19.0118 210.526 18.6378C209.783 18.259 209.184 17.7453 208.729 17.0966C208.279 16.4432 208.007 15.7093 207.912 14.8949H210.945C211.063 15.4252 211.312 15.8371 211.691 16.1307C212.069 16.4195 212.538 16.5639 213.097 16.5639C214.044 16.5639 214.764 16.152 215.256 15.3281C215.748 14.4995 215.997 13.3655 216.002 11.9261H215.902C215.685 12.3523 215.391 12.7192 215.022 13.027C214.652 13.33 214.229 13.5644 213.75 13.7301C213.277 13.8958 212.773 13.9787 212.238 13.9787C211.381 13.9787 210.616 13.7775 209.944 13.375C209.271 12.9725 208.741 12.4186 208.353 11.7131C207.964 11.0076 207.77 10.2027 207.77 9.2983C207.766 8.32292 207.99 7.45407 208.445 6.69176C208.9 5.92945 209.534 5.33286 210.348 4.90199C211.167 4.46638 212.119 4.25095 213.203 4.25568ZM213.225 6.67045C212.747 6.67045 212.32 6.78409 211.946 7.01136C211.577 7.23864 211.283 7.54403 211.066 7.92756C210.853 8.31108 210.748 8.73958 210.753 9.21307C210.753 9.69129 210.857 10.1222 211.066 10.5057C211.279 10.8845 211.568 11.1875 211.932 11.4148C212.301 11.6373 212.723 11.7486 213.196 11.7486C213.551 11.7486 213.881 11.6823 214.184 11.5497C214.487 11.4171 214.749 11.2348 214.972 11.0028C215.199 10.7661 215.377 10.4938 215.505 10.1861C215.632 9.87831 215.696 9.55161 215.696 9.20597C215.692 8.74669 215.583 8.32528 215.37 7.94176C215.157 7.55824 214.863 7.25047 214.489 7.01847C214.115 6.78646 213.694 6.67045 213.225 6.67045ZM226.57 19.1989C225.476 19.1989 224.503 19.0213 223.651 18.6662C222.803 18.3063 222.138 17.8163 221.655 17.196C221.172 16.5758 220.931 15.8726 220.931 15.0866C220.931 14.4806 221.068 13.9242 221.343 13.4176C221.622 12.9062 222.001 12.4825 222.479 12.1463C222.957 11.8054 223.492 11.5876 224.084 11.4929V11.3935C223.308 11.2372 222.678 10.8608 222.195 10.2642C221.712 9.66288 221.471 8.96449 221.471 8.16903C221.471 7.41619 221.691 6.74621 222.131 6.15909C222.571 5.56723 223.175 5.10322 223.942 4.76705C224.714 4.42614 225.59 4.25568 226.57 4.25568C227.55 4.25568 228.424 4.42614 229.191 4.76705C229.962 5.10795 230.569 5.57434 231.009 6.16619C231.449 6.75331 231.672 7.42093 231.676 8.16903C231.672 8.96922 231.426 9.66761 230.938 10.2642C230.45 10.8608 229.825 11.2372 229.063 11.3935V11.4929C229.645 11.5876 230.173 11.8054 230.647 12.1463C231.125 12.4825 231.504 12.9062 231.783 13.4176C232.067 13.9242 232.212 14.4806 232.216 15.0866C232.212 15.8726 231.968 16.5758 231.485 17.196C231.002 17.8163 230.334 18.3063 229.482 18.6662C228.634 19.0213 227.664 19.1989 226.57 19.1989ZM226.57 16.9403C227.058 16.9403 227.484 16.8527 227.848 16.6776C228.213 16.4976 228.497 16.2514 228.701 15.9389C228.909 15.6217 229.013 15.2571 229.013 14.8452C229.013 14.4238 228.907 14.0521 228.694 13.7301C228.48 13.4034 228.192 13.1477 227.827 12.9631C227.462 12.7737 227.043 12.679 226.57 12.679C226.101 12.679 225.682 12.7737 225.313 12.9631C224.944 13.1477 224.652 13.4034 224.439 13.7301C224.231 14.0521 224.127 14.4238 224.127 14.8452C224.127 15.2571 224.229 15.6217 224.432 15.9389C224.636 16.2514 224.922 16.4976 225.292 16.6776C225.661 16.8527 226.087 16.9403 226.57 16.9403ZM226.57 10.4418C226.977 10.4418 227.339 10.3589 227.657 10.1932C227.974 10.0275 228.222 9.79782 228.402 9.50426C228.582 9.2107 228.672 8.87216 228.672 8.48864C228.672 8.10985 228.582 7.77841 228.402 7.49432C228.222 7.20549 227.976 6.98059 227.664 6.8196C227.351 6.65388 226.987 6.57102 226.57 6.57102C226.158 6.57102 225.793 6.65388 225.476 6.8196C225.159 6.98059 224.91 7.20549 224.73 7.49432C224.555 7.77841 224.468 8.10985 224.468 8.48864C224.468 8.87216 224.558 9.2107 224.738 9.50426C224.917 9.79782 225.166 10.0275 225.483 10.1932C225.801 10.3589 226.163 10.4418 226.57 10.4418ZM241.192 10.527V12.9276H234.558V10.527H241.192ZM249.324 19.1989C248.576 19.1941 247.854 19.0687 247.158 18.8224C246.466 18.5762 245.846 18.1761 245.297 17.6222C244.748 17.0682 244.312 16.3343 243.99 15.4205C243.673 14.5066 243.514 13.3845 243.514 12.054C243.519 10.8324 243.659 9.741 243.933 8.77983C244.213 7.81392 244.61 6.99479 245.126 6.32244C245.647 5.65009 246.27 5.13873 246.994 4.78835C247.719 4.43324 248.531 4.25568 249.43 4.25568C250.401 4.25568 251.258 4.44508 252.001 4.82386C252.745 5.19792 253.341 5.70691 253.791 6.35085C254.246 6.99479 254.52 7.71686 254.615 8.51705H251.582C251.464 8.01042 251.215 7.61269 250.837 7.32386C250.458 7.03504 249.989 6.89062 249.43 6.89062C248.483 6.89062 247.764 7.30256 247.271 8.12642C246.784 8.95028 246.535 10.0701 246.526 11.4858H246.625C246.843 11.0549 247.136 10.688 247.506 10.3849C247.88 10.0772 248.304 9.8428 248.777 9.68182C249.255 9.5161 249.759 9.43324 250.29 9.43324C251.152 9.43324 251.919 9.63684 252.591 10.044C253.263 10.4465 253.794 11.0005 254.182 11.706C254.57 12.4115 254.764 13.2187 254.764 14.1278C254.764 15.1127 254.535 15.9886 254.075 16.7557C253.621 17.5227 252.984 18.1241 252.165 18.5597C251.35 18.9905 250.403 19.2036 249.324 19.1989ZM249.31 16.7841C249.783 16.7841 250.207 16.6705 250.581 16.4432C250.955 16.2159 251.249 15.9081 251.462 15.5199C251.675 15.1316 251.781 14.696 251.781 14.2131C251.781 13.7301 251.675 13.2969 251.462 12.9134C251.253 12.5298 250.964 12.2244 250.595 11.9972C250.226 11.7699 249.804 11.6562 249.331 11.6562C248.976 11.6562 248.647 11.7225 248.344 11.8551C248.045 11.9877 247.783 12.1723 247.555 12.4091C247.333 12.6458 247.158 12.9205 247.03 13.233C246.902 13.5407 246.838 13.8698 246.838 14.2202C246.838 14.6889 246.945 15.1174 247.158 15.5057C247.375 15.8939 247.669 16.2041 248.038 16.4361C248.412 16.6681 248.836 16.7841 249.31 16.7841ZM262.321 19.1989C261.26 19.1989 260.316 19.0166 259.487 18.652C258.663 18.2827 258.012 17.776 257.534 17.1321C257.061 16.4834 256.817 15.7353 256.803 14.8878H259.899C259.918 15.2429 260.034 15.5554 260.247 15.8253C260.465 16.0904 260.754 16.2964 261.114 16.4432C261.473 16.59 261.878 16.6634 262.328 16.6634C262.797 16.6634 263.211 16.5805 263.571 16.4148C263.931 16.2491 264.213 16.0194 264.416 15.7259C264.62 15.4323 264.722 15.0937 264.722 14.7102C264.722 14.322 264.613 13.9787 264.395 13.6804C264.182 13.3774 263.874 13.1406 263.472 12.9702C263.074 12.7997 262.6 12.7145 262.051 12.7145H260.695V10.456H262.051C262.515 10.456 262.925 10.3755 263.28 10.2145C263.64 10.0535 263.919 9.83097 264.118 9.54688C264.317 9.25805 264.416 8.92188 264.416 8.53835C264.416 8.17377 264.329 7.85417 264.153 7.57955C263.983 7.30019 263.741 7.08239 263.429 6.92614C263.121 6.76989 262.761 6.69176 262.349 6.69176C261.933 6.69176 261.552 6.76752 261.206 6.91903C260.86 7.06581 260.583 7.27651 260.375 7.55114C260.167 7.82576 260.055 8.14773 260.041 8.51705H257.094C257.108 7.67898 257.347 6.94034 257.811 6.30114C258.275 5.66193 258.9 5.1624 259.686 4.80256C260.477 4.43797 261.369 4.25568 262.364 4.25568C263.367 4.25568 264.246 4.43797 264.999 4.80256C265.751 5.16714 266.336 5.65956 266.753 6.27983C267.174 6.89536 267.383 7.58665 267.378 8.35369C267.383 9.16809 267.129 9.84754 266.618 10.392C266.111 10.9366 265.451 11.2822 264.636 11.429V11.5426C265.706 11.6799 266.521 12.0516 267.08 12.6577C267.643 13.259 267.922 14.0118 267.918 14.9162C267.922 15.7448 267.683 16.4811 267.2 17.125C266.722 17.7689 266.062 18.2756 265.219 18.6449C264.376 19.0142 263.41 19.1989 262.321 19.1989ZM270.703 19L276.733 7.06818V6.96875H269.709V4.45455H279.915V7.00426L273.878 19H270.703ZM282.989 19L289.018 7.06818V6.96875H281.994V4.45455H292.2V7.00426L286.163 19H282.989Z" fill="white"/>
<defs>
<clipPath id="clip0_1743_2144">
<rect width="24" height="24" fill="white" transform="matrix(-1 0 0 1 24 0)"/>
</clipPath>
</defs>
</svg>
