<svg width="196" height="24" viewBox="0 0 196 24" fill="none" xmlns="http://www.w3.org/2000/svg">
<path d="M1.375 13.3272L9.99911 4.70312L18.6232 13.3272" stroke="white" stroke-linecap="round" stroke-linejoin="round"/>
<path d="M4.0293 10.6738V19.2979H15.9704V10.6738" stroke="white" stroke-linecap="round" stroke-linejoin="round"/>
<path d="M32.25 19H27.7614V4.45455H32.4489C33.8598 4.45455 35.0672 4.74574 36.071 5.32812C37.0748 5.90578 37.8442 6.73674 38.3793 7.82102C38.9143 8.90057 39.1818 10.1932 39.1818 11.6989C39.1818 13.214 38.9119 14.5185 38.3722 15.6122C37.8324 16.7012 37.0464 17.5393 36.0142 18.1264C34.982 18.7088 33.7273 19 32.25 19ZM29.5227 17.4375H32.1364C33.339 17.4375 34.3357 17.2055 35.1264 16.7415C35.9171 16.2775 36.5066 15.617 36.8949 14.7599C37.2831 13.9029 37.4773 12.8826 37.4773 11.6989C37.4773 10.5246 37.2855 9.51373 36.902 8.66619C36.5185 7.81392 35.9455 7.16051 35.1832 6.70597C34.4209 6.24669 33.4716 6.01705 32.3352 6.01705H29.5227V17.4375ZM45.1193 19.2557C44.428 19.2557 43.8007 19.1255 43.2372 18.8651C42.6738 18.5999 42.2263 18.2188 41.8949 17.7216C41.5634 17.2197 41.3977 16.6136 41.3977 15.9034C41.3977 15.2784 41.5208 14.7718 41.767 14.3835C42.0133 13.9905 42.3423 13.6828 42.7543 13.4602C43.1662 13.2377 43.6207 13.072 44.1179 12.9631C44.6198 12.8494 45.1241 12.7595 45.6307 12.6932C46.2936 12.608 46.831 12.544 47.2429 12.5014C47.6596 12.4541 47.9626 12.3759 48.152 12.267C48.3461 12.1581 48.4432 11.9687 48.4432 11.6989V11.642C48.4432 10.9413 48.2514 10.3968 47.8679 10.0085C47.4891 9.62027 46.9138 9.42614 46.142 9.42614C45.3419 9.42614 44.7145 9.60133 44.2599 9.9517C43.8054 10.3021 43.4858 10.6761 43.3011 11.0739L41.7102 10.5057C41.9943 9.8428 42.3731 9.3267 42.8466 8.95739C43.3248 8.58333 43.8456 8.32292 44.4091 8.17614C44.9773 8.02462 45.536 7.94886 46.0852 7.94886C46.4356 7.94886 46.8381 7.99148 47.2926 8.0767C47.7519 8.1572 48.1946 8.32528 48.6207 8.58097C49.0516 8.83665 49.4091 9.22254 49.6932 9.73864C49.9773 10.2547 50.1193 10.946 50.1193 11.8125V19H48.4432V17.5227H48.358C48.2443 17.7595 48.0549 18.0128 47.7898 18.2827C47.5246 18.5526 47.1719 18.7822 46.7315 18.9716C46.2912 19.161 45.7538 19.2557 45.1193 19.2557ZM45.375 17.75C46.0379 17.75 46.5966 17.6198 47.0511 17.3594C47.5104 17.099 47.8561 16.7628 48.0881 16.3509C48.3248 15.9389 48.4432 15.5057 48.4432 15.0511V13.517C48.3722 13.6023 48.2159 13.6804 47.9744 13.7514C47.7377 13.8177 47.4631 13.8769 47.1506 13.929C46.8428 13.9763 46.5421 14.0189 46.2486 14.0568C45.9598 14.09 45.7254 14.1184 45.5455 14.142C45.1098 14.1989 44.7027 14.2912 44.3239 14.419C43.9498 14.5421 43.6468 14.7292 43.4148 14.9801C43.1875 15.2263 43.0739 15.5625 43.0739 15.9886C43.0739 16.571 43.2893 17.0114 43.7202 17.3097C44.1558 17.6032 44.7074 17.75 45.375 17.75ZM60.9059 10.5341L59.4002 10.9602C59.3055 10.7093 59.1658 10.4654 58.9812 10.2287C58.8013 9.98722 58.555 9.78835 58.2425 9.6321C57.93 9.47585 57.5299 9.39773 57.0423 9.39773C56.3746 9.39773 55.8183 9.55161 55.3732 9.85938C54.9329 10.1624 54.7127 10.5483 54.7127 11.017C54.7127 11.4337 54.8642 11.7628 55.1673 12.0043C55.4703 12.2457 55.9438 12.447 56.5877 12.608L58.207 13.0057C59.1824 13.2424 59.9092 13.6046 60.3874 14.0923C60.8656 14.5753 61.1048 15.1979 61.1048 15.9602C61.1048 16.5852 60.9248 17.1439 60.565 17.6364C60.2099 18.1288 59.7127 18.517 59.0735 18.8011C58.4343 19.0852 57.6909 19.2273 56.8434 19.2273C55.7307 19.2273 54.8098 18.9858 54.0806 18.5028C53.3514 18.0199 52.8898 17.3144 52.6957 16.3864L54.2866 15.9886C54.4381 16.5758 54.7246 17.0161 55.146 17.3097C55.5721 17.6032 56.1284 17.75 56.815 17.75C57.5962 17.75 58.2165 17.5843 58.6758 17.2528C59.1398 16.9167 59.3718 16.5142 59.3718 16.0455C59.3718 15.6667 59.2392 15.3494 58.9741 15.0938C58.7089 14.8333 58.3017 14.6392 57.7525 14.5114L55.9343 14.0852C54.9353 13.8485 54.2013 13.4815 53.7326 12.9844C53.2686 12.4825 53.0366 11.8551 53.0366 11.1023C53.0366 10.4867 53.2094 9.94223 53.555 9.46875C53.9054 8.99527 54.3813 8.62358 54.9826 8.35369C55.5887 8.08381 56.2752 7.94886 57.0423 7.94886C58.1218 7.94886 58.9693 8.18561 59.5849 8.65909C60.2051 9.13258 60.6455 9.75758 60.9059 10.5341ZM65.304 12.4375V19H63.6278V4.45455H65.304V9.79545H65.446C65.7017 9.23201 66.0852 8.78456 66.5966 8.45312C67.1127 8.11695 67.7992 7.94886 68.6562 7.94886C69.3996 7.94886 70.0507 8.09801 70.6094 8.39631C71.1681 8.68987 71.6013 9.14205 71.9091 9.75284C72.2216 10.3589 72.3778 11.1307 72.3778 12.0682V19H70.7017V12.1818C70.7017 11.3153 70.4768 10.6454 70.027 10.1719C69.5819 9.69366 68.964 9.45455 68.1733 9.45455C67.6241 9.45455 67.1316 9.57055 66.696 9.80256C66.2652 10.0346 65.9242 10.3731 65.6733 10.8182C65.4271 11.2633 65.304 11.803 65.304 12.4375ZM75.6715 19V4.45455H77.3477V9.82386H77.4897C77.6128 9.63447 77.7833 9.39299 78.0011 9.09943C78.2236 8.80114 78.5408 8.53598 78.9528 8.30398C79.3694 8.06723 79.9329 7.94886 80.6431 7.94886C81.5617 7.94886 82.3713 8.1785 83.0721 8.63778C83.7728 9.09706 84.3197 9.74811 84.7127 10.5909C85.1057 11.4337 85.3022 12.428 85.3022 13.5739C85.3022 14.7292 85.1057 15.7306 84.7127 16.5781C84.3197 17.4209 83.7752 18.0743 83.0792 18.5384C82.3832 18.9976 81.5806 19.2273 80.6715 19.2273C79.9708 19.2273 79.4097 19.1113 78.9883 18.8793C78.5669 18.6425 78.2425 18.375 78.0153 18.0767C77.788 17.7737 77.6128 17.5227 77.4897 17.3239H77.2908V19H75.6715ZM77.3192 13.5455C77.3192 14.3693 77.44 15.0961 77.6815 15.7259C77.9229 16.3509 78.2757 16.8409 78.7397 17.196C79.2037 17.5464 79.7719 17.7216 80.4442 17.7216C81.145 17.7216 81.7298 17.5369 82.1985 17.1676C82.672 16.7936 83.0271 16.2917 83.2638 15.6619C83.5053 15.0275 83.6261 14.322 83.6261 13.5455C83.6261 12.7784 83.5077 12.0871 83.271 11.4716C83.0389 10.8513 82.6862 10.3613 82.2127 10.0014C81.744 9.63684 81.1545 9.45455 80.4442 9.45455C79.7624 9.45455 79.1895 9.62737 78.7255 9.97301C78.2615 10.3139 77.9111 10.7921 77.6744 11.4077C77.4376 12.0185 77.3192 12.7311 77.3192 13.5455ZM92.2979 19.2273C91.3131 19.2273 90.449 18.9929 89.7056 18.5241C88.967 18.0554 88.3893 17.3996 87.9727 16.5568C87.5607 15.714 87.3548 14.7292 87.3548 13.6023C87.3548 12.4659 87.5607 11.474 87.9727 10.6264C88.3893 9.77888 88.967 9.12074 89.7056 8.65199C90.449 8.18324 91.3131 7.94886 92.2979 7.94886C93.2828 7.94886 94.1445 8.18324 94.8832 8.65199C95.6265 9.12074 96.2042 9.77888 96.6161 10.6264C97.0328 11.474 97.2411 12.4659 97.2411 13.6023C97.2411 14.7292 97.0328 15.714 96.6161 16.5568C96.2042 17.3996 95.6265 18.0554 94.8832 18.5241C94.1445 18.9929 93.2828 19.2273 92.2979 19.2273ZM92.2979 17.7216C93.046 17.7216 93.6616 17.5298 94.1445 17.1463C94.6275 16.7628 94.985 16.2585 95.217 15.6335C95.449 15.0085 95.565 14.3314 95.565 13.6023C95.565 12.8731 95.449 12.1937 95.217 11.5639C94.985 10.9342 94.6275 10.4252 94.1445 10.0369C93.6616 9.64867 93.046 9.45455 92.2979 9.45455C91.5498 9.45455 90.9343 9.64867 90.4513 10.0369C89.9684 10.4252 89.6109 10.9342 89.3789 11.5639C89.1469 12.1937 89.0309 12.8731 89.0309 13.6023C89.0309 14.3314 89.1469 15.0085 89.3789 15.6335C89.6109 16.2585 89.9684 16.7628 90.4513 17.1463C90.9343 17.5298 91.5498 17.7216 92.2979 17.7216ZM103.01 19.2557C102.319 19.2557 101.691 19.1255 101.128 18.8651C100.564 18.5999 100.117 18.2188 99.7855 17.7216C99.4541 17.2197 99.2884 16.6136 99.2884 15.9034C99.2884 15.2784 99.4115 14.7718 99.6577 14.3835C99.9039 13.9905 100.233 13.6828 100.645 13.4602C101.057 13.2377 101.511 13.072 102.009 12.9631C102.51 12.8494 103.015 12.7595 103.521 12.6932C104.184 12.608 104.722 12.544 105.134 12.5014C105.55 12.4541 105.853 12.3759 106.043 12.267C106.237 12.1581 106.334 11.9687 106.334 11.6989V11.642C106.334 10.9413 106.142 10.3968 105.759 10.0085C105.38 9.62027 104.804 9.42614 104.033 9.42614C103.232 9.42614 102.605 9.60133 102.151 9.9517C101.696 10.3021 101.376 10.6761 101.192 11.0739L99.6009 10.5057C99.8849 9.8428 100.264 9.3267 100.737 8.95739C101.215 8.58333 101.736 8.32292 102.3 8.17614C102.868 8.02462 103.427 7.94886 103.976 7.94886C104.326 7.94886 104.729 7.99148 105.183 8.0767C105.643 8.1572 106.085 8.32528 106.511 8.58097C106.942 8.83665 107.3 9.22254 107.584 9.73864C107.868 10.2547 108.01 10.946 108.01 11.8125V19H106.334V17.5227H106.249C106.135 17.7595 105.946 18.0128 105.68 18.2827C105.415 18.5526 105.063 18.7822 104.622 18.9716C104.182 19.161 103.644 19.2557 103.01 19.2557ZM103.266 17.75C103.929 17.75 104.487 17.6198 104.942 17.3594C105.401 17.099 105.747 16.7628 105.979 16.3509C106.215 15.9389 106.334 15.5057 106.334 15.0511V13.517C106.263 13.6023 106.107 13.6804 105.865 13.7514C105.628 13.8177 105.354 13.8769 105.041 13.929C104.733 13.9763 104.433 14.0189 104.139 14.0568C103.85 14.09 103.616 14.1184 103.436 14.142C103 14.1989 102.593 14.2912 102.214 14.419C101.84 14.5421 101.537 14.7292 101.305 14.9801C101.078 15.2263 100.964 15.5625 100.964 15.9886C100.964 16.571 101.18 17.0114 101.611 17.3097C102.046 17.6032 102.598 17.75 103.266 17.75ZM111.069 19V8.09091H112.689V9.73864H112.802C113.001 9.19886 113.361 8.76089 113.882 8.42472C114.403 8.08854 114.99 7.92045 115.643 7.92045C115.766 7.92045 115.92 7.92282 116.105 7.92756C116.289 7.93229 116.429 7.93939 116.524 7.94886V9.65341C116.467 9.6392 116.337 9.6179 116.133 9.58949C115.934 9.55634 115.724 9.53977 115.501 9.53977C114.971 9.53977 114.497 9.65104 114.081 9.87358C113.669 10.0914 113.342 10.3944 113.1 10.7827C112.864 11.1662 112.745 11.6042 112.745 12.0966V19H111.069ZM122.298 19.2273C121.389 19.2273 120.586 18.9976 119.89 18.5384C119.194 18.0743 118.65 17.4209 118.257 16.5781C117.864 15.7306 117.667 14.7292 117.667 13.5739C117.667 12.428 117.864 11.4337 118.257 10.5909C118.65 9.74811 119.197 9.09706 119.897 8.63778C120.598 8.1785 121.408 7.94886 122.326 7.94886C123.037 7.94886 123.598 8.06723 124.01 8.30398C124.426 8.53598 124.743 8.80114 124.961 9.09943C125.184 9.39299 125.357 9.63447 125.48 9.82386H125.622V4.45455H127.298V19H125.679V17.3239H125.48C125.357 17.5227 125.181 17.7737 124.954 18.0767C124.727 18.375 124.403 18.6425 123.981 18.8793C123.56 19.1113 122.999 19.2273 122.298 19.2273ZM122.525 17.7216C123.198 17.7216 123.766 17.5464 124.23 17.196C124.694 16.8409 125.047 16.3509 125.288 15.7259C125.529 15.0961 125.65 14.3693 125.65 13.5455C125.65 12.7311 125.532 12.0185 125.295 11.4077C125.058 10.7921 124.708 10.3139 124.244 9.97301C123.78 9.62737 123.207 9.45455 122.525 9.45455C121.815 9.45455 121.223 9.63684 120.75 10.0014C120.281 10.3613 119.928 10.8513 119.691 11.4716C119.459 12.0871 119.343 12.7784 119.343 13.5455C119.343 14.322 119.462 15.0275 119.699 15.6619C119.94 16.2917 120.295 16.7936 120.764 17.1676C121.237 17.5369 121.824 17.7216 122.525 17.7216Z" fill="white"/>
</svg>
