<svg width="196" height="24" viewBox="0 0 196 24" fill="none" xmlns="http://www.w3.org/2000/svg">
<g clip-path="url(#clip0_1136_996)">
<path d="M18.7493 10.333V21.583H0.416016V10.333" stroke="white" stroke-miterlimit="10" stroke-linecap="round" stroke-linejoin="round"/>
<path d="M2.91602 8.66699L0.416016 10.3337" stroke="white" stroke-miterlimit="10" stroke-linecap="round" stroke-linejoin="round"/>
<path d="M18.75 10.3337L16.25 8.66699" stroke="white" stroke-miterlimit="10" stroke-linecap="round" stroke-linejoin="round"/>
<path d="M0.416016 21.583L7.08268 16.583L0.416016 10.333" stroke="white" stroke-miterlimit="10" stroke-linecap="round" stroke-linejoin="round"/>
<path d="M18.7507 21.583L12.084 16.583L18.7507 10.333" stroke="white" stroke-miterlimit="10" stroke-linecap="round" stroke-linejoin="round"/>
<path d="M2.91602 12.6767V3.25H16.2493V12.6767" stroke="white" stroke-miterlimit="10" stroke-linecap="round" stroke-linejoin="round"/>
<path d="M7.08398 16.583H12.084" stroke="white" stroke-miterlimit="10" stroke-linecap="round" stroke-linejoin="round"/>
<path d="M12.9173 5.75H11.2507L10.834 6.58333L11.2507 7.41667H12.9173L13.334 8.25L12.9173 9.08333H11.2507" stroke="white" stroke-miterlimit="10" stroke-linecap="round" stroke-linejoin="round"/>
<path d="M12.084 5.75033V4.91699" stroke="white" stroke-miterlimit="10" stroke-linecap="round" stroke-linejoin="round"/>
<path d="M12.084 9.91634V9.08301" stroke="white" stroke-miterlimit="10" stroke-linecap="round" stroke-linejoin="round"/>
<path d="M5.41602 6.58301H7.91602" stroke="white" stroke-miterlimit="10" stroke-linecap="round" stroke-linejoin="round"/>
<path d="M5.41602 8.25H7.91602" stroke="white" stroke-miterlimit="10" stroke-linecap="round" stroke-linejoin="round"/>
<path d="M5.41602 9.91699H8.74935" stroke="white" stroke-miterlimit="10" stroke-linecap="round" stroke-linejoin="round"/>
<path d="M5.41602 11.583H10.416" stroke="white" stroke-miterlimit="10" stroke-linecap="round" stroke-linejoin="round"/>
</g>
<path d="M26.9659 6.01705V4.45455H37.875V6.01705H33.3011V19H31.5398V6.01705H26.9659ZM39.2333 19V8.09091H40.8526V9.73864H40.9663C41.1651 9.19886 41.525 8.76089 42.0458 8.42472C42.5666 8.08854 43.1538 7.92045 43.8072 7.92045C43.9303 7.92045 44.0842 7.92282 44.2688 7.92756C44.4535 7.93229 44.5932 7.93939 44.6879 7.94886V9.65341C44.631 9.6392 44.5008 9.6179 44.2972 9.58949C44.0984 9.55634 43.8877 9.53977 43.6651 9.53977C43.1348 9.53977 42.6613 9.65104 42.2447 9.87358C41.8327 10.0914 41.506 10.3944 41.2646 10.7827C41.0278 11.1662 40.9094 11.6042 40.9094 12.0966V19H39.2333ZM49.8849 19.2557C49.1937 19.2557 48.5663 19.1255 48.0028 18.8651C47.4394 18.5999 46.992 18.2188 46.6605 17.7216C46.3291 17.2197 46.1634 16.6136 46.1634 15.9034C46.1634 15.2784 46.2865 14.7718 46.5327 14.3835C46.7789 13.9905 47.108 13.6828 47.5199 13.4602C47.9318 13.2377 48.3864 13.072 48.8835 12.9631C49.3854 12.8494 49.8897 12.7595 50.3963 12.6932C51.0592 12.608 51.5966 12.544 52.0085 12.5014C52.4252 12.4541 52.7282 12.3759 52.9176 12.267C53.1117 12.1581 53.2088 11.9687 53.2088 11.6989V11.642C53.2088 10.9413 53.017 10.3968 52.6335 10.0085C52.2547 9.62027 51.6795 9.42614 50.9077 9.42614C50.1075 9.42614 49.4801 9.60133 49.0256 9.9517C48.571 10.3021 48.2514 10.6761 48.0668 11.0739L46.4759 10.5057C46.7599 9.8428 47.1387 9.3267 47.6122 8.95739C48.0904 8.58333 48.6113 8.32292 49.1747 8.17614C49.7429 8.02462 50.3016 7.94886 50.8509 7.94886C51.2012 7.94886 51.6037 7.99148 52.0582 8.0767C52.5175 8.1572 52.9602 8.32528 53.3864 8.58097C53.8172 8.83665 54.1747 9.22254 54.4588 9.73864C54.7429 10.2547 54.8849 10.946 54.8849 11.8125V19H53.2088V17.5227H53.1236C53.0099 17.7595 52.8205 18.0128 52.5554 18.2827C52.2902 18.5526 51.9375 18.7822 51.4972 18.9716C51.0568 19.161 50.5194 19.2557 49.8849 19.2557ZM50.1406 17.75C50.8035 17.75 51.3622 17.6198 51.8168 17.3594C52.276 17.099 52.6217 16.7628 52.8537 16.3509C53.0904 15.9389 53.2088 15.5057 53.2088 15.0511V13.517C53.1378 13.6023 52.9815 13.6804 52.7401 13.7514C52.5033 13.8177 52.2287 13.8769 51.9162 13.929C51.6084 13.9763 51.3078 14.0189 51.0142 14.0568C50.7254 14.09 50.491 14.1184 50.3111 14.142C49.8755 14.1989 49.4683 14.2912 49.0895 14.419C48.7154 14.5421 48.4124 14.7292 48.1804 14.9801C47.9531 15.2263 47.8395 15.5625 47.8395 15.9886C47.8395 16.571 48.0549 17.0114 48.4858 17.3097C48.9214 17.6032 49.473 17.75 50.1406 17.75ZM59.6204 12.4375V19H57.9442V8.09091H59.5636V9.79545H59.7056C59.9613 9.24148 60.3496 8.7964 60.8704 8.46023C61.3912 8.11932 62.0636 7.94886 62.8874 7.94886C63.6261 7.94886 64.2724 8.10038 64.8263 8.40341C65.3803 8.7017 65.8112 9.15625 66.119 9.76705C66.4267 10.3731 66.5806 11.1402 66.5806 12.0682V19H64.9045V12.1818C64.9045 11.3248 64.6819 10.6572 64.2369 10.179C63.7918 9.69602 63.181 9.45455 62.4045 9.45455C61.8694 9.45455 61.3912 9.57055 60.9698 9.80256C60.5531 10.0346 60.2241 10.3731 59.9826 10.8182C59.7411 11.2633 59.6204 11.803 59.6204 12.4375ZM77.3707 10.5341L75.8651 10.9602C75.7704 10.7093 75.6307 10.4654 75.446 10.2287C75.2661 9.98722 75.0199 9.78835 74.7074 9.6321C74.3949 9.47585 73.9948 9.39773 73.5071 9.39773C72.8395 9.39773 72.2831 9.55161 71.8381 9.85938C71.3977 10.1624 71.1776 10.5483 71.1776 11.017C71.1776 11.4337 71.3291 11.7628 71.6321 12.0043C71.9351 12.2457 72.4086 12.447 73.0526 12.608L74.6719 13.0057C75.6473 13.2424 76.3741 13.6046 76.8523 14.0923C77.3305 14.5753 77.5696 15.1979 77.5696 15.9602C77.5696 16.5852 77.3897 17.1439 77.0298 17.6364C76.6747 18.1288 76.1776 18.517 75.5384 18.8011C74.8991 19.0852 74.1558 19.2273 73.3082 19.2273C72.1955 19.2273 71.2746 18.9858 70.5455 18.5028C69.8163 18.0199 69.3546 17.3144 69.1605 16.3864L70.7514 15.9886C70.9029 16.5758 71.1894 17.0161 71.6108 17.3097C72.0369 17.6032 72.5933 17.75 73.2798 17.75C74.0611 17.75 74.6813 17.5843 75.1406 17.2528C75.6046 16.9167 75.8366 16.5142 75.8366 16.0455C75.8366 15.6667 75.7041 15.3494 75.4389 15.0938C75.1738 14.8333 74.7666 14.6392 74.2173 14.5114L72.3991 14.0852C71.4001 13.8485 70.6662 13.4815 70.1974 12.9844C69.7334 12.4825 69.5014 11.8551 69.5014 11.1023C69.5014 10.4867 69.6742 9.94223 70.0199 9.46875C70.3703 8.99527 70.8461 8.62358 71.4474 8.35369C72.0535 8.08381 72.7401 7.94886 73.5071 7.94886C74.5866 7.94886 75.4342 8.18561 76.0497 8.65909C76.67 9.13258 77.1103 9.75758 77.3707 10.5341ZM83.3029 19.2557C82.6116 19.2557 81.9843 19.1255 81.4208 18.8651C80.8574 18.5999 80.4099 18.2188 80.0785 17.7216C79.747 17.2197 79.5813 16.6136 79.5813 15.9034C79.5813 15.2784 79.7044 14.7718 79.9506 14.3835C80.1969 13.9905 80.5259 13.6828 80.9379 13.4602C81.3498 13.2377 81.8043 13.072 82.3015 12.9631C82.8034 12.8494 83.3076 12.7595 83.8143 12.6932C84.4772 12.608 85.0146 12.544 85.4265 12.5014C85.8432 12.4541 86.1462 12.3759 86.3356 12.267C86.5297 12.1581 86.6268 11.9687 86.6268 11.6989V11.642C86.6268 10.9413 86.435 10.3968 86.0515 10.0085C85.6727 9.62027 85.0974 9.42614 84.3256 9.42614C83.5254 9.42614 82.8981 9.60133 82.4435 9.9517C81.989 10.3021 81.6694 10.6761 81.4847 11.0739L79.8938 10.5057C80.1779 9.8428 80.5567 9.3267 81.0302 8.95739C81.5084 8.58333 82.0292 8.32292 82.5927 8.17614C83.1609 8.02462 83.7196 7.94886 84.2688 7.94886C84.6192 7.94886 85.0217 7.99148 85.4762 8.0767C85.9355 8.1572 86.3782 8.32528 86.8043 8.58097C87.2352 8.83665 87.5927 9.22254 87.8768 9.73864C88.1609 10.2547 88.3029 10.946 88.3029 11.8125V19H86.6268V17.5227H86.5415C86.4279 17.7595 86.2385 18.0128 85.9734 18.2827C85.7082 18.5526 85.3555 18.7822 84.9151 18.9716C84.4748 19.161 83.9374 19.2557 83.3029 19.2557ZM83.5586 17.75C84.2215 17.75 84.7802 17.6198 85.2347 17.3594C85.694 17.099 86.0397 16.7628 86.2717 16.3509C86.5084 15.9389 86.6268 15.5057 86.6268 15.0511V13.517C86.5558 13.6023 86.3995 13.6804 86.158 13.7514C85.9213 13.8177 85.6467 13.8769 85.3342 13.929C85.0264 13.9763 84.7257 14.0189 84.4322 14.0568C84.1433 14.09 83.909 14.1184 83.729 14.142C83.2934 14.1989 82.8862 14.2912 82.5075 14.419C82.1334 14.5421 81.8304 14.7292 81.5984 14.9801C81.3711 15.2263 81.2575 15.5625 81.2575 15.9886C81.2575 16.571 81.4729 17.0114 81.9038 17.3097C82.3394 17.6032 82.891 17.75 83.5586 17.75ZM95.794 19.2273C94.7713 19.2273 93.8906 18.9858 93.152 18.5028C92.4134 18.0199 91.8452 17.3546 91.4474 16.5071C91.0497 15.6596 90.8509 14.6913 90.8509 13.6023C90.8509 12.4943 91.0545 11.5166 91.4616 10.669C91.8736 9.81676 92.4465 9.15152 93.1804 8.6733C93.919 8.19034 94.7808 7.94886 95.7656 7.94886C96.5327 7.94886 97.224 8.09091 97.8395 8.375C98.455 8.65909 98.9593 9.05682 99.3523 9.56818C99.7453 10.0795 99.9891 10.6761 100.084 11.358H98.4077C98.2798 10.8608 97.9957 10.4205 97.5554 10.0369C97.1198 9.64867 96.5327 9.45455 95.794 9.45455C95.1406 9.45455 94.5677 9.625 94.0753 9.96591C93.5876 10.3021 93.2064 10.7779 92.9318 11.3935C92.6619 12.0043 92.527 12.7216 92.527 13.5455C92.527 14.3883 92.6596 15.1222 92.9247 15.7472C93.1946 16.3722 93.5734 16.8575 94.0611 17.2031C94.5535 17.5488 95.1312 17.7216 95.794 17.7216C96.2296 17.7216 96.625 17.6458 96.9801 17.4943C97.3352 17.3428 97.6359 17.125 97.8821 16.8409C98.1283 16.5568 98.3035 16.2159 98.4077 15.8182H100.084C99.9891 16.4621 99.7547 17.0421 99.3807 17.5582C99.0114 18.0696 98.5213 18.4768 97.9105 18.7798C97.3045 19.0781 96.599 19.2273 95.794 19.2273ZM107.278 8.09091V9.51136H101.625V8.09091H107.278ZM103.273 5.47727H104.949V15.875C104.949 16.3485 105.018 16.7036 105.155 16.9403C105.297 17.1723 105.477 17.3286 105.695 17.4091C105.917 17.4848 106.152 17.5227 106.398 17.5227C106.582 17.5227 106.734 17.5133 106.852 17.4943C106.971 17.4706 107.065 17.4517 107.136 17.4375L107.477 18.9432C107.364 18.9858 107.205 19.0284 107.001 19.071C106.798 19.1184 106.54 19.142 106.227 19.142C105.754 19.142 105.29 19.0402 104.835 18.8366C104.385 18.633 104.011 18.3229 103.713 17.9062C103.42 17.4896 103.273 16.964 103.273 16.3295V5.47727ZM109.8 19V8.09091H111.476V19H109.8ZM110.652 6.27273C110.325 6.27273 110.044 6.16146 109.807 5.93892C109.575 5.71638 109.459 5.44886 109.459 5.13636C109.459 4.82386 109.575 4.55634 109.807 4.33381C110.044 4.11127 110.325 4 110.652 4C110.979 4 111.258 4.11127 111.49 4.33381C111.727 4.55634 111.845 4.82386 111.845 5.13636C111.845 5.44886 111.727 5.71638 111.49 5.93892C111.258 6.16146 110.979 6.27273 110.652 6.27273ZM118.978 19.2273C117.993 19.2273 117.129 18.9929 116.385 18.5241C115.647 18.0554 115.069 17.3996 114.652 16.5568C114.24 15.714 114.034 14.7292 114.034 13.6023C114.034 12.4659 114.24 11.474 114.652 10.6264C115.069 9.77888 115.647 9.12074 116.385 8.65199C117.129 8.18324 117.993 7.94886 118.978 7.94886C119.962 7.94886 120.824 8.18324 121.563 8.65199C122.306 9.12074 122.884 9.77888 123.296 10.6264C123.712 11.474 123.921 12.4659 123.921 13.6023C123.921 14.7292 123.712 15.714 123.296 16.5568C122.884 17.3996 122.306 18.0554 121.563 18.5241C120.824 18.9929 119.962 19.2273 118.978 19.2273ZM118.978 17.7216C119.726 17.7216 120.341 17.5298 120.824 17.1463C121.307 16.7628 121.665 16.2585 121.897 15.6335C122.129 15.0085 122.245 14.3314 122.245 13.6023C122.245 12.8731 122.129 12.1937 121.897 11.5639C121.665 10.9342 121.307 10.4252 120.824 10.0369C120.341 9.64867 119.726 9.45455 118.978 9.45455C118.23 9.45455 117.614 9.64867 117.131 10.0369C116.648 10.4252 116.291 10.9342 116.059 11.5639C115.827 12.1937 115.711 12.8731 115.711 13.6023C115.711 14.3314 115.827 15.0085 116.059 15.6335C116.291 16.2585 116.648 16.7628 117.131 17.1463C117.614 17.5298 118.23 17.7216 118.978 17.7216ZM128.156 12.4375V19H126.479V8.09091H128.099V9.79545H128.241C128.496 9.24148 128.885 8.7964 129.406 8.46023C129.926 8.11932 130.599 7.94886 131.423 7.94886C132.161 7.94886 132.808 8.10038 133.362 8.40341C133.915 8.7017 134.346 9.15625 134.654 9.76705C134.962 10.3731 135.116 11.1402 135.116 12.0682V19H133.44V12.1818C133.44 11.3248 133.217 10.6572 132.772 10.179C132.327 9.69602 131.716 9.45455 130.94 9.45455C130.405 9.45455 129.926 9.57055 129.505 9.80256C129.088 10.0346 128.759 10.3731 128.518 10.8182C128.276 11.2633 128.156 11.803 128.156 12.4375ZM145.906 10.5341L144.4 10.9602C144.306 10.7093 144.166 10.4654 143.981 10.2287C143.801 9.98722 143.555 9.78835 143.243 9.6321C142.93 9.47585 142.53 9.39773 142.042 9.39773C141.375 9.39773 140.818 9.55161 140.373 9.85938C139.933 10.1624 139.713 10.5483 139.713 11.017C139.713 11.4337 139.864 11.7628 140.167 12.0043C140.47 12.2457 140.944 12.447 141.588 12.608L143.207 13.0057C144.182 13.2424 144.909 13.6046 145.387 14.0923C145.866 14.5753 146.105 15.1979 146.105 15.9602C146.105 16.5852 145.925 17.1439 145.565 17.6364C145.21 18.1288 144.713 18.517 144.074 18.8011C143.434 19.0852 142.691 19.2273 141.843 19.2273C140.731 19.2273 139.81 18.9858 139.081 18.5028C138.351 18.0199 137.89 17.3144 137.696 16.3864L139.287 15.9886C139.438 16.5758 139.725 17.0161 140.146 17.3097C140.572 17.6032 141.128 17.75 141.815 17.75C142.596 17.75 143.217 17.5843 143.676 17.2528C144.14 16.9167 144.372 16.5142 144.372 16.0455C144.372 15.6667 144.239 15.3494 143.974 15.0938C143.709 14.8333 143.302 14.6392 142.752 14.5114L140.934 14.0852C139.935 13.8485 139.201 13.4815 138.733 12.9844C138.269 12.4825 138.037 11.8551 138.037 11.1023C138.037 10.4867 138.209 9.94223 138.555 9.46875C138.905 8.99527 139.381 8.62358 139.983 8.35369C140.589 8.08381 141.275 7.94886 142.042 7.94886C143.122 7.94886 143.969 8.18561 144.585 8.65909C145.205 9.13258 145.645 9.75758 145.906 10.5341Z" fill="white"/>
<defs>
<clipPath id="clip0_1136_996">
<rect width="20" height="20" fill="white" transform="translate(0 2)"/>
</clipPath>
</defs>
</svg>
