<svg width="196" height="24" viewBox="0 0 196 24" fill="none" xmlns="http://www.w3.org/2000/svg">
<g clip-path="url(#clip0_1136_1014)">
<path d="M17.8617 15.8972V21.583H2.13672V15.8972C2.13672 15.8972 5.15922 14.083 9.99922 14.083C14.8376 14.083 17.8617 15.8972 17.8617 15.8972Z" stroke="white"/>
<path d="M5.80161 8.63372C5.8025 7.51052 6.24936 6.43364 7.04398 5.63981C7.83859 4.84598 8.91591 4.40017 10.0391 4.40039C10.5949 4.40017 11.1453 4.50955 11.6588 4.72227C12.1722 4.93499 12.6387 5.24687 13.0316 5.64007C13.4244 6.03327 13.7358 6.50007 13.948 7.01375C14.1602 7.52744 14.269 8.07793 14.2683 8.63372C14.2683 11.8754 10.1233 14.0779 10.1233 14.0779H9.94495C9.94495 14.0779 5.80161 11.8754 5.80161 8.63372Z" stroke="white"/>
</g>
<path d="M27.7614 19V4.45455H32.6761C33.8172 4.45455 34.75 4.66051 35.4744 5.07244C36.2036 5.47964 36.7434 6.03125 37.0938 6.72727C37.4441 7.4233 37.6193 8.19981 37.6193 9.05682C37.6193 9.91383 37.4441 10.6927 37.0938 11.3935C36.7481 12.0942 36.2131 12.6529 35.4886 13.0696C34.7642 13.4815 33.8362 13.6875 32.7045 13.6875H29.1818V12.125H32.6477C33.429 12.125 34.0563 11.9901 34.5298 11.7202C35.0033 11.4503 35.3466 11.0857 35.5597 10.6264C35.7775 10.1624 35.8864 9.6392 35.8864 9.05682C35.8864 8.47443 35.7775 7.9536 35.5597 7.49432C35.3466 7.03504 35.0009 6.67519 34.5227 6.41477C34.0445 6.14962 33.41 6.01705 32.6193 6.01705H29.5227V19H27.7614ZM40.2294 19V8.09091H41.8487V9.73864H41.9624C42.1612 9.19886 42.5211 8.76089 43.0419 8.42472C43.5627 8.08854 44.1499 7.92045 44.8033 7.92045C44.9264 7.92045 45.0803 7.92282 45.2649 7.92756C45.4496 7.93229 45.5893 7.93939 45.6839 7.94886V9.65341C45.6271 9.6392 45.4969 9.6179 45.2933 9.58949C45.0945 9.55634 44.8838 9.53977 44.6612 9.53977C44.1309 9.53977 43.6574 9.65104 43.2408 9.87358C42.8288 10.0914 42.5021 10.3944 42.2607 10.7827C42.0239 11.1662 41.9055 11.6042 41.9055 12.0966V19H40.2294ZM51.7706 19.2273C50.7857 19.2273 49.9216 18.9929 49.1783 18.5241C48.4396 18.0554 47.862 17.3996 47.4453 16.5568C47.0334 15.714 46.8274 14.7292 46.8274 13.6023C46.8274 12.4659 47.0334 11.474 47.4453 10.6264C47.862 9.77888 48.4396 9.12074 49.1783 8.65199C49.9216 8.18324 50.7857 7.94886 51.7706 7.94886C52.7554 7.94886 53.6172 8.18324 54.3558 8.65199C55.0992 9.12074 55.6768 9.77888 56.0888 10.6264C56.5054 11.474 56.7138 12.4659 56.7138 13.6023C56.7138 14.7292 56.5054 15.714 56.0888 16.5568C55.6768 17.3996 55.0992 18.0554 54.3558 18.5241C53.6172 18.9929 52.7554 19.2273 51.7706 19.2273ZM51.7706 17.7216C52.5187 17.7216 53.1342 17.5298 53.6172 17.1463C54.1001 16.7628 54.4576 16.2585 54.6896 15.6335C54.9216 15.0085 55.0376 14.3314 55.0376 13.6023C55.0376 12.8731 54.9216 12.1937 54.6896 11.5639C54.4576 10.9342 54.1001 10.4252 53.6172 10.0369C53.1342 9.64867 52.5187 9.45455 51.7706 9.45455C51.0225 9.45455 50.407 9.64867 49.924 10.0369C49.4411 10.4252 49.0836 10.9342 48.8516 11.5639C48.6196 12.1937 48.5036 12.8731 48.5036 13.6023C48.5036 14.3314 48.6196 15.0085 48.8516 15.6335C49.0836 16.2585 49.4411 16.7628 49.924 17.1463C50.407 17.5298 51.0225 17.7216 51.7706 17.7216ZM64.1303 8.09091V9.51136H58.2496V8.09091H64.1303ZM60.011 19V6.58523C60.011 5.96023 60.1578 5.43939 60.4513 5.02273C60.7449 4.60606 61.1261 4.29356 61.5948 4.08523C62.0636 3.87689 62.5584 3.77273 63.0792 3.77273C63.4911 3.77273 63.8273 3.80587 64.0877 3.87216C64.3481 3.93845 64.5423 4 64.6701 4.05682L64.1871 5.50568C64.1019 5.47727 63.9835 5.44176 63.832 5.39915C63.6853 5.35653 63.4911 5.33523 63.2496 5.33523C62.6957 5.33523 62.2956 5.4749 62.0494 5.75426C61.8079 6.03362 61.6871 6.44318 61.6871 6.98295V19H60.011ZM66.4794 19V8.09091H68.1555V19H66.4794ZM67.3317 6.27273C67.005 6.27273 66.7232 6.16146 66.4865 5.93892C66.2545 5.71638 66.1385 5.44886 66.1385 5.13636C66.1385 4.82386 66.2545 4.55634 66.4865 4.33381C66.7232 4.11127 67.005 4 67.3317 4C67.6584 4 67.9377 4.11127 68.1697 4.33381C68.4065 4.55634 68.5249 4.82386 68.5249 5.13636C68.5249 5.44886 68.4065 5.71638 68.1697 5.93892C67.9377 6.16146 67.6584 6.27273 67.3317 6.27273ZM72.9016 4.45455V19H71.2255V4.45455H72.9016ZM80.5455 19.2273C79.4943 19.2273 78.5876 18.9953 77.8253 18.5312C77.0677 18.0625 76.483 17.4091 76.071 16.571C75.6638 15.7282 75.4602 14.7481 75.4602 13.6307C75.4602 12.5133 75.6638 11.5284 76.071 10.6761C76.483 9.81913 77.0559 9.15152 77.7898 8.6733C78.5284 8.19034 79.3902 7.94886 80.375 7.94886C80.9432 7.94886 81.5043 8.04356 82.0582 8.23295C82.6122 8.42235 83.1165 8.73011 83.571 9.15625C84.0256 9.57765 84.3878 10.1364 84.6577 10.8324C84.9276 11.5284 85.0625 12.3854 85.0625 13.4034V14.1136H76.6534V12.6648H83.358C83.358 12.0492 83.2348 11.5 82.9886 11.017C82.7472 10.5341 82.4015 10.1529 81.9517 9.87358C81.5066 9.59422 80.9811 9.45455 80.375 9.45455C79.7074 9.45455 79.1297 9.62026 78.642 9.9517C78.1591 10.2784 77.7874 10.7045 77.527 11.2301C77.2666 11.7557 77.1364 12.3191 77.1364 12.9205V13.8864C77.1364 14.7102 77.2784 15.4086 77.5625 15.9815C77.8513 16.5497 78.2514 16.983 78.7628 17.2812C79.2741 17.5748 79.8684 17.7216 80.5455 17.7216C80.9858 17.7216 81.3835 17.66 81.7386 17.5369C82.0985 17.4091 82.4086 17.2197 82.669 16.9688C82.9295 16.7131 83.1307 16.3958 83.2727 16.017L84.892 16.4716C84.7216 17.0208 84.4351 17.5038 84.0327 17.9205C83.6302 18.3324 83.133 18.6544 82.5412 18.8864C81.9493 19.1136 81.2841 19.2273 80.5455 19.2273Z" fill="white"/>
<defs>
<clipPath id="clip0_1136_1014">
<rect width="20" height="20" fill="white" transform="translate(0 2)"/>
</clipPath>
</defs>
</svg>
