<svg width="78" height="75" viewBox="0 0 78 75" fill="none" xmlns="http://www.w3.org/2000/svg">
<rect x="1.67773" y="1" width="74.6428" height="73" rx="36.5" stroke="white" stroke-width="2"/>
<path d="M40.7815 35.0965H25.7074C25.5031 35.6562 25.2282 36.1659 24.8826 36.6255C24.537 37.0852 24.1175 37.475 23.624 37.7948L25.5849 58.4821H40.904L42.8649 37.7948C42.3746 37.475 41.9559 37.0852 41.6087 36.6255C41.2615 36.1659 40.9857 35.6562 40.7815 35.0965ZM25.0334 24.9027L23.9917 29.0402C24.3593 29.36 24.6862 29.7298 24.9721 30.1495C25.258 30.5693 25.4828 31.019 25.6461 31.4987H40.8783C41.0679 31.0418 41.2931 30.6079 41.5541 30.1969C41.8152 29.7855 42.1295 29.42 42.4972 29.1002L41.4555 24.9027H25.0334ZM25.5849 62.0799C24.631 62.0799 23.8001 61.7601 23.0921 61.1205C22.3846 60.4809 21.99 59.7014 21.9083 58.7819L19.8861 36.8954C19.8453 36.54 19.9168 36.2114 20.1006 35.9096C20.2844 35.6074 20.5397 35.3564 20.8666 35.1564L20.9278 35.0965C21.2547 34.8966 21.5406 34.6567 21.7857 34.3769C22.0308 34.0971 22.1534 33.7573 22.1534 33.3575C22.1534 32.9978 22.0716 32.658 21.9083 32.3382C21.7449 32.0183 21.4998 31.7785 21.1729 31.6186L21.0504 31.5587C20.6827 31.3587 20.4171 31.069 20.2538 30.6892C20.0904 30.3094 20.0495 29.9196 20.1312 29.5199L21.847 22.6841C21.9287 22.2844 22.138 21.9546 22.4751 21.6947C22.8121 21.4348 23.1951 21.305 23.624 21.305H31.4061V17.7072H27.7295V14.1094H38.7593V17.7072H35.0827V21.305H42.8649C43.306 21.305 43.6921 21.4348 44.023 21.6947C44.3539 21.9546 44.5601 22.2844 44.6419 22.6841L46.2963 29.4C46.3781 29.7997 46.3372 30.1895 46.1738 30.5693C46.0104 30.9491 45.7449 31.2388 45.3772 31.4387L45.2546 31.4987C44.9278 31.6586 44.6827 31.8984 44.5193 32.2182C44.356 32.5381 44.2742 32.8727 44.2742 33.222C44.2742 33.6493 44.3866 34.0085 44.6112 34.2996C44.8359 34.591 45.1256 34.8293 45.4801 35.0143C45.8347 35.1994 46.1104 35.4493 46.3074 35.7639C46.5043 36.0784 46.5823 36.4357 46.5415 36.8354L44.5806 58.7819C44.4887 59.7158 44.0904 60.4989 43.3857 61.1313C42.681 61.7637 41.8538 62.0799 40.904 62.0799H25.5849Z" fill="white"/>
<mask id="path-3-inside-1_1038_254" fill="white">
<path d="M60.2555 50.8336C60.4868 50.8138 60.6606 50.7607 60.7768 50.6746C60.893 50.5885 60.9446 50.4699 60.9313 50.3187C60.9181 50.1676 60.8464 50.0561 60.7163 49.9842C60.5862 49.9123 60.3983 49.8869 60.1526 49.9081C59.5454 49.9602 58.9115 49.8312 58.2508 49.5211C57.5901 49.2111 57.1327 48.6032 56.8785 47.6975C56.8388 47.5763 56.765 47.4823 56.6572 47.4154C56.5494 47.3486 56.4377 47.3201 56.322 47.33C56.163 47.3437 56.0453 47.4127 55.9688 47.5369C55.8923 47.6611 55.8739 47.7838 55.9136 47.905C56.2316 49.0405 56.8179 49.8311 57.6725 50.2768C58.5272 50.7225 59.3882 50.9081 60.2555 50.8336ZM60.5083 53.4698C58.528 53.6399 56.8199 53.136 55.384 51.9581C53.9482 50.7802 53.146 49.2294 52.9774 47.3059C52.857 45.9319 53.3007 44.3883 54.3084 42.6752C55.3162 40.962 56.9012 39.0644 59.0636 36.9821C61.5558 38.6645 63.4473 40.2636 64.738 41.7793C66.0286 43.295 66.7342 44.7398 66.8546 46.1138C67.0231 48.0374 66.5027 49.7017 65.2932 51.1069C64.0837 52.512 62.4887 53.2997 60.5083 53.4698ZM60.4 52.2332C62.019 52.0941 63.3173 51.4531 64.2949 50.3101C65.2725 49.1672 65.692 47.8056 65.5536 46.2256C65.4585 45.1401 64.8698 43.9483 63.7875 42.65C62.7052 41.3517 61.1787 40.012 59.2081 38.6309C57.5071 40.3274 56.2364 41.9074 55.3962 43.3708C54.5559 44.8342 54.1833 46.1087 54.2784 47.1941C54.4169 48.7742 55.067 50.0438 56.2288 51.003C57.3906 51.9622 58.781 52.3723 60.4 52.2332Z"/>
</mask>
<path d="M60.2555 50.8336C60.4868 50.8138 60.6606 50.7607 60.7768 50.6746C60.893 50.5885 60.9446 50.4699 60.9313 50.3187C60.9181 50.1676 60.8464 50.0561 60.7163 49.9842C60.5862 49.9123 60.3983 49.8869 60.1526 49.9081C59.5454 49.9602 58.9115 49.8312 58.2508 49.5211C57.5901 49.2111 57.1327 48.6032 56.8785 47.6975C56.8388 47.5763 56.765 47.4823 56.6572 47.4154C56.5494 47.3486 56.4377 47.3201 56.322 47.33C56.163 47.3437 56.0453 47.4127 55.9688 47.5369C55.8923 47.6611 55.8739 47.7838 55.9136 47.905C56.2316 49.0405 56.8179 49.8311 57.6725 50.2768C58.5272 50.7225 59.3882 50.9081 60.2555 50.8336ZM60.5083 53.4698C58.528 53.6399 56.8199 53.136 55.384 51.9581C53.9482 50.7802 53.146 49.2294 52.9774 47.3059C52.857 45.9319 53.3007 44.3883 54.3084 42.6752C55.3162 40.962 56.9012 39.0644 59.0636 36.9821C61.5558 38.6645 63.4473 40.2636 64.738 41.7793C66.0286 43.295 66.7342 44.7398 66.8546 46.1138C67.0231 48.0374 66.5027 49.7017 65.2932 51.1069C64.0837 52.512 62.4887 53.2997 60.5083 53.4698ZM60.4 52.2332C62.019 52.0941 63.3173 51.4531 64.2949 50.3101C65.2725 49.1672 65.692 47.8056 65.5536 46.2256C65.4585 45.1401 64.8698 43.9483 63.7875 42.65C62.7052 41.3517 61.1787 40.012 59.2081 38.6309C57.5071 40.3274 56.2364 41.9074 55.3962 43.3708C54.5559 44.8342 54.1833 46.1087 54.2784 47.1941C54.4169 48.7742 55.067 50.0438 56.2288 51.003C57.3906 51.9622 58.781 52.3723 60.4 52.2332Z" fill="white"/>
<path d="M56.8785 47.6975L58.8044 47.1604L58.7926 47.1185L58.7791 47.0771L56.8785 47.6975ZM55.9136 47.905L57.8398 47.3689L57.8279 47.3265L57.8142 47.2846L55.9136 47.905ZM59.0636 36.9821L60.1811 35.3254L58.839 34.4195L57.6746 35.5407L59.0636 36.9821ZM59.2081 38.6309L60.3545 36.9941L58.9802 36.031L57.7941 37.214L59.2081 38.6309ZM60.4301 52.826C60.8285 52.7918 61.4275 52.6835 61.9695 52.282L59.5841 49.0673C59.749 48.9451 59.8948 48.8899 59.9726 48.8662C60.0508 48.8424 60.0931 48.8402 60.0809 48.8413L60.4301 52.826ZM61.9695 52.282C62.6751 51.7593 62.9943 50.9506 62.924 50.1476L58.9386 50.4899C58.9212 50.2912 58.9397 50.0167 59.0675 49.7223C59.1972 49.4235 59.395 49.2074 59.5841 49.0673L61.9695 52.282ZM62.924 50.1476C62.854 49.3495 62.4105 48.6372 61.6818 48.2345L59.7508 51.7339C59.5609 51.629 59.3501 51.457 59.1853 51.2008C59.0216 50.9461 58.9562 50.6902 58.9386 50.4899L62.924 50.1476ZM61.6818 48.2345C61.0427 47.8813 60.3838 47.8808 59.978 47.9157L60.3271 51.9004C60.3449 51.8989 60.3008 51.9048 60.2132 51.8929C60.1263 51.8812 59.9539 51.8462 59.7508 51.7339L61.6818 48.2345ZM59.978 47.9157C59.7848 47.9323 59.5031 47.9012 59.0983 47.7112L57.4033 51.3311C58.3199 51.7612 59.3061 51.9881 60.3271 51.9004L59.978 47.9157ZM59.0983 47.7112C59.0767 47.7011 59.0507 47.6864 59.01 47.6323C58.9617 47.5681 58.8797 47.4286 58.8044 47.1604L54.9526 48.2346C55.3153 49.5271 56.0712 50.7059 57.4033 51.3311L59.0983 47.7112ZM58.7791 47.0771C58.5933 46.5111 58.2209 46.0338 57.7097 45.7168L55.6046 49.1141C55.4714 49.0315 55.3369 48.9173 55.2203 48.7687C55.1038 48.6201 55.0258 48.4638 54.978 48.3179L58.7791 47.0771ZM57.7097 45.7168C57.2709 45.4445 56.733 45.2874 56.1474 45.3377L56.4966 49.3224C56.1423 49.3528 55.8279 49.2526 55.6046 49.1141L57.7097 45.7168ZM56.1474 45.3377C55.4256 45.3997 54.707 45.7685 54.2649 46.4864L57.6726 48.5873C57.5517 48.7836 57.3704 48.9758 57.1276 49.1179C56.8906 49.2567 56.6634 49.3081 56.4966 49.3224L56.1474 45.3377ZM54.2649 46.4864C53.9303 47.0298 53.762 47.7601 54.0131 48.5254L57.8142 47.2846C57.8889 47.5122 57.9141 47.766 57.8758 48.0215C57.8387 48.2692 57.751 48.4601 57.6726 48.5873L54.2649 46.4864ZM53.9874 48.441C54.4187 49.9812 55.2973 51.292 56.7498 52.0495L58.5953 48.5042C58.3384 48.3702 58.0445 48.0998 57.8398 47.3689L53.9874 48.441ZM56.7498 52.0495C57.9048 52.6518 59.144 52.9365 60.4301 52.826L60.0809 48.8413C59.6324 48.8798 59.1496 48.7932 58.5953 48.5042L56.7498 52.0495ZM60.3338 51.4774C58.8329 51.6064 57.6525 51.2344 56.6514 50.4131L54.1167 53.5031C55.9872 55.0376 58.223 55.6735 60.6829 55.4622L60.3338 51.4774ZM56.6514 50.4131C55.6509 49.5924 55.0938 48.5461 54.9701 47.1347L50.9848 47.477C51.1982 49.9128 52.2455 51.968 54.1167 53.5031L56.6514 50.4131ZM54.9701 47.1347C54.8988 46.3214 55.1466 45.198 56.0331 43.691L52.5837 41.6594C51.4547 43.5787 50.8152 45.5425 50.9848 47.477L54.9701 47.1347ZM56.0331 43.691C56.9147 42.1923 58.3615 40.437 60.4525 38.4235L57.6746 35.5407C55.4409 37.6917 53.7176 39.7318 52.5837 41.6594L56.0331 43.691ZM57.9461 38.6388C60.3561 40.2656 62.0866 41.748 63.2157 43.074L66.2602 40.4845C64.808 38.7791 62.7556 37.0634 60.1811 35.3254L57.9461 38.6388ZM63.2157 43.074C64.3511 44.4074 64.7906 45.4716 64.8619 46.285L68.8472 45.9426C68.6777 44.0081 67.7062 42.1826 66.2602 40.4845L63.2157 43.074ZM64.8619 46.285C64.9856 47.6964 64.6188 48.822 63.776 49.8011L66.8103 52.4127C68.3866 50.5815 69.0607 48.3784 68.8472 45.9426L64.8619 46.285ZM63.776 49.8011C62.9327 50.7808 61.8347 51.3485 60.3338 51.4774L60.6829 55.4622C63.1428 55.2508 65.2346 54.2433 66.8103 52.4127L63.776 49.8011ZM60.5746 54.2256C62.6703 54.0456 64.4692 53.1859 65.8161 51.6112L62.7737 49.0091C62.1653 49.7203 61.3676 50.1427 60.2254 50.2408L60.5746 54.2256ZM65.8161 51.6112C67.1624 50.0371 67.7287 48.1369 67.5462 46.0544L63.5609 46.3967C63.6553 47.4744 63.3825 48.2972 62.7737 49.0091L65.8161 51.6112ZM67.5462 46.0544C67.4008 44.3943 66.5334 42.8229 65.3232 41.3713L62.2518 43.9287C63.2062 45.0736 63.5162 45.886 63.5609 46.3967L67.5462 46.0544ZM65.3232 41.3713C64.0909 39.893 62.4143 38.4377 60.3545 36.9941L58.0616 40.2676C59.9431 41.5863 61.3195 42.8104 62.2518 43.9287L65.3232 41.3713ZM57.7941 37.214C56.0161 38.9873 54.6177 40.7068 53.6609 42.3731L57.1314 44.3686C57.8552 43.108 58.998 41.6675 60.622 40.0477L57.7941 37.214ZM53.6609 42.3731C52.7214 44.0094 52.1403 45.7052 52.2857 47.3653L56.2711 47.0229C56.2263 46.5122 56.3903 45.6591 57.1314 44.3686L53.6609 42.3731ZM52.2857 47.3653C52.4682 49.4478 53.3566 51.223 54.9566 52.544L57.501 49.462C56.7774 48.8646 56.3655 48.1006 56.2711 47.0229L52.2857 47.3653ZM54.9566 52.544C56.5573 53.8655 58.4788 54.4056 60.5746 54.2256L60.2254 50.2408C59.0832 50.339 58.224 50.0589 57.501 49.462L54.9566 52.544Z" fill="white" mask="url(#path-3-inside-1_1038_254)"/>
</svg>
