<svg width="20" height="20" viewBox="0 0 20 20" fill="none" xmlns="http://www.w3.org/2000/svg">
<path d="M4.8763 14.2503C5.58464 13.7087 6.3763 13.2816 7.2513 12.9691C8.1263 12.6566 9.04297 12.5003 10.0013 12.5003C10.9596 12.5003 11.8763 12.6566 12.7513 12.9691C13.6263 13.2816 14.418 13.7087 15.1263 14.2503C15.6124 13.6809 15.9909 13.035 16.2617 12.3128C16.5326 11.5906 16.668 10.8198 16.668 10.0003C16.668 8.1531 16.0187 6.58019 14.7201 5.28158C13.4214 3.98296 11.8485 3.33366 10.0013 3.33366C8.15408 3.33366 6.58116 3.98296 5.28255 5.28158C3.98394 6.58019 3.33464 8.1531 3.33464 10.0003C3.33464 10.8198 3.47005 11.5906 3.74089 12.3128C4.01172 13.035 4.39019 13.6809 4.8763 14.2503ZM10.0013 10.8337C9.18186 10.8337 8.49089 10.5524 7.92839 9.98991C7.36589 9.42741 7.08464 8.73644 7.08464 7.91699C7.08464 7.09755 7.36589 6.40658 7.92839 5.84408C8.49089 5.28158 9.18186 5.00033 10.0013 5.00033C10.8207 5.00033 11.5117 5.28158 12.0742 5.84408C12.6367 6.40658 12.918 7.09755 12.918 7.91699C12.918 8.73644 12.6367 9.42741 12.0742 9.98991C11.5117 10.5524 10.8207 10.8337 10.0013 10.8337ZM10.0013 18.3337C8.84852 18.3337 7.76519 18.1149 6.7513 17.6774C5.73741 17.2399 4.85547 16.6462 4.10547 15.8962C3.35547 15.1462 2.76172 14.2642 2.32422 13.2503C1.88672 12.2364 1.66797 11.1531 1.66797 10.0003C1.66797 8.84755 1.88672 7.76421 2.32422 6.75033C2.76172 5.73644 3.35547 4.85449 4.10547 4.10449C4.85547 3.35449 5.73741 2.76074 6.7513 2.32324C7.76519 1.88574 8.84852 1.66699 10.0013 1.66699C11.1541 1.66699 12.2374 1.88574 13.2513 2.32324C14.2652 2.76074 15.1471 3.35449 15.8971 4.10449C16.6471 4.85449 17.2409 5.73644 17.6784 6.75033C18.1159 7.76421 18.3346 8.84755 18.3346 10.0003C18.3346 11.1531 18.1159 12.2364 17.6784 13.2503C17.2409 14.2642 16.6471 15.1462 15.8971 15.8962C15.1471 16.6462 14.2652 17.2399 13.2513 17.6774C12.2374 18.1149 11.1541 18.3337 10.0013 18.3337Z" fill="black"/>
</svg>
