<svg width="49" height="48" viewBox="0 0 49 48" fill="none" xmlns="http://www.w3.org/2000/svg">
<rect x="0.5" width="48" height="48" fill="#DEDEDE"/>
<rect x="1" y="0.5" width="47" height="47" stroke="black" stroke-opacity="0.5"/>
<path d="M17.5 33H31.5C32.6046 33 33.5 32.1046 33.5 31V17C33.5 15.8954 32.6046 15 31.5 15H17.5C16.3954 15 15.5 15.8954 15.5 17V31C15.5 32.1046 16.3954 33 17.5 33ZM17.5 33L28.5 22L33.5 27M22.5 20.5C22.5 21.3284 21.8284 22 21 22C20.1716 22 19.5 21.3284 19.5 20.5C19.5 19.6716 20.1716 19 21 19C21.8284 19 22.5 19.6716 22.5 20.5Z" stroke="#1E1E1E" stroke-linecap="round" stroke-linejoin="round"/>
</svg>
