<svg width="121" height="67" viewBox="0 0 121 67" fill="none" xmlns="http://www.w3.org/2000/svg">
<path d="M21.0767 41V45.5881H1.97159V41H21.0767ZM48.6477 41.4261C46.4129 41.4261 44.4905 40.9527 42.8807 40.0057C41.2803 39.0492 40.0492 37.7235 39.1875 36.0284C38.3352 34.3333 37.9091 32.3826 37.9091 30.1761C37.9091 27.9413 38.34 25.9811 39.2017 24.2955C40.0729 22.6004 41.3087 21.2794 42.9091 20.3324C44.5095 19.3759 46.4129 18.8977 48.6193 18.8977C50.5227 18.8977 52.1894 19.2434 53.6193 19.9347C55.0492 20.6259 56.1809 21.5966 57.0142 22.8466C57.8475 24.0966 58.3068 25.5644 58.392 27.25H52.6818C52.5208 26.161 52.0947 25.285 51.4034 24.6222C50.7216 23.9498 49.8267 23.6136 48.7188 23.6136C47.7812 23.6136 46.9621 23.8693 46.2614 24.3807C45.5701 24.8826 45.0303 25.6165 44.642 26.5824C44.2538 27.5483 44.0597 28.7178 44.0597 30.0909C44.0597 31.483 44.2491 32.6667 44.6278 33.642C45.0161 34.6174 45.5606 35.3608 46.2614 35.8722C46.9621 36.3835 47.7812 36.6392 48.7188 36.6392C49.41 36.6392 50.0303 36.4972 50.5795 36.2131C51.1383 35.929 51.5975 35.517 51.9574 34.9773C52.3267 34.428 52.5682 33.7699 52.6818 33.0028H58.392C58.2973 34.6695 57.8428 36.1373 57.0284 37.4062C56.2235 38.6657 55.1108 39.6506 53.6903 40.3608C52.2699 41.071 50.589 41.4261 48.6477 41.4261Z" fill="white"/>
<path d="M35.0824 19.1818V23.7273H21.9432V19.1818H35.0824ZM24.9261 13.9545H30.9773V34.2955C30.9773 34.8542 31.0625 35.2898 31.233 35.6023C31.4034 35.9053 31.6402 36.1184 31.9432 36.2415C32.2557 36.3646 32.6155 36.4261 33.0227 36.4261C33.3068 36.4261 33.5909 36.4025 33.875 36.3551C34.1591 36.2983 34.3769 36.2557 34.5284 36.2273L35.4801 40.7301C35.1771 40.8248 34.7509 40.9337 34.2017 41.0568C33.6525 41.1894 32.9848 41.2699 32.1989 41.2983C30.7405 41.3551 29.4621 41.161 28.3636 40.7159C27.2746 40.2708 26.4271 39.5795 25.821 38.642C25.215 37.7045 24.9167 36.5208 24.9261 35.0909V13.9545ZM72.2095 41.4261C69.9652 41.4261 68.0334 40.9716 66.4141 40.0625C64.8042 39.1439 63.5637 37.8466 62.6925 36.1705C61.8213 34.4848 61.3857 32.4915 61.3857 30.1903C61.3857 27.946 61.8213 25.9763 62.6925 24.2812C63.5637 22.5862 64.79 21.2652 66.3714 20.3182C67.9624 19.3712 69.8279 18.8977 71.968 18.8977C73.4074 18.8977 74.7474 19.1297 75.9879 19.5938C77.2379 20.0483 78.3269 20.7348 79.255 21.6534C80.1925 22.572 80.9216 23.7273 81.4425 25.1193C81.9633 26.5019 82.2237 28.1212 82.2237 29.9773V31.6392H63.8004V27.8892H76.5277C76.5277 27.018 76.3383 26.2462 75.9595 25.5739C75.5807 24.9015 75.0552 24.3759 74.3828 23.9972C73.7199 23.6089 72.9482 23.4148 72.0675 23.4148C71.1489 23.4148 70.3345 23.6278 69.6243 24.054C68.9235 24.4706 68.3743 25.0341 67.9766 25.7443C67.5788 26.4451 67.3752 27.2263 67.3658 28.0881V31.6534C67.3658 32.733 67.5646 33.6657 67.9624 34.4517C68.3696 35.2377 68.9425 35.8438 69.6811 36.2699C70.4197 36.696 71.2957 36.9091 72.3089 36.9091C72.9813 36.9091 73.5968 36.8144 74.1555 36.625C74.7143 36.4356 75.1925 36.1515 75.5902 35.7727C75.9879 35.3939 76.291 34.9299 76.4993 34.3807L82.0959 34.75C81.8118 36.0947 81.2294 37.2689 80.3487 38.2727C79.4775 39.267 78.3506 40.0436 76.968 40.6023C75.5949 41.1515 74.0088 41.4261 72.2095 41.4261ZM96.1158 41.4261C93.8714 41.4261 91.9396 40.9716 90.3203 40.0625C88.7105 39.1439 87.4699 37.8466 86.5987 36.1705C85.7275 34.4848 85.2919 32.4915 85.2919 30.1903C85.2919 27.946 85.7275 25.9763 86.5987 24.2812C87.4699 22.5862 88.6963 21.2652 90.2777 20.3182C91.8686 19.3712 93.7341 18.8977 95.8743 18.8977C97.3137 18.8977 98.6536 19.1297 99.8942 19.5938C101.144 20.0483 102.233 20.7348 103.161 21.6534C104.099 22.572 104.828 23.7273 105.349 25.1193C105.87 26.5019 106.13 28.1212 106.13 29.9773V31.6392H87.7067V27.8892H100.434C100.434 27.018 100.245 26.2462 99.8658 25.5739C99.487 24.9015 98.9614 24.3759 98.2891 23.9972C97.6262 23.6089 96.8544 23.4148 95.9737 23.4148C95.0552 23.4148 94.2408 23.6278 93.5305 24.054C92.8298 24.4706 92.2805 25.0341 91.8828 25.7443C91.4851 26.4451 91.2815 27.2263 91.272 28.0881V31.6534C91.272 32.733 91.4709 33.6657 91.8686 34.4517C92.2758 35.2377 92.8487 35.8438 93.5874 36.2699C94.326 36.696 95.2019 36.9091 96.2152 36.9091C96.8875 36.9091 97.5031 36.8144 98.0618 36.625C98.6205 36.4356 99.0987 36.1515 99.4964 35.7727C99.8942 35.3939 100.197 34.9299 100.406 34.3807L106.002 34.75C105.718 36.0947 105.136 37.2689 104.255 38.2727C103.384 39.267 102.257 40.0436 100.874 40.6023C99.5012 41.1515 97.915 41.4261 96.1158 41.4261Z" fill="#FFD054"/>
<path d="M35 60C35 54.4772 39.4772 50 45 50H111.5C115.642 50 119 53.3579 119 57.5C119 61.6421 115.642 65 111.5 65H35V60Z" fill="#FFD054"/>
<path d="M43.0611 55.4545V56.6477H39.2983V55.4545H43.0611ZM40.2273 53.8864H41.7699V60.0312C41.7699 60.2386 41.8011 60.3977 41.8636 60.5085C41.929 60.6165 42.0142 60.6903 42.1193 60.7301C42.2244 60.7699 42.3409 60.7898 42.4688 60.7898C42.5653 60.7898 42.6534 60.7827 42.733 60.7685C42.8153 60.7543 42.8778 60.7415 42.9205 60.7301L43.1804 61.9361C43.098 61.9645 42.9801 61.9957 42.8267 62.0298C42.6761 62.0639 42.4915 62.0838 42.2727 62.0895C41.8864 62.1009 41.5384 62.0426 41.2287 61.9148C40.919 61.7841 40.6733 61.5824 40.4915 61.3097C40.3125 61.0369 40.2244 60.696 40.2273 60.2869V53.8864ZM47.1786 62.1278C46.5224 62.1278 45.9556 61.9915 45.4783 61.7188C45.0039 61.4432 44.6388 61.054 44.3832 60.5511C44.1275 60.0455 43.9996 59.4503 43.9996 58.7656C43.9996 58.0923 44.1275 57.5014 44.3832 56.9929C44.6417 56.4815 45.0025 56.0838 45.4656 55.7997C45.9286 55.5128 46.4727 55.3693 47.0977 55.3693C47.5011 55.3693 47.8817 55.4347 48.2397 55.5653C48.6005 55.6932 48.9187 55.892 49.1942 56.1619C49.4727 56.4318 49.6914 56.7756 49.8505 57.1932C50.0096 57.608 50.0891 58.1023 50.0891 58.6761V59.1491H44.7241V58.1094H48.6104C48.6076 57.8139 48.5437 57.5511 48.4187 57.321C48.2937 57.0881 48.119 56.9048 47.8945 56.7713C47.6729 56.6378 47.4144 56.571 47.119 56.571C46.8036 56.571 46.5266 56.6477 46.288 56.8011C46.0494 56.9517 45.8633 57.1506 45.7298 57.3977C45.5991 57.642 45.5323 57.9105 45.5295 58.2031V59.1108C45.5295 59.4915 45.5991 59.8182 45.7383 60.0909C45.8775 60.3608 46.0721 60.5682 46.3221 60.7131C46.5721 60.8551 46.8647 60.9261 47.1999 60.9261C47.4244 60.9261 47.6275 60.8949 47.8093 60.8324C47.9911 60.767 48.1488 60.6719 48.2823 60.5469C48.4158 60.4219 48.5167 60.267 48.5849 60.0824L50.0252 60.2443C49.9343 60.625 49.761 60.9574 49.5053 61.2415C49.2525 61.5227 48.9286 61.7415 48.5337 61.8977C48.1388 62.0511 47.6871 62.1278 47.1786 62.1278ZM54.2493 62.1278C53.5959 62.1278 53.0348 61.9844 52.5661 61.6974C52.1001 61.4105 51.7408 61.0142 51.4879 60.5085C51.2379 60 51.1129 59.4148 51.1129 58.7528C51.1129 58.0881 51.2408 57.5014 51.4964 56.9929C51.7521 56.4815 52.1129 56.0838 52.5788 55.7997C53.0476 55.5128 53.6016 55.3693 54.2408 55.3693C54.772 55.3693 55.2422 55.4673 55.6513 55.6634C56.0632 55.8565 56.3913 56.1307 56.6357 56.4858C56.88 56.8381 57.0192 57.25 57.0533 57.7216H55.5788C55.5192 57.4062 55.3771 57.1435 55.1527 56.9332C54.9311 56.7202 54.6342 56.6136 54.2621 56.6136C53.9467 56.6136 53.6697 56.6989 53.4311 56.8693C53.1925 57.0369 53.0064 57.2784 52.8729 57.5938C52.7422 57.9091 52.6768 58.2869 52.6768 58.7273C52.6768 59.1733 52.7422 59.5568 52.8729 59.8778C53.0036 60.196 53.1868 60.4418 53.4226 60.6151C53.6612 60.7855 53.9411 60.8707 54.2621 60.8707C54.4893 60.8707 54.6925 60.8281 54.8714 60.7429C55.0533 60.6548 55.2053 60.5284 55.3274 60.3636C55.4496 60.1989 55.5334 59.9986 55.5788 59.7628H57.0533C57.0163 60.2259 56.88 60.6364 56.6442 60.9943C56.4084 61.3494 56.0874 61.6278 55.6811 61.8295C55.2749 62.0284 54.7976 62.1278 54.2493 62.1278ZM59.8626 58.1648V62H58.32V53.2727H59.8285V56.5668H59.9052C60.0586 56.1974 60.2958 55.9062 60.6168 55.6932C60.9407 55.4773 61.3526 55.3693 61.8526 55.3693C62.3072 55.3693 62.7035 55.4645 63.0415 55.6548C63.3796 55.8452 63.641 56.1236 63.8256 56.4901C64.0131 56.8565 64.1069 57.304 64.1069 57.8324V62H62.5643V58.071C62.5643 57.6307 62.4506 57.2884 62.2234 57.044C61.9989 56.7969 61.6836 56.6733 61.2773 56.6733C61.0046 56.6733 60.7603 56.733 60.5444 56.8523C60.3313 56.9687 60.1637 57.1378 60.0415 57.3594C59.9222 57.581 59.8626 57.8494 59.8626 58.1648ZM67.2219 58.1648V62H65.6793V55.4545H67.1538V56.5668H67.2305C67.381 56.2003 67.6211 55.9091 67.9506 55.6932C68.283 55.4773 68.6935 55.3693 69.1822 55.3693C69.6339 55.3693 70.0273 55.4659 70.3626 55.6591C70.7006 55.8523 70.962 56.1321 71.1467 56.4986C71.3342 56.8651 71.4265 57.3097 71.4237 57.8324V62H69.881V58.071C69.881 57.6335 69.7674 57.2912 69.5401 57.044C69.3157 56.7969 69.0046 56.6733 68.6069 56.6733C68.337 56.6733 68.0969 56.733 67.8867 56.8523C67.6793 56.9687 67.516 57.1378 67.3967 57.3594C67.2802 57.581 67.2219 57.8494 67.2219 58.1648ZM75.8469 62.1278C75.2077 62.1278 74.6538 61.9872 74.185 61.706C73.7163 61.4247 73.3526 61.0312 73.0941 60.5256C72.8384 60.0199 72.7106 59.429 72.7106 58.7528C72.7106 58.0767 72.8384 57.4844 73.0941 56.9759C73.3526 56.4673 73.7163 56.0724 74.185 55.7912C74.6538 55.5099 75.2077 55.3693 75.8469 55.3693C76.4862 55.3693 77.0401 55.5099 77.5089 55.7912C77.9776 56.0724 78.3398 56.4673 78.5955 56.9759C78.854 57.4844 78.9833 58.0767 78.9833 58.7528C78.9833 59.429 78.854 60.0199 78.5955 60.5256C78.3398 61.0312 77.9776 61.4247 77.5089 61.706C77.0401 61.9872 76.4862 62.1278 75.8469 62.1278ZM75.8555 60.892C76.2021 60.892 76.4918 60.7969 76.7248 60.6065C76.9577 60.4134 77.131 60.1548 77.2447 59.831C77.3612 59.5071 77.4194 59.1463 77.4194 58.7486C77.4194 58.348 77.3612 57.9858 77.2447 57.6619C77.131 57.3352 76.9577 57.0753 76.7248 56.8821C76.4918 56.6889 76.2021 56.5923 75.8555 56.5923C75.5004 56.5923 75.2049 56.6889 74.9691 56.8821C74.7362 57.0753 74.5614 57.3352 74.445 57.6619C74.3313 57.9858 74.2745 58.348 74.2745 58.7486C74.2745 59.1463 74.3313 59.5071 74.445 59.831C74.5614 60.1548 74.7362 60.4134 74.9691 60.6065C75.2049 60.7969 75.5004 60.892 75.8555 60.892ZM81.8352 53.2727V62H80.2926V53.2727H81.8352ZM86.2766 62.1278C85.6374 62.1278 85.0835 61.9872 84.6147 61.706C84.146 61.4247 83.7823 61.0312 83.5238 60.5256C83.2681 60.0199 83.1403 59.429 83.1403 58.7528C83.1403 58.0767 83.2681 57.4844 83.5238 56.9759C83.7823 56.4673 84.146 56.0724 84.6147 55.7912C85.0835 55.5099 85.6374 55.3693 86.2766 55.3693C86.9158 55.3693 87.4698 55.5099 87.9386 55.7912C88.4073 56.0724 88.7695 56.4673 89.0252 56.9759C89.2837 57.4844 89.413 58.0767 89.413 58.7528C89.413 59.429 89.2837 60.0199 89.0252 60.5256C88.7695 61.0312 88.4073 61.4247 87.9386 61.706C87.4698 61.9872 86.9158 62.1278 86.2766 62.1278ZM86.2852 60.892C86.6317 60.892 86.9215 60.7969 87.1545 60.6065C87.3874 60.4134 87.5607 60.1548 87.6744 59.831C87.7908 59.5071 87.8491 59.1463 87.8491 58.7486C87.8491 58.348 87.7908 57.9858 87.6744 57.6619C87.5607 57.3352 87.3874 57.0753 87.1545 56.8821C86.9215 56.6889 86.6317 56.5923 86.2852 56.5923C85.93 56.5923 85.6346 56.6889 85.3988 56.8821C85.1658 57.0753 84.9911 57.3352 84.8746 57.6619C84.761 57.9858 84.7042 58.348 84.7042 58.7486C84.7042 59.1463 84.761 59.5071 84.8746 59.831C84.9911 60.1548 85.1658 60.4134 85.3988 60.6065C85.6346 60.7969 85.93 60.892 86.2852 60.892ZM93.5689 64.5909C93.0149 64.5909 92.5391 64.5156 92.1413 64.3651C91.7436 64.2173 91.424 64.0185 91.1825 63.7685C90.9411 63.5185 90.7734 63.2415 90.6797 62.9375L92.0689 62.6009C92.1314 62.7287 92.2223 62.8551 92.3416 62.9801C92.4609 63.108 92.6214 63.2131 92.8232 63.2955C93.0277 63.3807 93.2848 63.4233 93.5945 63.4233C94.032 63.4233 94.3942 63.3168 94.6811 63.1037C94.968 62.8935 95.1115 62.5469 95.1115 62.0639V60.8239H95.0348C94.9553 60.983 94.8388 61.1463 94.6854 61.3139C94.5348 61.4815 94.3345 61.6222 94.0845 61.7358C93.8374 61.8494 93.5263 61.9062 93.1513 61.9062C92.6484 61.9062 92.1925 61.7884 91.7834 61.5526C91.3771 61.3139 91.0533 60.9588 90.8118 60.4872C90.5732 60.0128 90.4538 59.419 90.4538 58.706C90.4538 57.9872 90.5732 57.3807 90.8118 56.8864C91.0533 56.3892 91.3786 56.0128 91.7876 55.7571C92.1967 55.4986 92.6527 55.3693 93.1555 55.3693C93.5391 55.3693 93.8544 55.4347 94.1016 55.5653C94.3516 55.6932 94.5504 55.848 94.6982 56.0298C94.8459 56.2088 94.9581 56.3778 95.0348 56.5369H95.12V55.4545H96.6413V62.1065C96.6413 62.6662 96.5078 63.1293 96.2408 63.4957C95.9737 63.8622 95.6087 64.1364 95.1456 64.3182C94.6825 64.5 94.157 64.5909 93.5689 64.5909ZM93.5817 60.696C93.9084 60.696 94.1868 60.6165 94.4169 60.4574C94.647 60.2983 94.8217 60.0696 94.9411 59.7713C95.0604 59.473 95.12 59.1151 95.12 58.6974C95.12 58.2855 95.0604 57.9247 94.9411 57.6151C94.8246 57.3054 94.6513 57.0653 94.4212 56.8949C94.1939 56.7216 93.9141 56.6349 93.5817 56.6349C93.2379 56.6349 92.951 56.7244 92.7209 56.9034C92.4908 57.0824 92.3175 57.3281 92.201 57.6406C92.0845 57.9503 92.0263 58.3026 92.0263 58.6974C92.0263 59.098 92.0845 59.4489 92.201 59.75C92.3203 60.0483 92.495 60.2812 92.7251 60.4489C92.9581 60.6136 93.2436 60.696 93.5817 60.696ZM98.2223 62V55.4545H99.7649V62H98.2223ZM98.9979 54.5256C98.7536 54.5256 98.5433 54.4446 98.3672 54.2827C98.1911 54.1179 98.103 53.9205 98.103 53.6903C98.103 53.4574 98.1911 53.2599 98.3672 53.098C98.5433 52.9332 98.7536 52.8509 98.9979 52.8509C99.245 52.8509 99.4553 52.9332 99.6286 53.098C99.8047 53.2599 99.8928 53.4574 99.8928 53.6903C99.8928 53.9205 99.8047 54.1179 99.6286 54.2827C99.4553 54.4446 99.245 54.5256 98.9979 54.5256ZM104.249 62.1278C103.593 62.1278 103.026 61.9915 102.549 61.7188C102.074 61.4432 101.709 61.054 101.453 60.5511C101.198 60.0455 101.07 59.4503 101.07 58.7656C101.07 58.0923 101.198 57.5014 101.453 56.9929C101.712 56.4815 102.073 56.0838 102.536 55.7997C102.999 55.5128 103.543 55.3693 104.168 55.3693C104.571 55.3693 104.952 55.4347 105.31 55.5653C105.671 55.6932 105.989 55.892 106.265 56.1619C106.543 56.4318 106.762 56.7756 106.921 57.1932C107.08 57.608 107.159 58.1023 107.159 58.6761V59.1491H101.794V58.1094H105.681C105.678 57.8139 105.614 57.5511 105.489 57.321C105.364 57.0881 105.189 56.9048 104.965 56.7713C104.743 56.6378 104.485 56.571 104.189 56.571C103.874 56.571 103.597 56.6477 103.358 56.8011C103.12 56.9517 102.934 57.1506 102.8 57.3977C102.669 57.642 102.603 57.9105 102.6 58.2031V59.1108C102.6 59.4915 102.669 59.8182 102.809 60.0909C102.948 60.3608 103.142 60.5682 103.392 60.7131C103.642 60.8551 103.935 60.9261 104.27 60.9261C104.495 60.9261 104.698 60.8949 104.88 60.8324C105.061 60.767 105.219 60.6719 105.353 60.5469C105.486 60.4219 105.587 60.267 105.655 60.0824L107.096 60.2443C107.005 60.625 106.831 60.9574 106.576 61.2415C106.323 61.5227 105.999 61.7415 105.604 61.8977C105.209 62.0511 104.757 62.1278 104.249 62.1278ZM113.638 57.1847L112.232 57.3381C112.192 57.196 112.122 57.0625 112.023 56.9375C111.926 56.8125 111.795 56.7116 111.631 56.6349C111.466 56.5582 111.264 56.5199 111.026 56.5199C110.705 56.5199 110.435 56.5895 110.216 56.7287C110 56.8679 109.893 57.0483 109.896 57.2699C109.893 57.4602 109.963 57.6151 110.105 57.7344C110.25 57.8537 110.489 57.9517 110.821 58.0284L111.938 58.267C112.557 58.4006 113.017 58.6122 113.318 58.902C113.622 59.1918 113.776 59.571 113.778 60.0398C113.776 60.4517 113.655 60.8153 113.416 61.1307C113.18 61.4432 112.852 61.6875 112.432 61.8636C112.011 62.0398 111.528 62.1278 110.983 62.1278C110.182 62.1278 109.537 61.9602 109.048 61.625C108.56 61.2869 108.268 60.8168 108.175 60.2145L109.679 60.0696C109.747 60.3651 109.892 60.5881 110.114 60.7386C110.335 60.8892 110.624 60.9645 110.979 60.9645C111.345 60.9645 111.639 60.8892 111.861 60.7386C112.085 60.5881 112.197 60.402 112.197 60.1804C112.197 59.9929 112.125 59.8381 111.98 59.7159C111.838 59.5937 111.616 59.5 111.315 59.4347L110.199 59.2003C109.571 59.0696 109.107 58.8494 108.805 58.5398C108.504 58.2273 108.355 57.8324 108.358 57.3551C108.355 56.9517 108.464 56.6023 108.686 56.3068C108.911 56.0085 109.222 55.7784 109.619 55.6165C110.02 55.4517 110.482 55.3693 111.004 55.3693C111.771 55.3693 112.375 55.5327 112.815 55.8594C113.259 56.1861 113.533 56.6278 113.638 57.1847Z" fill="black"/>
</svg>
