<svg width="24" height="24" viewBox="0 0 24 24" fill="none" xmlns="http://www.w3.org/2000/svg">
<rect x="0.5" y="0.5" width="23" height="23" rx="11.5" stroke="white"/>
<path d="M12 7.0815C13.602 7.0815 13.792 7.0875 14.425 7.1165C16.051 7.1905 16.8105 7.962 16.8845 9.576C16.9135 10.2085 16.919 10.3985 16.919 12.0005C16.919 13.603 16.913 13.7925 16.8845 14.425C16.81 16.0375 16.0525 16.8105 14.425 16.8845C13.792 16.9135 13.603 16.9195 12 16.9195C10.398 16.9195 10.208 16.9135 9.5755 16.8845C7.9455 16.81 7.19 16.035 7.116 14.4245C7.087 13.792 7.081 13.6025 7.081 12C7.081 10.398 7.0875 10.2085 7.116 9.5755C7.1905 7.962 7.948 7.19 9.5755 7.116C10.2085 7.0875 10.398 7.0815 12 7.0815ZM12 6C10.3705 6 10.1665 6.007 9.5265 6.036C7.3475 6.136 6.1365 7.345 6.0365 9.526C6.007 10.1665 6 10.3705 6 12C6 13.6295 6.007 13.834 6.036 14.474C6.136 16.653 7.345 17.864 9.526 17.964C10.1665 17.993 10.3705 18 12 18C13.6295 18 13.834 17.993 14.474 17.964C16.651 17.864 17.865 16.655 17.9635 14.474C17.993 13.834 18 13.6295 18 12C18 10.3705 17.993 10.1665 17.964 9.5265C17.866 7.3495 16.6555 6.1365 14.4745 6.0365C13.834 6.007 13.6295 6 12 6ZM12 8.919C10.2985 8.919 8.919 10.2985 8.919 12C8.919 13.7015 10.2985 15.0815 12 15.0815C13.7015 15.0815 15.081 13.702 15.081 12C15.081 10.2985 13.7015 8.919 12 8.919ZM12 14C10.8955 14 10 13.105 10 12C10 10.8955 10.8955 10 12 10C13.1045 10 14 10.8955 14 12C14 13.105 13.1045 14 12 14ZM15.203 8.0775C14.805 8.0775 14.4825 8.4 14.4825 8.7975C14.4825 9.195 14.805 9.5175 15.203 9.5175C15.6005 9.5175 15.9225 9.195 15.9225 8.7975C15.9225 8.4 15.6005 8.0775 15.203 8.0775Z" fill="white"/>
</svg>
