<svg width="24" height="24" viewBox="0 0 24 24" fill="none" xmlns="http://www.w3.org/2000/svg">
<g clip-path="url(#clip0_1743_2145)">
<path d="M14.7884 21.5237C15.7669 22.1548 16.9328 22.43 18.0902 22.3027C19.2476 22.1754 20.3259 21.6535 21.1437 20.8246L21.8587 20.1255C22.1722 19.8048 22.3477 19.3743 22.3477 18.926C22.3477 18.4776 22.1722 18.0469 21.8587 17.7264L18.8241 14.7235C18.5061 14.4111 18.0782 14.236 17.6324 14.236C17.1867 14.236 16.7587 14.4111 16.4408 14.7235C16.1202 15.037 15.6896 15.2125 15.2413 15.2125C14.7929 15.2125 14.3623 15.037 14.0417 14.7235L9.27524 9.95706C9.11623 9.80036 8.98996 9.61362 8.90378 9.40769C8.81759 9.20176 8.7732 8.98074 8.7732 8.7575C8.7732 8.53425 8.81759 8.31325 8.90378 8.10731C8.98996 7.90138 9.11623 7.71464 9.27524 7.55794C9.58768 7.24002 9.76275 6.81208 9.76275 6.36633C9.76275 5.92056 9.58768 5.49264 9.27524 5.17471L6.25651 2.15595C5.93585 1.8425 5.50533 1.66699 5.05699 1.66699C4.60848 1.66699 4.17796 1.8425 3.85731 2.15595L3.1582 2.87092C2.32949 3.68874 1.80758 4.76702 1.68021 5.92441C1.55284 7.08182 1.82796 8.24776 2.45925 9.2262C5.74814 14.0733 9.93291 18.2472 14.7884 21.5237Z" stroke="white" stroke-width="3" stroke-linecap="round" stroke-linejoin="round"/>
</g>
<defs>
<clipPath id="clip0_1743_2145">
<rect width="24" height="24" fill="white" transform="matrix(-1 0 0 1 24 0)"/>
</clipPath>
</defs>
</svg>
