<svg width="12" height="12" viewBox="0 0 12 12" fill="none" xmlns="http://www.w3.org/2000/svg">
<g clip-path="url(#clip0_1840_1183)">
<path d="M7.39618 10.7623C7.8854 11.0779 8.46837 11.2155 9.04707 11.1519C9.62577 11.0882 10.1649 10.8272 10.5738 10.4128L10.9313 10.0632C11.088 9.9029 11.1758 9.68764 11.1758 9.46347C11.1758 9.2393 11.088 9.02396 10.9313 8.86371L9.41398 7.36225C9.25501 7.20603 9.04105 7.11849 8.81817 7.11849C8.59529 7.11849 8.38132 7.20603 8.22236 7.36225C8.06206 7.51898 7.84677 7.60673 7.62258 7.60673C7.39839 7.60673 7.18311 7.51898 7.0228 7.36225L4.63957 4.97902C4.56007 4.90067 4.49693 4.8073 4.45384 4.70433C4.41075 4.60137 4.38856 4.49086 4.38856 4.37924C4.38856 4.26762 4.41075 4.15711 4.45384 4.05414C4.49693 3.95118 4.56007 3.85781 4.63957 3.77946C4.79579 3.6205 4.88333 3.40653 4.88333 3.18365C4.88333 2.96077 4.79579 2.74681 4.63957 2.58784L3.13021 1.07846C2.96988 0.921736 2.75462 0.833984 2.53045 0.833984C2.30619 0.833984 2.09093 0.921736 1.93061 1.07846L1.58105 1.43595C1.1667 1.84486 0.905744 2.384 0.842058 2.9627C0.778372 3.5414 0.915934 4.12437 1.23158 4.61359C2.87602 7.03712 4.96841 9.12411 7.39618 10.7623Z" stroke="#1C3F3A" stroke-linecap="round" stroke-linejoin="round"/>
</g>
<defs>
<clipPath id="clip0_1840_1183">
<rect width="12" height="12" fill="white" transform="matrix(-1 0 0 1 12 0)"/>
</clipPath>
</defs>
</svg>
