<svg width="16" height="16" viewBox="0 0 16 16" fill="none" xmlns="http://www.w3.org/2000/svg">
<g clip-path="url(#clip0_1136_1089)">
<path d="M9.85897 14.3491C10.5113 14.7699 11.2886 14.9533 12.0602 14.8685C12.8318 14.7836 13.5506 14.4356 14.0958 13.8831L14.5725 13.417C14.7814 13.2032 14.8984 12.9162 14.8984 12.6173C14.8984 12.3184 14.7814 12.0313 14.5725 11.8176L12.5494 9.81568C12.3374 9.60738 12.0521 9.49067 11.755 9.49067C11.4578 9.49067 11.1725 9.60738 10.9605 9.81568C10.7468 10.0247 10.4598 10.1417 10.1608 10.1417C9.86192 10.1417 9.57487 10.0247 9.36113 9.81568L6.18349 6.63804C6.07749 6.53357 5.99331 6.40908 5.93585 6.27179C5.8784 6.13451 5.8488 5.98716 5.8488 5.83834C5.8488 5.6895 5.8784 5.54217 5.93585 5.40487C5.99331 5.26759 6.07749 5.14309 6.18349 5.03862C6.39179 4.82668 6.5085 4.54139 6.5085 4.24422C6.5085 3.94704 6.39179 3.66176 6.18349 3.4498L4.171 1.4373C3.95723 1.22833 3.67022 1.11133 3.37132 1.11133C3.07232 1.11133 2.78531 1.22833 2.57154 1.4373L2.10546 1.91395C1.55299 2.45916 1.20505 3.17801 1.12014 3.94961C1.03523 4.72122 1.21864 5.49851 1.6395 6.1508C3.83209 9.38218 6.62194 12.1648 9.85897 14.3491Z" stroke="black" stroke-linecap="round" stroke-linejoin="round"/>
</g>
<defs>
<clipPath id="clip0_1136_1089">
<rect width="16" height="16" fill="white" transform="matrix(-1 0 0 1 16 0)"/>
</clipPath>
</defs>
</svg>
