<svg width="65" height="13" viewBox="0 0 65 13" fill="none" xmlns="http://www.w3.org/2000/svg">
<path d="M6.5 0.84668L7.84708 4.99258H12.2063L8.67963 7.55488L10.0267 11.7008L6.5 9.13848L2.97329 11.7008L4.32037 7.55488L0.793661 4.99258H5.15292L6.5 0.84668Z" fill="#FEC801"/>
<path d="M19.5 0.84668L20.8471 4.99258H25.2063L21.6796 7.55488L23.0267 11.7008L19.5 9.13848L15.9733 11.7008L17.3204 7.55488L13.7937 4.99258H18.1529L19.5 0.84668Z" fill="#FEC801"/>
<path d="M32.5 0.84668L33.8471 4.99258H38.2063L34.6796 7.55488L36.0267 11.7008L32.5 9.13848L28.9733 11.7008L30.3204 7.55488L26.7937 4.99258H31.1529L32.5 0.84668Z" fill="#FEC801"/>
<path d="M45.5 0.84668L46.8471 4.99258H51.2063L47.6796 7.55488L49.0267 11.7008L45.5 9.13848L41.9733 11.7008L43.3204 7.55488L39.7937 4.99258H44.1529L45.5 0.84668Z" fill="#FEC801"/>
<path d="M58.5 0.84668L59.8471 4.99258H64.2063L60.6796 7.55488L62.0267 11.7008L58.5 9.13848L54.9733 11.7008L56.3204 7.55488L52.7937 4.99258H57.1529L58.5 0.84668Z" fill="#FEC801"/>
</svg>
