<svg width="30" height="30" viewBox="0 0 30 30" fill="none" xmlns="http://www.w3.org/2000/svg">
<rect x="0.5" y="0.5" width="29" height="29" rx="3.5" stroke="black"/>
<path d="M22.5568 6H7.37973C6.61773 6 6 6.61773 6 7.37973V22.5568C6 23.3188 6.61773 23.9365 7.37973 23.9365H22.5568C23.3188 23.9365 23.9365 23.3188 23.9365 22.5568V7.37973C23.9365 6.61773 23.3188 6 22.5568 6Z" stroke="black" stroke-linecap="round" stroke-linejoin="round"/>
<path d="M10.8285 19.7967C11.2095 19.7967 11.5184 19.4878 11.5184 19.1069C11.5184 18.7259 11.2095 18.417 10.8285 18.417C10.4475 18.417 10.1387 18.7259 10.1387 19.1069C10.1387 19.4878 10.4475 19.7967 10.8285 19.7967Z" stroke="black" stroke-linecap="round" stroke-linejoin="round"/>
<path d="M11.5195 14.2783C12.6173 14.2783 13.6701 14.7144 14.4464 15.4907C15.2226 16.2669 15.6587 17.3197 15.6587 18.4175" stroke="black" stroke-linecap="round" stroke-linejoin="round"/>
<path d="M11.5195 10.1396C13.7151 10.1396 15.8207 11.0118 17.3732 12.5643C18.9257 14.1168 19.7979 16.2225 19.7979 18.418" stroke="black" stroke-linecap="round" stroke-linejoin="round"/>
</svg>
