<svg width="30" height="30" viewBox="0 0 30 30" fill="none" xmlns="http://www.w3.org/2000/svg">
<path d="M15.7043 27.7046C15.247 27.881 14.7405 27.881 14.2832 27.7046C10.7151 26.3346 7.64649 23.9147 5.48271 20.7641C3.3189 17.6136 2.16175 13.8808 2.16407 10.0588V4.13738C2.16407 3.6139 2.37202 3.11184 2.74218 2.74169C3.11234 2.37153 3.61439 2.16357 4.13786 2.16357H25.8497C26.3731 2.16357 26.8752 2.37153 27.2454 2.74169C27.6156 3.11184 27.8235 3.6139 27.8235 4.13738V10.0588C27.8257 13.8808 26.6686 17.6136 24.5049 20.7641C22.341 23.9147 19.2724 26.3346 15.7043 27.7046Z" stroke="black" stroke-width="1.71" stroke-linecap="round" stroke-linejoin="round"/>
<path d="M20.9704 9.02979L13.0097 17.9856L9.0293 15.0003" stroke="black" stroke-width="1.71" stroke-linecap="round" stroke-linejoin="round"/>
</svg>
