<svg width="17" height="17" viewBox="0 0 17 17" fill="none" xmlns="http://www.w3.org/2000/svg">
<path d="M2.5 4.5H3.83333H14.5" stroke="#E60101" stroke-width="1.5" stroke-linecap="round" stroke-linejoin="round"/>
<path d="M5.83398 4.50016V3.16683C5.83398 2.81321 5.97446 2.47407 6.22451 2.22402C6.47456 1.97397 6.8137 1.8335 7.16732 1.8335H9.83398C10.1876 1.8335 10.5267 1.97397 10.7768 2.22402C11.0268 2.47407 11.1673 2.81321 11.1673 3.16683V4.50016M13.1673 4.50016V13.8335C13.1673 14.1871 13.0268 14.5263 12.7768 14.7763C12.5267 15.0264 12.1876 15.1668 11.834 15.1668H5.16732C4.8137 15.1668 4.47456 15.0264 4.22451 14.7763C3.97446 14.5263 3.83398 14.1871 3.83398 13.8335V4.50016H13.1673Z" stroke="#E60101" stroke-width="1.5" stroke-linecap="round" stroke-linejoin="round"/>
<path d="M7.16602 7.8335V11.8335" stroke="#E60101" stroke-width="1.5" stroke-linecap="round" stroke-linejoin="round"/>
<path d="M9.83398 7.8335V11.8335" stroke="#E60101" stroke-width="1.5" stroke-linecap="round" stroke-linejoin="round"/>
</svg>
