<svg width="16" height="17" viewBox="0 0 16 17" fill="none" xmlns="http://www.w3.org/2000/svg">
<path d="M2 4.5H3.33333H14" stroke="#1F2223" stroke-width="1.5" stroke-linecap="round" stroke-linejoin="round"/>
<path d="M5.33398 4.50016V3.16683C5.33398 2.81321 5.47446 2.47407 5.72451 2.22402C5.97456 1.97397 6.3137 1.8335 6.66732 1.8335H9.33398C9.68761 1.8335 10.0267 1.97397 10.2768 2.22402C10.5268 2.47407 10.6673 2.81321 10.6673 3.16683V4.50016M12.6673 4.50016V13.8335C12.6673 14.1871 12.5268 14.5263 12.2768 14.7763C12.0267 15.0264 11.6876 15.1668 11.334 15.1668H4.66732C4.3137 15.1668 3.97456 15.0264 3.72451 14.7763C3.47446 14.5263 3.33398 14.1871 3.33398 13.8335V4.50016H12.6673Z" stroke="#1F2223" stroke-width="1.5" stroke-linecap="round" stroke-linejoin="round"/>
<path d="M6.66602 7.8335V11.8335" stroke="#1F2223" stroke-width="1.5" stroke-linecap="round" stroke-linejoin="round"/>
<path d="M9.33398 7.8335V11.8335" stroke="#1F2223" stroke-width="1.5" stroke-linecap="round" stroke-linejoin="round"/>
</svg>
