<svg width="24" height="24" viewBox="0 0 24 24" fill="none" xmlns="http://www.w3.org/2000/svg">
<rect x="0.5" y="0.5" width="23" height="23" rx="11.5" stroke="white"/>
<path d="M8.77593 14.643C7.98209 15.261 7.07092 15.7144 6.09666 15.9764C5.98934 16.0149 5.89663 16.0853 5.83111 16.178C5.76559 16.2706 5.73043 16.3811 5.73043 16.4942C5.73043 16.6074 5.76559 16.7177 5.83111 16.8105C5.89663 16.9031 5.98934 16.9736 6.09666 17.0121C13.7898 20.1415 18.6815 15.3042 17.9365 9.93783L19.1818 7.38139H17.7365C15.9355 5.18858 11.155 5.29877 11.9444 9.97089C11.9444 9.97089 9.38738 10.4227 6.11889 7.23814C6.04329 7.16416 5.94787 7.1132 5.84395 7.0913C5.74002 7.0694 5.63194 7.07748 5.53251 7.11459C5.43308 7.15169 5.34646 7.21625 5.2829 7.30065C5.21935 7.38504 5.18153 7.48572 5.17392 7.59075C4.82832 8.99883 5.00127 10.483 5.66163 11.7759C6.322 13.0688 7.42639 14.0855 8.77593 14.643Z" stroke="white" stroke-width="1.25" stroke-linecap="round" stroke-linejoin="round"/>
</svg>
