<svg width="411" height="26" viewBox="0 0 411 26" fill="none" xmlns="http://www.w3.org/2000/svg">
<path d="M14.3977 1.72727H19.3182V16.8409C19.3182 18.5379 18.9129 20.0227 18.1023 21.2955C17.2992 22.5682 16.1742 23.5606 14.7273 24.2727C13.2803 24.9773 11.5947 25.3295 9.67045 25.3295C7.73864 25.3295 6.04924 24.9773 4.60227 24.2727C3.1553 23.5606 2.0303 22.5682 1.22727 21.2955C0.424242 20.0227 0.0227273 18.5379 0.0227273 16.8409V1.72727H4.94318V16.4205C4.94318 17.3068 5.13636 18.0947 5.52273 18.7841C5.91667 19.4735 6.4697 20.0152 7.18182 20.4091C7.89394 20.803 8.72348 21 9.67045 21C10.625 21 11.4545 20.803 12.1591 20.4091C12.8712 20.0152 13.4205 19.4735 13.8068 18.7841C14.2008 18.0947 14.3977 17.3068 14.3977 16.4205V1.72727ZM28.1165 14.9091V25H23.2756V7.54545H27.8892V10.625H28.0938C28.4801 9.60985 29.1278 8.80682 30.0369 8.21591C30.946 7.61742 32.0483 7.31818 33.3438 7.31818C34.5559 7.31818 35.6127 7.58333 36.5142 8.11364C37.4157 8.64394 38.1165 9.40151 38.6165 10.3864C39.1165 11.3636 39.3665 12.5303 39.3665 13.8864V25H34.5256V14.75C34.5331 13.6818 34.2604 12.8485 33.7074 12.25C33.1544 11.6439 32.393 11.3409 31.4233 11.3409C30.7718 11.3409 30.196 11.4811 29.696 11.7614C29.2036 12.0417 28.8172 12.4508 28.5369 12.9886C28.2642 13.5189 28.1241 14.1591 28.1165 14.9091ZM48.0227 1.72727V25H43.1818V1.72727H48.0227ZM51.9006 25V7.54545H56.7415V25H51.9006ZM54.3324 5.29545C53.6127 5.29545 52.9953 5.05682 52.4801 4.57954C51.9725 4.0947 51.7188 3.51515 51.7188 2.84091C51.7188 2.17424 51.9725 1.60227 52.4801 1.125C52.9953 0.640151 53.6127 0.397726 54.3324 0.397726C55.0521 0.397726 55.6657 0.640151 56.1733 1.125C56.6884 1.60227 56.946 2.17424 56.946 2.84091C56.946 3.51515 56.6884 4.0947 56.1733 4.57954C55.6657 5.05682 55.0521 5.29545 54.3324 5.29545ZM60.6193 25V7.54545H65.233V10.625H65.4375C65.8011 9.60227 66.4072 8.79545 67.2557 8.20454C68.1042 7.61364 69.1193 7.31818 70.3011 7.31818C71.4981 7.31818 72.517 7.61742 73.358 8.21591C74.1989 8.80682 74.7595 9.60985 75.0398 10.625H75.2216C75.5777 9.625 76.2216 8.82576 77.1534 8.22727C78.0928 7.62121 79.2027 7.31818 80.483 7.31818C82.1117 7.31818 83.4337 7.83712 84.4489 8.875C85.4716 9.9053 85.983 11.3674 85.983 13.2614V25H81.1534V14.2159C81.1534 13.2462 80.8958 12.5189 80.3807 12.0341C79.8655 11.5492 79.2216 11.3068 78.4489 11.3068C77.5701 11.3068 76.8845 11.5871 76.392 12.1477C75.8996 12.7008 75.6534 13.4318 75.6534 14.3409V25H70.9602V14.1136C70.9602 13.2576 70.714 12.5758 70.2216 12.0682C69.7367 11.5606 69.0966 11.3068 68.3011 11.3068C67.7633 11.3068 67.2784 11.4432 66.8466 11.7159C66.4223 11.9811 66.0852 12.3561 65.8352 12.8409C65.5852 13.3182 65.4602 13.8788 65.4602 14.5227V25H60.6193ZM89.8068 25V7.54545H94.6477V25H89.8068ZM92.2386 5.29545C91.5189 5.29545 90.9015 5.05682 90.3864 4.57954C89.8788 4.0947 89.625 3.51515 89.625 2.84091C89.625 2.17424 89.8788 1.60227 90.3864 1.125C90.9015 0.640151 91.5189 0.397726 92.2386 0.397726C92.9583 0.397726 93.572 0.640151 94.0795 1.125C94.5947 1.60227 94.8523 2.17424 94.8523 2.84091C94.8523 3.51515 94.5947 4.0947 94.0795 4.57954C93.572 5.05682 92.9583 5.29545 92.2386 5.29545ZM107.81 7.54545V11.1818H97.2983V7.54545H107.81ZM99.6847 3.36364H104.526V19.6364C104.526 20.0833 104.594 20.4318 104.73 20.6818C104.866 20.9242 105.056 21.0947 105.298 21.1932C105.548 21.2917 105.836 21.3409 106.162 21.3409C106.389 21.3409 106.616 21.322 106.844 21.2841C107.071 21.2386 107.245 21.2045 107.366 21.1818L108.128 24.7841C107.885 24.8598 107.545 24.947 107.105 25.0455C106.666 25.1515 106.132 25.2159 105.503 25.2386C104.336 25.2841 103.313 25.1288 102.435 24.7727C101.563 24.4167 100.885 23.8636 100.401 23.1136C99.9157 22.3636 99.6771 21.4167 99.6847 20.2727V3.36364ZM118.73 25.3409C116.935 25.3409 115.389 24.9773 114.094 24.25C112.806 23.5152 111.813 22.4773 111.116 21.1364C110.42 19.7879 110.071 18.1932 110.071 16.3523C110.071 14.5568 110.42 12.9811 111.116 11.625C111.813 10.2689 112.795 9.21212 114.06 8.45454C115.332 7.69697 116.825 7.31818 118.537 7.31818C119.688 7.31818 120.76 7.50379 121.753 7.875C122.753 8.23864 123.624 8.78788 124.366 9.52273C125.116 10.2576 125.7 11.1818 126.116 12.2955C126.533 13.4015 126.741 14.697 126.741 16.1818V17.5114H112.003V14.5114H122.185C122.185 13.8144 122.033 13.197 121.73 12.6591C121.427 12.1212 121.007 11.7008 120.469 11.3977C119.938 11.0871 119.321 10.9318 118.616 10.9318C117.882 10.9318 117.23 11.1023 116.662 11.4432C116.101 11.7765 115.662 12.2273 115.344 12.7955C115.026 13.3561 114.863 13.9811 114.855 14.6705V17.5227C114.855 18.3864 115.014 19.1326 115.332 19.7614C115.658 20.3902 116.116 20.875 116.707 21.2159C117.298 21.5568 117.999 21.7273 118.81 21.7273C119.348 21.7273 119.84 21.6515 120.287 21.5C120.734 21.3485 121.116 21.1212 121.435 20.8182C121.753 20.5152 121.995 20.1439 122.162 19.7045L126.639 20C126.412 21.0758 125.946 22.0152 125.241 22.8182C124.545 23.6136 123.643 24.2348 122.537 24.6818C121.438 25.1212 120.17 25.3409 118.73 25.3409ZM136.332 25.2841C135.007 25.2841 133.806 24.9432 132.73 24.2614C131.662 23.572 130.813 22.5606 130.185 21.2273C129.563 19.8864 129.253 18.2424 129.253 16.2955C129.253 14.2955 129.575 12.6326 130.219 11.3068C130.863 9.97348 131.719 8.97727 132.787 8.31818C133.863 7.65152 135.041 7.31818 136.321 7.31818C137.298 7.31818 138.113 7.48485 138.764 7.81818C139.423 8.14394 139.954 8.55303 140.355 9.04545C140.764 9.5303 141.075 10.0076 141.287 10.4773H141.435V1.72727H146.264V25H141.491V22.2045H141.287C141.06 22.6894 140.738 23.1705 140.321 23.6477C139.912 24.1174 139.378 24.5076 138.719 24.8182C138.067 25.1288 137.272 25.2841 136.332 25.2841ZM137.866 21.4318C138.647 21.4318 139.306 21.2197 139.844 20.7955C140.389 20.3636 140.806 19.7614 141.094 18.9886C141.389 18.2159 141.537 17.3106 141.537 16.2727C141.537 15.2348 141.393 14.3333 141.105 13.5682C140.817 12.803 140.401 12.2121 139.855 11.7955C139.31 11.3788 138.647 11.1705 137.866 11.1705C137.071 11.1705 136.401 11.3864 135.855 11.8182C135.31 12.25 134.897 12.8485 134.616 13.6136C134.336 14.3788 134.196 15.2652 134.196 16.2727C134.196 17.2879 134.336 18.1856 134.616 18.9659C134.904 19.7386 135.317 20.3447 135.855 20.7841C136.401 21.2159 137.071 21.4318 137.866 21.4318ZM162.96 8.42045C162.869 7.50379 162.479 6.79167 161.79 6.28409C161.1 5.77651 160.165 5.52273 158.983 5.52273C158.18 5.52273 157.502 5.63636 156.949 5.86364C156.396 6.08333 155.972 6.39015 155.676 6.78409C155.388 7.17803 155.244 7.625 155.244 8.125C155.229 8.54167 155.316 8.9053 155.506 9.21591C155.703 9.52652 155.972 9.79545 156.312 10.0227C156.653 10.2424 157.047 10.4356 157.494 10.6023C157.941 10.7614 158.419 10.8977 158.926 11.0114L161.017 11.5114C162.032 11.7386 162.964 12.0417 163.812 12.4205C164.661 12.7992 165.396 13.2652 166.017 13.8182C166.638 14.3712 167.119 15.0227 167.46 15.7727C167.809 16.5227 167.987 17.3826 167.994 18.3523C167.987 19.7765 167.623 21.0114 166.903 22.0568C166.191 23.0947 165.161 23.9015 163.812 24.4773C162.472 25.0455 160.854 25.3295 158.96 25.3295C157.081 25.3295 155.445 25.0417 154.051 24.4659C152.665 23.8902 151.581 23.0379 150.801 21.9091C150.028 20.7727 149.623 19.3674 149.585 17.6932H154.347C154.4 18.4735 154.623 19.125 155.017 19.6477C155.419 20.1629 155.953 20.553 156.619 20.8182C157.294 21.0758 158.055 21.2045 158.903 21.2045C159.737 21.2045 160.46 21.0833 161.074 20.8409C161.695 20.5985 162.176 20.2614 162.517 19.8295C162.858 19.3977 163.028 18.9015 163.028 18.3409C163.028 17.8182 162.873 17.3788 162.562 17.0227C162.259 16.6667 161.813 16.3636 161.222 16.1136C160.638 15.8636 159.922 15.6364 159.074 15.4318L156.54 14.7955C154.578 14.3182 153.028 13.572 151.892 12.5568C150.756 11.5417 150.191 10.1742 150.199 8.45454C150.191 7.04545 150.566 5.81439 151.324 4.76136C152.089 3.70833 153.138 2.88636 154.472 2.29545C155.805 1.70454 157.32 1.40909 159.017 1.40909C160.744 1.40909 162.252 1.70454 163.54 2.29545C164.835 2.88636 165.843 3.70833 166.562 4.76136C167.282 5.81439 167.653 7.03409 167.676 8.42045H162.96ZM180.599 7.54545V11.1818H169.827V7.54545H180.599ZM172.293 25V6.28409C172.293 5.01894 172.539 3.9697 173.031 3.13636C173.531 2.30303 174.213 1.67803 175.077 1.26136C175.94 0.844695 176.921 0.636362 178.02 0.636362C178.762 0.636362 179.44 0.693181 180.054 0.806818C180.675 0.920454 181.137 1.02273 181.44 1.11364L180.577 4.75C180.387 4.68939 180.152 4.63257 179.872 4.57954C179.599 4.52651 179.319 4.5 179.031 4.5C178.319 4.5 177.823 4.66667 177.543 5C177.262 5.32576 177.122 5.78409 177.122 6.375V25H172.293ZM194.75 17.5682V7.54545H199.591V25H194.943V21.8295H194.761C194.367 22.8523 193.712 23.6742 192.795 24.2955C191.886 24.9167 190.777 25.2273 189.466 25.2273C188.299 25.2273 187.273 24.9621 186.386 24.4318C185.5 23.9015 184.807 23.1477 184.307 22.1705C183.814 21.1932 183.564 20.0227 183.557 18.6591V7.54545H188.398V17.7955C188.405 18.8258 188.682 19.6402 189.227 20.2386C189.773 20.8371 190.504 21.1364 191.42 21.1364C192.004 21.1364 192.549 21.0038 193.057 20.7386C193.564 20.4659 193.973 20.0644 194.284 19.5341C194.602 19.0038 194.758 18.3485 194.75 17.5682ZM208.304 14.9091V25H203.463V7.54545H208.077V10.625H208.281C208.668 9.60985 209.315 8.80682 210.224 8.21591C211.134 7.61742 212.236 7.31818 213.531 7.31818C214.743 7.31818 215.8 7.58333 216.702 8.11364C217.603 8.64394 218.304 9.40151 218.804 10.3864C219.304 11.3636 219.554 12.5303 219.554 13.8864V25H214.713V14.75C214.721 13.6818 214.448 12.8485 213.895 12.25C213.342 11.6439 212.58 11.3409 211.611 11.3409C210.959 11.3409 210.384 11.4811 209.884 11.7614C209.391 12.0417 209.005 12.4508 208.724 12.9886C208.452 13.5189 208.312 14.1591 208.304 14.9091ZM229.801 25.2841C228.475 25.2841 227.275 24.9432 226.199 24.2614C225.131 23.572 224.282 22.5606 223.653 21.2273C223.032 19.8864 222.722 18.2424 222.722 16.2955C222.722 14.2955 223.044 12.6326 223.688 11.3068C224.331 9.97348 225.188 8.97727 226.256 8.31818C227.331 7.65152 228.509 7.31818 229.79 7.31818C230.767 7.31818 231.581 7.48485 232.233 7.81818C232.892 8.14394 233.422 8.55303 233.824 9.04545C234.233 9.5303 234.544 10.0076 234.756 10.4773H234.903V1.72727H239.733V25H234.96V22.2045H234.756C234.528 22.6894 234.206 23.1705 233.79 23.6477C233.381 24.1174 232.847 24.5076 232.188 24.8182C231.536 25.1288 230.741 25.2841 229.801 25.2841ZM231.335 21.4318C232.116 21.4318 232.775 21.2197 233.312 20.7955C233.858 20.3636 234.275 19.7614 234.562 18.9886C234.858 18.2159 235.006 17.3106 235.006 16.2727C235.006 15.2348 234.862 14.3333 234.574 13.5682C234.286 12.803 233.869 12.2121 233.324 11.7955C232.778 11.3788 232.116 11.1705 231.335 11.1705C230.54 11.1705 229.869 11.3864 229.324 11.8182C228.778 12.25 228.366 12.8485 228.085 13.6136C227.805 14.3788 227.665 15.2652 227.665 16.2727C227.665 17.2879 227.805 18.1856 228.085 18.9659C228.373 19.7386 228.786 20.3447 229.324 20.7841C229.869 21.2159 230.54 21.4318 231.335 21.4318ZM258.236 12.5227L253.804 12.7955C253.728 12.4167 253.565 12.0758 253.315 11.7727C253.065 11.4621 252.736 11.2159 252.327 11.0341C251.925 10.8447 251.444 10.75 250.884 10.75C250.134 10.75 249.501 10.9091 248.986 11.2273C248.471 11.5379 248.213 11.9545 248.213 12.4773C248.213 12.8939 248.38 13.2462 248.713 13.5341C249.046 13.822 249.618 14.053 250.429 14.2273L253.588 14.8636C255.285 15.2121 256.55 15.7727 257.384 16.5455C258.217 17.3182 258.634 18.3333 258.634 19.5909C258.634 20.7348 258.296 21.7386 257.622 22.6023C256.955 23.4659 256.039 24.1402 254.872 24.625C253.713 25.1023 252.376 25.3409 250.861 25.3409C248.55 25.3409 246.709 24.8598 245.338 23.8977C243.974 22.928 243.175 21.6098 242.94 19.9432L247.702 19.6932C247.846 20.3977 248.194 20.9356 248.747 21.3068C249.3 21.6705 250.009 21.8523 250.872 21.8523C251.721 21.8523 252.402 21.6894 252.918 21.3636C253.44 21.0303 253.705 20.6023 253.713 20.0795C253.705 19.6402 253.52 19.2803 253.156 19C252.793 18.7121 252.232 18.4924 251.474 18.3409L248.452 17.7386C246.747 17.3977 245.478 16.8068 244.645 15.9659C243.819 15.125 243.406 14.053 243.406 12.75C243.406 11.6288 243.709 10.6629 244.315 9.85227C244.929 9.04167 245.789 8.41667 246.895 7.97727C248.009 7.53788 249.312 7.31818 250.804 7.31818C253.009 7.31818 254.743 7.78409 256.009 8.71591C257.281 9.64773 258.024 10.9167 258.236 12.5227ZM269.179 25V1.72727H278.497C280.209 1.72727 281.637 1.98106 282.781 2.48864C283.925 2.99621 284.785 3.70076 285.361 4.60227C285.937 5.49621 286.224 6.52652 286.224 7.69318C286.224 8.60227 286.043 9.40152 285.679 10.0909C285.315 10.7727 284.815 11.3333 284.179 11.7727C283.55 12.2045 282.83 12.5114 282.02 12.6932V12.9205C282.906 12.9583 283.736 13.2083 284.509 13.6705C285.289 14.1326 285.921 14.7803 286.406 15.6136C286.891 16.4394 287.134 17.4242 287.134 18.5682C287.134 19.803 286.827 20.9053 286.213 21.875C285.607 22.8371 284.709 23.5985 283.52 24.1591C282.33 24.7197 280.865 25 279.122 25H269.179ZM274.099 20.9773H278.111C279.482 20.9773 280.482 20.7159 281.111 20.1932C281.74 19.6629 282.054 18.9583 282.054 18.0795C282.054 17.4356 281.899 16.8674 281.588 16.375C281.277 15.8826 280.834 15.4962 280.259 15.2159C279.69 14.9356 279.012 14.7955 278.224 14.7955H274.099V20.9773ZM274.099 11.4659H277.747C278.421 11.4659 279.02 11.3485 279.543 11.1136C280.073 10.8712 280.49 10.5303 280.793 10.0909C281.103 9.65152 281.259 9.125 281.259 8.51136C281.259 7.67045 280.959 6.99242 280.361 6.47727C279.77 5.96212 278.929 5.70454 277.838 5.70454H274.099V11.4659ZM295.222 25.3295C294.108 25.3295 293.116 25.1364 292.244 24.75C291.373 24.3561 290.684 23.7765 290.176 23.0114C289.676 22.2386 289.426 21.2765 289.426 20.125C289.426 19.1553 289.604 18.3409 289.96 17.6818C290.316 17.0227 290.801 16.4924 291.415 16.0909C292.028 15.6894 292.725 15.3864 293.506 15.1818C294.294 14.9773 295.119 14.8333 295.983 14.75C296.998 14.6439 297.816 14.5455 298.438 14.4545C299.059 14.3561 299.509 14.2121 299.79 14.0227C300.07 13.8333 300.21 13.553 300.21 13.1818V13.1136C300.21 12.3939 299.983 11.8371 299.528 11.4432C299.081 11.0492 298.445 10.8523 297.619 10.8523C296.748 10.8523 296.055 11.0455 295.54 11.4318C295.025 11.8106 294.684 12.2879 294.517 12.8636L290.04 12.5C290.267 11.4394 290.714 10.5227 291.381 9.75C292.047 8.9697 292.907 8.37121 293.96 7.95454C295.021 7.5303 296.248 7.31818 297.642 7.31818C298.612 7.31818 299.54 7.43182 300.426 7.65909C301.32 7.88636 302.112 8.23864 302.801 8.71591C303.498 9.19318 304.047 9.80682 304.449 10.5568C304.85 11.2992 305.051 12.1894 305.051 13.2273V25H300.46V22.5795H300.324C300.044 23.125 299.669 23.6061 299.199 24.0227C298.729 24.4318 298.165 24.7538 297.506 24.9886C296.847 25.2159 296.085 25.3295 295.222 25.3295ZM296.608 21.9886C297.32 21.9886 297.949 21.8485 298.494 21.5682C299.04 21.2803 299.468 20.8939 299.778 20.4091C300.089 19.9242 300.244 19.375 300.244 18.7614V16.9091C300.093 17.0076 299.884 17.0985 299.619 17.1818C299.362 17.2576 299.07 17.3295 298.744 17.3977C298.419 17.4583 298.093 17.5152 297.767 17.5682C297.441 17.6136 297.146 17.6553 296.881 17.6932C296.313 17.7765 295.816 17.9091 295.392 18.0909C294.968 18.2727 294.638 18.5189 294.403 18.8295C294.169 19.1326 294.051 19.5114 294.051 19.9659C294.051 20.625 294.29 21.1288 294.767 21.4773C295.252 21.8182 295.866 21.9886 296.608 21.9886ZM313.648 14.9091V25H308.807V7.54545H313.42V10.625H313.625C314.011 9.60985 314.659 8.80682 315.568 8.21591C316.477 7.61742 317.58 7.31818 318.875 7.31818C320.087 7.31818 321.144 7.58333 322.045 8.11364C322.947 8.64394 323.648 9.40151 324.148 10.3864C324.648 11.3636 324.898 12.5303 324.898 13.8864V25H320.057V14.75C320.064 13.6818 319.792 12.8485 319.239 12.25C318.686 11.6439 317.924 11.3409 316.955 11.3409C316.303 11.3409 315.727 11.4811 315.227 11.7614C314.735 12.0417 314.348 12.4508 314.068 12.9886C313.795 13.5189 313.655 14.1591 313.648 14.9091ZM333.099 19.9773L333.111 14.1705H333.815L339.406 7.54545H344.963L337.452 16.3182H336.304L333.099 19.9773ZM328.713 25V1.72727H333.554V25H328.713ZM339.622 25L334.486 17.3977L337.713 13.9773L345.293 25H339.622ZM354.835 25V1.72727H359.756V20.9432H369.733V25H354.835ZM381.466 7.54545V11.1818H370.955V7.54545H381.466ZM373.341 3.36364H378.182V19.6364C378.182 20.0833 378.25 20.4318 378.386 20.6818C378.523 20.9242 378.712 21.0947 378.955 21.1932C379.205 21.2917 379.492 21.3409 379.818 21.3409C380.045 21.3409 380.273 21.322 380.5 21.2841C380.727 21.2386 380.902 21.2045 381.023 21.1818L381.784 24.7841C381.542 24.8598 381.201 24.947 380.761 25.0455C380.322 25.1515 379.788 25.2159 379.159 25.2386C377.992 25.2841 376.97 25.1288 376.091 24.7727C375.22 24.4167 374.542 23.8636 374.057 23.1136C373.572 22.3636 373.333 21.4167 373.341 20.2727V3.36364ZM390.864 25.2841C389.538 25.2841 388.337 24.9432 387.261 24.2614C386.193 23.572 385.345 22.5606 384.716 21.2273C384.095 19.8864 383.784 18.2424 383.784 16.2955C383.784 14.2955 384.106 12.6326 384.75 11.3068C385.394 9.97348 386.25 8.97727 387.318 8.31818C388.394 7.65152 389.572 7.31818 390.852 7.31818C391.83 7.31818 392.644 7.48485 393.295 7.81818C393.955 8.14394 394.485 8.55303 394.886 9.04545C395.295 9.5303 395.606 10.0076 395.818 10.4773H395.966V1.72727H400.795V25H396.023V22.2045H395.818C395.591 22.6894 395.269 23.1705 394.852 23.6477C394.443 24.1174 393.909 24.5076 393.25 24.8182C392.598 25.1288 391.803 25.2841 390.864 25.2841ZM392.398 21.4318C393.178 21.4318 393.837 21.2197 394.375 20.7955C394.92 20.3636 395.337 19.7614 395.625 18.9886C395.92 18.2159 396.068 17.3106 396.068 16.2727C396.068 15.2348 395.924 14.3333 395.636 13.5682C395.348 12.803 394.932 12.2121 394.386 11.7955C393.841 11.3788 393.178 11.1705 392.398 11.1705C391.602 11.1705 390.932 11.3864 390.386 11.8182C389.841 12.25 389.428 12.8485 389.148 13.6136C388.867 14.3788 388.727 15.2652 388.727 16.2727C388.727 17.2879 388.867 18.1856 389.148 18.9659C389.436 19.7386 389.848 20.3447 390.386 20.7841C390.932 21.2159 391.602 21.4318 392.398 21.4318ZM407.605 25.2955C406.855 25.2955 406.211 25.0303 405.673 24.5C405.143 23.9621 404.878 23.3182 404.878 22.5682C404.878 21.8258 405.143 21.1894 405.673 20.6591C406.211 20.1288 406.855 19.8636 407.605 19.8636C408.332 19.8636 408.969 20.1288 409.514 20.6591C410.06 21.1894 410.332 21.8258 410.332 22.5682C410.332 23.0682 410.204 23.5265 409.946 23.9432C409.696 24.3523 409.366 24.6818 408.957 24.9318C408.548 25.1742 408.098 25.2955 407.605 25.2955Z" fill="white"/>
</svg>
