<svg width="20" height="20" viewBox="0 0 20 20" fill="none" xmlns="http://www.w3.org/2000/svg">
<g clip-path="url(#clip0_2084_1366)">
<path d="M17.8617 13.8977V19.5835H2.13672V13.8977C2.13672 13.8977 5.15922 12.0835 9.99922 12.0835C14.8376 12.0835 17.8617 13.8977 17.8617 13.8977Z" stroke="white"/>
<path d="M5.80161 6.63324C5.8025 5.51004 6.24936 4.43315 7.04398 3.63932C7.83859 2.84549 8.91591 2.39968 10.0391 2.3999C10.5949 2.39968 11.1453 2.50906 11.6588 2.72178C12.1722 2.9345 12.6387 3.24638 13.0316 3.63958C13.4244 4.03278 13.7358 4.49958 13.948 5.01327C14.1602 5.52695 14.269 6.07744 14.2683 6.63324C14.2683 9.8749 10.1233 12.0774 10.1233 12.0774H9.94495C9.94495 12.0774 5.80161 9.8749 5.80161 6.63324Z" stroke="white"/>
</g>
<defs>
<clipPath id="clip0_2084_1366">
<rect width="20" height="20" fill="white"/>
</clipPath>
</defs>
</svg>
