<svg width="76" height="75" viewBox="0 0 76 75" fill="none" xmlns="http://www.w3.org/2000/svg">
<path d="M70.341 62.3775C70.341 53.8003 66.9338 45.5744 60.8687 39.5094C54.8036 33.4444 46.5778 30.0371 38.0006 30.0371C29.4233 30.0371 21.1974 33.4444 15.1325 39.5094C9.06744 45.5744 5.66016 53.8003 5.66016 62.3775C5.66016 64.3567 6.44645 66.2554 7.84607 67.655C9.24566 69.0546 11.144 69.8407 13.1233 69.8407H62.8778C64.857 69.8407 66.7557 69.0546 68.1552 67.655C69.5548 66.2554 70.341 64.3567 70.341 62.3775Z" stroke="white" stroke-width="2" stroke-linecap="round" stroke-linejoin="round"/>
<path d="M47.9506 7.64746C47.9506 10.2866 46.9022 12.8176 45.036 14.6838C43.1699 16.55 40.6388 17.5984 37.9997 17.5984C35.3606 17.5984 32.8295 16.55 30.9634 14.6838C29.0972 12.8176 28.0488 10.2866 28.0488 7.64746" stroke="white" stroke-width="2" stroke-linecap="round" stroke-linejoin="round"/>
<path d="M6.35742 30.7335C14.7535 22.3479 26.1348 17.6377 38.0012 17.6377C49.8677 17.6377 61.249 22.3479 69.645 30.7335" stroke="white" stroke-width="2" stroke-linecap="round" stroke-linejoin="round"/>
</svg>
