<svg width="51" height="51" viewBox="0 0 51 51" fill="none" xmlns="http://www.w3.org/2000/svg">
<path d="M42.0845 37.1092V43.7432C42.0845 44.6228 41.7349 45.4667 41.113 46.0886C40.4911 46.7105 39.6472 47.0601 38.7676 47.0601H7.25642C6.37669 47.0601 5.53302 46.7105 4.91097 46.0886C4.28892 45.4667 3.93945 44.6228 3.93945 43.7432V18.8659C3.93945 13.3702 8.39463 8.91504 13.8903 8.91504H35.4506V17.2074" stroke="black" stroke-width="1.71" stroke-linecap="round" stroke-linejoin="round"/>
<path d="M45.4007 27.1582H33.7913C32.8753 27.1582 32.1328 27.9007 32.1328 28.8167V35.4506C32.1328 36.3664 32.8753 37.1091 33.7913 37.1091H45.4007C46.3165 37.1091 47.0592 36.3664 47.0592 35.4506V28.8167C47.0592 27.9007 46.3165 27.1582 45.4007 27.1582Z" stroke="black" stroke-width="1.71" stroke-linecap="round" stroke-linejoin="round"/>
<path d="M42.0848 27.1584V20.5245C42.0848 19.6448 41.7352 18.8011 41.1133 18.179C40.4914 17.557 39.6475 17.2075 38.7679 17.2075H13.8906" stroke="black" stroke-width="1.71" stroke-linecap="round" stroke-linejoin="round"/>
</svg>
