<svg width="51" height="51" viewBox="0 0 51 51" fill="none" xmlns="http://www.w3.org/2000/svg">
<path d="M48.154 39.2608H45.7259V12.2809L48.324 11.7245C48.9356 11.6057 49.1893 10.8694 48.7806 10.3991C48.5834 10.1722 48.2767 10.0733 47.984 10.1422L2.66013 19.8545C2.0511 19.9859 1.81271 20.7273 2.23103 21.189C2.38429 21.3582 2.60184 21.4548 2.8301 21.455C2.88723 21.4548 2.94418 21.4487 3.00005 21.4368L5.25816 20.9532V39.2608H2.8301C2.20705 39.2608 1.81765 39.9353 2.12917 40.4748C2.27374 40.7252 2.54093 40.8795 2.8301 40.8795H48.154C48.777 40.8795 49.1665 40.205 48.8549 39.6655C48.7104 39.4151 48.4432 39.2608 48.154 39.2608ZM6.87687 20.6072L44.1072 12.6289V39.2608H37.6324V27.1205C37.6324 26.6735 37.27 26.3111 36.823 26.3111H14.1611C13.7141 26.3111 13.3517 26.6735 13.3517 27.1205V39.2608H6.87687V20.6072ZM36.0137 32.786H14.9704V27.9298H36.0137V32.786ZM14.9704 34.4047H36.0137V39.2608H14.9704V34.4047Z" fill="black"/>
</svg>
